<svg xmlns="http://www.w3.org/2000/svg" viewBox="0 0 218 41" version="1.1"><g stroke="none" stroke-width="1" fill="none" fill-rule="evenodd"><path d="M25.9 3.2C25.3 1.3 23.3 0.3 21.4 0.9 19.5 1.5 18.5 3.5 19.1 5.4L28.3 33.7C28.9 35.4 30.8 36.4 32.6 35.9 34.5 35.4 35.6 33.3 35 31.5 35.1 31.4 25.9 3.2 25.9 3.2L25.9 3.2Z" fill="#E8A723"/><path d="M11.6 7.8C11 5.9 9 4.9 7.1 5.5 5.2 6.1 4.2 8.1 4.8 10L14 38.3C14.6 40 16.5 41 18.3 40.5 20.2 40 21.3 37.9 20.7 36.1 20.8 36.1 11.6 7.8 11.6 7.8L11.6 7.8Z" fill="#3EB890"/><path d="M37.5 26.6C39.4 26 40.4 24 39.8 22.1 39.2 20.2 37.2 19.2 35.3 19.8L7 29.1C5.3 29.7 4.3 31.6 4.8 33.4 5.3 35.3 7.4 36.4 9.2 35.8L37.5 26.6 37.5 26.6Z" fill="#E01765"/><path d="M12.9 34.6C14.7 34 17.1 33.2 19.7 32.4 19.1 30.6 18.3 28.2 17.5 25.6L10.7 27.8 12.9 34.6 12.9 34.6Z" fill="#472A49"/><path d="M27.1 30C29.7 29.2 32 28.4 33.9 27.8 33.3 26 32.5 23.6 31.7 21L24.9 23.2 27.1 30 27.1 30Z" fill="#CC2027"/><path d="M32.9 12.4C34.8 11.8 35.8 9.8 35.2 7.9 34.6 6 32.6 5 30.7 5.6L2.4 14.8C0.7 15.4-0.3 17.3 0.2 19.1 0.7 21 2.8 22.1 4.6 21.5 4.6 21.6 32.9 12.4 32.9 12.4L32.9 12.4Z" fill="#70CADB"/><path d="M8.2 20.4C10 19.8 12.4 19 15 18.2 14.2 15.6 13.4 13.3 12.8 11.4L6 13.6 8.2 20.4 8.2 20.4Z" fill="#1A937D"/><path d="M22.5 15.7C25.1 14.9 27.4 14.1 29.3 13.5 28.5 10.9 27.7 8.6 27.1 6.7L20.3 9 22.5 15.7 22.5 15.7Z" fill="#65863A"/><path d="M74.8 30.2L71.8 30.2C71.5 30.2 71.2 30.1 71 29.9 70.8 29.7 70.6 29.5 70.5 29.3L68.9 25 60.2 25 58.6 29.3C58.5 29.5 58.4 29.7 58.2 29.9 58 30.1 57.7 30.2 57.4 30.2L54.4 30.2 62.7 9.2 66.7 9.2 74.8 30.2 74.8 30.2ZM67.9 22.3L65.3 15.3C65.2 15 65 14.6 64.9 14.2 64.8 13.8 64.6 13.3 64.5 12.8 64.4 13.3 64.2 13.8 64.1 14.2 64 14.6 63.8 15 63.7 15.3L61.2 22.2 67.9 22.2 67.9 22.3ZM89 8.6L89 30.1 86.8 30.1C86.3 30.1 86 29.9 85.9 29.4L85.6 28C85 28.7 84.3 29.2 83.5 29.7 82.7 30.1 81.8 30.3 80.8 30.3 80 30.3 79.2 30.1 78.6 29.8 78 29.5 77.3 29 76.9 28.3 76.4 27.7 76 26.9 75.8 25.9 75.5 25 75.4 23.9 75.4 22.7 75.4 21.6 75.5 20.6 75.8 19.6 76.1 18.7 76.5 17.8 77.1 17.1 77.7 16.4 78.3 15.9 79.1 15.5 79.9 15.1 80.8 14.9 81.7 14.9 82.5 14.9 83.2 15 83.8 15.3 84.4 15.6 84.9 15.9 85.4 16.4L85.4 8.6 89 8.6 89 8.6ZM85.4 19.1C85 18.6 84.6 18.3 84.1 18.1 83.6 17.9 83.1 17.8 82.6 17.8 82.1 17.8 81.6 17.9 81.1 18.1 80.6 18.3 80.3 18.6 80 19 79.7 19.4 79.5 19.9 79.3 20.6 79.1 21.2 79.1 22 79.1 22.8 79.1 23.7 79.2 24.4 79.3 25 79.4 25.6 79.6 26.1 79.9 26.5 80.2 26.9 80.5 27.2 80.9 27.3 81.3 27.5 81.7 27.6 82.2 27.6 82.9 27.6 83.6 27.4 84.1 27.1 84.6 26.8 85.1 26.4 85.6 25.8L85.6 19.1 85.4 19.1ZM105.4 8.6L105.4 30.1 103.2 30.1C102.7 30.1 102.4 29.9 102.3 29.4L102 28C101.4 28.7 100.7 29.2 99.9 29.7 99.1 30.1 98.2 30.3 97.2 30.3 96.4 30.3 95.6 30.1 95 29.8 94.4 29.5 93.7 29 93.3 28.3 92.8 27.7 92.4 26.9 92.2 25.9 91.9 25 91.8 23.9 91.8 22.7 91.8 21.6 91.9 20.6 92.2 19.6 92.5 18.7 92.9 17.8 93.5 17.1 94.1 16.4 94.7 15.9 95.5 15.5 96.3 15.1 97.2 14.9 98.1 14.9 98.9 14.9 99.6 15 100.2 15.3 100.8 15.6 101.3 15.9 101.8 16.4L101.8 8.6 105.4 8.6 105.4 8.6ZM101.9 19.1C101.5 18.6 101.1 18.3 100.6 18.1 100.1 17.9 99.6 17.8 99.1 17.8 98.6 17.8 98.1 17.9 97.6 18.1 97.1 18.3 96.8 18.6 96.5 19 96.2 19.4 96 19.9 95.8 20.6 95.6 21.2 95.6 22 95.6 22.8 95.6 23.7 95.7 24.4 95.8 25 95.9 25.6 96.1 26.1 96.4 26.5 96.7 26.9 97 27.2 97.4 27.3 97.8 27.5 98.2 27.6 98.7 27.6 99.4 27.6 100.1 27.4 100.6 27.1 101.1 26.8 101.6 26.4 102.1 25.8L102.1 19.1 101.9 19.1ZM121 30.4C119.7 30.4 118.7 30 118 29.3 117.3 28.6 117 27.6 117 26.3L117 18 115.5 18C115.3 18 115.1 17.9 115 17.8 114.9 17.7 114.8 17.5 114.8 17.2L114.8 15.8 117.2 15.4 118 11.3C118 11.1 118.1 11 118.3 10.9 118.4 10.8 118.6 10.7 118.8 10.7L120.7 10.7 120.7 15.4 124.7 15.4 124.7 18 120.7 18 120.7 26.1C120.7 26.6 120.8 26.9 121 27.2 121.2 27.5 121.5 27.6 121.9 27.6 122.1 27.6 122.3 27.6 122.5 27.5 122.6 27.4 122.8 27.4 122.9 27.3 123 27.2 123.1 27.2 123.2 27.1 123.3 27 123.4 27 123.5 27 123.6 27 123.7 27 123.8 27.1L124 27.3 125.1 29C124.6 29.4 124 29.8 123.3 30 122.4 30.3 121.7 30.4 121 30.4L121 30.4ZM133.3 15.1C134.4 15.1 135.4 15.3 136.3 15.6 137.2 16 138 16.5 138.6 17.1 139.2 17.7 139.7 18.6 140.1 19.5 140.4 20.4 140.6 21.5 140.6 22.7 140.6 23.9 140.4 24.9 140.1 25.9 139.8 26.9 139.3 27.7 138.6 28.3 137.9 28.9 137.2 29.5 136.3 29.8 135.4 30.2 134.4 30.3 133.3 30.3 132.2 30.3 131.2 30.1 130.3 29.8 129.4 29.4 128.6 28.9 128 28.3 127.4 27.7 126.9 26.8 126.5 25.9 126.1 25 126 23.9 126 22.7 126 21.5 126.2 20.5 126.5 19.5 126.9 18.6 127.4 17.8 128 17.1 128.6 16.4 129.4 15.9 130.3 15.6 131.2 15.3 132.2 15.1 133.3 15.1L133.3 15.1ZM133.3 27.7C134.5 27.7 135.5 27.3 136 26.5 136.6 25.7 136.9 24.5 136.9 22.8 136.9 21.1 136.6 20 136 19.1 135.4 18.3 134.5 17.8 133.3 17.8 132 17.8 131.1 18.2 130.5 19.1 129.9 20 129.6 21.2 129.6 22.8 129.6 24.4 129.9 25.6 130.5 26.4 131.1 27.2 132 27.7 133.3 27.7L133.3 27.7ZM162.7 13.4C162.6 13.6 162.4 13.8 162.2 13.9 162 14 161.8 14.1 161.6 14.1 161.4 14.1 161.1 14 160.9 13.9 160.6 13.8 160.4 13.6 160 13.4 159.7 13.2 159.3 13.1 158.9 12.9 158.5 12.7 158 12.7 157.5 12.7 156.6 12.7 155.9 12.9 155.4 13.3 155 13.7 154.7 14.2 154.7 14.9 154.7 15.3 154.8 15.7 155.1 16 155.4 16.3 155.7 16.5 156.2 16.7 156.6 16.9 157.1 17.1 157.7 17.3 158.3 17.5 158.8 17.7 159.4 17.9 160 18.1 160.6 18.4 161.1 18.6 161.7 18.9 162.2 19.2 162.6 19.7 163 20.1 163.4 20.7 163.7 21.3 164 21.9 164.1 22.7 164.1 23.6 164.1 24.6 163.9 25.5 163.6 26.3 163.3 27.2 162.8 27.9 162.1 28.5 161.4 29.1 160.7 29.6 159.7 30 158.8 30.4 157.7 30.5 156.5 30.5 155.8 30.5 155.2 30.4 154.5 30.3 153.8 30.2 153.2 30 152.5 29.7 151.9 29.5 151.3 29.2 150.7 28.8 150.1 28.5 149.7 28.1 149.2 27.7L150.7 25.4C150.8 25.2 151 25.1 151.2 25 151.4 24.9 151.6 24.8 151.8 24.8 152.1 24.8 152.4 24.9 152.7 25.1 153 25.3 153.3 25.5 153.7 25.7 154.1 25.9 154.5 26.1 155 26.3 155.5 26.5 156.1 26.6 156.7 26.6 157.6 26.6 158.3 26.4 158.8 26 159.3 25.6 159.5 25 159.5 24.1 159.5 23.6 159.4 23.2 159.1 22.9 158.8 22.6 158.5 22.3 158 22.1 157.6 21.9 157.1 21.7 156.5 21.6 155.9 21.4 155.4 21.3 154.8 21.1 154.2 20.9 153.6 20.7 153.1 20.4 152.6 20.1 152 19.8 151.6 19.3 151.2 18.9 150.8 18.3 150.5 17.6 150.2 16.9 150.1 16.1 150.1 15.1 150.1 14.3 150.3 13.5 150.6 12.8 150.9 12 151.4 11.4 152 10.8 152.6 10.2 153.4 9.7 154.3 9.4 155.2 9.1 156.2 8.9 157.4 8.9 158 8.9 158.7 9 159.3 9.1 159.9 9.2 160.5 9.4 161 9.5 161.6 9.7 162.1 9.9 162.5 10.2 163 10.5 163.4 10.8 163.8 11.1L162.7 13.4 162.7 13.4ZM170.9 8.5L170.9 30.2 166.4 30.2 166.4 8.5 170.9 8.5 170.9 8.5ZM173.6 17.2C174.5 16.4 175.5 15.8 176.6 15.4 177.7 15 178.9 14.8 180.2 14.8 181.1 14.8 181.9 14.9 182.7 15.2 183.4 15.5 184 15.9 184.6 16.4 185.1 16.9 185.5 17.6 185.8 18.3 186.1 19 186.2 19.8 186.2 20.7L186.2 30.1 184.1 30.1C183.7 30.1 183.4 30 183.1 29.9 182.9 29.8 182.7 29.5 182.6 29.2L182.3 28.4C181.9 28.7 181.6 29 181.2 29.2 180.8 29.4 180.5 29.6 180.1 29.8 179.7 30 179.3 30.1 178.9 30.2 178.5 30.3 178 30.3 177.5 30.3 176.8 30.3 176.2 30.2 175.6 30 175 29.8 174.6 29.6 174.2 29.2 173.8 28.9 173.5 28.4 173.3 27.9 173.1 27.4 173 26.8 173 26.1 173 25.6 173.1 25 173.4 24.5 173.7 23.9 174.1 23.4 174.8 23 175.5 22.5 176.4 22.2 177.5 21.8 178.6 21.5 180.1 21.3 181.8 21.3L181.8 20.7C181.8 19.8 181.6 19.2 181.3 18.8 181 18.4 180.4 18.2 179.8 18.2 179.3 18.2 178.8 18.3 178.5 18.4 178.2 18.5 177.9 18.6 177.6 18.8 177.3 19 177.1 19.1 176.8 19.2 176.5 19.3 176.2 19.4 175.9 19.4 175.6 19.4 175.3 19.3 175.1 19.2 174.9 19 174.7 18.9 174.6 18.6L173.6 17.2 173.6 17.2ZM181.7 24.1C180.8 24.1 180.1 24.2 179.5 24.3 178.9 24.4 178.5 24.6 178.1 24.7 177.8 24.9 177.5 25.1 177.4 25.3 177.3 25.5 177.2 25.8 177.2 26 177.2 26.5 177.3 26.9 177.6 27.1 177.9 27.3 178.3 27.4 178.8 27.4 179.4 27.4 179.9 27.3 180.3 27.1 180.7 26.9 181.2 26.6 181.6 26.1L181.6 24.1 181.7 24.1ZM200 18.7C199.9 18.9 199.7 19 199.6 19.1 199.5 19.2 199.3 19.2 199.1 19.2 198.9 19.2 198.7 19.1 198.5 19 198.3 18.9 198.1 18.8 197.9 18.6 197.7 18.5 197.4 18.4 197.1 18.2 196.8 18.1 196.4 18 196 18 195.4 18 195 18.1 194.6 18.3 194.2 18.5 193.9 18.8 193.6 19.2 193.3 19.6 193.1 20 193 20.6 192.9 21.1 192.8 21.8 192.8 22.4 192.8 23.8 193.1 24.9 193.6 25.7 194.2 26.5 194.9 26.9 195.9 26.9 196.4 26.9 196.8 26.8 197.1 26.7 197.4 26.6 197.7 26.4 197.9 26.3 198.1 26.1 198.3 26 198.5 25.9 198.7 25.8 198.9 25.7 199.2 25.7 199.6 25.7 199.8 25.8 200 26.1L201.3 27.7C200.8 28.2 200.3 28.7 199.8 29 199.3 29.3 198.8 29.6 198.2 29.8 197.6 30 197.1 30.1 196.6 30.2 196.1 30.3 195.5 30.3 195 30.3 194.1 30.3 193.2 30.1 192.4 29.8 191.6 29.5 190.8 28.9 190.2 28.3 189.6 27.7 189.1 26.8 188.7 25.9 188.3 24.9 188.1 23.8 188.1 22.6 188.1 21.5 188.3 20.5 188.6 19.6 188.9 18.7 189.4 17.8 190 17.1 190.6 16.4 191.4 15.9 192.3 15.5 193.2 15.1 194.3 14.9 195.5 14.9 196.7 14.9 197.7 15.1 198.6 15.5 199.5 15.9 200.3 16.4 201 17.2L200 18.7 200 18.7ZM207.6 8.5L207.6 20.7 208.3 20.7C208.6 20.7 208.8 20.7 208.9 20.6 209 20.5 209.2 20.4 209.3 20.2L212.1 16C212.3 15.8 212.5 15.6 212.7 15.5 212.9 15.4 213.2 15.3 213.6 15.3L217.7 15.3 213.8 20.7C213.4 21.2 213 21.6 212.5 21.9L213.1 22.5C213.3 22.7 213.5 23 213.6 23.2L217.8 30.4 213.7 30.4C213.4 30.4 213.1 30.3 212.8 30.2 212.6 30.1 212.4 29.9 212.2 29.6L209.4 24.3C209.3 24.1 209.1 23.9 209 23.8 208.9 23.7 208.6 23.7 208.3 23.7L207.4 23.7 207.4 30.4 202.9 30.4 202.9 8.5 207.6 8.5 207.6 8.5Z" fill="#3C444C"/></g></svg>