<svg xmlns="http://www.w3.org/2000/svg" id="bugbot-logo" viewBox="0 0 327.2 110.3">
  <style>
    .bugbot-logo-0{fill:#FFFFFF;}
  </style>
  <path d="M41.5 41.4c6.4 2.6 14.3 8.5 14.3 19.4C55.8 74.3 45.4 84 30.5 84H2.3C1 84 0 82.9 0 81.7V2.3C0 1.1 1 0 2.3 0h26.5c14.6 0 24.4 9.5 24.4 22.1 0 9.7-6.1 15.7-11.6 19.1v.2zM29.9 76c9.7 0 15.8-6.6 15.8-15.2 0-8.5-7.2-14.8-16.3-14.8H8.8v30h21.1zm-2.7-38.3c9.8 0 15.7-6.6 15.7-15C43 14 37.1 8.3 27.2 8.3H9v29.4h18.2zm35.4-6.5c0-1.3 1.1-2.6 2.6-2.6h3.6c1.4 0 2.6 1.3 2.6 2.6v30c0 11 3.6 16.1 11.6 16.1 8.3 0 13.2-5.2 15.7-8v-38c0-1.3 1.1-2.6 2.5-2.6h3.7c1.3 0 2.5 1.3 2.5 2.6v50.2c0 1.4-1.2 2.6-2.5 2.6H103c-1.6 0-2.2-1-2.5-2.4l-1.1-3.5c-2 2.2-7.2 7.2-17.2 7.2-16 0-19.8-9.6-19.8-24.2v-30zm103.6 53.2c0 19-11.6 25.9-24.2 25.9-8.8 0-16.4-4.6-19.3-7.2-1-.8-1.2-2.4-.6-3.2l2.4-3.5c.8-1.3 2.3-1.3 3.6-.1 3 2.5 7.8 5.9 13.9 5.9 8.8 0 15.5-4.8 15.5-17.8v-4s-6.2 4.9-15.4 4.9c-15.2 0-26.3-12.8-26.3-29 0-15.8 10.8-28.9 25.9-28.9 10 0 16.6 5.6 16.6 5.6l.8-2.5c.6-1.1 1.2-1.9 2.6-1.9h1.7c1.4 0 2.8 1.3 2.8 2.6v53.2zm-22.9-7.2c7.7 0 14-4.6 14-4.6V42.2s-5.6-6.7-14.6-6.7c-11 0-17.9 9.8-17.9 20.6 0 12.1 7.9 21.1 18.5 21.1zm31.6-74.6c0-1.3 1.1-2.6 2.5-2.6h3.6c1.3 0 2.6 1.3 2.6 2.6v28.2s6.1-3.5 15.4-3.5c16.6 0 26.2 12.6 26.2 28.8 0 15.8-10.7 29.2-24.8 29.2-11.3 0-17.5-7.2-17.5-7.2l-.7 3.6c-.2 1.3-1.1 2.3-2.4 2.3h-2.2c-1.4 0-2.6-1.2-2.6-2.6V2.6zm24.5 74.7c10.1 0 16.8-10.2 16.8-21 0-11-6.4-20.9-18.5-20.9-7.7 0-14 3.5-14 3.5v29.3s5.7 9.1 15.7 9.1zm59.3-49.9c15.4 0 27.8 13.2 27.8 28.8 0 15.8-12.5 29.2-27.8 29.2S230.8 72 230.8 56.2c0-15.6 12.5-28.8 27.9-28.8zm0 49.9c10.9 0 19-9.6 19-21.1 0-11.3-8-20.8-19-20.8s-19.1 9.5-19.1 20.8c0 11.5 8.2 21.1 19.1 21.1zm31.5-41.1c-1.7 0-2.8-1.2-2.8-2.6v-2.4c0-1.6 1.1-2.6 2.8-2.6h7.3V13.2c0-1.4 1.3-2.5 2.6-2.6l3.7-.2c1.4-.1 2.5 1.2 2.5 2.6v15.6h16.3c1.6 0 2.8 1.1 2.8 2.6v2.4c0 1.4-1.2 2.6-2.8 2.6h-16.3v33.1c0 5.8 1.8 7.9 4.9 7.9 5.2 0 8.6-2.2 10.9-3.6 2.2-1.3 2.9-.2 3.5 1.1l1.1 2.5c.7 1.8.5 2.6-1 3.6-2.4 1.7-8.2 4.4-15.6 4.4-10.6 0-12.7-6.7-12.7-15.4V36.2h-7.2z" class="bugbot-logo-0"/>
</svg>
