<svg xmlns="http://www.w3.org/2000/svg" id="Isolation_Mode" viewBox="0 0 253.5 88">
  <style>
    .st0{fill:#F1D5A5;} .st1{fill:#D64B84;}
  </style>
  <g id="Lines">
    <path d="M9.6 7.4c.5-.1 1-.4 1.4-.3 3 .5 8.3 2.7 12.8 5.4-2.1 1-3.4 1.1-5.4-.4-.9-.6-1.6-1.4-2.8-1.4-.2 0-.5-.1-.7-.3-1.4-1.6-3.3-2.2-5.4-2.3.1-.2.1-.5.1-.7z" class="st0"/>
    <path d="M15 56.2c-1.4.2-2.8.6-4.2.7-3.5.3-6.9.6-10.8.9.7-.4.9-.7 1.3-.8 4-1.3 8.1-2 12.2-2.4.8-.2 1.7.2 1.5 1.6z" class="st1"/>
    <path d="M253.5 39.8c-.3.4-.8.9-.9.9-1.1-.7-2.2-.2-3.2-.1-5.1.6-10.2 1.1-15.2 2.5-1.6.4-3.4.5-5.1.5-.3 0-.8-.5-1-.8-.1-.2.2-.8.4-.9.8-.4 1.6-.8 2.4-.8 5-.3 9.9-1.5 14.9-2.2 2.5-.3 5-.6 7.7.9z" class="st0"/>
    <path d="M236.8 84.4c-.5.2-.7.4-1 .4-3.6-2-5.2-3.1-7.6-3.7-.4-.3-1.7-.8-1.9-1.2-.1-.3-.2-.9 0-1.1.1-.2.7-.3 1-.2 3 1.8 6.1 3.7 9.5 5.8zM227 8.6c-1.3-.9-.8-1.7-.1-2.2 1.9-1.5 4-2.9 6-4.3l3-2.1c.9.2.9.8.5 1.3-.3.4-.7.7-1 1-2 1.7-3.9 3.4-5.9 5-.8.6-1.8.9-2.5 1.3z" class="st1"/>
    <path d="M40.5 79c-.2 1.2-1.1 1.9-2.1 2.3-3.8 1.7-7.2 4.2-10.7 6.5-.2.2-.5.1-.7.2-.4-.6.3-.9.5-1.1 3.8-2.8 7.6-5.5 11.4-8.2.5-.3 1.1-.4 1.6.3zM8.5 7.2c0 .1.1.2.1.3-.1 0-.3.1-.4.1 0-.1 0-.2.1-.3-.1-.1.1 0 .2-.1z" class="st0"/>
  </g>
</svg>
