<svg id="Layer_1" xmlns="http://www.w3.org/2000/svg" x="0px" y="0px" viewBox="0 0 289.7 85.3"><style>.github-logo-0{fill:#100E0F;} .github-logo-1{fill:#9EDAF1;} .github-logo-2{fill:#7FBCE7;} .github-logo-3{fill:#010101;} .github-logo-4{fill:#F4CBB3;} .github-logo-5{fill:#FFFFFF;} .github-logo-6{fill:#AE5D52;} .github-logo-7{fill:#C4E5D9;}</style><path class="github-logo-0" d="M144.2 39.2h-15.1c-.4 0-.7.3-.7.7v7.4c0 .4.3.7.7.7h5.9v9.2s-1.3.5-5 .5c-4.3 0-10.4-1.6-10.4-14.9s6.3-15 12.2-15c5.1 0 7.3.9 8.7 1.3.4.1.8-.3.8-.7l1.7-7.2c0-.2-.1-.4-.3-.6-.6-.4-4-2.3-12.8-2.3-10.1 0-20.5 4.3-20.5 25S121.3 67 131.3 67c8.3 0 13.3-3.5 13.3-3.5.2-.1.2-.4.2-.5V39.9c.1-.4-.2-.7-.6-.7zm78-18.4c0-.4-.3-.7-.7-.7H213c-.4 0-.7.3-.7.7v16.5H199V20.8c0-.4-.3-.7-.7-.7h-8.5c-.4 0-.7.3-.7.7v44.6c0 .4.3.7.7.7h8.5c.4 0 .7-.3.7-.7V46.3h13.3v19.1c0 .4.3.7.7.7h8.5c.4 0 .7-.3.7-.7V20.8zm-61.9 5.8c0-3.1-2.5-5.5-5.5-5.5s-5.5 2.5-5.5 5.5c0 3.1 2.5 5.6 5.5 5.6s5.5-2.5 5.5-5.6zm-.6 29.4V35.4c0-.4-.3-.7-.7-.7h-8.5c-.4 0-.7.4-.7.8V65c0 .9.5 1.1 1.2 1.1h7.7c.8 0 1-.4 1-1.1v-9zm94.9-21.3h-8.5c-.4 0-.7.3-.7.7v21.9s-2.1 1.6-5.2 1.6c-3 0-3.9-1.4-3.9-4.4V35.4c0-.4-.3-.7-.7-.7H227c-.4 0-.7.3-.7.7v20.5c0 8.9 4.9 11 11.7 11 5.6 0 10.1-3.1 10.1-3.1s.2 1.6.3 1.8c.1.2.3.4.6.4h5.5c.4 0 .7-.3.7-.7V35.4c.1-.3-.2-.7-.6-.7zm23.1-1c-4.8 0-8.1 2.1-8.1 2.1v-15c0-.4-.3-.7-.7-.7h-8.5c-.4 0-.7.3-.7.7v44.6c0 .4.3.7.7.7h5.9c.3 0 .5-.1.6-.4.1-.2.4-2.1.4-2.1s3.5 3.3 10.1 3.3c7.8 0 12.2-3.9 12.2-17.7.1-13.7-7.1-15.5-11.9-15.5zm-3.3 25.2c-2.9-.1-4.9-1.4-4.9-1.4V43.3s2-1.2 4.4-1.4c3-.3 6 .6 6 7.9-.1 7.7-1.4 9.2-5.5 9.1zm-90.2-24.2h-6.4v-8.4c0-.3-.2-.5-.5-.5h-8.7c-.3 0-.5.1-.5.5V35s-4.4 1.1-4.7 1.1c-.3.1-.5.4-.5.7v5.5c0 .4.3.7.7.7h4.5v13.2c0 9.8 6.9 10.8 11.5 10.8 2.1 0 4.7-.7 5.1-.8.3-.1.4-.4.4-.6v-6c0-.4-.3-.7-.7-.7-.4 0-1.3.2-2.3.2-3.1 0-4.2-1.5-4.2-3.4V43.2h6.4c.4 0 .7-.3.7-.7v-6.9c-.1-.6-.4-.9-.8-.9z"/><path id="puddle" class="github-logo-1" d="M77.8 75.8c0 5.3-12.2 9.5-27.3 9.5-15.1 0-27.3-4.3-27.3-9.5 0-5.3 12.2-9.5 27.3-9.5 15.1 0 27.3 4.2 27.3 9.5z"/><path class="github-logo-2" d="M43.2 85v-6.8c0-.9-.2-1.6-.4-2.2 1.8 1.4 1.9 4.8 1.9 4.8v4.4c1.6.1 3.2.2 4.9.2v-4.3c-.2-5.9-5.3-6.7-5.3-6.7-1.9-.4-1.8.5-1.6 1.1-1.8-3.1-6.7-2.7-6.7-2.7-1.7.6-.1 1.7-.1 1.7 2.7 1 2.9 3.9 2.9 3.9v6.1c1.2.1 2.8.3 4.4.5zm21.4-12.3s-4.9-.4-6.7 2.7c.2-.6.2-1.5-1.6-1.1 0 0-5.1.7-5.3 6.7v4.3c1.7 0 3.3-.1 4.9-.2v-4.4s.1-3.4 1.9-4.8c-.3.6-.4 1.4-.4 2.2V85c1.6-.1 3.1-.3 4.6-.6v-6.2s.2-2.9 2.9-3.9c-.2.1 1.4-1-.3-1.6z" id="shadow-legs"/><path id="cat" class="github-logo-3" d="M98.7 36.3l.1-.4c-8-1.6-16.2-1.6-21.2-1.4.8-2.9 1.1-6.3 1.1-10.1 0-5.4-2-9.7-5.3-13 .6-1.9 1.3-6-.8-11.3 0 0-3.7-1.2-12.2 4.5-3.3-.9-6.8-1.3-10.4-1.3-3.9 0-7.8.5-11.4 1.5C29.9-1.1 26 .1 26 .1c-2.5 6.3-1 10.9-.5 12.1-2.9 3.2-4.7 7.2-4.7 12.2 0 3.8.4 7.1 1.5 10.1-5-.2-12.9-.1-20.6 1.4l.1.4c7.8-1.6 15.7-1.6 20.7-1.4.2.6.5 1.2.8 1.8-4.9.2-13.3.8-21.4 3.1v.2c8.1-2.3 16.6-2.9 21.5-3 2.9 5.5 8.7 9 19 10.1-1.5 1-3 2.7-3.6 5.5-2 1-8.3 3.3-12.1-3.2 0 0-2.1-3.9-6.2-4.2 0 0-3.9-.1-.3 2.5 0 0 2.6 1.2 4.5 5.9 0 0 2.4 8 13.8 5.4v8.2s-.2 2.9-2.9 3.9c0 0-1.6 1.1.1 1.7 0 0 7.4.6 7.4-5.4v-9s-.3-3.6 1.5-4.8v14.7s-.1 3.5-1.9 4.8c0 0-1.2 2.2 1.5 1.6 0 0 5.1-.7 5.3-6.7l.1-14.9h1.2l.1 14.9c.2 5.9 5.3 6.7 5.3 6.7 2.7.6 1.5-1.6 1.5-1.6-1.8-1.3-1.9-4.8-1.9-4.8V53.6c1.7 1.4 1.5 4.7 1.5 4.7v9c0 6.1 7.4 5.4 7.4 5.4 1.7-.6.1-1.7.1-1.7-2.7-1-2.9-3.9-2.9-3.9V55.4c0-4.6-1.9-7-3.8-8.3C69 46 74.3 42.5 76.7 37c4.8.1 13.5.7 21.8 3.1l.1-.3c-8.2-2.3-16.9-2.9-21.7-3.1.2-.6.4-1.1.6-1.7 4.9-.3 13.2-.3 21.2 1.3z"/><path id="face" class="github-logo-4" d="M67.9 24.2c2.4 2.1 3.8 4.7 3.8 7.5 0 13-9.7 13.4-21.7 13.4s-21.7-1.8-21.7-13.4c0-2.8 1.4-5.3 3.7-7.5 3.9-3.6 10.5-1.7 18-1.7 7.4 0 14-1.9 17.9 1.7z"/><path id="eyes" class="github-logo-5" d="M42.7 32.3c0 3.6-2 6.5-4.5 6.5s-4.5-2.9-4.5-6.5 2-6.5 4.5-6.5 4.5 3 4.5 6.5zm24.3 0c0 3.6-2 6.5-4.5 6.5S58 35.9 58 32.3s2-6.5 4.5-6.5c2.4 0 4.5 3 4.5 6.5z"/><path id="pupils" class="github-logo-6" d="M41.3 32.4c0 2.4-1.3 4.3-3 4.3s-3-1.9-3-4.3 1.3-4.3 3-4.3c1.6 0 3 1.9 3 4.3zm24.2 0c0 2.4-1.3 4.3-3 4.3s-3-1.9-3-4.3 1.3-4.3 3-4.3 3 1.9 3 4.3z"/><circle id="nose" class="github-logo-6" cx="50" cy="38.1" r="1.1"/><path id="mouth" class="github-logo-6" d="M47.4 41c-.1-.2 0-.4.2-.5.2-.1.4 0 .5.2.3.8 1.1 1.4 1.9 1.4s1.6-.6 1.9-1.4c.1-.2.3-.3.5-.2.2.1.3.3.2.5-.4 1.1-1.4 1.9-2.6 1.9-1.2-.1-2.2-.8-2.6-1.9z"/><path id="octo" class="github-logo-7" d="M22.3 46.1c0 .3-.4.5-.8.5s-.8-.2-.8-.5.4-.5.8-.5c.5 0 .8.2.8.5zm2.2 1.2c0 .3-.4.5-.8.5s-.8-.2-.8-.5.4-.5.8-.5c.5 0 .8.2.8.5zm1.4 1.6c0 .3-.4.5-.8.5s-.8-.2-.8-.5.4-.5.8-.5.8.2.8.5zm1.2 1.8c0 .3-.4.5-.8.5s-.8-.2-.8-.5.4-.5.8-.5.8.2.8.5zm1.3 1.7c0 .3-.4.5-.8.5s-.8-.2-.8-.5.4-.5.8-.5.8.2.8.5zm1.8 1.5c0 .3-.4.5-.8.5s-.8-.2-.8-.5.4-.5.8-.5c.5-.1.8.2.8.5zm2.6 1c0 .3-.4.5-.8.5s-.8-.2-.8-.5.4-.5.8-.5c.4-.1.8.2.8.5zm2.5 0c0 .3-.4.5-.8.5s-.8-.2-.8-.5.4-.5.8-.5c.4-.1.8.2.8.5zm2.6-.5c0 .3-.4.5-.8.5s-.8-.2-.8-.5.4-.5.8-.5.8.2.8.5z"/><path id="drop" class="github-logo-1" d="M19.4 47.8l-.8 2.7s-.2 1 .7 1.2c1 0 .9-.9.8-1.2l-.7-2.7z"/></svg>