<svg xmlns="http://www.w3.org/2000/svg" id="Isolation_Mode" viewBox="0 0 98.6 98.6">
  <style>
    .st0{fill:#0094FB;} .st1{opacity:0.31;fill:#2ABFF4;} .st2{opacity:0.86;} .st3{fill:none;stroke:#FFFFFF;stroke-width:2;stroke-miterlimit:10;} .st4{fill:none;}
  </style>
  <path d="M86.6 0H12C5.4 0 0 5.4 0 12v74.6c0 6.6 5.4 12 12 12h74.6c6.6 0 12-5.4 12-12V12c0-6.6-5.4-12-12-12z" class="st0"/>
  <path d="M96.3 4.8c-.3-.3-.5-.7-.8-1h-.8V3c-.3-.3-.7-.6-1-.8v1.6h-7.1V0h-1v3.8h-7.1V0h-1v3.8h-7.1V0h-1v3.8h-7.1V0h-1v3.8h-7.1V0h-1v3.8h-7.1V0h-1v3.8H38V0h-1v3.8h-7.1V0h-1v3.8h-7.1V0h-1v3.8h-7.1V0h-1v3.8H5.1V2.2c-.3.3-.6.6-1 .8v.8h-.8c-.3.4-.6.7-.8 1h1.6V12h-4v1h4.1v7.1H.1v1h4.1v7.1H.1v1h4.1v7.1H.1v1h4.1v7.1H.1v1h4.1v7.1H.1v1h4.1v7.1H.1v1h4.1v7.1H.1v1h4.1V77H.1v1h4.1v7.1H.1v1h4.1v7.1h-2c.2.3.5.7.8 1h1.2v1.2c.3.3.7.6 1 .8v-2h7.1v4.3h1v-4.3h7.1v4.3h1v-4.3h7.1v4.3h1v-4.3h7.1v4.3h1v-4.3h7.1v4.3h1v-4.3h7.1v4.3h1v-4.3h7.1v4.3h1v-4.3H69v4.3h1v-4.3h7.1v4.3h1v-4.3h7.1v4.3h1v-4.3h7.1v2c.3-.2.7-.5 1-.8v-1.2h1.2c.3-.3.5-.7.8-1h-2v-7.1h4.1v-1h-4.1V78h4.1v-1h-4.1v-7.1h4.1v-1h-4.1v-7.1h4.1v-1h-4.1v-7.1h4.1v-1h-4.1v-7.1h4.1v-1h-4.1v-7.1h4.1v-1h-4.1v-7.1h4.1v-1h-4.1v-7.1h4.1v-1h-4.1V13h4.1v-1h-4.1V4.8h2zm-84 88.5H5.1v-7.1h7.1v7.1zm0-8.1H5.1V78h7.1v7.2zm0-8.2H5.1v-7.1h7.1V77zm0-8.1H5.1v-7.1h7.1v7.1zm0-8.1H5.1v-7.1h7.1v7.1zm0-8.2H5.1v-7.1h7.1v7.1zm0-8.1H5.1v-7.1h7.1v7.1zm0-8.1H5.1v-7.1h7.1v7.1zm0-8.2H5.1v-7.1h7.1v7.1zm0-8.1H5.1V13h7.1v7.1zm0-8.1H5.1V4.8h7.1V12zm8.1 81.3h-7.1v-7.1h7.1v7.1zm0-8.1h-7.1V78h7.1v7.2zm0-8.2h-7.1v-7.1h7.1V77zm0-8.1h-7.1v-7.1h7.1v7.1zm0-8.1h-7.1v-7.1h7.1v7.1zm0-8.2h-7.1v-7.1h7.1v7.1zm0-8.1h-7.1v-7.1h7.1v7.1zm0-8.1h-7.1v-7.1h7.1v7.1zm0-8.2h-7.1v-7.1h7.1v7.1zm0-8.1h-7.1V13h7.1v7.1zm0-8.1h-7.1V4.8h7.1V12zm8.1 81.3h-7.1v-7.1h7.1v7.1zm0-8.1h-7.1V78h7.1v7.2zm0-8.2h-7.1v-7.1h7.1V77zm0-8.1h-7.1v-7.1h7.1v7.1zm0-8.1h-7.1v-7.1h7.1v7.1zm0-8.2h-7.1v-7.1h7.1v7.1zm0-8.1h-7.1v-7.1h7.1v7.1zm0-8.1h-7.1v-7.1h7.1v7.1zm0-8.2h-7.1v-7.1h7.1v7.1zm0-8.1h-7.1V13h7.1v7.1zm0-8.1h-7.1V4.8h7.1V12zm8.2 81.3h-7.1v-7.1h7.1v7.1zm0-8.1h-7.1V78h7.1v7.2zm0-8.2h-7.1v-7.1h7.1V77zm0-8.1h-7.1v-7.1h7.1v7.1zm0-8.1h-7.1v-7.1h7.1v7.1zm0-8.2h-7.1v-7.1h7.1v7.1zm0-8.1h-7.1v-7.1h7.1v7.1zm0-8.1h-7.1v-7.1h7.1v7.1zm0-8.2h-7.1v-7.1h7.1v7.1zm0-8.1h-7.1V13h7.1v7.1zm0-8.1h-7.1V4.8h7.1V12zm8.1 81.3h-7.1v-7.1h7.1v7.1zm0-8.1h-7.1V78h7.1v7.2zm0-8.2h-7.1v-7.1h7.1V77zm0-8.1h-7.1v-7.1h7.1v7.1zm0-8.1h-7.1v-7.1h7.1v7.1zm0-8.2h-7.1v-7.1h7.1v7.1zm0-8.1h-7.1v-7.1h7.1v7.1zm0-8.1h-7.1v-7.1h7.1v7.1zm0-8.2h-7.1v-7.1h7.1v7.1zm0-8.1h-7.1V13h7.1v7.1zm0-8.1h-7.1V4.8h7.1V12zm8.1 81.3h-7.1v-7.1h7.1v7.1zm0-8.1h-7.1V78h7.1v7.2zm0-8.2h-7.1v-7.1h7.1V77zm0-8.1h-7.1v-7.1h7.1v7.1zm0-8.1h-7.1v-7.1h7.1v7.1zm0-8.2h-7.1v-7.1h7.1v7.1zm0-8.1h-7.1v-7.1h7.1v7.1zm0-8.1h-7.1v-7.1h7.1v7.1zm0-8.2h-7.1v-7.1h7.1v7.1zm0-8.1h-7.1V13h7.1v7.1zm0-8.1h-7.1V4.8h7.1V12zm8.2 81.3H54v-7.1h7.1v7.1zm0-8.1H54V78h7.1v7.2zm0-8.2H54v-7.1h7.1V77zm0-8.1H54v-7.1h7.1v7.1zm0-8.1H54v-7.1h7.1v7.1zm0-8.2H54v-7.1h7.1v7.1zm0-8.1H54v-7.1h7.1v7.1zm0-8.1H54v-7.1h7.1v7.1zm0-8.2H54v-7.1h7.1v7.1zm0-8.1H54V13h7.1v7.1zm0-8.1H54V4.8h7.1V12zm8.1 81.3h-7.1v-7.1h7.1v7.1zm0-8.1h-7.1V78h7.1v7.2zm0-8.2h-7.1v-7.1h7.1V77zm0-8.1h-7.1v-7.1h7.1v7.1zm0-8.1h-7.1v-7.1h7.1v7.1zm0-8.2h-7.1v-7.1h7.1v7.1zm0-8.1h-7.1v-7.1h7.1v7.1zm0-8.1h-7.1v-7.1h7.1v7.1zm0-8.2h-7.1v-7.1h7.1v7.1zm0-8.1h-7.1V13h7.1v7.1zm0-8.1h-7.1V4.8h7.1V12zm8.1 81.3h-7.1v-7.1h7.1v7.1zm0-8.1h-7.1V78h7.1v7.2zm0-8.2h-7.1v-7.1h7.1V77zm0-8.1h-7.1v-7.1h7.1v7.1zm0-8.1h-7.1v-7.1h7.1v7.1zm0-8.2h-7.1v-7.1h7.1v7.1zm0-8.1h-7.1v-7.1h7.1v7.1zm0-8.1h-7.1v-7.1h7.1v7.1zm0-8.2h-7.1v-7.1h7.1v7.1zm0-8.1h-7.1V13h7.1v7.1zm0-8.1h-7.1V4.8h7.1V12zm8.2 81.3h-7.1v-7.1h7.1v7.1zm0-8.1h-7.1V78h7.1v7.2zm0-8.2h-7.1v-7.1h7.1V77zm0-8.1h-7.1v-7.1h7.1v7.1zm0-8.1h-7.1v-7.1h7.1v7.1zm0-8.2h-7.1v-7.1h7.1v7.1zm0-8.1h-7.1v-7.1h7.1v7.1zm0-8.1h-7.1v-7.1h7.1v7.1zm0-8.2h-7.1v-7.1h7.1v7.1zm0-8.1h-7.1V13h7.1v7.1zm0-8.1h-7.1V4.8h7.1V12zm8.1 81.3h-7.1v-7.1h7.1v7.1zm0-8.1h-7.1V78h7.1v7.2zm0-8.2h-7.1v-7.1h7.1V77zm0-8.1h-7.1v-7.1h7.1v7.1zm0-8.1h-7.1v-7.1h7.1v7.1zm0-8.2h-7.1v-7.1h7.1v7.1zm0-8.1h-7.1v-7.1h7.1v7.1zm0-8.1h-7.1v-7.1h7.1v7.1zm0-8.2h-7.1v-7.1h7.1v7.1zm0-8.1h-7.1V13h7.1v7.1zm0-8.1h-7.1V4.8h7.1V12z" class="st1"/>
  <g class="st2">
    <path d="M49.3 37.1c-6.5 0-11.9-5.2-12-11.8v-2.9h3V18h-7v7.3c.1 5.5 2.9 10.3 7.1 13.1m16.9.6c4.7-2.7 7.9-7.8 8-13.7V18h-7v4.4h3v2.9c-.1 6.5-5.4 11.8-12 11.8" class="st3"/>
    <path d="M55.7 51v-5h2.2v-7.4c-2.9-.2-5.7-.7-8.4-1.6m-.2.1h-.1c-2.7.8-5.5 1.4-8.4 1.6v7.4H43v5m-4.3 8.6h.1-3v4.8h-5.1v3h8.1m-.1 4.3h-3v9.1h3v-6.1m0-19.3h.1-3v-4.9h-5.1v-2.9h8.1v2.9M60 56.4h-.1 2.9v-4.9H68v-2.9h-8.1v2.9m-.1 8.2h-.2 2.9v4.8h5.1v3h-7.2m-.8 4.3h2.9v9.1h-2.9v-6.1" class="st3"/>
    <path d="M53.4 50.8H38.8v19.6c0 5.3 4.3 9.6 9.6 9.6h2c5.3 0 9.6-4.3 9.6-9.6V50.8h-6.6z" class="st3"/>
    <path d="M47.6 50.8h-8.8v16.4c0 4.9 3.9 8.8 8.8 8.8V50.8zm3.5 0V76c4.9 0 8.8-3.9 8.8-8.8V50.8h-8.8z" class="st3"/>
    <circle cx="43.2" cy="55.5" r="2.3" class="st4"/>
  </g>
</svg>
