<svg id="Layer_1" xmlns="http://www.w3.org/2000/svg" viewBox="-262 346 87 102" enable-background="new -262 346 87 102"><style>.l-bugbot-0{fill:#0094FB;} .l-bugbot-1{filter:url(#Adobe_OpacityMaskFilter);} .l-bugbot-2{fill:#FFFFFF;} .l-bugbot-3{opacity:0.31;mask:url(#mask-2);fill:#2ABFF4;enable-background:new ;} .st4{opacity:0.89;} .st5{fill:none;stroke:#FFFFFF;stroke-width:1.6;}</style><title>bugbot</title><g id="Page-1_1_"><g id="bugbot"><g transform="translate(1 1)" id="Group"><g id="Mask"><path id="path-1_1_" class="l-bugbot-0" d="M-262 371.4h85.3v49.3H-262v-49.3zm42.6-25.4l42.6 25.4H-262l42.6-25.4zm-42.6 74.6h85.3l-42.6 25.4-42.7-25.4z"/></g><defs><filter id="Adobe_OpacityMaskFilter" filterUnits="userSpaceOnUse" x="-265" y="346" width="100.6" height="100.5"><feColorMatrix values="1 0 0 0 0 0 1 0 0 0 0 0 1 0 0 0 0 0 1 0"/></filter></defs><mask maskUnits="userSpaceOnUse" x="-265" y="346" width="100.6" height="100.5" id="mask-2"><g class="l-bugbot-1"><path id="path-1" class="l-bugbot-2" d="M-262 371.4h85.3v49.3H-262v-49.3zm42.6-25.4l42.6 25.4H-262l42.6-25.4zm-42.6 74.6h85.3l-42.6 25.4-42.7-25.4z"/></g></mask><path id="Shape" class="l-bugbot-3" d="M-166.5 350.9c-.3-.3-.5-.7-.8-1h-.8v-.8c-.3-.3-.7-.6-1-.8v1.6h-7.3V346h-1v3.9h-7.3V346h-1v3.9h-7.3V346h-1v3.9h-7.3V346h-1v3.9h-7.3V346h-1v3.9h-7.3V346h-1v3.9h-7.3V346h-1v3.9h-7.3V346h-1v3.9h-7.3V346h-1v3.9h-7.3V346h-1v3.9h-7.8v-1.6c-.3.3-.6.6-1 .8v.8h-.8c-.3.4-.6.7-.8 1h1.6v7.3h-4.1v1h4.2v7.2h-4.2v1h4.2v7.2h-4.2v1h4.2v7.2h-4.2v1h4.2v7.2h-4.2v1h4.2v7.2h-4.2v1h4.2v7.2h-4.2v1h4.2v7.2h-4.2v1h4.2v7.4h-4.2v1h4.2v7.2h-4.2v1h4.2v7.2h-2c.2.3.5.7.8 1h1.2v1.2c.3.3.7.6 1 .8v-2h7.3v4.4h1v-4.4h7.3v4.4h1v-4.4h7.3v4.4h1v-4.4h7.3v4.4h1v-4.4h7.3v4.4h1v-4.4h7.3v4.4h1v-4.4h7.3v4.4h1v-4.4h7.3v4.4h1v-4.4h7.3v4.4h1v-4.4h7.3v4.4h1v-4.4h7.3v2c.3-.2.7-.5 1-.8v-1.2h1.2c.3-.3.5-.7.8-1h-2v-7.2h4.2v-1h-4.2V425h4.2v-1h-4.2v-7.2h4.2v-1h-4.2v-7.2h4.2v-1h-4.2v-7.2h4.2v-1h-4.2v-7.2h4.2v-1h-4.2V384h4.2v-1h-4.2v-7h4.2v-1h-4.2v-7.2h4.2v-1h-4.2v-7.4h4.2v-1h-4.2v-7.3h2v-.2zm-86 90.3h-7.4V434h7.3v7.2h.1zm0-8.3h-7.4v-7.3h7.3v7.3h.1zm0-8.3h-7.4v-7.2h7.3v7.2h.1zm0-8.3h-7.4v-7.2h7.3v7.2h.1zm0-8.3h-7.4v-7.2h7.3v7.2h.1zm0-8.3h-7.4v-7.2h7.3v7.2h.1zm0-8.3h-7.4v-7.2h7.3v7.2h.1zm0-8.3h-7.4v-7.2h7.3v7.2h.1zm0-8.3h-7.4v-7.2h7.3v7.2h.1zm0-8.3h-7.4v-7.2h7.3v7.2h.1zm0-8.3h-7.4v-7.3h7.3v7.3h.1zm8.3 83h-7.3V434h7.3v7.2zm0-8.3h-7.3v-7.3h7.3v7.3zm0-8.3h-7.3v-7.2h7.3v7.2zm0-8.3h-7.3v-7.2h7.3v7.2zm0-8.3h-7.3v-7.2h7.3v7.2zm0-8.3h-7.3v-7.2h7.3v7.2zm0-8.3h-7.3v-7.2h7.3v7.2zm0-8.3h-7.3v-7.2h7.3v7.2zm0-8.3h-7.3v-7.2h7.3v7.2zm0-8.3h-7.3v-7.2h7.3v7.2zm0-8.3h-7.3v-7.3h7.3v7.3zm8.3 83h-7.3V434h7.3v7.2zm0-8.3h-7.3v-7.3h7.3v7.3zm0-8.3h-7.3v-7.2h7.3v7.2zm0-8.3h-7.3v-7.2h7.3v7.2zm0-8.3h-7.3v-7.2h7.3v7.2zm0-8.3h-7.3v-7.2h7.3v7.2zm0-8.3h-7.3v-7.2h7.3v7.2zm0-8.3h-7.3v-7.2h7.3v7.2zm0-8.3h-7.3v-7.2h7.3v7.2zm0-8.3h-7.3v-7.2h7.3v7.2zm0-8.3h-7.3v-7.3h7.3v7.3zm8.4 83h-7.3V434h7.3v7.2zm0-8.3h-7.3v-7.3h7.3v7.3zm0-8.3h-7.3v-7.2h7.3v7.2zm0-8.3h-7.3v-7.2h7.3v7.2zm0-8.3h-7.3v-7.2h7.3v7.2zm0-8.3h-7.3v-7.2h7.3v7.2zm0-8.3h-7.3v-7.2h7.3v7.2zm0-8.3h-7.3v-7.2h7.3v7.2zm0-8.3h-7.3v-7.2h7.3v7.2zm0-8.3h-7.3v-7.2h7.3v7.2zm0-8.3h-7.3v-7.3h7.3v7.3zm8.3 83h-7.3V434h7.3v7.2zm0-8.3h-7.3v-7.3h7.3v7.3zm0-8.3h-7.3v-7.2h7.3v7.2zm0-8.3h-7.3v-7.2h7.3v7.2zm0-8.3h-7.3v-7.2h7.3v7.2zm0-8.3h-7.3v-7.2h7.3v7.2zm0-8.3h-7.3v-7.2h7.3v7.2zm0-8.3h-7.3v-7.2h7.3v7.2zm0-8.3h-7.3v-7.2h7.3v7.2zm0-8.3h-7.3v-7.2h7.3v7.2zm0-8.3h-7.3v-7.3h7.3v7.3zm8.3 83h-7.3V434h7.3v7.2zm0-8.3h-7.3v-7.3h7.3v7.3zm0-8.3h-7.3v-7.2h7.3v7.2zm0-8.3h-7.3v-7.2h7.3v7.2zm0-8.3h-7.3v-7.2h7.3v7.2zm0-8.3h-7.3v-7.2h7.3v7.2zm0-8.3h-7.3v-7.2h7.3v7.2zm0-8.3h-7.3v-7.2h7.3v7.2zm0-8.3h-7.3v-7.2h7.3v7.2zm0-8.3h-7.3v-7.2h7.3v7.2zm0-8.3h-7.3v-7.3h7.3v7.3zm8.4 83h-7.3V434h7.3v7.2zm0-8.3h-7.3v-7.3h7.3v7.3zm0-8.3h-7.3v-7.2h7.3v7.2zm0-8.3h-7.3v-7.2h7.3v7.2zm0-8.3h-7.3v-7.2h7.3v7.2zm0-8.3h-7.3v-7.2h7.3v7.2zm0-8.3h-7.3v-7.2h7.3v7.2zm0-8.3h-7.3v-7.2h7.3v7.2zm0-8.3h-7.3v-7.2h7.3v7.2zm0-8.3h-7.3v-7.2h7.3v7.2zm0-8.3h-7.3v-7.3h7.3v7.3zm8.2 83h-7.3V434h7.3v7.2zm0-8.3h-7.3v-7.3h7.3v7.3zm0-8.3h-7.3v-7.2h7.3v7.2zm0-8.3h-7.3v-7.2h7.3v7.2zm0-8.3h-7.3v-7.2h7.3v7.2zm0-8.3h-7.3v-7.2h7.3v7.2zm0-8.3h-7.3v-7.2h7.3v7.2zm0-8.3h-7.3v-7.2h7.3v7.2zm0-8.3h-7.3v-7.2h7.3v7.2zm0-8.3h-7.3v-7.2h7.3v7.2zm0-8.3h-7.3v-7.3h7.3v7.3zm8.3 83h-7.3V434h7.3v7.2zm0-8.3h-7.3v-7.3h7.3v7.3zm0-8.3h-7.3v-7.2h7.3v7.2zm0-8.3h-7.3v-7.2h7.3v7.2zm0-8.3h-7.3v-7.2h7.3v7.2zm0-8.3h-7.3v-7.2h7.3v7.2zm0-8.3h-7.3v-7.2h7.3v7.2zm0-8.3h-7.3v-7.2h7.3v7.2zm0-8.3h-7.3v-7.2h7.3v7.2zm0-8.3h-7.3v-7.2h7.3v7.2zm0-8.3h-7.3v-7.3h7.3v7.3zm8.4 83h-7.3V434h7.3v7.2zm0-8.3h-7.3v-7.3h7.3v7.3zm0-8.3h-7.3v-7.2h7.3v7.2zm0-8.3h-7.3v-7.2h7.3v7.2zm0-8.3h-7.3v-7.2h7.3v7.2zm0-8.3h-7.3v-7.2h7.3v7.2zm0-8.3h-7.3v-7.2h7.3v7.2zm0-8.3h-7.3v-7.2h7.3v7.2zm0-8.3h-7.3v-7.2h7.3v7.2zm0-8.3h-7.3v-7.2h7.3v7.2zm0-8.3h-7.3v-7.3h7.3v7.3zm8.3 83h-7.3V434h7.3v7.2zm0-8.3h-7.3v-7.3h7.3v7.3zm0-8.3h-7.3v-7.2h7.3v7.2zm0-8.3h-7.3v-7.2h7.3v7.2zm0-8.3h-7.3v-7.2h7.3v7.2zm0-8.3h-7.3v-7.2h7.3v7.2zm0-8.3h-7.3v-7.2h7.3v7.2zm0-8.3h-7.3v-7.2h7.3v7.2zm0-8.3h-7.3v-7.2h7.3v7.2zm0-8.3h-7.3v-7.2h7.3v7.2zm0-8.3h-7.3v-7.3h7.3v7.3z"/></g><g id="Page-1" class="st4"><g id="Group_1_"><path id="Stroke-1" class="st5" d="M-212 388.7c3.7-2.1 6.2-6.2 6.3-10.9V372h-5.5v3.5h2.4v2.3c-.1 5.2-4.3 9.4-9.5 9.4m0 0c-5.1 0-9.4-4.1-9.5-9.4v-2.3h2.4V372h-5.5v5.8c.1 4.4 2.3 8.2 5.6 10.4"/><path id="Stroke-3" class="st5" d="M-210.2 414.8h2.3v7.2h-2.3v-4.8m.2-12h-.2 2.3v3.8h4v2.4h-5.7m-.3-8.8h2.2v-3.9h4.1v-2.3h-6.4v2.3m-16.7 3.1h-2.3V398h-4v-2.3h6.4v2.3m-.1 16.8h-2.4v7.2h2.4v-4.8m0-12h-2.3v3.8h-4v2.4h6.4m8.3-24.2c-2.2.6-4.4 1.1-6.7 1.3v5.9h1.7v4m10-.1v-4h1.7v-5.9c-2.3-.2-4.5-.6-6.6-1.3"/><path id="Stroke-5" class="st5" d="M-215.1 398.1h-11.5v15.6c0 4.2 3.4 7.6 7.6 7.6h1.6c4.2 0 7.6-3.4 7.6-7.6v-15.6h-5.3z"/><path id="Stroke-7" class="st5" d="M-216.9 398.1v20c3.9 0 6.9-3.1 6.9-7v-13h-6.9zm-2.8 0h-6.9v13c0 3.9 3.1 7 6.9 7v-20z"/></g></g></g></g></svg>