<svg id="Layer_1" xmlns="http://www.w3.org/2000/svg" viewBox="-262 346 87 102" enable-background="new -262 346 87 102"><style>.l-slacksketch-0{fill:#860033;} .l-slacksketch-1{filter:url(#Adobe_OpacityMaskFilter);} .l-slacksketch-2{fill:#FFFFFF;} .l-slacksketch-3{mask:url(#mask-2);} .l-slacksketch-4{opacity:0.4995;fill:#530020;enable-background:new ;} .l-slacksketch-5{opacity:0.5;fill:#530020;enable-background:new ;} .l-slacksketch-6{opacity:0.36;fill:#53001F;enable-background:new ;} .l-slacksketch-7{opacity:0.4485;fill:#530020;enable-background:new ;}</style><title>slack sketch</title><g id="Page-1_1_"><g id="slack-sketch"><g id="Group-_x2B_-Page-1-_x2B_-symbol"><g id="Group" transform="translate(1 1)"><g id="Mask"><path id="path-1_1_" class="l-slacksketch-0" d="M-262 371.4h85v49.3h-85v-49.3zm42.5-25.4l42.5 25.4h-85l42.5-25.4zm-42.5 74.6h85l-42.5 25.4-42.5-25.4z"/></g><defs><filter id="Adobe_OpacityMaskFilter" filterUnits="userSpaceOnUse" x="-278.6" y="338.2" width="116.8" height="116"><feColorMatrix values="1 0 0 0 0 0 1 0 0 0 0 0 1 0 0 0 0 0 1 0"/></filter></defs><mask maskUnits="userSpaceOnUse" x="-278.6" y="338.2" width="116.8" height="116" id="mask-2"><g class="l-slacksketch-1"><path id="path-1" class="l-slacksketch-2" d="M-262 371.4h85v49.3h-85v-49.3zm42.5-25.4l42.5 25.4h-85l42.5-25.4zm-42.5 74.6h85l-42.5 25.4-42.5-25.4z"/></g></mask><g class="l-slacksketch-3"><path id="Fill-5" class="l-slacksketch-4" d="M-165.076 389.044c4.244-4.072 4.356-10.914.283-15.158-4.072-4.244-10.914-4.356-15.158-.284l-64.705 62.378c-3.93 4.03-4.04 10.425-.323 14.62 3.937 4.423 10.91 4.805 15.154.732.18-.088 64.748-62.288 64.748-62.288"/><path id="Fill-11" class="l-slacksketch-5" d="M-196.027 357.522c4.244-4.073 4.356-10.914.283-15.158-4.072-4.244-10.914-4.357-15.158-.284l-64.704 62.377c-3.93 4.03-4.04 10.426-.323 14.622 3.938 4.42 10.91 4.802 15.155.73.313-.042 64.748-62.288 64.748-62.288"/><path id="Fill-11_1_" class="l-slacksketch-6" d="M-165.795 421.104c4.244-4.073 4.356-10.914.284-15.158l-62.38-64.704c-4.03-3.93-10.424-4.04-14.62-.323-4.422 3.935-4.804 10.908-.73 15.153.177.136 62.376 64.704 62.376 64.704 4.117 4.334 10.87 4.49 15.07.327z"/><path id="Fill-5_1_" class="l-slacksketch-7" d="M-211.56 449.544c4.073 4.244 10.915 4.357 15.16.284 4.243-4.073 4.356-10.914.283-15.16l-62.378-64.703c-4.03-3.93-10.425-4.038-14.62-.323-4.423 3.937-4.805 10.91-.732 15.154.088.18 62.288 64.748 62.288 64.748"/></g></g><g id="Page-1-_x2B_-symbol"><g id="Page-1"><path id="Fill-1" class="l-slacksketch-2" d="M-204.9 394.1l1.1 3.3 3.4-1.2-1.1-3.3-3.4 1.2z"/><path id="Fill-2" class="l-slacksketch-2" d="M-204.9 394.1l1.1 3.3 3.4-1.2-1.1-3.3-3.4 1.2z"/><path id="Fill-3" class="l-slacksketch-2" d="M-195.1 397.5l-1.7.6.6 1.8c.2.7-.1 1.5-.9 1.7-.2.1-.3.1-.5.1-.6 0-1.1-.4-1.3-.9l-.6-1.8-3.6 1.2.6 1.8c.2.7-.1 1.5-.9 1.7-.2.1-.3.1-.5.1-.6 0-1.1-.4-1.3-.9l-.6-1.8-1.7.6c-.2.1-.3.1-.5.1-.6 0-1.1-.4-1.3-.9-.2-.7.1-1.5.9-1.7l1.7-.6-1.1-3.4-1.7.6c-.2.1-.3.1-.5.1-.6 0-1.1-.4-1.3-.9-.2-.7.1-1.5.9-1.7l1.7-.6-.6-1.8c-.2-.7.1-1.5.9-1.7.7-.2 1.5.1 1.8.9l.6 1.8 3.6-1.2-.6-1.8c-.2-.7.1-1.5.9-1.7.7-.2 1.5.1 1.8.9l.6 1.8 1.7-.6c.7-.2 1.5.1 1.8.9.2.7-.1 1.5-.9 1.7l-1.7.6 1.1 3.4 1.7-.6c.7-.2 1.5.1 1.8.9.3.3-.1 1-.9 1.3m4.7-5.9c-2.8-9.1-6.7-11.2-15.9-8.5-9.2 2.7-11.3 6.7-8.6 15.8 2.8 9.1 6.7 11.2 15.9 8.5 9.2-2.8 11.3-6.7 8.6-15.8"/></g></g></g><g id="Group_1_"><path id="Fill-1_1_" class="l-slacksketch-2" d="M-233 408l6.3-12 3.7-1-10 13z"/><path id="Fill-2_1_" class="l-slacksketch-2" d="M-241 396l6.5 13 6.5-13h-13z"/><path id="Fill-3_1_" class="l-slacksketch-2" d="M-246 395s1.5.4 2.3.6l1.4.4 6.3 12-10-13z"/><path id="Fill-4" class="l-slacksketch-2" d="M-246 393.8l3.5 1.2 2.5-5-4-1-2 4.8z"/><path id="Fill-5_2_" class="l-slacksketch-2" d="M-238.2 386l-5.2 2.2 4.3.8h10.2l3.7-.8-4.6-2.2h-8.4z"/><path id="Fill-6" class="l-slacksketch-2" d="M-228 395h-13l2.1-5h8.9l2 5z"/><path id="Fill-7" class="l-slacksketch-2" d="M-228.9 390l2.4 5 3.5-1.2-2-4.8-3.9 1z"/></g></g></g></svg>