<svg id="Layer_1" xmlns="http://www.w3.org/2000/svg" viewBox="-262 346 87 102" enable-background="new -262 346 87 102"><style>.l-se-0{fill:#E51A71;} .l-se-1{filter:url(#Adobe_OpacityMaskFilter);} .l-se-2{fill:#FFFFFF;} .l-se-3{mask:url(#mask-2);} .l-se-4{opacity:0.4995;fill:#AD144F;enable-background:new ;} .l-se-5{opacity:0.5;fill:#AD144F;enable-background:new ;} .l-se-6{opacity:0.36;fill:#AD144F;enable-background:new ;} .l-se-7{opacity:0.4485;fill:#AD144F;enable-background:new ;}</style><title>se</title><g id="Page-1"><g id="se_1_"><g id="Se"><g id="Group" transform="translate(1 1)"><g id="Mask"><path id="path-1_1_" class="l-se-0" d="M-262 371.4h85.3v49.3H-262v-49.3zm42.6-25.4l42.6 25.4H-262l42.6-25.4zm-42.6 74.6h85.3l-42.6 25.4-42.7-25.4z"/></g><defs><filter id="Adobe_OpacityMaskFilter" filterUnits="userSpaceOnUse" x="-278.6" y="338.2" width="117.1" height="116"><feColorMatrix values="1 0 0 0 0 0 1 0 0 0 0 0 1 0 0 0 0 0 1 0"/></filter></defs><mask maskUnits="userSpaceOnUse" x="-278.6" y="338.2" width="117.1" height="116" id="mask-2"><g class="l-se-1"><path id="path-1" class="l-se-2" d="M-262 371.4h85.3v49.3H-262v-49.3zm42.6-25.4l42.6 25.4H-262l42.6-25.4zm-42.6 74.6h85.3l-42.6 25.4-42.7-25.4z"/></g></mask><g class="l-se-3"><path id="Fill-5" class="l-se-4" d="M-164.844 388.99c4.334-4.115 4.447-10.957.284-15.157-4.073-4.244-10.914-4.357-15.248-.24l-64.794 62.42c-3.93 4.032-4.13 10.47-.323 14.622 3.937 4.422 10.91 4.804 15.154.73.18-.086 64.926-62.374 64.926-62.374"/><path id="Fill-11" class="l-se-5" d="M-195.794 357.47c4.334-4.118 4.446-10.96.283-15.16-4.073-4.244-10.915-4.356-15.25-.24l-64.883 62.466c-3.93 4.03-4.128 10.47-.323 14.62 3.937 4.423 10.91 4.805 15.154.732.314-.042 65.018-62.42 65.018-62.42"/><path id="Fill-11_1_" class="l-se-6" d="M-180.72 420.767c4.072 4.244 10.914 4.357 15.158.284 4.244-4.072 4.356-10.913.283-15.158l-62.422-64.57c-4.03-3.93-10.425-4.038-14.71-.28-4.423 3.938-4.895 10.955-.822 15.2.267.09 62.513 64.525 62.513 64.525"/><path id="Fill-5_1_" class="l-se-7" d="M-211.506 449.58c4.072 4.243 10.914 4.355 15.158.282 4.244-4.072 4.356-10.914.284-15.158l-62.424-64.57c-4.03-3.93-10.425-4.04-14.71-.28-4.423 3.937-4.894 10.954-.822 15.198.268.092 62.514 64.527 62.514 64.527"/></g></g><path id="se" class="l-se-2" d="M-224.3 391.9c-.2.2-.3.4-.5.5s-.4.2-.6.2-.6-.1-.8-.2c-.3-.1-.6-.3-1-.4-.4-.2-.8-.3-1.2-.4-.5-.1-1-.2-1.6-.2-.9 0-1.6.2-2.1.6-.5.4-.8.9-.8 1.5 0 .4.1.8.4 1.1.3.3.7.5 1.1.7.5.2 1 .4 1.6.6.6.2 1.2.4 1.9.6.6.2 1.3.5 1.9.8.6.3 1.1.6 1.6 1.1.5.4.9 1 1.1 1.6s.4 1.3.4 2.2c0 1-.2 2-.6 2.8s-.9 1.6-1.7 2.2c-.7.6-1.6 1.1-2.7 1.5-1.1.4-2.3.5-3.7.5-.7 0-1.4-.1-2.2-.2-.7-.1-1.4-.3-2-.6s-1.2-.5-1.8-.8c-.6-.3-1.1-.7-1.5-1l1.3-2.1c.2-.2.3-.4.6-.6.2-.1.5-.2.9-.2.3 0 .7.1.9.3.3.2.6.4 1 .6.4.2.8.4 1.3.6.5.2 1.1.3 1.8.3.5 0 1-.1 1.4-.2.4-.1.7-.3 1-.5.2-.2.4-.5.5-.7.1-.3.2-.5.2-.8 0-.5-.1-.8-.4-1.1-.3-.3-.7-.6-1.2-.8-.5-.2-1-.4-1.6-.6-.6-.2-1.2-.4-1.9-.6-.6-.2-1.3-.5-1.9-.8-.6-.3-1.2-.7-1.6-1.1-.5-.5-.9-1-1.2-1.7s-.4-1.5-.4-2.4c0-.9.2-1.7.5-2.5s.9-1.5 1.5-2.1c.7-.6 1.5-1.1 2.6-1.4s2.2-.5 3.6-.5c1.5 0 2.9.2 4.1.7 1.2.5 2.3 1.1 3 1.9l-1.2 1.6zm18.5 3.7c0-.6-.1-1.1-.2-1.7-.2-.5-.4-1-.8-1.4s-.8-.7-1.3-1c-.5-.2-1.1-.4-1.9-.4-1.4 0-2.4.4-3.2 1.1-.8.8-1.3 1.9-1.5 3.3h8.9zm-9 3.4c.2 2 .7 3.4 1.7 4.4 1 .9 2.2 1.4 3.7 1.4.8 0 1.5-.1 2-.3.6-.2 1.1-.4 1.5-.6l1.2-.6c.4-.2.7-.3 1-.3.4 0 .8.2 1 .5l1.6 2.1c-.6.7-1.3 1.3-2 1.7-.7.5-1.5.8-2.3 1.1-.8.3-1.6.5-2.4.6-.8.1-1.6.2-2.3.2-1.5 0-2.9-.2-4.2-.7-1.3-.5-2.4-1.2-3.4-2.2-1-1-1.7-2.1-2.3-3.5-.5-1.4-.8-3-.8-4.9 0-1.4.2-2.8.7-4.1.5-1.3 1.2-2.4 2-3.3.9-.9 2-1.7 3.3-2.2 1.3-.6 2.7-.8 4.3-.8 1.4 0 2.6.2 3.8.6 1.1.4 2.1 1.1 3 1.9s1.5 1.8 1.9 3c.5 1.2.7 2.6.7 4.1 0 .4 0 .8-.1 1 0 .3-.1.5-.2.7-.1.2-.2.3-.4.3s-.4.1-.6.1h-12.4z"/></g></g></g></svg>