<svg xmlns="http://www.w3.org/2000/svg" id="pencil-paper-cat" width="72" height="24" viewBox="0 0 72 24">
  <style>
    .pencil-paper-cat-0{fill:#888888;}
  </style>
  <path d="M20.6 8.9L6.5 23c-.1.1-.3.2-.4.2L.9 24H.8c-.4 0-.8-.4-.7-.9l.8-5.2c0-.2.1-.3.2-.4l14-14.1 5.5 5.5zM6 21.8L2.2 18l-.8 4.5 4.6-.7zm17.8-16l-2.1 2.1-5.6-5.6L18.2.2c.3-.3.8-.3 1.1 0l4.5 4.5c.3.3.3.8 0 1.1zM28.5 24c-.8 0-1.5-.7-1.5-1.5v-21c0-.8.7-1.5 1.5-1.5h9v7.5H45v15c0 .8-.7 1.5-1.5 1.5h-15zM39 0c.4 0 .8.2 1.1.4l4.5 4.5c.2.3.4.7.4 1.1h-6V0zm10.1 7.5c.2 0 .5.1.7.3 2 1.7 2.6 3.3 2.6 4.9 0 2.2-1.1 4.1-1.1 6.1s2 2.7 4.1 2.9L56.2.8c0-.3.2-.6.5-.7h.2c.2 0 .5.1.6.3l3.1 4.2h6.1L69.8.4c.2-.3.5-.4.7-.4h.2c.3.1.5.4.5.7l.8 21.8c0 .8-.7 1.5-1.5 1.5H57c-5 0-7.9-1.9-7.9-5.2 0-2.5 1.1-4.5 1.1-6.1 0-1.1-.4-2.1-1.8-3.2-.5-.4-.6-1.1-.2-1.6.3-.3.6-.4.9-.4zm10.1.7c-.8 0-1.5.7-1.5 1.5s.7 1.5 1.5 1.5 1.5-.7 1.5-1.5-.6-1.5-1.5-1.5zm9 0c-.8 0-1.5.7-1.5 1.5s.7 1.5 1.5 1.5 1.5-.7 1.5-1.5-.6-1.5-1.5-1.5z" class="pencil-paper-cat-0"/>
</svg>
