<svg viewBox="0 0 410 109" xmlns="http://www.w3.org/2000/svg" xmlns:xlink="http://www.w3.org/1999/xlink"><defs><path id="a" d="M0 .32h32.775V38H0"/></defs><g fill="none" fill-rule="evenodd"><rect stroke="#E7E7E7" stroke-width="2" fill="#FFF" width="410" height="109" rx="10"/><g transform="translate(19 20)"><rect fill="#870030" width="50" height="50" rx="6"/><g transform="translate(9 6)"><mask id="b" fill="#fff"><use xlink:href="#a"/></mask><path d="M29.895 19.213c-.953-.196-2.038-.004-3.075.69-.863-5.076-.35-10.352-.96-15.52-.297-2.524-2.892-5.622-5.47-3.17-1.086 1.036-1.35 2.838-1.516 4.527-.018.185-11.4-.314-11.35.418C7.292 2.863 6.31.498 3.714.782c-4.49.487-3.8 7.207-3.466 10.94.373 4.196.638 8.398.916 12.6.097 1.483.35 2.598.823 3.422-1.24 2.833-.55 6.6 1.445 8.944 1.217 1.428 3.157-.744 1.955-2.156-1.134-1.332-1.474-3.366-.925-5.024.584.153 1.254.245 2.034.28.645.03 1.282.06 1.913.092-.52 2.55-.03 5.27 1.445 7.48 1.044 1.557 3.48-.02 2.434-1.587-1.165-1.74-1.47-3.828-.923-5.775 1.458.043 2.907.05 4.363-.017-.12 2.206.506 4.415 1.94 6.197 1.164 1.445 3.61-.12 2.43-1.585-1.104-1.375-1.672-3.12-1.49-4.845.81-.1 1.63-.234 2.46-.405.554-.117 1.12-.196 1.688-.288-.106 1.97.502 3.87 1.88 5.556 1.172 1.434 3.62-.13 2.433-1.586-1.22-1.498-1.774-3.135-1.276-4.952.05-.03.1-.054.15-.087 2.586 2.1 5.998-1.037 6.65-3.58.697-2.72-.723-4.788-2.7-5.192" fill="#F2BF3A" mask="url(#b)"/></g><path d="M15.432 22.002c-1.998.086-1.86 3.082.137 2.996 1.993-.085 1.86-3.082-.14-2.996m9 0c-1.998.086-1.86 3.082.137 2.996 1.995-.085 1.86-3.082-.14-2.996m-7.122 6.85c.65.54 1.43.874 2.236 1.116.413.124.777-.136.993-.45.296-.433.835-.69 1.206-1.055.82-.808-.505-2-1.32-1.196-.307.302-.628.545-.927.82-.352-.133-.696-.304-.98-.54-.88-.733-2.092.57-1.208 1.306" fill="#1C1C1C"/></g><text font-family="Lato" font-size="18" font-weight="bold" fill="#2C2D30" transform="translate(19 19)"><tspan x="60" y="18">lucia</tspan></text><text transform="translate(79 42)" font-size="18" font-family="Lato"><tspan x="0" y="18" fill="#2C2D30">hey</tspan> <tspan x="28.152" y="18" fill="#5A83FF"> </tspan> <tspan x="32.76" y="18" fill="#2B80B9">@channel</tspan> <tspan x="109.242" y="18" fill="#2C2D30"> - I just added</tspan> <tspan x="0" y="44" fill="#2C2D30">to our Slack. Check it out!</tspan></text><text font-family="Lato" font-size="12" font-weight="260" fill="#9E9EA6" transform="translate(19 19)"><tspan x="105" y="16">10:42 AM</tspan></text><g transform="translate(302 42)"><rect stroke="#E1E1E8" fill="#F7F7F9" width="68" height="22" rx="3"/><text font-family="Monaco" font-size="13.6" fill="#C25"><tspan x="5" y="16">/bugbot</tspan></text></g></g></svg>