<svg viewBox="0 0 410 151" xmlns="http://www.w3.org/2000/svg"><g fill="none" fill-rule="evenodd"><rect stroke="#E7E7E7" stroke-width="2" fill="#FFF" width="410" height="151" rx="10"/><g transform="translate(65 49)"><text font-family="Lato" font-size="15" fill="#2C2D30"><tspan x="16" y="44">It looks like your Github account is authorized </tspan> <tspan x="16" y="62">(yay!), but I still need know where to send and </tspan> <tspan x="16" y="80">receive your Github Issues.</tspan></text><text font-family="Lato" font-size="15" font-weight="bold" fill="#2C2D30"><tspan x="16" y="15">Time to configure your repo!</tspan></text><rect fill="#E3E4E6" y="2.41999817" width="4" height="80" rx="3"/></g><text font-family="Lato" font-size="12" font-weight="260" fill="#9E9EA6" transform="translate(19 19)"><tspan x="139" y="15">10:42 AM</tspan></text><path fill="#F7F7F7" d="M123 22h27v15.968h-27z"/><text font-family="Helvetica Neue" font-size="10" fill="#A3A3A3" transform="translate(123 22)"><tspan x="3" y="11.0645161">BOT</tspan></text><text font-family="Lato" font-size="15" font-weight="bold" fill="#2C2D30" transform="translate(19 19)"><tspan x="45" y="15">Bugbot</tspan></text><g transform="translate(19.39 19.522)"><path d="M2.565 36.478c-1.095 0-1.956-.86-1.956-1.956V2.435C.61 1.34 1.47.478 2.56.478h32.09c1.097 0 1.958.86 1.958 1.957v32.087c0 1.095-.862 1.956-1.958 1.956H2.565z" fill="#9DFFD9"/><path d="M13.287 7.287v-1.29h1.33v-1.96h-3.09v3.208c0 3.914 3.17 7.044 7.082 7.044v-1.8c-2.9.04-5.288-2.31-5.327-5.207z" fill="#02CE1B"/><path d="M22.6 4.04v1.917h1.33v1.29c-.04 2.896-2.426 5.244-5.32 5.244v1.8c3.912 0 7.08-3.13 7.12-7V4.04H22.6z" fill="#029925"/><path d="M18.648 12.49l-1.448.94-.313 3.092h.43v2.19h4.11v-2.19h.977v-3.287c-1.33-.118-2.543-.352-3.756-.744z" fill="#303123"/><path d="M14.852 13.196v3.287h.978v2.19h2.78V12.49h-.04c-1.213.394-2.466.628-3.718.707z" fill="#4D4D4D"/><path d="M12.622 23.057v2.152h-2.27v1.33h3.56v-2.157h3.484v-1.33h-4.773zm-.04 5.79v4.07h1.29v-2.74h3.524v-1.33h-4.812z" fill="#333"/><path d="M12.622 22.157v2.152h-2.27v1.29h3.56v-2.156h3.484v-1.29h-4.773zm-.04 5.79v4.03h1.29v-2.74h3.524v-1.29h-4.812z" fill="#4D4D4D"/><path d="M12.622 20.826v-2.19h-2.31v-1.293h3.6v2.153h3.484v1.33h-4.773zm11.818 2.23v2.153h2.308v1.33h-3.6v-2.157h-3.405v-1.33h4.695zm0 5.792v4.07h-1.292v-2.74h-3.405v-1.33h4.695z" fill="#333"/><path d="M12.622 19.887v-2.152h-2.31v-1.33h3.6v2.19h3.484v1.292h-4.773z" fill="#4D4D4D"/><path d="M24.596 20.826v-2.19h2.308v-1.293h-3.6v2.153h-3.482v1.33h4.774z" fill="#333"/><path d="M24.596 19.887v-2.152h2.308v-1.33h-3.6v2.19h-3.482v1.292h4.774zm-.156 2.27v2.152h2.308v1.29h-3.6v-2.156h-3.405v-1.29h4.695zm0 5.79v4.03h-1.292v-2.74h-3.405v-1.29h4.695z" fill="#4D4D4D"/><path d="M20.057 19.378l.313-.782h-3.327l.666.782h-3.8v7.944c0 2.348 1.915 4.265 4.263 4.265h.86c2.35 0 4.266-1.917 4.266-4.265v-7.944h-3.247z" fill="#303123"/><path d="M17.826 18.557h-3.913v7.278c0 2.152 1.76 3.913 3.913 3.913v-11.19z" fill="#02CE1B"/><path d="M19.39 18.557v11.19c2.153 0 3.914-1.76 3.914-3.912v-7.278H19.39z" fill="#029925"/><circle fill="#FFF" cx="15.8695652" cy="20.6695652" r="1.0173913"/></g></g></svg>