<svg viewBox="0 0 412 153" xmlns="http://www.w3.org/2000/svg"><title>configure</title><g transform="translate(1 1)" fill="none" fill-rule="evenodd"><rect stroke="#E7E7E7" stroke-width="2" fill="#FFF" width="410" height="151" rx="10"/><g transform="translate(65 51)"><path d="M18.828 42h-1.456V31.253h1.456V42zm4.544.12c-.6 0-1.06-.167-1.383-.502-.324-.336-.485-.818-.485-1.448v-4.65h-.915c-.08 0-.147-.024-.203-.07-.055-.05-.082-.122-.082-.223v-.532l1.245-.157.308-2.348c.015-.075.048-.136.1-.184.053-.047.122-.07.207-.07h.675v2.617h2.198v.967H22.84v4.56c0 .32.077.557.233.712.155.156.354.233.6.233.14 0 .26-.02.363-.056.103-.04.19-.08.266-.125.076-.045.14-.086.192-.124.052-.036.098-.055.14-.055.07 0 .13.042.186.127l.39.638c-.23.215-.507.384-.832.506-.326.123-.66.184-1.006.184zm8.265-11.167V42h-1.335V30.953h1.335zM37 34.282c.555 0 1.055.092 1.5.277.445.185.825.447 1.14.787.315.34.556.752.724 1.234.167.484.25 1.022.25 1.617 0 .6-.083 1.14-.25 1.62-.168.48-.41.89-.724 1.23-.315.34-.695.602-1.14.784-.445.184-.945.275-1.5.275-.56 0-1.064-.09-1.51-.274-.45-.18-.83-.442-1.145-.782-.315-.34-.556-.75-.724-1.23-.166-.48-.25-1.02-.25-1.62 0-.596.084-1.134.25-1.617.17-.48.41-.892.725-1.233.315-.34.696-.602 1.144-.787.446-.185.95-.278 1.51-.278zm0 6.78c.75 0 1.31-.252 1.68-.754.37-.504.555-1.205.555-2.105 0-.905-.185-1.61-.555-2.115-.37-.505-.93-.758-1.68-.758-.38 0-.71.065-.994.196-.282.13-.517.317-.705.562-.186.245-.326.546-.42.904-.09.357-.138.76-.138 1.21 0 .9.187 1.602.56 2.105.372.5.938.752 1.698.752zm8.505-6.78c.555 0 1.055.092 1.5.277.445.185.825.447 1.14.787.315.34.556.752.724 1.234.166.484.25 1.022.25 1.617 0 .6-.084 1.14-.25 1.62-.17.48-.41.89-.725 1.23-.315.34-.695.602-1.14.784-.445.184-.945.275-1.5.275-.56 0-1.064-.09-1.51-.274-.45-.18-.83-.442-1.145-.782-.315-.34-.556-.75-.724-1.23-.167-.48-.25-1.02-.25-1.62 0-.596.083-1.134.25-1.617.168-.48.41-.892.724-1.233.315-.34.696-.602 1.144-.787.447-.185.95-.278 1.51-.278zm0 6.78c.75 0 1.31-.252 1.68-.754.37-.504.555-1.205.555-2.105 0-.905-.185-1.61-.555-2.115-.37-.505-.93-.758-1.68-.758-.38 0-.71.065-.994.196-.28.13-.516.317-.704.562-.187.245-.327.546-.42.904-.092.357-.14.76-.14 1.21.002.9.188 1.602.56 2.105.373.5.94.752 1.7.752zm6.645-10.11v6.502h.345c.1 0 .184-.014.25-.04.07-.03.14-.085.215-.17l2.4-2.572c.07-.086.144-.152.22-.2.08-.047.182-.07.313-.07H57.1l-2.797 2.977c-.136.17-.28.302-.435.398.09.06.17.128.243.206.074.077.142.166.208.266l2.97 3.75h-1.193c-.115 0-.214-.02-.296-.056-.084-.038-.155-.106-.215-.207l-2.498-3.112c-.075-.105-.148-.174-.22-.206-.073-.034-.184-.05-.334-.05h-.383V42h-1.343V30.953h1.343zm10.703 4.702c-.06.11-.153.165-.278.165-.075 0-.16-.027-.255-.083-.095-.055-.21-.116-.35-.183-.136-.068-.3-.13-.49-.188-.19-.057-.415-.086-.675-.086-.225 0-.427.03-.608.086-.18.058-.333.136-.46.236-.128.1-.226.217-.293.35-.068.132-.102.275-.102.43 0 .196.057.358.17.488.112.13.26.242.446.338.185.095.394.178.63.25.235.073.476.15.723.233.25.084.49.175.725.275.235.1.445.225.63.375s.334.334.446.55c.114.22.17.48.17.785 0 .35-.062.674-.188.97-.125.3-.31.556-.554.774-.246.216-.545.387-.9.512-.356.126-.765.188-1.23.188-.53 0-1.01-.086-1.44-.26-.43-.17-.795-.392-1.096-.663l.316-.51c.04-.065.087-.114.142-.15.055-.035.125-.052.21-.052.09 0 .185.035.285.105.1.07.22.147.364.232.14.086.315.163.52.233.205.07.46.105.765.105.26 0 .487-.034.682-.1.196-.07.358-.16.488-.275.13-.115.226-.247.29-.397.06-.15.093-.31.093-.48 0-.21-.057-.384-.17-.522-.112-.137-.26-.255-.445-.352-.186-.098-.397-.183-.634-.255-.24-.074-.48-.15-.73-.23-.246-.08-.49-.17-.726-.274-.238-.102-.45-.23-.634-.386-.185-.155-.334-.346-.446-.574-.113-.227-.17-.503-.17-.83 0-.29.06-.567.18-.835.12-.266.296-.5.526-.704.23-.202.512-.363.847-.483.336-.12.718-.18 1.148-.18.5 0 .95.078 1.346.236.4.156.742.372 1.033.647l-.3.488zm7.29-4.703V42h-1.335V30.953h1.334zm3.57 3.45V42h-1.335v-7.597h1.335zm.285-2.385c0 .13-.027.252-.08.364-.052.114-.122.214-.21.3-.087.09-.19.157-.307.208-.116.05-.24.075-.37.075s-.25-.025-.364-.075c-.112-.05-.21-.12-.296-.207-.085-.086-.152-.186-.203-.3-.05-.11-.075-.232-.075-.363 0-.13.025-.253.076-.37.05-.118.117-.22.202-.308.085-.09.184-.157.296-.207.113-.05.234-.075.364-.075.13 0 .254.024.37.075.12.05.22.118.31.206.086.086.156.19.21.306.05.118.078.24.078.37v.002zm3.247-1.065v6.503h.345c.1 0 .184-.014.25-.04.07-.03.14-.085.215-.17l2.4-2.572c.07-.086.144-.152.22-.2.08-.047.182-.07.313-.07h1.207l-2.797 2.977c-.136.17-.28.302-.435.398.09.06.17.128.243.206.073.077.14.166.206.266l2.97 3.75H81.19c-.115 0-.214-.02-.296-.056-.083-.038-.154-.106-.214-.207l-2.498-3.112c-.075-.105-.148-.174-.22-.206-.073-.034-.184-.05-.335-.05h-.382V42h-1.343V30.953h1.343zm10.935 6.42c0-.31-.044-.593-.13-.85-.09-.258-.216-.48-.384-.668-.167-.188-.37-.333-.61-.435-.24-.104-.513-.155-.82-.155-.64 0-1.145.186-1.517.56-.374.37-.605.887-.695 1.547h4.155zm1.08 3.563c-.165.2-.362.374-.593.52-.23.15-.476.27-.738.365-.264.095-.535.166-.815.214-.28.047-.557.07-.832.07-.526 0-1.01-.088-1.452-.265-.44-.18-.824-.44-1.146-.78-.323-.344-.574-.767-.754-1.273-.18-.505-.27-1.084-.27-1.74 0-.53.08-1.024.244-1.484.162-.46.396-.86.7-1.197.306-.337.678-.602 1.118-.795.44-.19.935-.288 1.486-.288.455 0 .876.077 1.263.23.39.152.724.372 1.006.66.283.287.504.642.664 1.064.16.423.24.904.24 1.444 0 .21-.022.35-.067.42-.046.07-.13.105-.255.105H83.98c.015.48.08.897.2 1.253.116.355.28.65.49.888.21.238.46.415.75.533.29.116.615.175.975.175.335 0 .624-.04.866-.116.244-.08.452-.162.627-.252.176-.09.322-.174.44-.252.117-.077.218-.116.303-.116.11 0 .195.042.255.127l.375.488zm11.775-6.532l-4.237 9.84c-.046.1-.102.18-.17.24-.067.06-.17.09-.31.09h-.99l1.387-3.016-3.135-7.154h1.155c.115 0 .206.028.274.086.066.056.112.12.137.19l2.033 4.785c.08.21.147.43.202.66.07-.235.145-.457.225-.667l1.973-4.778c.03-.08.08-.146.154-.2.072-.05.153-.077.244-.077h1.057zm4.17-.12c.555 0 1.055.092 1.5.277.445.185.825.447 1.14.787.315.34.556.752.724 1.234.166.484.25 1.022.25 1.617 0 .6-.084 1.14-.25 1.62-.17.48-.41.89-.725 1.23-.315.34-.695.602-1.14.784-.445.184-.945.275-1.5.275-.56 0-1.064-.09-1.51-.274-.45-.18-.83-.442-1.145-.782-.315-.34-.556-.75-.724-1.23-.167-.48-.25-1.02-.25-1.62 0-.596.083-1.134.25-1.617.168-.48.41-.892.724-1.233.315-.34.696-.602 1.144-.787.447-.185.95-.278 1.51-.278zm0 6.78c.75 0 1.31-.252 1.68-.754.37-.504.555-1.205.555-2.105 0-.905-.185-1.61-.555-2.115-.37-.505-.93-.758-1.68-.758-.38 0-.71.065-.994.196-.28.13-.516.317-.704.562-.187.245-.327.546-.42.904-.092.357-.138.76-.138 1.21 0 .9.186 1.602.558 2.105.373.5.94.752 1.7.752zm11.55-6.66V42h-.795c-.19 0-.31-.092-.36-.278l-.105-.817c-.33.365-.7.66-1.11.88-.41.224-.88.335-1.41.335-.415 0-.78-.07-1.1-.206-.316-.138-.582-.33-.797-.58-.216-.252-.377-.554-.484-.91-.108-.354-.16-.746-.16-1.176v-4.845h1.334v4.845c0 .575.13 1.02.393 1.335.264.315.665.472 1.205.472.395 0 .764-.094 1.106-.28.344-.19.66-.447.95-.777v-5.595h1.335zm3.383 1.522c.24-.52.534-.926.884-1.22.35-.29.778-.438 1.283-.438.16 0 .314.018.46.053.15.035.28.09.395.165l-.097.998c-.03.125-.105.187-.225.187-.07 0-.173-.015-.308-.045s-.287-.045-.457-.045c-.24 0-.454.035-.642.105-.186.07-.354.174-.5.31-.15.14-.28.31-.4.51-.116.204-.222.435-.317.695V42h-1.343v-7.597h.765c.145 0 .245.027.3.082.055.055.093.15.112.285l.09 1.155zm16.762.908v4.125c-.54.39-1.116.68-1.73.873-.61.194-1.282.29-2.012.29-.866 0-1.645-.134-2.34-.4-.696-.27-1.29-.644-1.782-1.126-.492-.483-.87-1.06-1.136-1.736-.265-.676-.398-1.418-.398-2.228 0-.82.13-1.567.387-2.242.256-.676.622-1.254 1.098-1.737.475-.48 1.052-.855 1.732-1.12.68-.265 1.44-.398 2.28-.398.425 0 .82.032 1.185.094.365.063.702.153 1.012.27.31.118.598.26.863.428.265.167.512.356.743.566l-.413.66c-.065.1-.15.164-.25.19-.104.03-.217.005-.342-.07-.12-.07-.258-.155-.413-.255-.155-.1-.344-.196-.566-.29-.224-.09-.486-.17-.79-.235-.3-.065-.66-.098-1.075-.098-.605 0-1.152.1-1.643.297-.49.196-.907.48-1.252.846-.345.368-.61.813-.795 1.335-.185.524-.277 1.11-.277 1.76 0 .675.096 1.28.288 1.81.193.534.468.986.825 1.36.36.37.792.655 1.303.85.51.195 1.082.293 1.717.293.5 0 .944-.057 1.33-.17.39-.112.767-.268 1.138-.468v-2.362h-1.673c-.095 0-.17-.028-.23-.083-.056-.055-.085-.122-.085-.203v-.824h3.3zm3.262-2.43V42h-1.335v-7.597h1.335zm.285-2.386c0 .13-.026.252-.078.364-.054.114-.124.214-.21.3-.09.09-.19.157-.31.208-.116.05-.24.075-.37.075s-.25-.025-.364-.075c-.112-.05-.21-.12-.296-.207-.085-.086-.153-.186-.202-.3-.05-.11-.076-.232-.076-.363 0-.13.025-.253.076-.37.05-.118.117-.22.202-.308.085-.09.184-.157.296-.207.113-.05.234-.075.364-.075.13 0 .254.024.37.075.12.05.22.118.31.206.086.086.156.19.21.306.05.118.077.24.077.37v.002zm4.238 10.103c-.6 0-1.06-.167-1.384-.502-.32-.336-.483-.818-.483-1.448v-4.65h-.915c-.08 0-.147-.024-.202-.07-.055-.05-.082-.122-.082-.223v-.532l1.245-.157.307-2.348c.015-.075.05-.136.1-.184.054-.047.123-.07.207-.07h.675v2.617h2.198v.967h-2.197v4.56c0 .32.077.557.232.712.155.156.355.233.6.233.14 0 .26-.02.364-.056.1-.04.19-.08.265-.125.075-.045.14-.086.19-.124.054-.036.1-.055.14-.055.07 0 .132.042.188.127l.39.638c-.23.215-.508.384-.833.506-.325.123-.66.184-1.005.184zm4.387-6.705c.326-.345.685-.62 1.08-.825.396-.205.85-.308 1.366-.308.415 0 .78.07 1.098.207.318.136.583.33.795.584.214.252.375.556.485.91.11.356.165.748.165 1.178V42h-1.343v-4.837c0-.576-.13-1.022-.393-1.34-.263-.317-.66-.476-1.197-.476-.395 0-.763.095-1.106.285-.34.19-.657.448-.948.773V42h-1.342V30.953h1.343v4.462zm13.275-1.012V42h-.794c-.19 0-.31-.092-.36-.278l-.106-.817c-.33.365-.7.66-1.11.88-.41.224-.88.335-1.41.335-.415 0-.78-.07-1.098-.206-.32-.138-.585-.33-.8-.58-.215-.252-.376-.554-.484-.91-.107-.354-.16-.746-.16-1.176v-4.845h1.334v4.845c0 .575.13 1.02.394 1.335.262.315.663.472 1.204.472.395 0 .763-.094 1.106-.28.342-.19.658-.447.948-.777v-5.595h1.335zm3.458 5.767c.245.33.514.562.806.697.294.136.615.203.965.203.715 0 1.262-.252 1.643-.758.38-.505.57-1.257.57-2.257 0-.93-.17-1.614-.507-2.05-.336-.44-.817-.658-1.442-.658-.436 0-.814.1-1.137.3-.32.2-.62.483-.895.848v3.675zm0-4.672c.32-.37.68-.665 1.084-.886.4-.22.865-.33 1.39-.33.445 0 .846.085 1.204.256.357.17.66.416.91.738.25.323.442.714.575 1.174.13.46.197.977.197 1.552 0 .616-.074 1.175-.225 1.68-.15.506-.366.937-.648 1.294-.283.358-.626.635-1.032.833-.405.196-.86.295-1.364.295-.5 0-.922-.094-1.264-.28-.343-.19-.64-.455-.896-.8l-.068.69c-.04.19-.155.285-.345.285h-.862V30.953h1.342v4.545zm15.015 3.082c-.615.02-1.14.07-1.57.146-.434.078-.786.18-1.06.304-.27.125-.47.272-.59.442-.124.17-.185.36-.185.57 0 .2.032.373.097.518.065.145.154.264.267.356.11.093.244.16.396.203.153.04.316.063.492.063.235 0 .45-.024.644-.072.196-.046.38-.115.552-.205.172-.09.337-.197.495-.322.156-.126.31-.268.46-.428V38.58zm-4.313-3.105c.42-.405.873-.707 1.358-.907.485-.2 1.022-.3 1.612-.3.426 0 .803.07 1.133.21.33.14.607.334.832.584.226.25.395.553.51.908.116.355.173.745.173 1.17V42h-.593c-.13 0-.23-.02-.3-.064-.07-.042-.125-.126-.165-.25l-.15-.72c-.2.184-.394.348-.584.49-.19.143-.39.263-.6.36-.21.098-.434.173-.672.225-.236.054-.5.08-.79.08-.295 0-.572-.04-.833-.124-.26-.082-.486-.206-.678-.37-.194-.166-.346-.375-.46-.627-.11-.254-.168-.552-.168-.898 0-.3.083-.588.248-.866.165-.277.432-.523.803-.738.37-.216.852-.392 1.447-.53.595-.137 1.325-.215 2.19-.236v-.592c0-.59-.127-1.036-.382-1.34-.256-.3-.628-.453-1.118-.453-.33 0-.606.042-.83.124-.22.084-.414.176-.576.28-.163.1-.303.194-.42.276-.118.083-.234.124-.35.124-.09 0-.167-.024-.232-.07-.065-.05-.12-.107-.165-.177l-.24-.428zm12.938.277c-.04.056-.08.098-.12.128-.04.03-.095.045-.165.045-.075 0-.157-.03-.248-.094-.09-.06-.2-.13-.333-.205-.134-.075-.296-.144-.49-.206-.19-.064-.427-.095-.708-.095-.375 0-.704.066-.99.2-.285.13-.523.322-.716.572-.192.25-.337.553-.435.908-.096.355-.145.752-.145 1.192 0 .46.052.87.157 1.227.106.357.254.657.447.9.19.242.424.427.696.555.273.126.58.19.92.19.324 0 .59-.04.802-.116.21-.078.383-.164.52-.26.138-.094.253-.18.346-.258.092-.077.183-.116.273-.116.11 0 .195.042.255.127l.375.488c-.165.205-.352.38-.562.525-.21.145-.436.266-.68.364-.24.097-.495.168-.76.214-.265.045-.535.067-.81.067-.475 0-.916-.087-1.324-.262-.406-.176-.76-.43-1.06-.762-.3-.33-.535-.74-.705-1.225-.17-.485-.255-1.037-.255-1.657 0-.566.08-1.088.236-1.568.158-.48.388-.894.69-1.24.303-.35.675-.62 1.118-.815.442-.195.95-.293 1.526-.293.535 0 1.006.087 1.414.26.407.172.768.415 1.084.73l-.353.48zm7.028 0c-.04.056-.08.098-.12.128-.04.03-.096.045-.166.045-.075 0-.157-.03-.247-.094-.09-.06-.2-.13-.334-.205-.132-.075-.295-.144-.487-.206-.194-.064-.43-.095-.71-.095-.375 0-.705.066-.99.2-.285.13-.524.322-.716.572-.193.25-.338.553-.435.908-.1.355-.148.752-.148 1.192 0 .46.053.87.158 1.227.105.357.254.657.446.9.193.242.425.427.698.555.272.126.578.19.918.19.326 0 .593-.04.803-.116.21-.078.384-.164.52-.26.14-.094.254-.18.346-.258.094-.077.185-.116.275-.116.11 0 .195.042.255.127l.375.488c-.165.205-.352.38-.563.525-.21.145-.436.266-.678.364-.243.097-.496.168-.762.214-.265.045-.534.067-.81.067-.475 0-.916-.087-1.323-.262-.41-.176-.762-.43-1.063-.762-.3-.33-.534-.74-.705-1.225-.17-.485-.255-1.037-.255-1.657 0-.566.08-1.088.237-1.568.157-.48.387-.894.69-1.24.302-.35.675-.62 1.117-.815.444-.195.952-.293 1.527-.293.536 0 1.007.087 1.414.26.41.172.77.415 1.085.73l-.352.48zm4.942-1.47c.555 0 1.055.093 1.5.278.445.185.825.447 1.14.787.315.34.556.752.724 1.234.166.484.25 1.022.25 1.617 0 .6-.084 1.14-.25 1.62-.17.48-.41.89-.725 1.23-.315.34-.695.602-1.14.784-.445.184-.945.275-1.5.275-.56 0-1.064-.09-1.51-.274-.45-.18-.83-.442-1.145-.782-.315-.34-.556-.75-.724-1.23-.167-.48-.25-1.02-.25-1.62 0-.596.083-1.134.25-1.617.168-.48.41-.892.724-1.233.315-.34.696-.602 1.144-.787.447-.185.95-.278 1.51-.278zm0 6.78c.75 0 1.31-.25 1.68-.753.37-.504.555-1.205.555-2.105 0-.905-.185-1.61-.555-2.115-.37-.505-.93-.758-1.68-.758-.38 0-.71.065-.994.196-.28.13-.516.317-.704.562-.187.245-.327.546-.42.904-.092.357-.138.76-.138 1.21 0 .9.186 1.602.558 2.105.373.5.94.752 1.7.752zm11.55-6.66V42h-.795c-.19 0-.31-.092-.36-.278l-.105-.817c-.33.365-.7.66-1.11.88-.41.224-.88.335-1.41.335-.415 0-.78-.07-1.1-.206-.316-.138-.582-.33-.798-.58-.215-.252-.376-.554-.483-.91-.108-.354-.16-.746-.16-1.176v-4.845h1.333v4.845c0 .575.132 1.02.394 1.335.264.315.665.472 1.205.472.395 0 .764-.094 1.106-.28.344-.19.66-.447.95-.777v-5.595h1.335zm3.375 1.103c.165-.185.34-.352.525-.503.185-.15.38-.278.59-.386.206-.107.426-.19.66-.247.23-.06.482-.087.752-.087.416 0 .782.068 1.1.206.317.136.582.33.794.584.214.252.375.556.485.91.11.356.165.748.165 1.178V42h-1.343v-4.837c0-.576-.13-1.022-.393-1.34-.263-.317-.66-.476-1.197-.476-.395 0-.763.095-1.106.285-.34.19-.657.448-.947.773V42h-1.343v-7.597h.802c.19 0 .308.092.353.277l.105.825zm9.338 6.615c-.6 0-1.062-.167-1.384-.502-.323-.336-.484-.818-.484-1.448v-4.65h-.915c-.08 0-.148-.024-.203-.07-.055-.05-.082-.122-.082-.223v-.532l1.245-.157.308-2.348c.014-.075.048-.136.1-.184.053-.047.122-.07.207-.07h.675v2.617h2.197v.967h-2.197v4.56c0 .32.077.557.232.712.156.156.355.233.6.233.14 0 .262-.02.364-.056.104-.04.192-.08.267-.125.076-.045.14-.086.192-.124.05-.036.097-.055.137-.055.07 0 .133.042.188.127l.39.638c-.23.215-.507.384-.832.506-.326.123-.66.184-1.005.184zm8.294-7.717V42h-1.335v-7.597h1.335zm.285-2.386c0 .13-.026.252-.078.364-.054.114-.124.214-.21.3-.09.09-.19.157-.31.208-.116.05-.24.075-.37.075s-.25-.025-.364-.075c-.112-.05-.21-.12-.296-.207-.085-.086-.153-.186-.202-.3-.05-.11-.076-.232-.076-.363 0-.13.025-.253.076-.37.05-.118.117-.22.202-.308.085-.09.184-.157.296-.207.113-.05.234-.075.364-.075.13 0 .254.024.37.075.12.05.22.118.31.206.086.086.156.19.21.306.05.118.077.24.077.37v.002zm6.33 3.638c-.06.11-.152.165-.277.165-.075 0-.16-.027-.255-.083-.095-.055-.21-.116-.35-.183-.136-.068-.3-.13-.49-.188-.19-.057-.415-.086-.675-.086-.225 0-.427.03-.607.086-.18.058-.334.136-.462.236-.126.1-.224.217-.29.35-.07.132-.103.275-.103.43 0 .196.057.358.17.488.112.13.26.242.445.338.186.095.395.178.63.25.236.073.477.15.724.233.248.084.49.175.724.275.235.1.445.225.63.375s.334.334.446.55c.113.22.17.48.17.785 0 .35-.063.674-.19.97-.124.3-.308.556-.553.774-.246.216-.545.387-.9.512-.356.126-.765.188-1.23.188-.53 0-1.01-.086-1.44-.26-.43-.17-.795-.392-1.096-.663l.316-.51c.04-.065.087-.114.142-.15.055-.035.125-.052.21-.052.09 0 .185.035.285.105.1.07.22.147.364.232.142.086.316.163.52.233.206.07.46.105.766.105.26 0 .487-.034.683-.1.195-.07.357-.16.487-.275.13-.115.226-.247.29-.397.06-.15.093-.31.093-.48 0-.21-.057-.384-.17-.522-.112-.137-.26-.255-.445-.352-.186-.098-.397-.183-.634-.255-.238-.074-.48-.15-.728-.23-.247-.08-.49-.17-.727-.274-.24-.102-.45-.23-.635-.386-.185-.155-.334-.346-.446-.574-.114-.227-.17-.503-.17-.83 0-.29.06-.567.18-.835.12-.266.295-.5.525-.704.23-.202.512-.363.848-.483.335-.12.717-.18 1.147-.18.5 0 .95.078 1.346.236.398.156.74.372 1.03.647l-.298.488zm10.028 2.925c-.615.02-1.14.07-1.57.146-.434.078-.786.18-1.06.304-.27.125-.47.272-.59.442-.124.17-.185.36-.185.57 0 .2.032.373.097.518.066.145.154.264.267.356.112.093.245.16.397.203.154.04.317.063.493.063.235 0 .45-.024.644-.072.196-.046.38-.115.552-.205.17-.09.336-.197.494-.322.157-.126.31-.268.46-.428V38.58zm-4.313-3.105c.42-.405.873-.707 1.358-.907.485-.2 1.022-.3 1.613-.3.425 0 .802.07 1.132.21.33.14.607.334.833.584.225.25.394.553.51.908.115.355.172.745.172 1.17V42h-.593c-.13 0-.23-.02-.3-.064-.07-.042-.124-.126-.164-.25l-.15-.72c-.2.184-.395.348-.585.49-.19.143-.39.263-.6.36-.21.098-.434.173-.672.225-.237.054-.5.08-.79.08-.296 0-.573-.04-.834-.124-.26-.082-.486-.206-.678-.37-.193-.166-.345-.375-.458-.627-.112-.254-.168-.552-.168-.898 0-.3.082-.588.247-.866.165-.277.432-.523.802-.738.37-.216.853-.392 1.448-.53.595-.137 1.325-.215 2.19-.236v-.592c0-.59-.127-1.036-.383-1.34-.255-.3-.627-.453-1.117-.453-.33 0-.606.042-.83.124-.22.084-.414.176-.576.28-.164.1-.304.194-.42.276-.12.083-.235.124-.35.124-.09 0-.167-.024-.232-.07-.065-.05-.12-.107-.166-.177l-.24-.428zm13.898-1.072V42h-.795c-.19 0-.31-.092-.36-.278l-.105-.817c-.33.365-.7.66-1.11.88-.41.224-.88.335-1.41.335-.415 0-.78-.07-1.1-.206-.316-.138-.582-.33-.797-.58-.216-.252-.377-.554-.484-.91-.11-.354-.162-.746-.162-1.176v-4.845h1.335v4.845c0 .575.13 1.02.393 1.335.263.315.664.472 1.204.472.395 0 .764-.094 1.106-.28.343-.19.66-.447.95-.777v-5.595h1.334zm4.447 7.717c-.6 0-1.06-.167-1.383-.502-.323-.336-.484-.818-.484-1.448v-4.65h-.915c-.08 0-.148-.024-.202-.07-.055-.05-.083-.122-.083-.223v-.532l1.245-.157.308-2.348c.014-.075.048-.136.1-.184.053-.047.122-.07.207-.07h.675v2.617h2.197v.967h-2.197v4.56c0 .32.077.557.233.712.155.156.354.233.6.233.14 0 .26-.02.363-.056.104-.04.192-.08.267-.125.075-.045.14-.086.192-.124.05-.036.098-.055.138-.055.07 0 .132.042.187.127l.39.638c-.23.215-.507.384-.833.506-.325.123-.66.184-1.005.184zm4.388-6.705c.325-.345.685-.62 1.08-.825.395-.205.85-.308 1.365-.308.415 0 .78.07 1.1.207.316.136.58.33.794.584.212.252.373.556.483.91.11.356.165.748.165 1.178V42h-1.342v-4.837c0-.576-.13-1.022-.394-1.34-.262-.317-.66-.476-1.196-.476-.395 0-.764.095-1.106.285-.343.19-.66.448-.95.773V42h-1.34l-.002-11.047h1.343v4.462zm10.23-1.133c.555 0 1.055.093 1.5.278.445.185.825.447 1.14.787.315.34.556.752.724 1.234.166.484.25 1.022.25 1.617 0 .6-.084 1.14-.25 1.62-.17.48-.41.89-.725 1.23-.315.34-.695.602-1.14.784-.445.184-.945.275-1.5.275-.56 0-1.064-.09-1.51-.274-.45-.18-.83-.442-1.145-.782-.315-.34-.556-.75-.724-1.23-.167-.48-.25-1.02-.25-1.62 0-.596.083-1.134.25-1.617.168-.48.41-.892.724-1.233.315-.34.696-.602 1.144-.787.447-.185.95-.278 1.51-.278zm0 6.78c.75 0 1.31-.25 1.68-.753.37-.504.555-1.205.555-2.105 0-.905-.185-1.61-.555-2.115-.37-.505-.93-.758-1.68-.758-.38 0-.71.065-.994.196-.28.13-.516.317-.704.562-.187.245-.327.546-.42.904-.092.357-.14.76-.14 1.21.002.9.188 1.602.56 2.105.373.5.94.752 1.7.752zm6.57-5.137c.24-.52.535-.926.885-1.22.35-.29.777-.438 1.282-.438.16 0 .314.018.462.053.147.035.278.09.394.165l-.098.998c-.03.125-.105.187-.225.187-.07 0-.172-.015-.308-.045-.135-.03-.287-.045-.457-.045-.24 0-.454.035-.64.105-.19.07-.356.174-.504.31-.147.14-.28.31-.397.51-.12.204-.225.435-.32.695V42h-1.343v-7.597h.765c.146 0 .245.027.3.082.055.055.093.15.113.285l.09 1.155zm5.603-1.522V42h-1.335v-7.597h1.334zm.285-2.386c0 .13-.027.252-.08.364-.052.114-.122.214-.21.3-.087.09-.19.157-.307.208-.117.05-.24.075-.37.075s-.252-.025-.365-.075c-.11-.05-.21-.12-.295-.207-.085-.086-.153-.186-.203-.3-.05-.11-.075-.232-.075-.363 0-.13.025-.253.075-.37.05-.118.118-.22.203-.308.085-.09.184-.157.296-.207.114-.05.235-.075.365-.075s.254.024.37.075c.12.05.22.118.31.206.086.086.156.19.21.306.05.118.078.24.078.37v.002zm7.147 2.955c0 .096-.016.188-.05.278-.03.09-.075.167-.13.233l-4.118 5.475h4.156V42h-5.723v-.555c0-.065.015-.14.045-.23.03-.086.075-.17.135-.25l4.14-5.513h-4.087v-1.05h5.632v.57zm6.48 2.4c0-.31-.044-.593-.13-.85-.09-.258-.216-.48-.384-.668-.167-.188-.37-.333-.61-.435-.24-.104-.513-.155-.818-.155-.64 0-1.147.186-1.52.56-.372.37-.603.887-.693 1.547h4.155zm1.08 3.563c-.165.2-.362.374-.593.52-.23.15-.476.27-.738.365-.264.095-.535.166-.815.214-.28.047-.557.07-.833.07-.525 0-1.008-.088-1.45-.265-.443-.18-.826-.44-1.148-.78-.323-.344-.574-.767-.754-1.273-.18-.505-.27-1.084-.27-1.74 0-.53.08-1.024.244-1.484.162-.46.396-.86.7-1.197.306-.337.678-.602 1.118-.795.44-.19.935-.288 1.486-.288.455 0 .876.077 1.263.23.39.152.724.372 1.006.66.283.287.504.642.664 1.064.16.423.24.904.24 1.444 0 .21-.023.35-.067.42-.046.07-.13.105-.255.105h-5.078c.015.48.08.897.2 1.253.116.355.28.65.49.888.21.238.46.415.75.533.29.116.615.175.975.175.335 0 .624-.04.866-.116.244-.08.452-.162.627-.252.176-.09.322-.174.44-.252.117-.077.218-.116.303-.116.11 0 .195.042.255.127l.375.488zm6.705-4.725c-.25-.335-.52-.57-.81-.7-.29-.134-.615-.2-.975-.2-.705 0-1.247.252-1.627.758-.38.505-.57 1.224-.57 2.16 0 .495.042.918.127 1.27.085.353.21.643.375.87.165.228.367.394.608.5.24.105.512.157.817.157.44 0 .824-.1 1.15-.3.33-.2.63-.482.905-.848V36.21zm1.335-5.258V42h-.795c-.19 0-.31-.092-.36-.278l-.12-.922c-.325.39-.695.705-1.11.945-.415.24-.895.36-1.44.36-.435 0-.83-.084-1.185-.25-.355-.17-.657-.415-.907-.74s-.443-.73-.578-1.215c-.135-.485-.203-1.042-.203-1.672 0-.56.075-1.082.226-1.564.15-.483.364-.9.644-1.257.28-.355.624-.633 1.032-.836.407-.2.866-.303 1.376-.303.465 0 .864.08 1.196.237.333.157.63.376.89.656v-4.207h1.334zM17.837 55.282c0 1.07.137 2.11.41 3.12.272 1.01.67 1.97 1.195 2.88.08.156.1.274.06.357-.04.08-.097.147-.172.197l-.592.36c-.376-.575-.694-1.144-.957-1.71-.26-.565-.474-1.132-.636-1.702-.163-.57-.28-1.144-.356-1.72-.076-.58-.113-1.172-.113-1.782 0-.606.037-1.198.113-1.778.075-.58.193-1.154.356-1.72.162-.57.375-1.135.637-1.7.264-.565.582-1.137.957-1.718l.593.368c.075.05.132.116.173.2.04.08.02.197-.06.347-.526.91-.924 1.87-1.197 2.88-.272 1.01-.41 2.05-.41 3.12h.002zm9.63-2.88l-4.237 9.84c-.045.1-.1.18-.17.24-.066.06-.17.09-.31.09h-.99l1.387-3.015-3.134-7.154h1.154c.116 0 .207.028.274.086.07.056.115.12.14.19l2.033 4.785c.08.21.147.43.202.66.07-.235.145-.457.225-.667l1.973-4.778c.03-.08.08-.146.153-.2.073-.05.154-.077.244-.077h1.058zm5.145 4.178c-.615.02-1.138.07-1.57.146-.433.078-.786.18-1.058.304-.273.125-.47.272-.593.442-.12.17-.183.36-.183.57 0 .2.033.373.098.518.065.145.154.264.266.356.114.093.246.16.4.203.15.04.315.063.49.063.235 0 .45-.024.645-.072.195-.046.38-.115.55-.205.174-.09.34-.197.496-.322.16-.126.312-.268.462-.428V56.58zM28.3 53.475c.42-.405.872-.707 1.357-.907.486-.2 1.023-.3 1.613-.3.425 0 .802.07 1.133.21.33.14.607.334.832.584.225.25.395.553.51.908.115.355.172.745.172 1.17V60h-.592c-.13 0-.23-.02-.3-.064-.07-.042-.125-.126-.165-.25l-.15-.72c-.2.184-.395.348-.585.49-.19.143-.39.263-.6.36-.21.098-.434.173-.67.225-.24.054-.502.08-.793.08-.295 0-.572-.04-.832-.124-.26-.082-.486-.206-.68-.37-.19-.166-.344-.375-.456-.627-.113-.254-.17-.552-.17-.898 0-.3.083-.588.248-.866.166-.277.433-.523.803-.738.37-.216.852-.392 1.447-.53.596-.137 1.325-.215 2.19-.236v-.592c0-.59-.127-1.036-.382-1.34-.255-.3-.627-.453-1.117-.453-.33 0-.607.042-.83.124-.222.084-.414.176-.577.28-.162.1-.302.194-.42.276-.117.083-.233.124-.35.124-.09 0-.166-.024-.23-.07-.066-.05-.12-.107-.166-.177l-.24-.428zm14.025-1.072l-4.238 9.84c-.045.1-.1.18-.168.24-.07.06-.172.09-.313.09h-.99l1.388-3.016-3.135-7.154h1.155c.115 0 .206.028.274.086.066.056.112.12.138.19l2.032 4.785c.08.21.147.43.203.66.07-.235.144-.457.224-.667l1.973-4.778c.03-.08.08-.146.154-.2.072-.05.153-.077.243-.077h1.058zm2.782-3.15v4.29c0 .225-.004.444-.014.66-.01.215-.023.43-.038.648-.015.22-.034.44-.056.67-.024.226-.05.47-.08.73h-.9c-.03-.26-.056-.504-.08-.73-.02-.23-.04-.45-.055-.67-.015-.216-.027-.432-.038-.648-.01-.215-.014-.434-.014-.66v-4.29h1.275zm-1.597 9.922c0-.13.024-.252.07-.367.05-.116.115-.215.2-.3.085-.086.184-.153.296-.203.113-.05.236-.075.37-.075.132 0 .253.025.365.075.114.05.212.117.297.203.086.085.153.184.203.3.05.115.075.237.075.367 0 .135-.025.26-.075.37-.05.114-.117.212-.203.297-.085.086-.183.152-.296.2-.11.047-.232.07-.363.07-.135 0-.258-.023-.37-.07-.113-.048-.212-.114-.297-.2-.085-.085-.15-.183-.2-.296-.046-.112-.07-.236-.07-.37zm5.138-3.892c0-1.07-.137-2.11-.41-3.12-.272-1.01-.67-1.97-1.196-2.88-.04-.076-.064-.142-.075-.2-.01-.057-.007-.107.008-.15.015-.042.04-.08.07-.112.034-.03.07-.06.11-.085l.593-.367c.375.58.693 1.152.956 1.717.262.565.475 1.13.637 1.7.164.566.282 1.14.357 1.72.076.58.113 1.172.113 1.777 0 .61-.037 1.204-.113 1.782-.075.577-.193 1.15-.356 1.72-.16.57-.374 1.138-.636 1.703-.263.566-.58 1.135-.956 1.71l-.593-.36c-.04-.025-.076-.053-.11-.086-.03-.03-.055-.07-.07-.11-.015-.044-.018-.095-.008-.155.01-.06.035-.127.075-.203.526-.91.924-1.87 1.197-2.88.27-1.01.407-2.05.407-3.12zm2.812 6.532c-.04-.035-.067-.067-.083-.097-.015-.03-.022-.068-.022-.113 0-.035.01-.07.034-.105.02-.035.047-.067.078-.097.05-.056.113-.128.19-.218.078-.09.157-.196.237-.32.08-.12.154-.256.22-.404.07-.146.117-.302.148-.468-.016.006-.032.008-.05.008h-.048c-.26 0-.47-.086-.634-.26-.16-.17-.242-.392-.242-.663 0-.235.08-.434.243-.6.164-.165.38-.247.65-.247.15 0 .282.027.398.083.115.055.21.13.288.228.078.1.136.21.176.34.04.126.06.265.06.415 0 .225-.03.46-.093.7-.064.244-.156.484-.28.72-.12.24-.27.47-.445.695-.175.225-.375.432-.6.623l-.225-.218zm8.67-3.645c.245.33.514.562.806.697.293.136.614.203.964.203.715 0 1.262-.252 1.642-.758.38-.505.57-1.257.57-2.257 0-.93-.168-1.614-.506-2.05-.337-.44-.818-.658-1.444-.658-.435 0-.813.1-1.136.3-.322.2-.62.483-.896.848v3.675zm0-4.672c.32-.37.68-.665 1.084-.886.402-.22.866-.33 1.39-.33.446 0 .847.085 1.205.256.356.17.66.416.91.738.25.323.44.714.574 1.174.132.46.2.977.2 1.552 0 .616-.076 1.175-.227 1.68-.15.506-.366.937-.648 1.294-.284.358-.627.635-1.033.833-.405.196-.86.295-1.365.295-.5 0-.92-.094-1.263-.28-.344-.19-.642-.455-.898-.8l-.067.69c-.04.19-.155.285-.345.285h-.862V48.953h1.342v4.544zm13.305-1.095V60h-.795c-.19 0-.31-.092-.36-.278l-.105-.817c-.33.365-.7.66-1.11.88-.41.224-.88.335-1.41.335-.415 0-.78-.07-1.1-.206-.316-.138-.582-.33-.798-.58-.215-.252-.376-.554-.483-.91-.108-.354-.162-.746-.162-1.176v-4.845h1.336v4.845c0 .575.13 1.02.393 1.335.264.315.665.472 1.205.472.395 0 .764-.094 1.106-.28.344-.19.66-.447.95-.777v-5.595h1.335zm4.447 7.717c-.6 0-1.06-.167-1.383-.502-.324-.336-.485-.818-.485-1.448v-4.65H75.1c-.08 0-.147-.024-.203-.07-.055-.05-.082-.122-.082-.223v-.532l1.245-.157.308-2.348c.015-.075.048-.136.1-.184.053-.047.122-.07.207-.07h.675v2.617h2.198v.967H77.35v4.56c0 .32.077.557.233.712.155.156.354.233.6.233.14 0 .26-.02.363-.056.103-.04.19-.08.266-.125.076-.045.14-.086.192-.124.052-.036.098-.055.138-.055.07 0 .133.042.188.127l.39.638c-.23.215-.507.384-.832.506-.326.123-.66.184-1.006.184zm8.655-.12h-1.455V49.252h1.456V60zm10.695-6.345c-.06.11-.152.165-.277.165-.075 0-.16-.027-.255-.083-.095-.055-.21-.116-.35-.183-.136-.068-.3-.13-.49-.188-.19-.057-.415-.086-.675-.086-.225 0-.427.03-.608.086-.18.058-.333.136-.46.236-.128.1-.226.217-.293.35-.068.132-.102.275-.102.43 0 .196.057.358.17.488.112.13.26.242.446.338.185.095.394.178.63.25.235.073.476.15.723.233.25.084.49.175.725.275.235.1.445.225.63.375s.334.334.446.55c.114.22.17.48.17.785 0 .35-.062.674-.188.97-.125.3-.31.556-.554.774-.246.216-.545.387-.9.512-.356.126-.765.188-1.23.188-.53 0-1.01-.086-1.44-.26-.43-.17-.795-.392-1.096-.663l.316-.51c.04-.065.087-.114.142-.15.055-.035.125-.052.21-.052.09 0 .185.035.285.105.1.07.22.147.364.232.14.086.315.163.52.233.205.07.46.105.765.105.26 0 .487-.034.682-.1.196-.07.358-.16.488-.275.13-.115.226-.247.29-.397.06-.15.093-.31.093-.48 0-.21-.057-.384-.17-.522-.112-.137-.26-.255-.445-.352-.186-.098-.397-.183-.634-.255-.24-.074-.48-.15-.73-.23-.246-.08-.49-.17-.726-.274-.238-.102-.45-.23-.634-.386-.185-.155-.334-.346-.446-.574-.113-.227-.17-.503-.17-.83 0-.29.06-.567.18-.835.12-.266.296-.5.526-.704.23-.202.512-.363.847-.483.336-.12.718-.18 1.148-.18.5 0 .95.078 1.346.236.4.156.742.372 1.032.647l-.3.488zm9.12 6.345h-1.335v-6.48h-3.914v4.56c0 .32.077.557.232.712.155.156.355.233.6.233.14 0 .26-.02.364-.056.1-.04.19-.08.265-.125.075-.045.14-.086.19-.124.054-.036.1-.055.14-.055.07 0 .133.042.188.127l.39.638c-.23.215-.508.384-.833.506-.325.123-.66.184-1.005.184-.6 0-1.06-.167-1.384-.502-.32-.336-.483-.818-.483-1.448v-4.65h-.914c-.08 0-.148-.024-.203-.07-.055-.05-.083-.122-.083-.223v-.532l1.246-.165.307-2.34c.015-.075.05-.136.1-.184.054-.047.123-.07.207-.07h.675v2.617h5.25V60zm.33-10.035c0 .13-.026.25-.078.364-.053.11-.123.21-.21.295-.088.085-.19.152-.304.203-.115.05-.237.075-.368.075-.13 0-.25-.025-.363-.075-.114-.05-.213-.118-.297-.203-.085-.085-.153-.184-.203-.296-.05-.114-.075-.235-.075-.365s.025-.254.075-.37c.05-.12.118-.22.203-.31.084-.086.183-.155.296-.205.11-.05.232-.075.362-.075.13 0 .253.025.368.075.115.05.216.12.304.206.087.088.157.19.21.308.052.117.08.24.08.37zm3.24-1.013V60h-1.334V48.953h1.335zm3.54 0V60h-1.335V48.953h1.336zm7.26 4.553c.166-.185.34-.352.526-.503.185-.15.38-.278.588-.386.208-.107.428-.19.66-.247.233-.06.484-.087.754-.087.415 0 .78.068 1.1.206.316.136.58.33.794.584.212.252.373.556.483.91.11.356.166.748.166 1.178V60h-1.343v-4.837c0-.576-.13-1.022-.394-1.34-.262-.317-.66-.476-1.196-.476-.395 0-.764.095-1.106.285-.343.19-.66.448-.95.773V60h-1.34v-7.597h.8c.19 0 .31.092.354.277l.105.825zm12.195 1.867c0-.31-.043-.593-.13-.85-.088-.258-.216-.48-.383-.668-.168-.188-.37-.333-.612-.435-.24-.104-.512-.155-.817-.155-.64 0-1.146.186-1.52.56-.37.37-.603.887-.693 1.547h4.155zm1.08 3.563c-.165.2-.362.374-.592.52-.23.15-.476.27-.74.365-.26.095-.532.166-.813.214-.28.047-.557.07-.832.07-.525 0-1.01-.088-1.45-.265-.444-.18-.826-.44-1.15-.78-.32-.344-.572-.767-.752-1.273-.18-.505-.27-1.084-.27-1.74 0-.53.08-1.024.243-1.484.164-.46.397-.86.703-1.197.305-.337.677-.602 1.117-.795.44-.19.935-.288 1.485-.288.455 0 .876.077 1.264.23.386.152.72.372 1.004.66.282.287.503.642.663 1.064.16.423.24.904.24 1.444 0 .21-.022.35-.067.42-.045.07-.13.105-.255.105h-5.077c.014.48.08.897.198 1.253.118.355.28.65.492.888.21.238.46.415.75.533.29.116.614.175.975.175.335 0 .623-.04.866-.116.24-.08.45-.162.625-.252s.32-.174.44-.252c.116-.077.218-.116.303-.116.11 0 .195.042.255.127l.375.488zm6.84-3.563c0-.31-.043-.593-.13-.85-.088-.258-.216-.48-.383-.668-.168-.188-.37-.333-.612-.435-.24-.104-.512-.155-.817-.155-.64 0-1.146.186-1.52.56-.37.37-.602.887-.692 1.547h4.155zm1.08 3.563c-.165.2-.362.374-.592.52-.23.15-.476.27-.74.365-.26.095-.532.166-.813.214-.28.047-.557.07-.832.07-.525 0-1.01-.088-1.45-.265-.444-.18-.826-.44-1.15-.78-.32-.344-.572-.767-.752-1.273-.18-.505-.27-1.084-.27-1.74 0-.53.08-1.024.243-1.484.164-.46.397-.86.702-1.197.306-.337.678-.602 1.118-.795.44-.19.935-.288 1.485-.288.455 0 .876.077 1.264.23.386.152.72.372 1.004.66.282.287.503.642.664 1.064.16.423.24.904.24 1.444 0 .21-.023.35-.068.42-.045.07-.13.105-.255.105h-5.078c.016.48.082.897.2 1.253.117.355.28.65.49.888.21.238.46.415.75.533.29.116.615.175.976.175.335 0 .623-.04.866-.116.24-.08.45-.162.625-.252s.32-.174.44-.252c.116-.077.217-.116.302-.116.11 0 .195.042.255.127l.375.488zm6.706-4.725c-.25-.335-.52-.57-.81-.7-.29-.134-.615-.2-.975-.2-.706 0-1.248.252-1.628.758-.38.505-.57 1.224-.57 2.16 0 .495.043.918.128 1.27.084.353.21.643.375.87.165.228.367.394.607.5.24.105.512.157.817.157.44 0 .824-.1 1.152-.3.326-.2.627-.482.903-.848V54.21zm1.335-5.258V60h-.796c-.19 0-.31-.092-.36-.278l-.12-.922c-.325.39-.694.705-1.11.945-.415.24-.894.36-1.44.36-.435 0-.83-.084-1.185-.25-.355-.17-.657-.415-.907-.74s-.442-.73-.577-1.215c-.136-.485-.203-1.042-.203-1.672 0-.56.075-1.082.225-1.564.15-.483.365-.9.645-1.257.28-.355.624-.633 1.03-.836.41-.2.867-.303 1.377-.303.466 0 .864.08 1.197.237.332.157.628.376.888.656v-4.207h1.335zm7.297 0v6.503h.345c.1 0 .184-.014.25-.04.07-.03.14-.085.215-.17l2.4-2.572c.07-.086.144-.152.22-.2.08-.047.182-.07.313-.07h1.207l-2.798 2.977c-.135.17-.28.302-.435.398.09.06.172.128.244.206.073.077.14.166.207.266l2.97 3.75H161.2c-.115 0-.214-.02-.296-.056-.083-.038-.154-.106-.214-.207l-2.498-3.112c-.075-.105-.148-.174-.22-.206-.073-.034-.184-.05-.335-.05h-.382V60h-1.343V48.953h1.343zm7.537 4.553c.166-.185.34-.352.525-.503.186-.15.382-.278.59-.386.207-.107.427-.19.66-.247.232-.06.483-.087.753-.087.415 0 .78.068 1.1.206.316.136.58.33.794.584.212.252.373.556.483.91.11.356.166.748.166 1.178V60h-1.343v-4.837c0-.576-.13-1.022-.394-1.34-.262-.317-.66-.476-1.196-.476-.395 0-.764.095-1.106.285-.343.19-.66.448-.95.773V60h-1.34v-7.597h.8c.19 0 .31.092.353.277l.105.825zm10.313-1.223c.555 0 1.055.093 1.5.278.445.185.825.447 1.14.787.315.34.556.752.724 1.234.166.484.25 1.022.25 1.617 0 .6-.084 1.14-.25 1.62-.17.48-.41.89-.725 1.23-.315.34-.695.602-1.14.784-.445.184-.945.275-1.5.275-.56 0-1.064-.09-1.51-.274-.45-.18-.83-.442-1.145-.782-.315-.34-.556-.75-.724-1.23-.167-.48-.25-1.02-.25-1.62 0-.596.083-1.134.25-1.617.168-.48.41-.892.724-1.233.315-.34.696-.602 1.144-.787.447-.185.95-.278 1.51-.278zm0 6.78c.75 0 1.31-.25 1.68-.753.37-.504.555-1.205.555-2.105 0-.905-.185-1.61-.555-2.115-.37-.505-.93-.758-1.68-.758-.38 0-.71.065-.994.196-.28.13-.516.317-.704.562-.187.245-.327.546-.42.904-.092.357-.138.76-.138 1.21 0 .9.186 1.602.558 2.105.373.5.94.752 1.7.752zm15.668-6.66L188.313 60h-1.058c-.13 0-.22-.085-.27-.255l-1.68-5.152c-.04-.116-.073-.232-.097-.35l-.076-.348-.075.35c-.024.116-.057.235-.097.355l-1.71 5.145c-.045.17-.145.255-.3.255h-1.005l-2.46-7.597h1.05c.105 0 .194.027.266.082.074.055.123.12.147.195l1.456 4.89c.085.36.152.7.202 1.02.045-.165.09-.332.14-.503.046-.17.097-.342.153-.517l1.605-4.92c.025-.075.068-.137.13-.188.063-.05.14-.075.23-.075h.584c.1 0 .183.025.248.075.065.05.11.113.135.188l1.567 4.92c.055.175.106.347.15.517.046.17.088.338.128.503.025-.165.056-.33.094-.5.036-.166.077-.34.123-.52l1.484-4.89c.025-.08.073-.146.143-.2.07-.05.153-.077.248-.077h1.005zm15.007 0L203.32 60h-1.058c-.13 0-.22-.085-.27-.255l-1.68-5.152c-.04-.116-.072-.232-.097-.35l-.075-.348-.075.35c-.025.116-.058.235-.097.355l-1.71 5.145c-.046.17-.145.255-.3.255h-1.006l-2.46-7.597h1.05c.106 0 .194.027.267.082.07.055.12.12.145.195l1.455 4.89c.085.36.153.7.203 1.02.044-.165.09-.332.138-.503.05-.17.1-.342.155-.517l1.605-4.92c.025-.075.07-.137.13-.188.064-.05.14-.075.23-.075h.585c.1 0 .182.025.247.075.066.05.11.113.136.188l1.567 4.92c.055.175.105.347.15.517.045.17.088.338.127.503.026-.165.057-.33.094-.5.038-.166.08-.34.124-.52l1.485-4.89c.025-.08.073-.146.143-.2.07-.05.152-.077.247-.077h1.005zm2.648 1.013c.325-.345.684-.62 1.08-.825.395-.205.85-.308 1.364-.308.416 0 .782.07 1.1.207.317.136.582.33.794.584.213.252.374.556.484.91.11.356.165.748.165 1.178V60h-1.343v-4.837c0-.576-.13-1.022-.393-1.34-.264-.317-.662-.476-1.198-.476-.395 0-.763.095-1.106.285-.342.19-.658.448-.948.773V60h-1.343V48.953h1.343v4.462zm12.112 1.958c0-.31-.044-.594-.13-.852-.09-.256-.216-.48-.384-.666-.167-.188-.37-.333-.61-.435-.24-.104-.513-.155-.82-.155-.64 0-1.145.186-1.517.56-.374.37-.605.887-.695 1.547h4.155zm1.08 3.562c-.165.2-.362.374-.593.52-.23.15-.476.27-.738.365-.264.095-.535.166-.815.214-.28.047-.557.07-.832.07-.526 0-1.01-.088-1.452-.265-.44-.18-.824-.44-1.146-.78-.323-.344-.574-.767-.754-1.273-.18-.505-.27-1.084-.27-1.74 0-.53.08-1.024.244-1.484.162-.46.396-.86.7-1.197.306-.337.678-.602 1.12-.795.44-.19.933-.288 1.483-.288.456 0 .877.077 1.264.23.39.152.724.372 1.006.66.283.287.504.642.664 1.064.16.423.24.904.24 1.444 0 .21-.023.35-.067.42-.046.07-.13.105-.256.105h-5.077c.015.48.08.897.2 1.253.116.355.28.65.49.888.21.238.46.415.75.533.29.116.615.175.975.175.335 0 .624-.04.866-.116.244-.08.452-.162.627-.252.176-.09.322-.174.44-.252.117-.077.218-.116.303-.116.11 0 .195.042.255.127l.375.488zm3.023-5.01c.24-.52.534-.926.885-1.22.35-.29.777-.438 1.282-.438.16 0 .314.018.46.053.15.035.28.09.395.165l-.097.998c-.03.125-.105.187-.226.187-.07 0-.172-.015-.307-.045s-.287-.045-.458-.045c-.24 0-.453.035-.64.105-.188.07-.356.174-.503.31-.148.14-.28.31-.398.51-.117.204-.224.435-.32.695V60h-1.34v-7.597h.764c.145 0 .245.027.3.082.055.055.093.15.113.285l.09 1.155zm8.97 1.448c0-.31-.044-.594-.132-.852-.086-.256-.214-.48-.38-.666-.17-.188-.372-.333-.612-.435-.24-.104-.513-.155-.818-.155-.64 0-1.146.186-1.52.56-.37.37-.602.887-.692 1.547h4.155zm1.08 3.562c-.166.2-.363.374-.593.52-.23.15-.476.27-.74.365-.26.095-.532.166-.813.214-.28.047-.557.07-.832.07-.525 0-1.01-.088-1.45-.265-.444-.18-.826-.44-1.15-.78-.32-.344-.572-.767-.752-1.273-.18-.505-.27-1.084-.27-1.74 0-.53.08-1.024.243-1.484.163-.46.396-.86.7-1.197.307-.337.68-.602 1.12-.795.44-.19.934-.288 1.484-.288.455 0 .876.077 1.264.23.387.152.722.372 1.005.66.28.287.502.642.662 1.064.16.423.24.904.24 1.444 0 .21-.022.35-.067.42-.045.07-.13.105-.255.105h-5.078c.016.48.082.897.2 1.253.117.355.28.65.49.888.21.238.46.415.75.533.29.116.615.175.975.175.336 0 .624-.04.867-.116.242-.08.45-.162.626-.252.175-.09.32-.174.44-.252.116-.077.218-.116.303-.116.11 0 .195.042.255.127l.374.488zm7.927 1.185c-.6 0-1.06-.167-1.384-.502-.322-.336-.483-.818-.483-1.448v-4.65h-.915c-.08 0-.148-.024-.203-.07-.055-.05-.082-.122-.082-.223v-.532l1.245-.157.307-2.348c.015-.075.05-.136.1-.184.054-.047.122-.07.207-.07h.675v2.617h2.198v.967h-2.197v4.56c0 .32.077.557.232.712.155.156.355.233.6.233.14 0 .26-.02.364-.056.102-.04.19-.08.266-.125.075-.045.14-.086.19-.124.054-.036.1-.055.14-.055.07 0 .132.042.188.127l.39.638c-.23.215-.508.384-.833.506-.325.123-.66.184-1.005.184zm6.21-7.837c.555 0 1.055.092 1.5.277.445.185.825.447 1.14.787.315.34.556.752.724 1.234.167.484.25 1.022.25 1.617 0 .6-.083 1.14-.25 1.62-.168.48-.41.89-.724 1.23-.315.34-.695.602-1.14.784-.445.184-.945.275-1.5.275-.56 0-1.064-.09-1.51-.274-.45-.18-.83-.442-1.145-.782-.315-.34-.556-.75-.724-1.23-.166-.48-.25-1.02-.25-1.62 0-.596.084-1.134.25-1.617.17-.48.41-.892.725-1.233.315-.34.696-.602 1.144-.787.446-.185.95-.278 1.51-.278zm0 6.78c.75 0 1.31-.252 1.68-.754.37-.504.555-1.205.555-2.105 0-.905-.185-1.61-.555-2.115-.37-.505-.93-.758-1.68-.758-.38 0-.71.065-.994.196-.282.13-.517.317-.705.562-.186.245-.326.546-.42.904-.09.357-.138.76-.138 1.21 0 .9.187 1.602.56 2.105.372.5.938.752 1.698.752zm13.567-5.408c-.06.11-.152.165-.277.165-.075 0-.16-.027-.255-.083-.095-.055-.21-.116-.35-.183-.136-.068-.3-.13-.49-.188-.19-.057-.415-.086-.675-.086-.225 0-.427.03-.608.086-.18.058-.333.136-.46.236-.128.1-.226.217-.293.35-.07.132-.103.275-.103.43 0 .196.057.358.17.488.112.13.26.242.445.338.186.095.395.178.63.25.236.073.477.15.724.233.248.084.49.175.724.275.235.1.445.225.63.375s.334.334.446.55c.113.22.17.48.17.785 0 .35-.063.674-.19.97-.124.3-.308.556-.554.774-.245.216-.544.387-.9.512-.355.126-.764.188-1.23.188-.53 0-1.01-.086-1.44-.26-.43-.17-.794-.392-1.094-.663l.315-.51c.04-.065.087-.114.142-.15.055-.035.125-.052.21-.052.09 0 .185.035.285.105.1.07.22.147.364.232.142.086.316.163.52.233.206.07.46.105.766.105.26 0 .487-.034.683-.1.195-.07.357-.16.487-.275.13-.115.226-.247.29-.397.06-.15.092-.31.092-.48 0-.21-.056-.384-.168-.522-.113-.137-.26-.255-.447-.352-.185-.098-.396-.183-.633-.255-.238-.074-.48-.15-.728-.23-.247-.08-.49-.17-.727-.274-.24-.102-.45-.23-.635-.386-.185-.155-.334-.346-.446-.574-.114-.227-.17-.503-.17-.83 0-.29.06-.567.18-.835.12-.266.295-.5.525-.704.23-.202.512-.363.848-.483.335-.12.717-.18 1.147-.18.5 0 .95.078 1.346.236.398.156.74.372 1.03.647l-.3.488zm7.156 1.718c0-.31-.044-.594-.132-.852-.086-.256-.214-.48-.38-.666-.17-.188-.372-.333-.613-.435-.24-.104-.512-.155-.817-.155-.64 0-1.146.186-1.52.56-.37.37-.602.887-.692 1.547h4.154zm1.08 3.562c-.166.2-.363.374-.593.52-.23.15-.476.27-.74.365-.26.095-.532.166-.813.214-.28.047-.557.07-.832.07-.525 0-1.01-.088-1.45-.265-.444-.18-.826-.44-1.15-.78-.32-.344-.572-.767-.752-1.273-.18-.505-.27-1.084-.27-1.74 0-.53.08-1.024.243-1.484.163-.46.396-.86.702-1.197.305-.337.677-.602 1.117-.795.44-.19.935-.288 1.485-.288.455 0 .876.077 1.264.23.387.152.722.372 1.005.66.28.287.502.642.662 1.064.16.423.24.904.24 1.444 0 .21-.022.35-.067.42-.045.07-.13.105-.255.105h-5.077c.014.48.08.897.198 1.253.12.355.282.65.493.888.21.238.46.415.75.533.29.116.614.175.974.175.336 0 .624-.04.867-.116.242-.08.45-.162.626-.252.175-.09.32-.174.44-.252.116-.077.218-.116.303-.116.11 0 .195.042.255.127l.375.488zm3.014-5.43c.166-.185.34-.352.526-.503.185-.15.38-.278.588-.386.21-.107.43-.19.66-.247.234-.06.485-.087.755-.087.415 0 .78.068 1.1.206.316.136.58.33.794.584.21.252.372.556.483.91.11.356.164.748.164 1.178V60h-1.342v-4.837c0-.576-.13-1.022-.394-1.34-.26-.317-.66-.476-1.195-.476-.395 0-.764.095-1.106.285-.344.19-.66.448-.95.773V60h-1.343v-7.597h.803c.19 0 .308.092.353.277l.104.825zm12.06.705c-.25-.335-.52-.57-.81-.7-.29-.134-.614-.2-.974-.2-.706 0-1.248.252-1.628.758-.38.505-.57 1.224-.57 2.16 0 .495.042.918.127 1.27.086.353.21.643.376.87.165.228.367.394.607.5.24.105.512.157.817.157.44 0 .824-.1 1.152-.3.327-.2.628-.482.904-.848V54.21zm1.336-5.258V60h-.796c-.19 0-.31-.092-.36-.278l-.12-.922c-.325.39-.694.705-1.11.945-.415.24-.894.36-1.44.36-.435 0-.83-.084-1.184-.25-.356-.17-.658-.415-.908-.74s-.442-.73-.577-1.215c-.136-.485-.203-1.042-.203-1.672 0-.56.075-1.082.225-1.564.15-.483.365-.9.645-1.257.28-.355.624-.633 1.03-.836.41-.2.867-.303 1.377-.303.466 0 .864.08 1.197.237.33.157.627.376.887.656v-4.207h1.336zm10.072 7.628c-.615.02-1.14.07-1.57.146-.434.078-.786.18-1.06.304-.27.125-.47.272-.59.442-.124.17-.185.36-.185.57 0 .2.033.373.098.518.065.145.153.264.266.356.112.093.245.16.397.203.154.04.317.063.492.063.236 0 .45-.024.646-.072.195-.046.378-.115.55-.205.173-.09.338-.197.496-.322.157-.126.31-.268.46-.428V56.58zm-4.313-3.105c.42-.405.873-.707 1.358-.907.485-.2 1.022-.3 1.612-.3.426 0 .803.07 1.133.21.33.14.607.334.833.584.225.25.394.553.51.908.115.355.172.745.172 1.17V60h-.593c-.13 0-.23-.02-.3-.064-.07-.042-.125-.126-.164-.25l-.15-.72c-.2.184-.395.348-.586.49-.19.143-.39.263-.6.36-.21.098-.433.173-.67.225-.238.054-.502.08-.792.08-.295 0-.572-.04-.832-.124-.26-.082-.487-.206-.68-.37-.192-.166-.344-.375-.457-.627-.112-.254-.168-.552-.168-.898 0-.3.082-.588.247-.866.165-.277.432-.523.803-.738.37-.216.852-.392 1.447-.53.595-.137 1.325-.215 2.19-.236v-.592c0-.59-.127-1.036-.382-1.34-.256-.3-.628-.453-1.118-.453-.33 0-.606.042-.83.124-.22.084-.414.176-.576.28-.164.1-.304.194-.42.276-.12.083-.235.124-.35.124-.09 0-.168-.024-.233-.07-.065-.05-.12-.107-.164-.177l-.24-.428zm8.91.03c.166-.185.34-.352.526-.503.185-.15.38-.278.588-.386.208-.107.428-.19.66-.247.233-.06.484-.087.754-.087.415 0 .78.068 1.1.206.316.136.58.33.794.584.212.252.373.556.483.91.11.356.166.748.166 1.178V60h-1.343v-4.837c0-.576-.13-1.022-.394-1.34-.262-.317-.66-.476-1.196-.476-.395 0-.764.095-1.106.285-.343.19-.66.448-.95.773V60h-1.34l-.002-7.597h.803c.19 0 .308.092.353.277l.104.825zm12.06.705c-.25-.335-.52-.57-.81-.7-.29-.134-.614-.2-.974-.2-.706 0-1.248.252-1.628.758-.38.505-.57 1.224-.57 2.16 0 .495.042.918.127 1.27.086.353.21.643.376.87.165.228.367.394.607.5.24.105.512.157.817.157.44 0 .824-.1 1.152-.3.326-.2.627-.482.902-.848V54.21zm1.336-5.258V60h-.796c-.19 0-.31-.092-.36-.278l-.12-.922c-.325.39-.694.705-1.11.945-.415.24-.894.36-1.44.36-.435 0-.83-.084-1.184-.25-.356-.17-.658-.415-.908-.74s-.442-.73-.577-1.215c-.136-.485-.203-1.042-.203-1.672 0-.56.075-1.082.225-1.564.15-.483.365-.9.645-1.257.28-.355.624-.633 1.03-.836.41-.2.867-.303 1.377-.303.466 0 .864.08 1.197.237.332.157.628.376.888.656v-4.207h1.336zM18.325 71.925c.24-.52.535-.926.885-1.22.35-.29.777-.438 1.282-.438.16 0 .314.018.462.053.147.035.278.09.393.165l-.097.998c-.03.125-.105.187-.225.187-.07 0-.172-.015-.307-.045-.136-.03-.288-.045-.458-.045-.24 0-.454.035-.64.105-.19.07-.356.174-.504.31-.147.14-.28.31-.397.51-.12.204-.225.435-.32.695V78h-1.342v-7.597h.765c.145 0 .244.027.3.082.055.055.092.15.112.285l.09 1.155zm8.97 1.448c0-.31-.044-.594-.13-.852-.09-.256-.216-.48-.384-.666-.166-.188-.37-.333-.61-.435-.24-.104-.512-.155-.818-.155-.64 0-1.146.186-1.518.56-.373.37-.604.887-.694 1.547h4.155zm1.08 3.562c-.165.2-.362.374-.593.52-.23.15-.476.27-.738.365-.263.095-.534.166-.814.214-.28.047-.557.07-.832.07-.526 0-1.01-.088-1.452-.265-.442-.18-.825-.44-1.147-.78-.324-.344-.575-.767-.755-1.273-.18-.505-.27-1.084-.27-1.74 0-.53.08-1.024.244-1.484.16-.46.395-.86.7-1.197.305-.337.677-.602 1.117-.795.44-.19.935-.287 1.486-.287.455 0 .876.076 1.263.228.388.154.723.374 1.005.66.284.29.505.644.665 1.066.16.423.24.904.24 1.444 0 .21-.022.35-.068.42-.045.07-.13.105-.255.105h-5.077c.015.48.08.897.2 1.252.116.356.28.652.49.89.21.237.46.414.75.532.29.116.615.175.975.175.335 0 .624-.04.866-.116.243-.08.45-.162.627-.252.175-.09.32-.174.438-.252.12-.077.22-.116.305-.116.11 0 .195.042.255.128l.375.487zm7.042-5.183c-.04.056-.08.098-.12.128-.04.03-.094.045-.164.045-.076 0-.158-.03-.248-.094-.09-.06-.2-.13-.334-.205-.13-.075-.294-.144-.486-.206-.193-.064-.43-.095-.71-.095-.374 0-.704.066-.99.2-.284.13-.523.322-.715.572-.194.25-.34.553-.436.908-.098.355-.146.752-.146 1.193 0 .46.052.868.157 1.226.105.357.254.657.446.9.194.242.426.427.7.555.27.126.577.19.918.19.325 0 .592-.04.802-.116.21-.078.384-.164.52-.26.14-.094.254-.18.346-.258.093-.077.184-.116.274-.116.11 0 .195.042.255.128l.375.487c-.165.205-.352.38-.563.525-.21.145-.436.266-.678.364-.244.097-.497.168-.762.213-.266.046-.535.068-.81.068-.476 0-.917-.087-1.324-.263-.408-.175-.76-.428-1.06-.76-.302-.333-.536-.742-.707-1.227-.17-.485-.255-1.037-.255-1.657 0-.566.08-1.088.237-1.568.156-.48.386-.894.69-1.24.3-.35.674-.62 1.116-.815.443-.195.95-.293 1.527-.293.535 0 1.006.087 1.413.26.408.172.77.415 1.084.73l-.353.48zm6.825 1.62c0-.31-.043-.593-.13-.85-.088-.258-.216-.48-.383-.668-.17-.188-.372-.333-.612-.435-.24-.104-.513-.155-.818-.155-.64 0-1.146.186-1.52.56-.37.37-.602.887-.693 1.547h4.155zm1.08 3.563c-.165.2-.362.374-.592.52-.23.15-.476.27-.74.365-.26.095-.532.166-.813.214-.28.047-.557.07-.832.07-.525 0-1.01-.088-1.45-.265-.444-.18-.826-.44-1.15-.78-.32-.344-.572-.767-.752-1.273-.18-.505-.27-1.084-.27-1.74 0-.53.08-1.024.243-1.484.163-.46.396-.86.7-1.197.307-.337.68-.602 1.12-.795.44-.19.934-.287 1.484-.287.455 0 .876.076 1.264.228.387.154.722.374 1.005.66.28.29.502.644.663 1.066.16.423.24.904.24 1.444 0 .21-.023.35-.068.42-.045.07-.13.105-.255.105h-5.078c.016.48.082.897.2 1.252.117.356.28.652.49.89.21.237.46.414.75.532.29.116.615.175.976.175.335 0 .623-.04.866-.116.242-.08.45-.162.626-.252.175-.09.32-.174.44-.252.116-.077.217-.116.303-.116.11 0 .194.042.255.128l.374.487zm3.165-6.532V78h-1.334v-7.597h1.334zm.285-2.386c0 .13-.026.252-.078.364-.053.114-.123.214-.21.3-.088.09-.19.157-.308.207-.117.05-.24.076-.37.076s-.252-.025-.365-.075c-.11-.05-.21-.12-.295-.207-.085-.086-.152-.186-.203-.3-.05-.11-.075-.232-.075-.362 0-.13.025-.254.076-.372.05-.117.117-.22.202-.307.085-.09.184-.157.296-.208.114-.05.235-.075.365-.075s.254.025.37.075c.12.05.22.12.31.207.086.086.156.19.21.306.05.118.078.24.078.37zm8.416 2.386L52.09 78h-1.2l-3.098-7.597h1.088c.11 0 .2.027.27.082.07.055.117.12.142.195l1.928 4.89c.06.185.112.365.157.54.046.175.088.35.128.525.04-.175.082-.35.127-.525.046-.175.1-.355.166-.54l1.95-4.89c.03-.08.08-.146.15-.2.07-.05.152-.078.247-.078h1.042zm6.104 2.97c0-.31-.043-.594-.13-.852-.088-.256-.216-.48-.383-.666-.17-.188-.372-.333-.613-.435-.24-.104-.512-.155-.817-.155-.64 0-1.146.186-1.52.56-.37.37-.602.887-.692 1.547h4.154zm1.08 3.562c-.165.2-.362.374-.592.52-.23.15-.476.27-.74.365-.26.095-.532.166-.813.214-.28.047-.557.07-.832.07-.525 0-1.01-.088-1.45-.265-.444-.18-.826-.44-1.15-.78-.32-.344-.572-.767-.753-1.273-.18-.505-.27-1.084-.27-1.74 0-.53.082-1.024.244-1.484.163-.46.396-.86.702-1.197.305-.337.677-.602 1.117-.795.44-.19.935-.287 1.485-.287.455 0 .876.076 1.264.228.387.154.722.374 1.005.66.28.29.502.644.662 1.066.16.423.24.904.24 1.444 0 .21-.022.35-.067.42-.045.07-.13.105-.255.105h-5.078c.016.48.082.897.2 1.252.117.356.28.652.49.89.21.237.46.414.75.532.29.116.615.175.976.175.335 0 .623-.04.866-.116.242-.08.45-.162.626-.252.175-.09.32-.174.44-.252.116-.077.217-.116.303-.116.11 0 .194.042.255.128l.375.487zm11.775-6.532l-4.237 9.84c-.045.1-.1.18-.17.24-.066.06-.17.09-.31.09h-.99l1.388-3.015-3.136-7.156h1.156c.115 0 .206.03.273.087.07.056.115.12.14.19l2.032 4.785c.08.21.148.43.203.66.07-.235.145-.457.225-.668l1.972-4.777c.03-.08.082-.146.154-.2.073-.05.154-.078.244-.078h1.057zm4.17-.12c.556 0 1.055.092 1.5.277.446.185.825.447 1.14.787.316.34.557.752.724 1.234.17.484.252 1.022.252 1.618 0 .6-.083 1.14-.25 1.62-.168.48-.41.89-.725 1.23-.315.34-.694.6-1.14.783-.445.184-.944.275-1.5.275-.56 0-1.063-.09-1.51-.274-.448-.18-.83-.442-1.145-.782-.315-.34-.556-.75-.723-1.23-.17-.48-.252-1.02-.252-1.62 0-.596.083-1.134.25-1.617.168-.48.41-.892.724-1.233.316-.34.697-.602 1.144-.787.448-.185.95-.278 1.51-.278zm0 6.78c.75 0 1.31-.252 1.68-.754.37-.504.555-1.205.555-2.105 0-.905-.184-1.61-.555-2.115-.37-.505-.93-.758-1.68-.758-.38 0-.71.065-.993.196-.283.13-.518.317-.705.562-.19.245-.33.546-.42.904-.094.357-.14.76-.14 1.21 0 .9.186 1.602.56 2.105.37.5.937.752 1.697.752zm11.55-6.66V78h-.794c-.19 0-.31-.092-.36-.278l-.105-.817c-.33.365-.7.66-1.11.88-.41.224-.88.335-1.41.335-.416 0-.782-.07-1.1-.206-.317-.138-.583-.33-.798-.582-.215-.25-.376-.552-.484-.907-.107-.355-.16-.747-.16-1.177V70.4h1.334v4.846c0 .575.13 1.02.394 1.334.262.316.663.473 1.204.473.395 0 .763-.094 1.106-.28.342-.19.658-.447.948-.778v-5.594h1.336zm3.383 1.522c.24-.52.535-.926.885-1.22.35-.29.777-.438 1.282-.438.16 0 .314.018.462.053.146.035.277.09.392.165l-.097.998c-.03.125-.105.187-.225.187-.07 0-.172-.015-.308-.045-.135-.03-.287-.045-.457-.045-.24 0-.454.035-.64.105-.19.07-.356.174-.504.31-.146.14-.28.31-.396.51-.118.204-.224.435-.32.695V78h-1.34v-7.597h.764c.145 0 .244.027.3.082.055.055.092.15.112.285l.09 1.155zm16.763.907v4.126c-.54.39-1.117.68-1.73.873-.612.194-1.283.29-2.013.29-.865 0-1.645-.134-2.34-.4-.695-.27-1.29-.644-1.78-1.126-.494-.483-.872-1.06-1.138-1.736-.265-.676-.397-1.418-.397-2.228 0-.82.13-1.567.386-2.242.26-.676.625-1.254 1.1-1.737.475-.48 1.052-.855 1.733-1.12.68-.265 1.44-.398 2.28-.398.425 0 .82.032 1.184.094.366.063.703.153 1.013.27.31.118.597.26.862.428.266.167.513.356.743.566l-.413.66c-.064.1-.148.164-.25.19-.103.03-.217.005-.342-.07-.12-.07-.257-.155-.412-.255-.156-.1-.344-.196-.567-.29-.22-.09-.484-.17-.786-.235-.303-.065-.66-.097-1.077-.097-.605 0-1.152.098-1.642.296-.49.196-.907.48-1.252.846-.346.368-.61.813-.796 1.335-.185.524-.277 1.11-.277 1.76 0 .675.096 1.28.29 1.81.19.534.466.986.824 1.36.357.37.79.655 1.3.85.51.195 1.083.292 1.72.292.5 0 .942-.056 1.33-.168.387-.113.766-.27 1.136-.47v-2.362h-1.672c-.096 0-.172-.027-.23-.082-.057-.055-.085-.122-.085-.203v-.825h3.3zm3.262-2.43V78h-1.335v-7.597h1.335zm.285-2.385c0 .13-.026.252-.08.364-.05.114-.12.214-.21.3-.086.09-.19.157-.306.207-.118.05-.24.076-.37.076-.132 0-.253-.025-.365-.075-.114-.05-.213-.12-.297-.207-.086-.086-.153-.186-.203-.3-.05-.11-.075-.232-.075-.362 0-.13.025-.254.075-.372.05-.117.117-.22.203-.307.084-.09.183-.157.296-.208.11-.05.232-.075.362-.075.13 0 .254.025.372.075.117.05.22.12.307.207.09.086.16.19.21.306.054.118.08.24.08.37zm4.237 10.103c-.6 0-1.06-.167-1.383-.502-.323-.336-.484-.818-.484-1.448v-4.65h-.915c-.08 0-.147-.024-.203-.07-.055-.05-.082-.122-.082-.222v-.533l1.245-.157.308-2.348c.014-.075.048-.136.1-.184.053-.047.122-.07.207-.07h.675v2.616h2.198v.968h-2.198v4.56c0 .32.077.557.233.713.155.155.354.232.6.232.14 0 .26-.02.363-.056.104-.04.193-.08.268-.125.075-.045.138-.086.19-.124.053-.036.1-.055.14-.055.07 0 .132.042.187.127l.39.638c-.23.215-.507.384-.833.506-.325.123-.66.184-1.005.184zm4.388-6.705c.325-.345.685-.62 1.08-.825.395-.205.85-.308 1.365-.308.415 0 .78.07 1.1.207.316.136.58.33.794.584.212.252.373.556.483.91.11.356.165.748.165 1.178V78h-1.342v-4.838c0-.575-.13-1.02-.394-1.338-.262-.318-.66-.477-1.196-.477-.395 0-.764.095-1.106.285-.343.19-.66.448-.95.773V78h-1.34V66.953h1.34v4.462zm13.275-1.013V78h-.795c-.19 0-.31-.092-.36-.278l-.105-.817c-.33.365-.7.66-1.11.88-.41.224-.88.335-1.41.335-.415 0-.78-.07-1.1-.206-.316-.138-.582-.33-.798-.582-.215-.25-.376-.552-.483-.907-.11-.355-.163-.747-.163-1.177V70.4h1.335v4.846c0 .575.132 1.02.394 1.334.263.316.664.473 1.204.473.395 0 .764-.094 1.106-.28.343-.19.66-.447.95-.778v-5.594h1.334zm3.457 5.768c.246.33.514.562.807.698.292.135.613.202.964.202.715 0 1.262-.252 1.642-.757.38-.506.57-1.258.57-2.258 0-.93-.17-1.614-.506-2.05-.338-.44-.82-.657-1.444-.657-.435 0-.814.1-1.136.3-.323.2-.62.482-.897.847v3.675zm0-4.672c.32-.37.682-.665 1.084-.886.404-.22.867-.33 1.393-.33.445 0 .846.085 1.203.255.358.17.66.417.91.74.252.322.443.713.575 1.173.134.46.2.977.2 1.552 0 .616-.075 1.175-.225 1.68-.15.506-.366.937-.65 1.294-.28.358-.625.635-1.03.833-.405.196-.86.295-1.365.295-.5 0-.92-.094-1.264-.28-.342-.19-.64-.455-.896-.8l-.067.69c-.04.19-.155.285-.345.285h-.863V66.953h1.343v4.544zM151.585 78h-1.455V67.252h1.455V78zm6.63-6.345c-.06.11-.152.165-.278.165-.075 0-.16-.027-.255-.082-.094-.056-.21-.117-.348-.184-.138-.068-.3-.13-.492-.188-.19-.057-.414-.086-.675-.086-.225 0-.427.03-.607.086-.18.058-.334.136-.46.237-.13.1-.226.216-.294.348-.067.134-.1.277-.1.432 0 .196.055.358.168.488.112.13.26.242.446.337.185.096.395.18.63.252.235.07.476.15.724.23.247.084.488.175.724.275.235.1.444.225.63.375.185.15.333.334.446.55.112.22.17.48.17.785 0 .35-.064.674-.19.97-.124.3-.31.556-.554.774-.245.216-.545.387-.9.513-.355.125-.765.187-1.23.187-.53 0-1.01-.086-1.44-.26-.43-.17-.795-.392-1.095-.662l.315-.51c.04-.066.087-.115.142-.15.055-.036.125-.053.21-.053.09 0 .186.035.286.105.1.07.22.147.363.233.144.085.317.162.522.232.206.07.46.105.766.105.26 0 .487-.034.682-.1.195-.07.357-.16.487-.275.13-.115.227-.247.29-.397.062-.15.093-.31.093-.48 0-.21-.056-.384-.17-.522-.11-.137-.26-.255-.445-.352-.185-.098-.396-.183-.634-.255-.236-.074-.48-.15-.726-.23-.248-.08-.49-.17-.728-.274-.237-.102-.448-.23-.633-.386-.186-.155-.334-.346-.447-.574-.112-.227-.168-.503-.168-.83 0-.29.06-.567.18-.835.12-.266.294-.5.525-.704.23-.202.512-.363.847-.483.335-.12.717-.18 1.147-.18.5 0 .95.078 1.347.236.397.156.74.372 1.03.648l-.3.487zm6.495 0c-.06.11-.152.165-.278.165-.075 0-.16-.027-.254-.082-.095-.056-.212-.117-.35-.184-.137-.068-.3-.13-.49-.188-.19-.057-.415-.086-.675-.086-.226 0-.428.03-.608.086-.18.058-.334.136-.46.237-.13.1-.226.216-.294.348-.066.134-.1.277-.1.432 0 .196.056.358.17.488.11.13.26.242.445.337.185.096.395.18.63.252.235.07.476.15.724.23.246.084.487.175.723.275.235.1.444.225.63.375.185.15.333.334.446.55.11.22.167.48.167.785 0 .35-.062.674-.187.97-.125.3-.31.556-.555.774-.245.216-.545.387-.9.513-.355.125-.765.187-1.23.187-.53 0-1.01-.086-1.44-.26-.43-.17-.795-.392-1.095-.662l.315-.51c.04-.066.088-.115.143-.15.055-.036.125-.053.21-.053.09 0 .185.035.285.105.1.07.22.147.363.233.143.085.316.162.522.232.205.07.46.105.764.105.26 0 .488-.034.683-.1.195-.07.357-.16.488-.275.13-.115.226-.247.288-.397.064-.15.095-.31.095-.48 0-.21-.056-.384-.17-.522-.11-.137-.26-.255-.445-.352-.185-.098-.396-.183-.634-.255-.237-.074-.48-.15-.727-.23-.25-.08-.49-.17-.73-.274-.236-.102-.447-.23-.632-.386-.186-.155-.334-.346-.447-.574-.11-.227-.167-.503-.167-.83 0-.29.06-.567.18-.835.12-.266.294-.5.524-.704.23-.202.513-.363.848-.483.335-.12.717-.18 1.147-.18.5 0 .95.078 1.347.236.396.156.74.372 1.03.648l-.3.487zm8.317-1.252V78h-.794c-.19 0-.31-.092-.36-.278l-.105-.817c-.33.365-.7.66-1.11.88-.41.224-.88.335-1.41.335-.416 0-.782-.07-1.1-.206-.317-.138-.583-.33-.798-.582-.215-.25-.376-.552-.484-.907-.107-.355-.16-.747-.16-1.177V70.4h1.334v4.846c0 .575.13 1.02.394 1.334.262.316.663.473 1.203.473.396 0 .764-.094 1.107-.28.342-.19.658-.447.948-.778v-5.594h1.335zm7.2 2.97c0-.31-.043-.594-.13-.852-.088-.256-.216-.48-.383-.666-.168-.188-.37-.333-.612-.435-.24-.104-.512-.155-.817-.155-.64 0-1.146.186-1.52.56-.37.37-.602.887-.692 1.547h4.154zm1.08 3.562c-.165.2-.362.374-.592.52-.23.15-.476.27-.74.365-.26.095-.532.166-.813.214-.28.047-.557.07-.832.07-.525 0-1.01-.088-1.45-.265-.444-.18-.826-.44-1.15-.78-.32-.344-.572-.767-.752-1.273-.18-.505-.27-1.084-.27-1.74 0-.53.08-1.024.243-1.484.164-.46.397-.86.703-1.197.305-.337.677-.602 1.117-.795.44-.19.935-.287 1.485-.287.455 0 .876.076 1.264.228.386.154.72.374 1.004.66.282.29.503.644.663 1.066.16.423.24.904.24 1.444 0 .21-.022.35-.067.42-.045.07-.13.105-.255.105h-5.077c.014.48.08.897.198 1.252.118.356.28.652.492.89.21.237.46.414.75.532.29.116.614.175.975.175.335 0 .623-.04.866-.116.24-.08.45-.162.625-.252s.32-.174.44-.252c.116-.077.218-.116.303-.116.11 0 .195.042.255.128l.375.487zm6.18-5.28c-.06.11-.152.165-.277.165-.075 0-.16-.027-.255-.082-.095-.056-.21-.117-.35-.184-.136-.068-.3-.13-.49-.188-.19-.057-.415-.086-.675-.086-.225 0-.427.03-.607.086-.18.058-.334.136-.462.237-.126.1-.224.216-.29.348-.07.134-.103.277-.103.432 0 .196.057.358.17.488.112.13.26.242.446.337.185.096.394.18.63.252.235.07.476.15.723.23.248.084.49.175.724.275.235.1.445.225.63.375s.334.334.446.55c.113.22.17.48.17.785 0 .35-.063.674-.19.97-.124.3-.308.556-.553.774-.246.216-.545.387-.9.513-.356.125-.765.187-1.23.187-.53 0-1.01-.086-1.44-.26-.43-.17-.795-.392-1.096-.662l.315-.51c.04-.066.088-.115.143-.15.055-.036.125-.053.21-.053.09 0 .185.035.285.105.1.07.22.147.364.233.142.085.316.162.52.232.206.07.46.105.766.105.26 0 .487-.034.682-.1.196-.07.358-.16.488-.275.13-.115.226-.247.29-.397.06-.15.093-.31.093-.48 0-.21-.057-.384-.17-.522-.112-.137-.26-.255-.445-.352-.186-.098-.397-.183-.634-.255-.238-.074-.48-.15-.728-.23-.247-.08-.49-.17-.727-.274-.24-.102-.45-.23-.635-.386-.185-.155-.334-.346-.446-.574-.114-.227-.17-.503-.17-.83 0-.29.06-.567.18-.835.12-.266.295-.5.525-.704.23-.202.512-.363.847-.483.336-.12.718-.18 1.148-.18.5 0 .95.078 1.346.236.398.156.74.372 1.03.648l-.298.487zm1.846 5.52c0-.13.023-.252.07-.367.048-.116.113-.215.196-.3.08-.086.18-.153.295-.203.115-.05.237-.075.367-.075s.253.025.368.075c.115.05.215.117.3.202.085.086.153.185.202.3.05.116.076.238.076.368 0 .135-.025.26-.076.37-.05.114-.117.212-.202.297-.085.086-.185.152-.3.2-.115.047-.237.07-.368.07-.13 0-.252-.023-.367-.07-.115-.048-.214-.114-.296-.2-.084-.085-.15-.183-.196-.296-.048-.112-.07-.236-.07-.37zM24.782 3.813h-3.27V13h-2.017V3.812h-3.27V2.155h8.557v1.658zm2.985 1.492V13h-1.86V5.305h1.86zm.256-2.242c0 .16-.033.31-.098.45s-.15.262-.26.367c-.106.105-.232.19-.377.25-.146.064-.3.095-.465.095-.16 0-.312-.03-.454-.094-.144-.06-.267-.145-.373-.25-.105-.105-.188-.227-.25-.367-.063-.14-.095-.29-.095-.45 0-.166.032-.32.094-.466.063-.145.146-.27.252-.374.105-.106.228-.19.37-.252.143-.06.294-.093.455-.093.165 0 .32.032.465.094.145.064.27.147.378.253.108.105.194.23.26.375.064.145.097.3.097.465zM29.657 13V5.305h1.133c.24 0 .397.112.473.338l.12.57c.135-.15.276-.288.423-.413.148-.125.305-.232.473-.322.166-.09.346-.162.54-.214.19-.053.402-.08.633-.08.485 0 .883.132 1.196.395.31.26.545.61.7 1.045.12-.255.27-.474.45-.656.18-.184.377-.332.593-.447.215-.116.443-.2.686-.255.24-.056.485-.083.73-.083.425 0 .802.065 1.133.195.33.13.607.32.832.57.225.25.396.555.514.915.116.36.175.772.175 1.237V13h-1.853V8.102c0-.49-.107-.858-.322-1.106-.215-.247-.53-.37-.945-.37-.19 0-.366.03-.53.096-.16.066-.304.16-.426.282-.124.122-.22.276-.29.46-.07.186-.105.398-.105.638V13h-1.86V8.102c0-.515-.104-.89-.31-1.125-.21-.235-.512-.352-.913-.352-.27 0-.52.066-.753.2-.234.13-.45.312-.65.542V13h-1.853zm17.52-4.732c0-.24-.033-.467-.1-.68-.068-.212-.17-.398-.304-.558-.136-.16-.307-.286-.514-.38-.21-.09-.45-.138-.725-.138-.535 0-.956.153-1.264.458-.306.305-.502.737-.588 1.298h3.495zm-3.532 1.117c.03.395.1.736.21 1.024.11.286.255.524.435.71.18.19.394.33.64.42.25.094.522.14.822.14.3 0 .56-.035.777-.105.216-.07.406-.147.57-.232.16-.086.304-.163.426-.233.123-.07.24-.105.356-.105.156 0 .27.057.346.172l.532.675c-.205.24-.435.442-.69.604-.255.163-.52.293-.8.39-.276.098-.56.166-.846.207-.288.04-.566.06-.837.06-.535 0-1.032-.09-1.492-.267-.46-.177-.86-.44-1.2-.787-.34-.35-.607-.78-.803-1.29-.195-.514-.292-1.107-.292-1.782 0-.526.085-1.02.255-1.482.17-.462.414-.865.73-1.207.32-.344.706-.615 1.164-.815.456-.2.972-.3 1.547-.3.486 0 .933.077 1.343.233.41.155.762.38 1.057.678.296.298.527.663.694 1.095.17.434.252.927.252 1.482 0 .28-.03.47-.09.567-.06.096-.174.145-.345.145h-4.762zM56.44 13.12c-.67 0-1.184-.19-1.54-.566-.36-.378-.538-.9-.538-1.564V6.692h-.787c-.1 0-.185-.032-.255-.097s-.105-.162-.105-.292v-.736l1.237-.202.39-2.1c.026-.1.073-.177.143-.232.07-.056.16-.083.27-.083h.96v2.422h2.055v1.32h-2.055v4.17c0 .24.06.428.176.563.12.135.28.202.485.202.115 0 .21-.013.29-.04.076-.028.144-.057.2-.087.06-.03.11-.06.155-.086.045-.028.09-.04.135-.04.055-.002.1.012.135.04.035.027.072.068.113.123l.555.9c-.27.226-.58.395-.93.51-.35.116-.713.173-1.088.173zm6.36-7.935c.57 0 1.09.092 1.556.278.468.185.868.447 1.2.787.333.34.59.755.77 1.245.18.49.27 1.037.27 1.642 0 .61-.09 1.16-.27 1.65-.18.49-.437.908-.77 1.253-.332.345-.732.61-1.2.795-.467.185-.986.277-1.556.277-.575 0-1.097-.092-1.567-.277-.47-.185-.872-.45-1.204-.795-.334-.345-.59-.762-.774-1.252-.182-.49-.273-1.04-.273-1.65 0-.606.09-1.153.273-1.643.183-.49.44-.905.773-1.245.33-.34.732-.602 1.203-.787.47-.186.992-.278 1.567-.278zm0 6.503c.64 0 1.114-.215 1.42-.646.31-.43.463-1.06.463-1.89 0-.83-.154-1.462-.462-1.897-.306-.435-.78-.652-1.42-.652-.65 0-1.13.218-1.444.656-.312.436-.468 1.067-.468 1.893 0 .825.156 1.453.468 1.886.313.43.794.648 1.444.648zm14.37-4.756c-.055.07-.11.125-.16.165-.054.04-.13.06-.23.06-.095 0-.187-.028-.278-.086-.09-.056-.197-.12-.322-.194-.125-.072-.274-.137-.446-.195-.173-.056-.386-.085-.64-.085-.327 0-.61.06-.856.176-.246.12-.45.287-.612.508-.162.22-.283.486-.364.798-.08.313-.12.666-.12 1.06 0 .412.044.776.132 1.097.087.32.213.588.38.806.164.216.363.38.6.494.234.112.498.168.793.168.296 0 .534-.036.717-.108.182-.073.336-.153.46-.24.126-.088.235-.168.327-.24.094-.073.197-.11.313-.11.15 0 .262.058.337.174l.532.674c-.205.24-.427.442-.667.604-.24.163-.49.293-.746.39-.26.098-.524.166-.796.207-.273.04-.544.06-.814.06-.475 0-.922-.09-1.342-.267-.42-.177-.788-.436-1.103-.776-.315-.34-.564-.756-.746-1.25-.184-.49-.275-1.052-.275-1.683 0-.565.08-1.088.244-1.57.16-.483.4-.9.715-1.253.315-.353.705-.63 1.17-.83.465-.2 1-.3 1.605-.3.575 0 1.08.093 1.51.28.434.184.822.448 1.168.793l-.488.676zm4.987-1.747c.57 0 1.09.092 1.557.278.467.185.867.447 1.2.787.332.34.588.755.77 1.245.18.49.27 1.037.27 1.642 0 .61-.09 1.16-.27 1.65-.182.49-.438.908-.77 1.253-.333.345-.733.61-1.2.795-.468.185-.986.277-1.556.277-.576 0-1.098-.092-1.568-.277-.47-.185-.87-.45-1.204-.795-.332-.345-.59-.762-.772-1.252-.183-.49-.274-1.04-.274-1.65 0-.606.09-1.153.274-1.643.182-.49.44-.905.772-1.245.333-.34.734-.602 1.204-.787.47-.186.992-.278 1.567-.278zm0 6.503c.64 0 1.114-.215 1.422-.646.306-.43.46-1.06.46-1.89 0-.83-.154-1.462-.46-1.897-.31-.435-.782-.652-1.422-.652-.65 0-1.132.218-1.444.656-.313.436-.47 1.067-.47 1.893 0 .825.157 1.453.47 1.886.312.43.793.648 1.444.648zm6.946-5.438c.155-.155.318-.3.49-.43.173-.134.356-.246.548-.34.194-.09.4-.164.62-.216.22-.053.46-.08.72-.08.42 0 .792.072 1.117.215.326.14.597.34.814.6.22.256.384.564.496.92.113.36.17.752.17 1.182V13h-1.853V8.102c0-.47-.108-.833-.323-1.09-.215-.258-.542-.387-.983-.387-.32 0-.62.072-.9.218-.28.145-.544.342-.794.592V13H87.37V5.305h1.132c.24 0 .398.112.473.338l.128.607zm7.14 6.75V6.7l-.668-.105c-.145-.03-.26-.08-.35-.154-.086-.07-.13-.175-.13-.31v-.758h1.148v-.247c0-.47.077-.906.232-1.31.155-.4.39-.75.705-1.045.315-.295.714-.526 1.196-.694.483-.167 1.05-.25 1.706-.25.21 0 .424.01.642.033.217.02.406.057.566.107l-.06.96c-.01.116-.072.184-.188.207-.115.022-.257.034-.427.034-.485 0-.89.042-1.22.127-.326.085-.59.21-.794.38-.2.166-.346.376-.434.63-.087.25-.13.545-.13.88v.188h4.77V13h-1.853V6.692h-2.858V13h-1.852zm11.272-4.035c.23 0 .43-.03.6-.094.17-.06.31-.147.424-.257.11-.11.196-.243.254-.398.057-.155.086-.325.086-.51 0-.38-.114-.68-.34-.904-.23-.22-.57-.332-1.025-.332-.455 0-.796.11-1.024.333-.226.224-.34.525-.34.905 0 .18.03.347.086.502.058.156.143.29.255.402.114.11.256.2.43.26.17.064.37.095.595.095zm2.093 4.38c0-.15-.046-.272-.136-.368-.09-.095-.212-.168-.367-.22-.155-.053-.336-.092-.544-.117-.206-.025-.426-.044-.66-.056-.23-.013-.47-.024-.72-.034-.246-.01-.487-.03-.723-.06-.205.115-.37.25-.498.405-.13.155-.192.335-.192.54 0 .135.033.26.1.38.068.116.176.217.323.303.15.085.34.15.575.198.235.048.522.07.862.07.346.002.643-.025.893-.077.25-.054.456-.126.62-.22.16-.09.28-.2.355-.33.075-.126.112-.265.112-.415zm1.844-7.778v.69c0 .22-.132.355-.397.405l-.69.128c.105.265.157.555.157.87 0 .38-.076.724-.228 1.03-.153.31-.364.57-.634.785-.27.215-.59.38-.956.5-.368.116-.764.175-1.19.175-.15 0-.294-.007-.434-.023-.14-.015-.277-.034-.412-.06-.24.146-.36.308-.36.488 0 .155.07.27.213.34.144.074.332.125.568.155.235.03.502.05.802.056.3.008.607.024.922.05.316.024.623.068.923.13.3.063.567.16.802.296.236.136.424.32.567.552.142.232.213.53.213.896 0 .34-.083.67-.25.99-.168.32-.41.605-.728.855-.32.25-.71.45-1.17.604-.464.15-.99.227-1.58.227-.58 0-1.085-.056-1.515-.168-.43-.114-.787-.264-1.073-.45-.285-.19-.497-.405-.637-.65s-.21-.5-.21-.765c0-.36.11-.66.326-.904.22-.24.517-.435.897-.58-.205-.105-.367-.245-.487-.42s-.18-.405-.18-.69c0-.115.02-.234.064-.356.042-.123.105-.244.187-.364.084-.12.187-.234.313-.34.125-.11.272-.205.442-.29-.39-.21-.696-.49-.92-.84-.22-.35-.332-.76-.332-1.23 0-.38.076-.724.228-1.03.154-.31.366-.57.64-.79.27-.216.594-.382.966-.497.373-.116.78-.173 1.22-.173.33 0 .64.034.93.1.29.07.554.167.794.298h2.213zm7.8-.262V13h-1.132c-.245 0-.4-.112-.465-.338l-.127-.615c-.316.32-.663.58-1.043.777-.38.197-.827.296-1.343.296-.42 0-.79-.07-1.113-.214-.324-.142-.595-.343-.815-.604-.22-.26-.386-.568-.5-.926-.11-.357-.168-.75-.168-1.18v-4.89h1.853v4.89c0 .47.11.833.326 1.09.218.258.544.386.98.386.32 0 .62-.07.9-.213.28-.144.544-.34.794-.59V5.305h1.852zm3.578 1.335c.24-.46.525-.82.855-1.084.33-.262.72-.394 1.17-.394.355 0 .64.078.855.233l-.12 1.388c-.025.09-.06.153-.11.19-.046.038-.11.057-.19.057-.075 0-.186-.012-.334-.038-.147-.025-.29-.037-.43-.037-.206 0-.388.03-.548.09-.16.06-.304.146-.432.26-.127.11-.24.247-.337.408-.1.16-.19.342-.275.547V13h-1.853V5.305h1.088c.19 0 .323.034.397.1.076.07.126.19.15.365l.113.87zm8.587 1.628c0-.24-.033-.467-.1-.68-.068-.212-.17-.398-.305-.558-.135-.16-.306-.286-.513-.38-.21-.09-.45-.138-.725-.138-.535 0-.956.153-1.264.458-.306.305-.502.737-.587 1.298h3.494zm-3.532 1.117c.03.395.1.736.21 1.024.11.286.255.524.435.71.18.19.394.33.64.42.25.094.522.14.823.14.3 0 .558-.035.776-.105.216-.07.406-.147.57-.232.16-.086.304-.163.426-.233.123-.07.24-.105.357-.105.155 0 .27.057.345.172l.532.675c-.205.24-.435.442-.69.604-.255.163-.52.293-.8.39-.276.098-.56.166-.846.207-.288.04-.566.06-.837.06-.535 0-1.032-.09-1.492-.267-.46-.177-.86-.44-1.2-.787-.34-.35-.607-.78-.803-1.29-.195-.514-.292-1.107-.292-1.782 0-.526.085-1.02.255-1.482.17-.462.414-.865.73-1.207.32-.344.706-.615 1.164-.815.456-.2.972-.3 1.548-.3.485 0 .932.077 1.342.233.41.155.762.38 1.057.678.296.298.527.663.694 1.095.17.434.252.927.252 1.482 0 .28-.03.47-.09.567-.06.096-.174.145-.344.145h-4.763zm16.845-4.08l-4.192 9.81c-.056.13-.127.23-.214.296-.088.07-.22.102-.4.102h-1.382l1.44-3.09-3.112-7.117h1.627c.146 0 .26.035.342.105.08.07.142.15.183.24l1.635 3.99c.055.135.1.27.138.405.038.135.074.272.11.412.044-.14.09-.278.134-.416.045-.136.095-.272.15-.407l1.545-3.983c.04-.1.106-.182.2-.248.09-.065.195-.097.31-.097h1.485zm4.088-.12c.57 0 1.088.092 1.556.278.467.185.867.447 1.2.787.332.34.588.755.768 1.245.18.49.27 1.037.27 1.642 0 .61-.09 1.16-.27 1.65-.18.49-.436.908-.768 1.253-.333.345-.733.61-1.2.795-.468.185-.986.277-1.556.277-.576 0-1.098-.092-1.568-.277-.47-.185-.87-.45-1.204-.795-.332-.345-.59-.762-.772-1.252-.183-.49-.274-1.04-.274-1.65 0-.606.09-1.153.274-1.643.182-.49.44-.905.772-1.245.333-.34.734-.602 1.204-.787.47-.186.992-.278 1.567-.278zm0 6.503c.64 0 1.113-.215 1.42-.646.308-.43.462-1.06.462-1.89 0-.83-.154-1.462-.46-1.897-.31-.435-.782-.652-1.423-.652-.65 0-1.13.218-1.443.656-.313.436-.47 1.067-.47 1.893 0 .825.157 1.453.47 1.886.312.43.793.648 1.444.648zm11.842-6.383V13h-1.132c-.246 0-.4-.112-.465-.338l-.128-.615c-.315.32-.662.58-1.042.777-.38.197-.828.296-1.343.296-.42 0-.79-.07-1.114-.214-.322-.142-.593-.343-.814-.604-.22-.26-.386-.568-.498-.926-.113-.357-.17-.75-.17-1.18v-4.89h1.853v4.89c0 .47.11.833.327 1.09.217.258.543.386.98.386.32 0 .618-.07.898-.213.28-.144.545-.34.796-.59V5.305h1.852zm3.578 1.335c.24-.46.524-.82.855-1.084.33-.262.72-.394 1.17-.394.355 0 .64.078.855.233l-.12 1.388c-.025.09-.062.153-.11.19-.047.038-.11.057-.19.057-.076 0-.187-.012-.334-.038-.148-.025-.29-.037-.43-.037-.207 0-.39.03-.55.09-.16.06-.303.146-.43.26-.128.11-.24.247-.338.408-.097.16-.19.342-.274.547V13h-1.852V5.305h1.087c.19 0 .323.034.398.1.075.07.125.19.15.365l.113.87zm8.924 0c.24-.46.525-.82.856-1.084.33-.262.72-.394 1.17-.394.355 0 .64.078.855.233l-.12 1.388c-.025.09-.062.153-.11.19-.047.038-.11.057-.19.057-.075 0-.187-.012-.334-.038-.15-.025-.292-.037-.433-.037-.205 0-.387.03-.547.09-.16.06-.304.146-.43.26-.13.11-.24.247-.34.408-.096.16-.188.342-.272.547V13h-1.853V5.305h1.088c.19 0 .322.034.397.1.075.07.125.19.15.365l.112.87zm8.588 1.628c0-.24-.034-.467-.1-.68-.07-.212-.17-.398-.305-.558-.135-.16-.306-.286-.514-.38-.206-.09-.447-.138-.723-.138-.535 0-.956.153-1.263.458-.308.305-.504.737-.59 1.298h3.496zm-3.532 1.117c.03.395.1.736.21 1.024.11.286.254.524.435.71.18.19.393.33.64.42.248.094.522.14.822.14.3 0 .56-.035.776-.105.22-.07.41-.147.57-.232.164-.086.306-.163.43-.233.12-.07.24-.105.355-.105.155 0 .27.057.345.172l.532.675c-.205.24-.434.442-.69.604-.255.163-.52.293-.798.39-.278.098-.56.166-.848.207-.287.04-.566.06-.836.06-.535 0-1.032-.09-1.493-.267-.46-.177-.86-.44-1.2-.787-.34-.35-.607-.78-.802-1.29-.195-.514-.292-1.107-.292-1.782 0-.526.084-1.02.255-1.482.17-.462.413-.865.73-1.207.318-.344.706-.615 1.163-.815.46-.2.975-.3 1.55-.3.485 0 .932.077 1.343.233.41.155.762.38 1.057.678.295.298.526.663.694 1.095.167.434.25.927.25 1.482 0 .28-.03.47-.09.567-.06.096-.174.145-.344.145h-4.762zm8.437 1.62c.21.255.44.435.686.54.25.105.517.158.808.158.28 0 .532-.053.757-.158.225-.105.416-.265.574-.48.156-.215.278-.486.363-.814.085-.326.127-.712.127-1.158 0-.45-.036-.83-.11-1.143-.07-.314-.175-.567-.31-.763-.135-.195-.3-.337-.49-.427-.194-.09-.412-.135-.657-.135-.386 0-.713.08-.983.244-.27.16-.525.39-.765.685v3.45zm-.097-4.65c.315-.355.672-.642 1.072-.863.4-.22.87-.33 1.41-.33.42 0 .804.088 1.15.263.35.175.65.43.9.76.254.334.45.744.586 1.23.138.49.207 1.047.207 1.677 0 .576-.078 1.108-.233 1.598-.155.49-.376.915-.664 1.275-.287.36-.635.64-1.042.844-.408.2-.864.303-1.37.303-.43 0-.796-.067-1.102-.2-.305-.132-.577-.315-.817-.55v3.15h-1.852V5.304h1.132c.24 0 .398.112.472.338l.15.712zm10.17-1.17c.57 0 1.088.092 1.556.278.467.185.867.447 1.2.787.332.34.588.755.768 1.245.18.49.27 1.037.27 1.642 0 .61-.09 1.16-.27 1.65-.18.49-.436.908-.768 1.253-.333.345-.733.61-1.2.795-.468.185-.986.277-1.556.277-.576 0-1.098-.092-1.568-.277-.47-.185-.87-.45-1.204-.795-.332-.345-.59-.762-.772-1.252-.183-.49-.274-1.04-.274-1.65 0-.606.09-1.153.274-1.643.182-.49.44-.905.772-1.245.333-.34.734-.602 1.204-.787.47-.186.992-.278 1.567-.278zm0 6.503c.64 0 1.113-.215 1.42-.646.308-.43.462-1.06.462-1.89 0-.83-.154-1.462-.46-1.897-.31-.435-.782-.652-1.423-.652-.65 0-1.13.218-1.443.656-.313.436-.47 1.067-.47 1.893 0 .825.157 1.453.47 1.886.312.43.793.648 1.444.648zm7.282-9.533v4.29c0 .455-.022.9-.067 1.34-.046.436-.103.9-.173 1.39h-1.26c-.07-.49-.127-.954-.172-1.39-.046-.44-.068-.885-.068-1.34v-4.29h1.74zm-2.032 9.825c0-.155.028-.302.086-.443.057-.14.137-.26.24-.36.102-.1.223-.18.363-.24.14-.06.29-.09.45-.09.156 0 .303.03.443.09s.26.14.364.24c.102.1.183.22.243.36.06.14.09.288.09.443 0 .16-.03.31-.09.446-.06.138-.14.256-.243.357-.103.1-.224.178-.364.236-.14.056-.287.085-.442.085-.16 0-.31-.03-.45-.086-.14-.06-.262-.137-.364-.237-.103-.1-.183-.22-.24-.357-.058-.137-.087-.286-.087-.446z" fill="#2C2D30"/><rect fill="#E3E4E6" y=".42" width="4" height="80" rx="3"/></g><path d="M163.982 33.556V34h-4.38v-.444h1.95v-6.888c0-.136.006-.28.018-.432l-1.872 1.662c-.056.048-.112.066-.168.054-.056-.012-.1-.036-.132-.072l-.174-.24 2.454-2.166h.45v8.082h1.854zm7.5-3.804c0 .744-.08 1.388-.24 1.932-.16.544-.378.994-.654 1.35-.276.356-.6.62-.97.795-.37.173-.764.26-1.184.26-.42 0-.814-.087-1.182-.26-.368-.175-.69-.44-.966-.796-.276-.356-.493-.806-.65-1.35-.16-.544-.238-1.188-.238-1.932s.08-1.388.237-1.932c.158-.544.375-.994.65-1.35.277-.356.6-.62.967-.795.368-.174.762-.26 1.182-.26.42 0 .815.086 1.185.26.37.174.692.44.968.795.276.356.494.806.654 1.35.16.544.24 1.188.24 1.932zm-.6 0c0-.688-.066-1.276-.198-1.764s-.31-.887-.53-1.197c-.223-.31-.483-.536-.78-.68-.3-.144-.612-.216-.94-.216-.328 0-.64.072-.936.216-.296.144-.556.37-.78.68-.224.31-.402.71-.534 1.198s-.198 1.076-.198 1.764c0 .692.066 1.28.198 1.767.132.485.31.883.534 1.193.224.31.484.536.78.678.296.143.608.214.936.214.328 0 .64-.07.94-.213.297-.14.557-.367.78-.677.22-.31.398-.708.53-1.194.132-.487.198-1.076.198-1.768zm1.92 3.786c0-.076.014-.148.042-.216.028-.068.067-.127.117-.177.05-.05.11-.09.175-.12.066-.03.14-.045.22-.045.075 0 .147.015.215.045s.127.07.177.12c.05.05.09.11.12.177.03.068.045.14.045.216 0 .08-.015.153-.045.22-.03.065-.07.123-.12.173-.05.05-.11.09-.177.118-.068.028-.14.042-.216.042-.156 0-.287-.053-.393-.16-.105-.105-.158-.236-.158-.392zm0-4.782c0-.076.014-.148.042-.216.028-.068.067-.127.117-.177.05-.05.11-.09.175-.12.066-.03.14-.045.22-.045.075 0 .147.015.215.045s.127.07.177.12c.05.05.09.11.12.177.03.068.045.14.045.216 0 .08-.015.153-.045.22-.03.065-.07.123-.12.173-.05.05-.11.088-.177.116-.068.028-.14.042-.216.042-.156 0-.287-.053-.393-.16-.105-.105-.158-.236-.158-.392zm6.516 2.352v-4.446c0-.068.003-.142.01-.222.005-.08.012-.162.02-.246l-3.672 4.914h3.642zm2.058 0v.312c0 .044-.013.08-.04.105-.025.026-.066.04-.122.04h-1.392V34h-.504v-2.436h-4.014c-.06 0-.106-.013-.138-.04-.032-.025-.054-.06-.066-.104l-.054-.282 4.266-5.64h.51v5.61h1.554zm6.348 2.352c.064 0 .114.02.15.057.036.038.054.087.054.147V34h-5.478v-.204c0-.044.01-.09.033-.135.022-.045.05-.084.087-.116l2.898-2.934c.24-.244.462-.48.666-.708.204-.228.38-.458.53-.69.15-.232.268-.47.352-.714.084-.244.126-.504.126-.78 0-.312-.052-.583-.156-.813-.104-.23-.242-.42-.414-.567-.172-.148-.372-.258-.6-.33-.228-.072-.464-.108-.708-.108-.268 0-.515.04-.74.123-.227.082-.427.196-.6.342-.175.146-.32.32-.433.522-.113.202-.192.423-.236.663-.028.088-.065.146-.11.174-.047.028-.11.038-.19.03l-.294-.048c.052-.364.152-.688.3-.972.148-.284.336-.524.564-.72.228-.196.492-.345.792-.447.3-.102.624-.153.972-.153.324 0 .633.047.927.14.294.095.554.237.78.427.226.19.405.43.537.715.132.286.198.62.198 1.005 0 .32-.05.617-.147.89-.098.275-.23.538-.4.79-.167.252-.362.497-.584.735-.223.238-.456.48-.7.73l-2.658 2.71c.128-.03.26-.055.4-.07.137-.017.276-.025.416-.025h3.666zm9.69-2.544l-1.728-4.29c-.06-.14-.118-.308-.174-.504-.024.096-.05.187-.078.273-.028.086-.058.165-.09.237l-1.728 4.284h3.798zM199.292 34h-.474c-.056 0-.102-.015-.138-.045-.036-.03-.064-.07-.084-.117l-.996-2.466h-4.17l-.996 2.466c-.016.044-.044.082-.084.114-.04.032-.088.048-.144.048h-.468l3.474-8.49h.606l3.474 8.49zm9.798-8.49V34h-.534v-7.236c0-.104.006-.214.018-.33l-3.342 5.934c-.056.104-.136.156-.24.156h-.096c-.104 0-.184-.052-.24-.156l-3.432-5.946c.012.12.018.234.018.342V34h-.54v-8.49h.426c.056 0 .1.006.132.018.032.012.064.044.096.096l3.426 5.904c.06.112.112.232.156.36.024-.064.05-.127.078-.19.028-.06.058-.12.09-.176l3.33-5.898c.032-.052.065-.084.1-.096.033-.012.078-.018.134-.018h.42z" fill="#9E9EA6"/><path fill="#F7F7F7" d="M123 22h27v15.968h-27z"/><path d="M127.95 29.24v-2.27h1.9c.207 0 .402.012.585.035.183.023.345.075.485.155s.25.193.33.34c.08.147.12.347.12.6 0 .38-.118.665-.355.855-.237.19-.625.285-1.165.285h-1.9zm-.95-3.07v7.14h3.45c.353 0 .665-.058.935-.175.27-.117.497-.27.68-.46.183-.19.322-.408.415-.655.093-.247.14-.5.14-.76 0-.44-.117-.813-.35-1.12-.233-.307-.57-.507-1.01-.6v-.02c.34-.133.602-.338.785-.615.183-.277.275-.605.275-.985 0-.36-.082-.663-.245-.91-.163-.247-.362-.44-.595-.58-.107-.067-.235-.117-.385-.15-.15-.033-.312-.058-.485-.075-.173-.017-.348-.027-.525-.03-.177-.003-.342-.005-.495-.005H127zm.95 6.34v-2.47h2.17c.2 0 .393.018.58.055.187.037.352.1.495.19.143.09.258.212.345.365.087.153.13.347.13.58 0 .4-.118.713-.355.94-.237.227-.565.34-.985.34h-2.38zm6.45-2.77c0-.36.047-.715.14-1.065.093-.35.24-.665.44-.945.2-.28.457-.505.77-.675.313-.17.687-.255 1.12-.255.433 0 .807.085 1.12.255.313.17.57.395.77.675.2.28.347.595.44.945.093.35.14.705.14 1.065s-.047.715-.14 1.065c-.093.35-.24.665-.44.945-.2.28-.457.505-.77.675-.313.17-.687.255-1.12.255-.433 0-.807-.085-1.12-.255-.313-.17-.57-.395-.77-.675-.2-.28-.347-.595-.44-.945-.093-.35-.14-.705-.14-1.065zm-.95 0c0 .487.072.955.215 1.405.143.45.358.848.645 1.195.287.347.643.622 1.07.825.427.203.923.305 1.49.305s1.063-.102 1.49-.305c.427-.203.783-.478 1.07-.825.287-.347.502-.745.645-1.195.143-.45.215-.918.215-1.405s-.072-.955-.215-1.405c-.143-.45-.358-.848-.645-1.195-.287-.347-.643-.623-1.07-.83-.427-.207-.923-.31-1.49-.31s-1.063.103-1.49.31c-.427.207-.783.483-1.07.83-.287.347-.502.745-.645 1.195-.143.45-.215.918-.215 1.405zm9.62-2.77v6.34h.95v-6.34h2.38v-.8h-5.71v.8h2.38z" fill="#A3A3A3"/><path d="M69.265 32.425c.375 0 .69-.045.945-.135.255-.09.46-.21.61-.36.154-.15.264-.325.33-.525.07-.2.102-.412.102-.638 0-.235-.037-.446-.112-.633-.075-.188-.192-.348-.352-.48-.16-.133-.367-.234-.62-.304-.252-.07-.555-.105-.91-.105h-2.033v3.18h2.04zm-2.04-7.71v3.135h1.605c.69 0 1.21-.125 1.564-.375.352-.25.528-.647.528-1.193 0-.565-.16-.967-.48-1.207-.32-.24-.82-.36-1.5-.36h-1.717zm1.718-1.56c.71 0 1.317.067 1.822.202.505.136.92.328 1.24.578.324.25.56.552.71.908.15.355.225.754.225 1.2 0 .255-.037.498-.112.73-.076.233-.192.45-.35.653-.157.203-.357.386-.6.552-.242.165-.53.304-.865.42 1.49.335 2.234 1.14 2.234 2.415 0 .46-.087.884-.262 1.275-.175.39-.43.726-.765 1.008-.335.283-.747.504-1.237.664-.49.16-1.05.24-1.68.24h-4.095V23.155h3.735zm12.344 3.15V34h-1.132c-.245 0-.4-.112-.465-.338l-.127-.614c-.316.32-.663.578-1.043.776-.38.197-.827.296-1.342.296-.42 0-.792-.07-1.114-.214-.323-.142-.594-.343-.814-.603-.22-.26-.386-.57-.5-.927-.11-.357-.167-.75-.167-1.18v-4.89h1.852v4.89c0 .47.11.833.326 1.09.22.258.545.387.98.387.32 0 .62-.072.9-.214.28-.144.545-.34.795-.59v-5.565h1.852zm4.643 3.66c.23 0 .43-.03.6-.094.17-.06.31-.147.424-.258.112-.11.197-.242.255-.397.056-.155.085-.325.085-.51 0-.38-.114-.68-.34-.904-.23-.22-.57-.333-1.025-.333-.455 0-.796.112-1.024.334-.227.224-.34.525-.34.905 0 .18.028.347.085.502.06.156.144.29.256.402.113.11.255.2.428.26.172.064.37.095.596.095zm2.092 4.38c0-.15-.044-.272-.135-.368-.09-.095-.212-.168-.367-.22-.155-.053-.336-.092-.544-.117-.207-.025-.427-.044-.66-.056-.232-.013-.472-.024-.72-.034-.247-.01-.488-.03-.724-.06-.205.115-.37.25-.498.405-.128.155-.19.335-.19.54 0 .135.032.26.1.38.067.116.175.217.322.303.148.085.34.15.574.198.235.048.522.07.862.07.346 0 .643-.025.893-.077.25-.054.456-.126.62-.22.16-.09.28-.2.355-.33.075-.126.112-.265.112-.415zm1.846-7.778v.69c0 .22-.133.355-.398.405l-.69.128c.105.265.157.555.157.87 0 .38-.076.724-.228 1.03-.154.31-.365.57-.635.785-.27.215-.59.38-.956.5-.37.116-.765.175-1.19.175-.15 0-.295-.007-.435-.022-.14-.016-.277-.035-.413-.06-.24.145-.36.307-.36.487 0 .155.072.27.214.34.143.074.33.125.566.155.236.03.503.05.803.056.3.008.607.024.922.05.316.024.623.068.923.13.3.063.567.16.802.296.236.136.424.32.567.552.14.232.213.53.213.896 0 .34-.084.67-.252.99-.166.32-.41.605-.726.855-.318.25-.708.45-1.17.604-.463.15-.99.228-1.58.228-.58 0-1.084-.057-1.514-.17-.43-.112-.787-.262-1.072-.45-.286-.187-.498-.403-.638-.648s-.21-.5-.21-.765c0-.36.11-.66.326-.904.218-.24.516-.435.896-.58-.205-.105-.367-.245-.487-.42s-.18-.405-.18-.69c0-.115.02-.234.064-.356.04-.123.104-.244.186-.364.083-.12.186-.234.31-.34.127-.11.274-.205.444-.29-.39-.21-.696-.49-.92-.84-.22-.35-.333-.76-.333-1.23 0-.38.077-.724.23-1.03.152-.31.364-.57.637-.79.272-.216.595-.382.967-.497.374-.116.78-.173 1.22-.173.33 0 .64.034.93.1.29.07.555.167.795.298h2.212zm3.022 5.438c.21.255.44.435.686.54.248.105.51.158.784.158.285 0 .54-.052.77-.154.226-.104.42-.264.58-.48.16-.22.282-.496.368-.834.085-.337.127-.74.127-1.21 0-.846-.14-1.457-.42-1.835-.28-.376-.682-.565-1.207-.565-.356 0-.665.08-.93.244-.266.16-.518.39-.758.685v3.45zm0-4.755c.31-.325.654-.584 1.03-.776.38-.193.81-.29 1.295-.29.445 0 .846.088 1.204.263.356.176.66.427.914.754.252.33.446.725.58 1.19.136.465.204.987.204 1.567 0 .626-.078 1.193-.233 1.703-.155.51-.376.946-.664 1.31-.286.36-.632.642-1.037.843-.406.2-.855.3-1.35.3-.24 0-.458-.024-.653-.072-.195-.046-.375-.112-.54-.198-.165-.085-.316-.188-.454-.31-.137-.123-.268-.26-.394-.41l-.082.518c-.03.13-.08.222-.154.277-.072.056-.17.083-.296.083h-1.223V22.855h1.853v4.395zm10.065-1.065c.57 0 1.09.092 1.556.278.47.185.87.447 1.2.787.334.34.59.755.77 1.245.18.49.27 1.037.27 1.642 0 .61-.09 1.16-.27 1.65-.18.49-.436.908-.77 1.253-.33.345-.73.61-1.2.795-.466.185-.985.277-1.555.277-.575 0-1.097-.092-1.567-.277-.47-.185-.872-.45-1.204-.795-.333-.345-.59-.762-.773-1.253-.18-.49-.272-1.04-.272-1.65 0-.605.09-1.152.273-1.642.184-.49.44-.905.774-1.245.332-.34.733-.602 1.204-.787.47-.186.992-.278 1.567-.278zm0 6.503c.64 0 1.114-.215 1.42-.646.31-.43.463-1.06.463-1.89 0-.83-.154-1.462-.462-1.897-.307-.435-.78-.652-1.42-.652-.65 0-1.132.218-1.445.656-.31.436-.468 1.067-.468 1.892 0 .826.157 1.454.47 1.887.312.43.793.648 1.443.648zm7.627 1.432c-.67 0-1.183-.19-1.54-.566-.358-.378-.537-.9-.537-1.564v-4.297h-.787c-.1 0-.185-.033-.255-.098s-.105-.162-.105-.292v-.735l1.237-.203.39-2.1c.025-.1.072-.177.142-.232.07-.056.16-.083.27-.083h.96v2.422h2.055v1.32h-2.055v4.17c0 .24.06.428.177.563.117.135.278.202.483.202.116 0 .212-.013.29-.04.077-.028.144-.057.202-.087.056-.03.107-.06.152-.086.046-.028.09-.042.135-.042.056 0 .1.014.136.042.035.027.072.068.112.123l.555.9c-.27.226-.58.395-.93.51-.35.116-.712.173-1.088.173z" fill="#2C2D30"/><g><g transform="translate(19.39 19.522)"><path d="M2.565 36.478c-1.095 0-1.956-.86-1.956-1.956V2.435C.61 1.34 1.47.478 2.564.478h32.087c1.096 0 1.957.86 1.957 1.957v32.087c0 1.095-.862 1.956-1.958 1.956H2.565z" fill="#9DFFD9"/><path d="M13.287 7.287v-1.29h1.33V4.038h-3.09v3.207c0 3.914 3.17 7.044 7.082 7.044v-1.8c-2.897.04-5.284-2.307-5.323-5.203z" fill="#02CE1B"/><path d="M22.6 4.04v1.917h1.33v1.29c-.04 2.896-2.426 5.244-5.32 5.244v1.8c3.912 0 7.08-3.13 7.12-7.003V4.04H22.6z" fill="#029925"/><path d="M18.648 12.49l-1.448.94-.313 3.092h.43v2.19h4.11v-2.19h.977v-3.287c-1.33-.118-2.543-.352-3.756-.744z" fill="#303123"/><path d="M14.852 13.196v3.287h.978v2.19h2.78v-6.182h-.04c-1.213.393-2.466.627-3.718.706z" fill="#4D4D4D"/><path d="M12.622 23.057v2.152h-2.27v1.33h3.56v-2.153h3.484v-1.33h-4.773zM12.583 28.848v4.07h1.29v-2.74h3.523v-1.33H12.584z" fill="#333"/><path d="M12.622 22.157v2.152h-2.27v1.29h3.56v-2.152h3.484v-1.29h-4.773zM12.583 27.948v4.03h1.29v-2.74h3.523v-1.29H12.584z" fill="#4D4D4D"/><path d="M12.622 20.826v-2.19h-2.31v-1.293h3.6v2.153h3.484v1.33h-4.773zM24.44 23.057v2.152h2.308v1.33h-3.6v-2.153h-3.405v-1.33h4.695zM24.44 28.848v4.07h-1.292v-2.74h-3.405v-1.33h4.695z" fill="#333"/><path d="M12.622 19.887v-2.152h-2.31v-1.33h3.6v2.19h3.484v1.292h-4.773z" fill="#4D4D4D"/><path d="M24.596 20.826v-2.19h2.308v-1.293H23.304v2.153h-3.482v1.33h4.774z" fill="#333"/><path d="M24.596 19.887v-2.152h2.308v-1.33H23.304v2.19h-3.482v1.292h4.774zM24.44 22.157v2.152h2.308v1.29h-3.6v-2.152h-3.405v-1.29h4.695zM24.44 27.948v4.03h-1.292v-2.74h-3.405v-1.29h4.695z" fill="#4D4D4D"/><path d="M20.057 19.378l.313-.782h-3.327l.666.782h-3.797v7.944c0 2.348 1.917 4.265 4.265 4.265h.86c2.35 0 4.266-1.917 4.266-4.265v-7.944h-3.247z" fill="#303123"/><path d="M17.826 18.557h-3.913v7.278c0 2.152 1.76 3.913 3.913 3.913v-11.19z" fill="#02CE1B"/><path d="M19.39 18.557v11.19c2.153 0 3.914-1.76 3.914-3.912v-7.278H19.39z" fill="#029925"/><circle fill="#FFF" cx="15.87" cy="20.67" r="1.017"/></g></g></g></svg>