<svg viewBox="0 0 412 180" xmlns="http://www.w3.org/2000/svg"><g transform="translate(1 1)" fill="none" fill-rule="evenodd"><rect stroke="#E7E7E7" stroke-width="2" fill="#FFF" width="410" height="178" rx="10"/><path d="M163.982 33.556V34h-4.38v-.444h1.95v-6.888c0-.136.006-.28.018-.432l-1.872 1.662c-.056.048-.112.066-.168.054-.056-.012-.1-.036-.132-.072l-.174-.24 2.454-2.166h.45v8.082h1.854zm7.5-3.804c0 .744-.08 1.388-.24 1.932-.16.544-.378.994-.654 1.35-.276.356-.6.62-.97.795-.37.17-.764.26-1.184.26-.42 0-.814-.09-1.182-.26-.368-.18-.69-.44-.966-.8-.276-.36-.493-.81-.65-1.35-.16-.55-.238-1.19-.238-1.93s.08-1.39.237-1.93c.158-.55.375-1 .65-1.35.277-.36.6-.62.967-.8.368-.18.762-.26 1.182-.26.42 0 .815.08 1.185.26.37.17.69.44.96.79.27.35.49.8.65 1.35.16.54.24 1.18.24 1.93zm-.6 0c0-.688-.066-1.276-.198-1.764s-.31-.887-.53-1.197c-.223-.31-.483-.53-.78-.68-.3-.14-.612-.21-.94-.21-.328 0-.64.07-.936.22-.296.15-.556.37-.78.68-.224.31-.402.71-.534 1.2s-.198 1.08-.198 1.77.066 1.28.198 1.77.31.89.534 1.2c.224.31.484.54.78.68.296.15.608.22.936.22.328 0 .64-.07.94-.21.297-.14.557-.37.78-.68.22-.31.398-.71.53-1.19s.198-1.08.198-1.77zm1.92 3.786c0-.076.014-.148.042-.216.028-.068.067-.127.117-.177.05-.05.11-.09.18-.12.07-.03.14-.045.22-.045.08 0 .15.015.22.045s.13.07.18.12c.05.05.09.11.12.177.03.068.05.14.05.216 0 .08-.01.153-.04.22-.03.065-.07.123-.12.173-.05.05-.11.09-.17.12-.06.03-.14.04-.21.04-.15 0-.29-.05-.39-.16-.1-.1-.16-.23-.16-.39zm0-4.782c0-.076.014-.148.042-.216.028-.068.067-.127.117-.177.05-.05.11-.09.18-.12.07-.03.14-.045.22-.045.08 0 .15.015.22.045s.13.07.18.12c.05.05.09.11.12.177.03.068.05.14.05.216 0 .08-.01.153-.04.22-.03.065-.07.123-.12.173-.05.05-.11.08-.17.11-.06.03-.14.04-.21.04-.15 0-.29-.06-.39-.16-.1-.11-.16-.24-.16-.39zm6.516 2.352v-4.446c0-.068.003-.142.01-.222.005-.08.012-.162.02-.246l-3.672 4.914h3.642zm2.058 0v.312c0 .044-.013.08-.04.105-.025.026-.066.04-.122.04h-1.392V34h-.504v-2.436h-4.014c-.06 0-.106-.013-.138-.04-.032-.025-.054-.06-.066-.104l-.054-.282 4.266-5.64h.51v5.61h1.554zm6.348 2.352c.064 0 .114.02.15.057.036.038.054.087.054.147V34h-5.478v-.204c0-.044.01-.09.033-.135.022-.04.05-.08.087-.11l2.898-2.93c.24-.24.462-.48.666-.7.204-.23.38-.46.53-.69.15-.23.268-.47.352-.71.084-.24.126-.5.126-.78 0-.31-.052-.58-.156-.81-.104-.23-.242-.42-.414-.56-.172-.15-.372-.26-.6-.33-.228-.07-.464-.11-.708-.11-.268 0-.515.04-.74.12-.227.08-.427.2-.6.34-.175.15-.32.32-.433.52-.11.21-.19.43-.23.67-.03.09-.06.15-.11.18-.04.03-.11.04-.19.03l-.29-.05c.06-.36.16-.69.3-.97.15-.28.34-.52.57-.72.23-.2.49-.34.79-.45.3-.1.63-.15.97-.15.33 0 .64.05.93.14.3.1.56.24.78.43.23.19.41.43.54.72s.2.62.2 1.01c0 .32-.05.62-.14.89-.09.28-.23.54-.4.79-.16.25-.36.5-.58.74-.22.24-.45.48-.7.73l-2.65 2.71c.13-.03.26-.05.4-.07.14-.02.28-.02.42-.02h3.67zm9.69-2.544l-1.728-4.29c-.06-.14-.118-.308-.174-.504-.024.096-.05.187-.078.273-.028.086-.058.165-.09.237l-1.728 4.284h3.798zM199.292 34h-.474c-.056 0-.102-.015-.138-.045-.036-.03-.064-.07-.084-.117l-.996-2.466h-4.17l-.996 2.466c-.016.044-.044.082-.084.114-.04.032-.088.048-.144.048h-.468l3.474-8.49h.606l3.474 8.49zm9.798-8.49V34h-.534v-7.236c0-.104.006-.214.018-.33l-3.342 5.934c-.056.104-.136.156-.24.156h-.096c-.104 0-.184-.052-.24-.156l-3.432-5.946c.012.12.018.234.018.342V34h-.54v-8.49h.426c.056 0 .1.006.132.018.032.012.064.044.096.096l3.426 5.904c.06.112.112.232.156.36.024-.064.05-.127.078-.19.028-.06.058-.12.09-.176l3.33-5.898c.032-.052.065-.084.1-.096.033-.012.078-.018.134-.018h.42z" fill="#9E9EA6"/><path fill="#F7F7F7" d="M123 22h27v15.968h-27z"/><path d="M127.95 29.24v-2.27h1.9c.207 0 .402.012.585.035.183.023.345.075.485.155s.25.193.33.34c.08.147.12.347.12.6 0 .38-.118.665-.355.855-.237.19-.625.285-1.165.285h-1.9zm-.95-3.07v7.14h3.45c.353 0 .665-.058.935-.175.27-.117.497-.27.68-.46.183-.19.322-.408.415-.655.093-.247.14-.5.14-.76 0-.44-.117-.813-.35-1.12-.233-.307-.57-.507-1.01-.6v-.02c.34-.133.602-.338.785-.615.183-.277.275-.605.275-.985 0-.36-.082-.663-.245-.91-.163-.247-.362-.44-.595-.58-.107-.067-.235-.117-.385-.15-.15-.033-.312-.058-.485-.075-.173-.017-.348-.027-.525-.03-.177-.003-.342-.005-.495-.005H127zm.95 6.34v-2.47h2.17c.2 0 .393.018.58.055.187.037.352.1.495.19.143.09.258.212.345.365.087.153.13.347.13.58 0 .4-.118.713-.355.94-.237.227-.565.34-.985.34h-2.38zm6.45-2.77c0-.36.047-.715.14-1.065.093-.35.24-.665.44-.945.2-.28.457-.505.77-.675.313-.17.687-.255 1.12-.255.433 0 .807.085 1.12.255.313.17.57.395.77.675.2.28.347.595.44.945.093.35.14.705.14 1.065s-.047.715-.14 1.065c-.093.35-.24.665-.44.945-.2.28-.457.505-.77.675-.313.17-.687.255-1.12.255-.433 0-.807-.085-1.12-.255-.313-.17-.57-.395-.77-.675-.2-.28-.347-.595-.44-.945-.093-.35-.14-.705-.14-1.065zm-.95 0c0 .487.072.955.215 1.405.143.45.358.848.645 1.195.287.347.643.622 1.07.825.427.203.923.305 1.49.305s1.063-.102 1.49-.305c.427-.203.783-.478 1.07-.825.287-.347.502-.745.645-1.195.143-.45.215-.918.215-1.405s-.072-.955-.215-1.405c-.143-.45-.358-.848-.645-1.195-.287-.347-.643-.623-1.07-.83-.427-.207-.923-.31-1.49-.31s-1.063.103-1.49.31c-.427.207-.783.483-1.07.83-.287.347-.502.745-.645 1.195-.143.45-.215.918-.215 1.405zm9.62-2.77v6.34h.95v-6.34h2.38v-.8h-5.71v.8h2.38z" fill="#A3A3A3"/><path d="M69.265 32.425c.375 0 .69-.045.945-.135.255-.09.46-.21.61-.36.154-.15.264-.325.33-.525.07-.2.102-.412.102-.638 0-.235-.037-.446-.112-.633-.075-.188-.192-.348-.352-.48-.16-.133-.367-.234-.62-.304-.252-.07-.555-.105-.91-.105h-2.033v3.18h2.04zm-2.04-7.71v3.135h1.605c.69 0 1.21-.125 1.564-.375.352-.25.528-.647.528-1.193 0-.565-.16-.967-.48-1.207-.32-.24-.82-.36-1.5-.36h-1.717zm1.718-1.56c.71 0 1.317.067 1.822.202.505.136.92.328 1.24.578.324.25.56.552.71.908.15.355.225.754.225 1.2 0 .255-.037.498-.112.73-.076.233-.192.45-.35.653-.157.203-.357.386-.6.552-.242.165-.53.304-.865.42 1.49.335 2.234 1.14 2.234 2.415 0 .46-.087.884-.262 1.275-.175.39-.43.726-.765 1.008-.335.283-.747.504-1.237.664-.49.16-1.05.24-1.68.24h-4.095V23.155h3.735zm12.344 3.15V34h-1.132c-.245 0-.4-.112-.465-.338l-.127-.614c-.316.32-.663.578-1.043.776-.38.197-.827.296-1.342.296-.42 0-.792-.07-1.114-.214-.323-.142-.594-.343-.814-.603-.22-.26-.386-.57-.5-.927-.11-.357-.167-.75-.167-1.18v-4.89h1.852v4.89c0 .47.11.833.326 1.09.22.258.55.387.98.387.32 0 .62-.072.9-.214.28-.15.55-.34.8-.59V26.3h1.85zm4.643 3.66c.23 0 .43-.03.6-.094.17-.06.31-.14.424-.25.112-.11.197-.24.255-.39.05-.15.08-.32.08-.51 0-.38-.12-.68-.34-.9-.23-.22-.57-.33-1.03-.33-.46 0-.8.11-1.03.34-.23.23-.34.53-.34.91 0 .18.03.35.08.5.06.16.14.29.25.41.11.11.25.2.43.26.17.06.37.09.59.09zm2.092 4.38c0-.15-.044-.272-.135-.368-.09-.095-.212-.168-.367-.22-.155-.053-.336-.092-.544-.117-.207-.025-.427-.044-.66-.056-.232-.013-.472-.024-.72-.034-.247-.01-.488-.03-.724-.06-.205.115-.37.25-.498.405-.128.155-.19.335-.19.54 0 .135.032.26.1.38.067.116.175.217.322.303.148.085.34.15.574.198.235.048.522.07.862.07.346 0 .643-.025.893-.077.25-.06.456-.13.62-.22.16-.09.28-.2.355-.33.075-.13.112-.27.112-.42zm1.846-7.778v.69c0 .22-.133.355-.398.405l-.69.128c.105.265.157.555.157.87 0 .38-.076.724-.228 1.03-.16.31-.37.57-.64.785-.27.215-.59.38-.96.5-.37.116-.77.175-1.19.175-.15 0-.3-.007-.44-.022-.14-.016-.28-.035-.42-.06-.24.145-.36.307-.36.487 0 .155.07.27.21.34.14.074.33.125.57.155.23.03.5.05.8.056.3.008.6.024.92.05.32.024.62.068.92.13.3.063.56.16.8.296.23.136.42.32.56.552.14.232.21.53.21.896 0 .34-.09.67-.26.99-.17.32-.41.605-.73.855s-.71.45-1.17.604c-.46.15-.99.22-1.58.22-.58 0-1.09-.06-1.52-.17-.43-.11-.79-.26-1.07-.45-.29-.19-.5-.41-.64-.65s-.21-.5-.21-.77c0-.36.11-.66.33-.91.22-.24.52-.44.9-.58-.2-.11-.37-.25-.49-.42s-.18-.41-.18-.69c0-.12.02-.24.06-.36.04-.12.1-.24.19-.36.08-.12.19-.24.31-.34.13-.11.28-.21.45-.29-.39-.21-.7-.49-.92-.84-.22-.35-.33-.76-.33-1.23 0-.38.07-.73.23-1.03.15-.31.36-.57.63-.79.27-.22.59-.39.96-.5.37-.12.78-.17 1.22-.17.33 0 .64.03.93.1.29.07.55.16.79.3h2.214zm3.022 5.438c.21.255.44.435.686.54.248.105.51.158.784.158.285 0 .54-.052.77-.154.226-.11.42-.27.58-.48.16-.22.282-.5.368-.84.085-.34.127-.74.127-1.21 0-.85-.14-1.46-.42-1.84-.28-.38-.682-.57-1.207-.57-.356 0-.665.08-.93.24-.266.16-.518.39-.758.68V32zm0-4.755c.31-.325.654-.584 1.03-.776.38-.193.81-.29 1.295-.29.445 0 .846.088 1.204.263.35.176.66.427.91.754.25.33.44.73.58 1.19.13.47.2.99.2 1.57 0 .63-.08 1.2-.24 1.71-.16.51-.38.95-.67 1.31-.29.36-.64.65-1.04.85-.41.2-.86.3-1.35.3-.24 0-.46-.02-.66-.07-.2-.04-.38-.11-.54-.19-.17-.08-.32-.19-.46-.31s-.27-.26-.4-.41l-.08.52c-.03.13-.08.22-.16.28-.07.06-.17.09-.3.09H91V22.86h1.85v4.394zm10.065-1.065c.57 0 1.09.092 1.556.278.47.185.87.447 1.2.787.34.34.59.755.77 1.245.18.49.27 1.037.27 1.642 0 .61-.09 1.16-.27 1.65-.18.49-.43.908-.77 1.253-.33.345-.73.61-1.2.795-.46.185-.98.277-1.55.277-.57 0-1.09-.092-1.56-.277-.47-.185-.87-.45-1.2-.795-.33-.345-.59-.762-.77-1.253-.18-.49-.27-1.04-.27-1.65 0-.605.09-1.152.28-1.642.19-.49.44-.905.78-1.245.33-.34.74-.602 1.21-.787.47-.186 1-.278 1.57-.278zm0 6.503c.64 0 1.114-.215 1.42-.646.31-.43.463-1.06.463-1.89 0-.83-.154-1.462-.462-1.897-.307-.435-.78-.652-1.42-.652-.65 0-1.132.218-1.445.656-.31.43-.46 1.06-.46 1.89 0 .82.16 1.45.47 1.88.31.43.8.65 1.45.65zm7.627 1.432c-.67 0-1.183-.19-1.54-.566-.358-.378-.537-.9-.537-1.564v-4.297h-.787c-.1 0-.185-.033-.255-.098s-.105-.162-.105-.292v-.735l1.237-.203.39-2.1c.025-.1.072-.177.142-.232.07-.056.16-.083.27-.083h.96v2.422h2.055v1.32h-2.055v4.17c0 .24.06.428.177.563.117.135.278.202.483.202.116 0 .212-.013.29-.04.077-.028.144-.057.202-.087l.15-.086c.04-.028.09-.042.13-.042.05 0 .1.014.13.042.03.027.07.068.11.123l.55.9c-.27.226-.58.395-.93.51-.35.116-.72.173-1.09.173z" fill="#2C2D30"/><g transform="translate(19.39 19.522)"><path d="M2.565 36.478c-1.095 0-1.956-.86-1.956-1.956V2.435C.61 1.34 1.47.478 2.56.478h32.09c1.097 0 1.958.86 1.958 1.957v32.087c0 1.095-.862 1.956-1.958 1.956H2.565z" fill="#9DFFD9"/><path d="M13.287 7.287v-1.29h1.33v-1.96h-3.09v3.208c0 3.914 3.17 7.044 7.082 7.044v-1.8c-2.9.04-5.29-2.31-5.33-5.21z" fill="#02CE1B"/><path d="M22.6 4.04v1.917h1.33v1.29c-.04 2.896-2.426 5.244-5.32 5.244v1.8c3.912 0 7.08-3.13 7.12-7V4.04H22.6z" fill="#029925"/><path d="M18.648 12.49l-1.448.94-.313 3.092h.43v2.19h4.11v-2.19h.977v-3.287c-1.33-.118-2.543-.352-3.756-.744z" fill="#303123"/><path d="M14.852 13.196v3.287h.978v2.19h2.78V12.49h-.04c-1.213.394-2.466.628-3.718.707z" fill="#4D4D4D"/><path d="M12.622 23.057v2.152h-2.27v1.33h3.56v-2.16h3.484v-1.33h-4.773zm-.04 5.79v4.07h1.29v-2.74h3.524v-1.33h-4.812z" fill="#333"/><path d="M12.622 22.157v2.152h-2.27v1.29h3.56v-2.16h3.484v-1.29h-4.773zm-.04 5.79v4.03h1.29v-2.74h3.524v-1.29h-4.812z" fill="#4D4D4D"/><path d="M12.622 20.826v-2.19h-2.31v-1.293h3.6v2.153h3.484v1.33h-4.773zm11.818 2.23v2.153h2.308v1.33h-3.6v-2.16h-3.405v-1.33h4.695zm0 5.792v4.07h-1.292v-2.74h-3.405v-1.33h4.695z" fill="#333"/><path d="M12.622 19.887v-2.152h-2.31v-1.33h3.6v2.19h3.484v1.292h-4.773z" fill="#4D4D4D"/><path d="M24.596 20.826v-2.19h2.308v-1.293h-3.6v2.153h-3.482v1.33h4.774z" fill="#333"/><path d="M24.596 19.887v-2.152h2.308v-1.33h-3.6v2.19h-3.482v1.292h4.774zm-.156 2.27v2.152h2.308v1.29h-3.6v-2.16h-3.405v-1.29h4.695zm0 5.79v4.03h-1.292v-2.74h-3.405v-1.29h4.695z" fill="#4D4D4D"/><path d="M20.057 19.378l.313-.782h-3.327l.666.782h-3.8v7.944c0 2.348 1.91 4.265 4.26 4.265h.86c2.35 0 4.26-1.917 4.26-4.265v-7.944h-3.24z" fill="#303123"/><path d="M17.826 18.557h-3.913v7.278c0 2.152 1.76 3.913 3.913 3.913v-11.19z" fill="#02CE1B"/><path d="M19.39 18.557v11.19c2.153 0 3.914-1.76 3.914-3.912v-7.278H19.39z" fill="#029925"/><circle fill="#FFF" cx="15.8695652" cy="20.6695652" r="1.0173913"/></g><g transform="translate(65 50)"><path d="M20.545 64.825c.415 0 .78-.055 1.1-.165.316-.11.584-.264.8-.46.22-.2.382-.435.492-.71.11-.275.165-.577.165-.907 0-.686-.21-1.22-.633-1.605-.43-.386-1.07-.578-1.93-.578h-1.72v4.425h1.72zm0-5.573c.68 0 1.27.08 1.774.237.5.15.91.38 1.24.67.33.29.57.64.74 1.05.16.41.24.86.24 1.37 0 .5-.09.95-.27 1.37-.18.41-.43.77-.77 1.07-.34.3-.76.53-1.25.7-.5.17-1.07.25-1.72.25h-1.72V70h-1.45V59.252h3.17zm6.855-.3V70h-1.335V58.953H27.4zm7.245 6.42c0-.31-.044-.593-.13-.85-.09-.258-.216-.48-.384-.668-.16-.188-.37-.333-.61-.435-.24-.11-.51-.16-.81-.16-.64 0-1.14.18-1.52.56-.37.37-.6.88-.69 1.54h4.16zm1.08 3.563c-.165.2-.362.374-.593.52-.23.15-.476.27-.738.365-.263.095-.534.166-.814.214-.28.047-.557.07-.832.07-.526 0-1.01-.088-1.452-.265-.442-.18-.825-.44-1.147-.78-.33-.35-.58-.77-.76-1.28-.18-.51-.27-1.09-.27-1.74 0-.53.08-1.03.24-1.49.16-.46.39-.86.7-1.2.3-.34.67-.6 1.11-.8.44-.19.93-.29 1.48-.29.45 0 .87.07 1.26.23.39.15.72.37 1 .66.28.28.5.64.66 1.06.16.42.24.9.24 1.44 0 .21-.02.35-.07.42s-.13.1-.26.1h-5.07c.01.48.08.9.2 1.25.11.35.28.65.49.89.21.24.46.41.75.53.29.12.61.17.97.17.33 0 .62-.04.86-.12.24-.08.45-.16.62-.25s.32-.17.44-.25c.12-.08.22-.12.3-.12.11 0 .19.04.25.12l.37.49zm5.872-2.355c-.615.02-1.138.07-1.57.146-.433.078-.786.18-1.058.304-.28.125-.47.272-.6.442-.12.17-.19.36-.19.57 0 .2.03.373.09.518.06.145.15.264.26.356.11.093.24.16.39.203.15.04.31.06.49.06.23 0 .45-.03.64-.07.19-.05.38-.12.55-.21.17-.09.34-.2.49-.33.16-.13.31-.27.46-.43v-1.58zm-4.312-3.105c.42-.405.872-.707 1.358-.907.485-.2 1.022-.3 1.612-.3.425 0 .802.07 1.133.21.33.14.607.334.832.584.225.25.395.553.51.908.115.355.173.745.173 1.17V70h-.593c-.13 0-.23-.02-.3-.064-.07-.042-.125-.126-.165-.25l-.15-.72c-.2.184-.395.348-.585.49-.19.143-.39.263-.6.36-.21.098-.434.173-.67.225-.24.06-.502.08-.793.08-.295 0-.572-.04-.832-.12-.26-.08-.486-.2-.68-.37-.19-.16-.344-.37-.456-.62-.12-.25-.17-.55-.17-.89 0-.3.08-.59.24-.86.16-.27.43-.52.8-.74.37-.21.85-.39 1.44-.52.59-.14 1.32-.22 2.19-.24v-.59c0-.59-.13-1.03-.38-1.34-.26-.3-.63-.45-1.12-.45-.33 0-.61.04-.83.13-.23.09-.42.18-.58.28-.16.1-.3.2-.42.28-.12.08-.23.13-.35.13-.09 0-.17-.03-.24-.07-.07-.05-.12-.11-.17-.18l-.24-.43zm12.075.18c-.06.11-.152.165-.277.165-.076 0-.16-.027-.255-.083-.096-.055-.212-.116-.35-.183-.137-.068-.3-.13-.49-.188-.19-.057-.415-.086-.675-.086-.226 0-.428.03-.608.086-.18.058-.334.136-.46.236-.13.1-.226.217-.294.35-.06.132-.1.275-.1.43 0 .196.06.358.17.488.11.13.26.242.45.337.19.096.4.18.63.252.24.07.48.15.73.23.25.08.49.17.73.27s.45.22.63.37c.19.15.34.33.45.55.11.22.17.48.17.78 0 .35-.06.67-.19.97-.12.3-.31.55-.55.77-.24.21-.54.38-.9.51s-.76.18-1.23.18c-.53 0-1.01-.09-1.44-.26-.43-.17-.79-.39-1.09-.66l.32-.51c.04-.07.09-.12.14-.15.06-.04.13-.06.21-.06.09 0 .19.03.29.1.1.07.22.15.36.23.14.08.32.16.52.23.21.07.46.1.77.1.26 0 .49-.03.68-.1.2-.07.36-.16.49-.28.13-.12.23-.25.29-.4.07-.15.1-.31.1-.48 0-.21-.05-.39-.17-.53-.11-.14-.26-.26-.44-.35-.18-.1-.39-.19-.63-.26-.24-.08-.48-.15-.73-.23-.25-.08-.49-.17-.73-.28-.24-.1-.45-.23-.63-.38s-.33-.35-.44-.57c-.11-.23-.17-.5-.17-.83 0-.29.06-.57.18-.83s.3-.5.53-.71c.23-.2.51-.37.84-.49.34-.12.72-.18 1.15-.18.5 0 .95.08 1.35.24.4.154.74.37 1.03.645l-.3.484zm7.155 1.718c0-.31-.044-.594-.13-.852-.09-.25-.216-.48-.384-.66-.16-.19-.37-.33-.61-.43-.24-.1-.51-.15-.81-.15-.64 0-1.14.19-1.52.56-.37.37-.6.89-.69 1.55h4.16zm1.08 3.562c-.165.2-.362.374-.593.52-.23.15-.476.27-.738.365-.263.095-.534.166-.814.214-.28.047-.557.07-.833.07-.525 0-1.008-.088-1.45-.265-.443-.18-.826-.44-1.148-.78-.33-.35-.58-.77-.76-1.28-.18-.51-.27-1.09-.27-1.74 0-.53.08-1.03.24-1.49.16-.46.39-.86.7-1.2.3-.34.67-.6 1.11-.8.44-.19.93-.29 1.48-.29.45 0 .87.07 1.26.23.39.15.72.37 1 .66.28.28.5.64.66 1.06.16.42.24.9.24 1.44 0 .21-.02.35-.07.42-.04.07-.13.1-.25.1H52.3c.015.48.08.9.2 1.25.116.35.28.65.49.89.21.24.46.41.75.53.29.12.615.17.975.17.334 0 .623-.04.865-.12.244-.08.45-.16.628-.25s.32-.17.44-.25c.12-.08.22-.12.304-.12.11 0 .195.04.255.12l.374.49zM68.14 64.21c-.25-.335-.52-.57-.81-.7-.29-.134-.615-.2-.975-.2-.705 0-1.247.252-1.627.757-.38.506-.57 1.225-.57 2.16 0 .496.042.92.127 1.272.085.35.21.64.375.87.165.22.367.39.608.49.24.1.512.15.817.15.44 0 .824-.1 1.15-.3.33-.2.63-.48.905-.85V64.2zm1.335-5.257V70h-.795c-.19 0-.31-.092-.36-.278l-.12-.922c-.325.39-.695.705-1.11.945-.415.24-.895.36-1.44.36-.435 0-.83-.084-1.185-.25-.355-.17-.657-.415-.908-.74-.25-.325-.442-.73-.577-1.215-.135-.485-.202-1.042-.202-1.672 0-.56.074-1.082.224-1.564.15-.483.365-.9.645-1.257.28-.355.624-.633 1.032-.836.4-.2.86-.3 1.37-.3.46 0 .86.08 1.19.24.33.16.63.38.89.66v-4.21h1.33zm5.318 3.33c.555 0 1.054.092 1.5.277.445.185.824.447 1.14.787.315.34.556.752.723 1.234.168.49.25 1.03.25 1.62 0 .6-.082 1.14-.25 1.62-.167.48-.408.89-.724 1.23-.315.34-.694.6-1.14.79-.445.19-.944.28-1.5.28-.56 0-1.063-.09-1.51-.27-.448-.18-.83-.44-1.144-.78-.316-.34-.557-.75-.724-1.23-.168-.48-.252-1.02-.252-1.62 0-.59.084-1.13.252-1.61.167-.48.408-.89.724-1.23.315-.34.696-.6 1.143-.78.45-.18.96-.28 1.52-.28zm0 6.78c.75 0 1.31-.252 1.68-.754.37-.51.555-1.21.555-2.11 0-.91-.185-1.61-.556-2.12-.37-.51-.93-.76-1.68-.76-.38 0-.71.06-.993.19-.29.13-.52.31-.71.56-.19.24-.33.54-.42.9-.1.35-.14.76-.14 1.21 0 .9.18 1.6.56 2.1.37.5.94.75 1.7.75zm6.562-5.558c.165-.185.34-.352.525-.503.185-.15.38-.278.59-.386.206-.107.426-.19.66-.247.23-.06.482-.09.752-.09.416 0 .782.07 1.1.2.317.13.582.33.794.58.213.25.374.55.484.91.11.35.165.75.165 1.18V70h-1.343v-4.838c0-.575-.13-1.02-.393-1.338-.27-.318-.67-.477-1.2-.477-.4 0-.77.095-1.11.285-.34.19-.66.448-.95.773V70h-1.34v-7.597h.8c.19 0 .31.092.35.277l.1.825zm8.017-4.253v2.175l-.12 1.163c-.025.16-.07.284-.138.37-.068.09-.176.133-.327.133-.135 0-.238-.044-.31-.132-.073-.08-.122-.21-.147-.37l-.12-1.16v-2.17h1.163zm4.335 10.868c-.6 0-1.06-.167-1.383-.502-.323-.336-.484-.818-.484-1.448v-4.65h-.915c-.08 0-.147-.024-.203-.07-.055-.05-.082-.122-.082-.223v-.532l1.245-.157.307-2.348c.016-.075.05-.136.102-.184.052-.047.12-.07.206-.07h.675v2.617h2.198v.967h-2.198v4.56c0 .32.077.557.233.713.155.155.354.232.6.232.14 0 .26-.02.363-.056.11-.04.2-.08.27-.13.08-.05.14-.09.19-.13.05-.04.1-.06.14-.06.07 0 .13.04.19.12l.39.64c-.23.21-.5.38-.83.5-.32.12-.66.18-1 .18zm7.38-.12v-6.458l-.84-.097c-.105-.025-.19-.064-.258-.116-.07-.06-.11-.13-.11-.23v-.55h1.2v-.74c0-.44.06-.82.18-1.16.12-.34.3-.62.52-.86.23-.24.5-.41.82-.53.32-.12.68-.18 1.08-.18.34 0 .65.05.93.15l-.03.67c-.01.12-.08.18-.2.19-.12.01-.29.01-.49.01-.23 0-.44.03-.63.09s-.35.15-.49.29c-.14.13-.24.31-.31.53-.08.22-.11.49-.11.82v.69h2.19v.97h-2.14V70h-1.35zm7.718-7.718c.555 0 1.055.093 1.5.278.445.185.825.447 1.14.787.315.34.556.752.724 1.234.16.49.25 1.03.25 1.62 0 .6-.09 1.14-.25 1.62-.17.48-.41.89-.73 1.23-.32.34-.7.6-1.14.79-.45.19-.95.28-1.5.28-.56 0-1.07-.09-1.51-.27-.45-.18-.83-.44-1.15-.78-.32-.34-.56-.75-.73-1.23-.17-.48-.25-1.02-.25-1.62 0-.59.08-1.13.25-1.61.17-.48.41-.89.72-1.23.31-.34.69-.6 1.14-.78.44-.18.95-.28 1.51-.28zm0 6.78c.75 0 1.31-.25 1.68-.753.37-.51.555-1.21.555-2.11 0-.91-.185-1.61-.555-2.12-.37-.51-.93-.76-1.68-.76-.38 0-.71.06-.994.19-.28.13-.51.31-.7.56-.18.24-.32.54-.42.9-.09.35-.14.76-.14 1.21 0 .9.19 1.6.56 2.1.38.5.94.75 1.7.75zm6.57-5.137c.24-.52.535-.926.885-1.22.35-.29.777-.438 1.282-.438.16 0 .314.018.462.053.147.035.278.09.393.165l-.097.998c-.03.125-.105.187-.225.187-.07 0-.172-.015-.308-.045-.135-.03-.287-.045-.457-.045-.24 0-.454.035-.64.105-.19.07-.356.174-.504.31-.147.14-.28.31-.397.51-.12.204-.23.435-.32.695V70h-1.35v-7.597h.76c.14 0 .24.027.3.082.05.055.09.15.11.285l.09 1.155zm6.668 2.362c.27 0 .507-.037.712-.112.205-.075.377-.18.517-.315s.245-.296.316-.484c.07-.187.105-.393.105-.62 0-.464-.142-.833-.424-1.108-.29-.276-.7-.413-1.23-.413-.54 0-.95.137-1.24.413-.29.275-.43.644-.43 1.11 0 .225.03.43.11.618.07.188.17.35.31.484.14.135.31.24.51.315.2.075.44.112.71.112zm2.407 4.125c0-.185-.052-.334-.157-.45-.106-.115-.247-.204-.424-.27-.18-.065-.39-.11-.62-.138-.24-.028-.49-.05-.75-.064l-.8-.045c-.27-.015-.53-.04-.78-.075-.28.13-.51.294-.69.49-.18.2-.27.43-.27.695 0 .17.04.33.13.476.09.15.22.28.4.39.18.11.4.19.68.26.27.06.59.1.96.1.36 0 .68-.03.97-.1.28-.06.52-.15.72-.28.19-.12.34-.26.45-.42.1-.16.15-.34.15-.54zm1.358-7.71v.495c0 .166-.105.27-.316.316l-.862.112c.17.33.255.695.255 1.095 0 .37-.07.706-.214 1.01-.14.3-.33.56-.58.775-.25.215-.55.38-.9.495-.35.115-.73.172-1.14.172-.35 0-.69-.042-1-.127-.16.1-.28.206-.36.32-.08.11-.12.225-.12.34 0 .18.08.316.22.41.15.09.34.157.58.198.24.04.52.064.82.075.31.01.63.026.95.048.33.023.64.06.95.116.31.056.58.145.83.27.24.126.43.298.58.518.15.22.22.505.22.855 0 .325-.08.64-.24.945-.16.305-.4.576-.7.814-.31.237-.68.427-1.12.57-.45.142-.94.213-1.5.213s-1.04-.054-1.46-.164c-.41-.11-.76-.258-1.03-.443s-.48-.4-.62-.64c-.14-.244-.2-.497-.2-.762 0-.376.12-.693.36-.953s.56-.467.97-.623c-.22-.1-.4-.233-.53-.4-.13-.168-.2-.394-.2-.68 0-.11.02-.223.06-.34.04-.118.1-.236.18-.353.09-.12.19-.23.31-.34.12-.11.26-.2.42-.28-.37-.21-.67-.49-.88-.84-.21-.35-.31-.75-.31-1.21 0-.37.07-.71.22-1.01.147-.3.34-.56.6-.77.257-.22.56-.38.91-.5s.74-.18 1.16-.18c.33 0 .64.03.92.11.29.07.55.17.78.32h2.068zm6.352 2.67c0-.31-.044-.593-.13-.85-.09-.258-.216-.48-.384-.668-.167-.188-.37-.333-.61-.435-.24-.11-.513-.16-.82-.16-.64 0-1.145.18-1.517.56-.38.37-.61.88-.7 1.54h4.15zm1.08 3.563c-.165.2-.362.374-.593.52-.23.15-.476.27-.738.365-.27.095-.54.166-.82.214-.28.047-.56.07-.84.07-.53 0-1.01-.088-1.45-.265-.45-.18-.83-.44-1.15-.78-.33-.35-.58-.77-.76-1.28-.18-.51-.27-1.09-.27-1.74 0-.53.08-1.03.24-1.49.16-.46.39-.86.7-1.2.3-.34.67-.6 1.11-.8.44-.19.94-.29 1.49-.29.45 0 .87.07 1.26.23.39.15.72.37 1 .66.28.28.5.64.66 1.06.16.42.24.9.24 1.44 0 .21-.02.35-.07.42s-.13.1-.26.1h-5.08c.01.48.08.9.2 1.25.11.35.28.65.49.89.21.24.46.41.75.53.29.12.61.17.97.17.34 0 .62-.04.87-.12.24-.08.45-.16.63-.25.17-.09.32-.17.44-.25.11-.08.21-.12.3-.12.11 0 .2.04.26.12l.37.49zm4.035 1.185c-.6 0-1.06-.167-1.384-.502-.32-.336-.48-.818-.48-1.448v-4.65h-.91c-.08 0-.15-.024-.2-.07-.05-.05-.08-.122-.08-.223v-.532l1.25-.157.31-2.348c.02-.075.05-.136.1-.184.06-.047.13-.07.21-.07h.68v2.617h2.2v.967h-2.19v4.56c0 .32.08.557.24.713.16.155.36.232.6.232.14 0 .26-.02.37-.056.1-.04.19-.08.27-.13.07-.05.14-.09.19-.13.05-.04.1-.06.14-.06.07 0 .13.04.19.12l.39.64c-.23.21-.51.38-.83.5-.32.12-.66.18-1 .18zm9.218 0c-.6 0-1.062-.167-1.384-.502-.33-.336-.49-.818-.49-1.448v-4.65h-.92c-.08 0-.15-.024-.21-.07-.06-.05-.08-.122-.08-.223v-.532l1.24-.157.3-2.348c.01-.075.05-.136.1-.184.05-.047.12-.07.2-.07h.67v2.617h2.19v.967h-2.2v4.56c0 .32.07.557.23.713.16.155.35.232.6.232.14 0 .26-.02.36-.056.1-.04.19-.08.27-.13.08-.05.14-.09.19-.13.05-.04.1-.06.14-.06.07 0 .13.04.19.12l.39.64c-.23.21-.51.38-.84.5-.33.12-.66.18-1.01.18zm6.21-7.838c.555 0 1.054.093 1.5.278.445.185.824.447 1.14.787.315.34.556.752.723 1.234.168.49.25 1.03.25 1.62 0 .6-.082 1.14-.25 1.62-.167.48-.408.89-.724 1.23-.315.34-.694.6-1.14.79-.445.19-.944.28-1.5.28-.56 0-1.063-.09-1.51-.27-.448-.18-.83-.44-1.144-.78-.316-.34-.557-.75-.724-1.23-.168-.48-.252-1.02-.252-1.62 0-.59.084-1.13.252-1.61.167-.48.408-.89.724-1.23.315-.34.696-.6 1.143-.78.45-.18.96-.28 1.52-.28zm0 6.78c.75 0 1.31-.25 1.68-.753.37-.51.554-1.21.554-2.11 0-.91-.184-1.61-.555-2.12-.37-.51-.93-.76-1.68-.76-.38 0-.71.06-.993.19-.29.13-.52.31-.71.56-.19.24-.33.54-.42.9-.1.35-.14.76-.14 1.21 0 .9.18 1.6.56 2.1.37.5.94.75 1.7.75zm13.26-2.482c-.616.02-1.14.07-1.572.146-.43.078-.78.18-1.05.304-.27.125-.47.272-.59.442-.12.17-.18.36-.18.57 0 .2.04.373.1.518.07.145.16.264.27.356.12.093.25.16.4.203.15.04.32.06.49.06.24 0 .45-.03.65-.07.2-.05.38-.12.55-.21.18-.09.34-.2.5-.33.16-.13.32-.27.47-.43v-1.57zm-4.313-3.105c.42-.405.872-.707 1.357-.907.486-.2 1.023-.3 1.613-.3.425 0 .802.07 1.132.21.33.14.608.334.833.584.225.25.395.553.51.908.115.355.173.745.173 1.17V70h-.593c-.13 0-.23-.02-.3-.064-.07-.042-.125-.126-.165-.25l-.15-.72c-.2.184-.395.348-.585.49-.19.143-.39.263-.6.36-.21.098-.434.173-.67.225-.24.06-.502.08-.793.08-.295 0-.572-.04-.832-.12-.26-.08-.486-.2-.68-.37-.19-.16-.344-.37-.456-.62-.113-.25-.17-.55-.17-.89 0-.3.083-.59.25-.86.164-.27.43-.52.8-.74.37-.21.853-.39 1.448-.52.596-.14 1.325-.22 2.19-.24v-.59c0-.59-.127-1.03-.382-1.34-.255-.3-.627-.45-1.118-.45-.33 0-.606.04-.828.13-.223.09-.415.18-.578.28-.162.1-.302.2-.42.28-.117.08-.233.13-.35.13-.09 0-.166-.03-.23-.07-.066-.05-.12-.11-.166-.18l-.24-.43zm12.6.735c-.25-.335-.52-.57-.81-.7-.29-.134-.615-.2-.975-.2-.705 0-1.247.252-1.627.757-.38.506-.57 1.225-.57 2.16 0 .496.042.92.127 1.272.085.35.21.64.375.87.165.22.367.39.607.49.24.1.513.15.818.15.44 0 .824-.1 1.15-.3.33-.2.63-.48.905-.85V64.2zm1.335-5.257V70h-.795c-.19 0-.31-.092-.36-.278l-.12-.922c-.325.39-.695.705-1.11.945-.415.24-.895.36-1.44.36-.435 0-.83-.084-1.185-.25-.355-.17-.657-.415-.907-.74s-.443-.73-.578-1.215c-.135-.485-.203-1.042-.203-1.672 0-.56.075-1.082.226-1.564.15-.483.364-.9.644-1.257.28-.355.624-.633 1.032-.836.4-.2.86-.3 1.37-.3.46 0 .86.08 1.19.24.33.16.63.38.89.66v-4.21h1.33zm7.065 5.257c-.25-.335-.52-.57-.81-.7-.29-.134-.615-.2-.975-.2-.705 0-1.247.252-1.627.757-.38.506-.57 1.225-.57 2.16 0 .496.042.92.127 1.272.085.35.21.64.375.87.165.22.367.39.608.49.24.1.512.15.817.15.44 0 .824-.1 1.15-.3.33-.2.63-.48.905-.85V64.2zm1.335-5.257V70h-.795c-.19 0-.31-.092-.36-.278l-.12-.922c-.325.39-.695.705-1.11.945-.415.24-.895.36-1.44.36-.435 0-.83-.084-1.185-.25-.355-.17-.657-.415-.907-.74s-.443-.73-.578-1.215c-.135-.485-.203-1.042-.203-1.672 0-.56.075-1.082.225-1.564.15-.483.365-.9.645-1.257.28-.355.624-.633 1.032-.836.4-.2.86-.3 1.37-.3.46 0 .86.08 1.19.24.33.16.63.38.89.66v-4.21h1.33zm12.135 3.45l-4.238 9.84c-.044.1-.1.18-.168.24s-.17.09-.31.09h-.992l1.388-3.015-3.135-7.156h1.155c.115 0 .206.03.274.087.067.05.114.12.138.19l2.033 4.78c.08.21.148.43.203.66.07-.24.145-.46.225-.67l1.972-4.78c.03-.08.08-.15.154-.2.07-.05.15-.08.24-.08h1.05zm4.17-.12c.555 0 1.055.092 1.5.277.445.185.825.447 1.14.787.315.34.556.752.724 1.234.167.49.25 1.03.25 1.62 0 .6-.083 1.14-.25 1.62-.168.48-.41.89-.724 1.23-.315.34-.695.6-1.14.79-.445.19-.945.28-1.5.28-.56 0-1.064-.09-1.51-.27-.45-.18-.83-.44-1.145-.78-.315-.34-.556-.75-.724-1.23-.16-.48-.25-1.02-.25-1.62 0-.59.09-1.13.25-1.61.17-.48.41-.89.73-1.23.32-.34.7-.6 1.15-.78.45-.18.95-.28 1.51-.28zm0 6.78c.75 0 1.31-.252 1.68-.754.37-.51.555-1.21.555-2.11 0-.91-.185-1.61-.555-2.12-.37-.51-.93-.76-1.68-.76-.38 0-.71.06-.994.19-.282.13-.517.31-.705.56-.18.24-.32.54-.42.9-.09.35-.13.76-.13 1.21 0 .9.19 1.6.56 2.1.38.5.94.75 1.7.75zm11.55-6.66V70h-.795c-.19 0-.31-.092-.36-.278l-.105-.817c-.33.365-.7.66-1.11.88-.41.224-.88.335-1.41.335-.415 0-.78-.07-1.1-.206-.316-.138-.582-.33-.798-.582-.215-.25-.376-.552-.483-.907-.11-.355-.17-.747-.17-1.177v-4.846h1.33v4.846c0 .575.13 1.02.39 1.334.26.316.66.473 1.2.473.39 0 .76-.094 1.1-.28.34-.19.66-.447.95-.778v-5.594h1.33zm3.382 1.522c.24-.52.535-.926.885-1.22.35-.29.778-.438 1.283-.438.16 0 .314.018.46.053.15.035.28.09.395.165l-.097.998c-.03.125-.105.187-.225.187-.07 0-.173-.015-.308-.045s-.287-.045-.458-.045c-.24 0-.453.035-.64.105-.188.07-.356.174-.503.31-.148.14-.28.31-.398.51-.117.204-.224.435-.32.695l.002 4.8h-1.343v-7.597h.765c.145 0 .245.027.3.082.055.055.093.15.112.285l.09 1.155zm9.098-4.972V70h-1.335V58.953h1.335zm6.278 7.627c-.616.02-1.14.07-1.572.146-.432.078-.785.18-1.057.304-.28.125-.47.272-.6.442-.12.17-.19.36-.19.57 0 .2.03.373.1.518.06.145.15.264.26.356.11.093.24.16.4.203.15.04.31.06.49.06.23 0 .45-.03.64-.07.19-.05.38-.12.55-.21.17-.09.34-.2.49-.33.15-.13.31-.27.46-.43v-1.57zm-4.313-3.105c.42-.405.872-.707 1.358-.907.485-.2 1.022-.3 1.612-.3.425 0 .802.07 1.132.21.33.14.608.334.833.584.225.25.395.553.51.908.115.355.173.745.173 1.17V70h-.593c-.13 0-.23-.02-.3-.064-.07-.042-.125-.126-.165-.25l-.15-.72c-.2.184-.395.348-.585.49-.19.143-.39.263-.6.36-.21.098-.434.173-.67.225-.24.06-.502.08-.792.08-.296 0-.573-.04-.833-.12-.26-.08-.486-.2-.68-.37-.19-.16-.344-.37-.456-.62-.12-.25-.17-.55-.17-.89 0-.3.08-.59.24-.86.16-.27.43-.52.8-.74.37-.21.85-.39 1.44-.52.59-.14 1.32-.22 2.19-.24v-.59c0-.59-.13-1.03-.38-1.34-.26-.3-.63-.45-1.12-.45-.33 0-.61.04-.83.13-.23.09-.42.18-.58.28-.16.1-.3.2-.42.28-.12.08-.23.13-.35.13-.09 0-.17-.03-.24-.07-.07-.05-.12-.11-.17-.18l-.24-.43zm8.993 4.695c.245.33.513.562.806.698.292.135.613.202.964.202.715 0 1.262-.252 1.642-.757.38-.506.57-1.258.57-2.258 0-.93-.17-1.614-.506-2.05-.338-.44-.82-.657-1.444-.657-.435 0-.814.1-1.136.3-.323.2-.62.482-.897.847v3.675zm0-4.672c.32-.37.68-.665 1.083-.886.41-.22.87-.33 1.4-.33.45 0 .85.085 1.21.256.36.17.66.416.91.738.25.323.44.714.58 1.174.14.46.2.977.2 1.552 0 .616-.07 1.175-.22 1.68-.15.506-.36.937-.65 1.294-.28.358-.62.635-1.03.833-.4.19-.86.29-1.36.29-.5 0-.92-.1-1.26-.28-.34-.19-.64-.46-.89-.8l-.06.69c-.04.19-.15.28-.34.28h-.86V58.95h1.34v4.544zm12.142 1.875c0-.31-.044-.594-.13-.852-.09-.25-.216-.48-.384-.66-.167-.19-.37-.33-.61-.43-.24-.1-.513-.15-.82-.15-.64 0-1.145.19-1.517.56-.38.37-.61.89-.7 1.55h4.15zm1.08 3.562c-.165.2-.362.374-.593.52-.23.15-.476.27-.738.365-.27.095-.54.166-.82.214-.28.047-.56.07-.83.07-.53 0-1.01-.088-1.45-.265-.44-.18-.83-.44-1.15-.78-.33-.35-.58-.77-.76-1.28-.18-.51-.27-1.09-.27-1.74 0-.53.08-1.03.24-1.49.16-.46.39-.86.7-1.2.3-.34.67-.6 1.12-.8.44-.19.93-.29 1.48-.29.45 0 .87.07 1.26.23.39.15.72.37 1 .66.28.28.5.64.66 1.06.16.42.24.9.24 1.44 0 .21-.02.35-.07.42s-.13.1-.26.1h-5.08c.01.48.08.9.2 1.25.11.35.28.65.49.89.21.24.46.41.75.53.29.12.61.17.97.17.33 0 .62-.04.87-.12.24-.08.45-.16.62-.25s.32-.17.44-.25c.11-.08.21-.12.3-.12.11 0 .19.04.25.12l.37.49zm3.135-9.983V70H250.3V58.953h1.335zm2.078 12.863c-.04-.035-.068-.067-.083-.097s-.023-.068-.023-.113c0-.035.012-.07.034-.105.03-.035.05-.067.08-.097.05-.056.12-.128.19-.218.08-.09.16-.196.24-.32.08-.12.16-.256.22-.404.07-.14.12-.3.15-.46-.01.01-.03.01-.05.01h-.05c-.26 0-.47-.08-.63-.26-.16-.17-.24-.39-.24-.66 0-.23.08-.43.25-.6.16-.16.38-.25.65-.25.15 0 .28.03.4.09s.21.13.29.23c.08.1.14.21.18.34.04.13.06.27.06.42 0 .23-.03.46-.09.7-.06.25-.15.49-.27.72-.12.24-.27.47-.45.7-.17.23-.37.44-.6.63l-.22-.22zM17.058 88v-7.597h.802c.19 0 .307.092.352.277l.098.78c.28-.345.595-.627.945-.847.35-.22.755-.33 1.215-.33.51 0 .924.142 1.24.427.32.285.547.67.688 1.155.11-.275.25-.512.423-.712.18-.2.37-.365.59-.496.22-.13.45-.224.69-.284.24-.06.49-.09.74-.09.4 0 .76.063 1.07.19.32.128.58.314.8.56.22.245.39.546.5.903.12.358.18.766.18 1.226V88h-1.35v-4.838c0-.595-.13-1.046-.39-1.353-.26-.31-.63-.47-1.12-.47-.22 0-.43.04-.62.11-.2.07-.38.19-.53.34-.15.15-.27.34-.36.56-.08.23-.13.49-.13.79V88h-1.35v-4.838c0-.61-.12-1.064-.36-1.365-.24-.3-.6-.45-1.07-.45-.33 0-.63.09-.91.267-.28.177-.53.418-.77.724V88h-1.34zm13.747-7.597V88H29.47v-7.597h1.335zm.285-2.386c0 .13-.026.252-.08.364-.05.12-.12.22-.21.3-.086.09-.19.16-.306.21-.118.05-.24.08-.372.08-.13 0-.25-.02-.363-.07-.12-.05-.22-.12-.3-.2-.09-.08-.15-.18-.2-.3-.05-.11-.08-.23-.08-.36 0-.13.02-.25.07-.37.05-.11.11-.22.2-.3.08-.09.18-.15.3-.21.11-.05.23-.07.36-.07.13 0 .25.03.37.08.11.05.22.12.3.21.09.09.16.19.21.31.05.12.08.24.08.37zm3.285-1.064V88H33.04V76.953h1.335zm7.245 6.42c0-.31-.044-.594-.13-.852-.09-.25-.216-.48-.384-.66-.167-.19-.37-.33-.61-.43-.24-.1-.513-.15-.82-.15-.64 0-1.145.19-1.517.56-.38.37-.61.89-.7 1.55h4.15zm1.08 3.562c-.165.2-.362.374-.593.52-.23.15-.476.27-.738.365-.27.095-.54.166-.82.214-.28.047-.56.07-.84.07-.53 0-1.01-.088-1.45-.265-.45-.18-.83-.44-1.15-.78-.33-.35-.58-.77-.76-1.28-.18-.51-.27-1.09-.27-1.74 0-.53.08-1.03.24-1.49.16-.46.39-.86.7-1.2.3-.34.67-.6 1.12-.8.44-.19.93-.29 1.48-.29.45 0 .87.07 1.26.23.39.15.72.37 1 .66.28.29.5.64.66 1.06.16.42.24.9.24 1.44 0 .21-.02.35-.07.42-.04.07-.13.11-.25.11H37.4c.014.48.08.89.2 1.25.115.35.28.65.49.89.21.23.46.41.75.53.29.11.614.17.974.17.335 0 .624-.04.866-.12.25-.08.456-.17.63-.26.177-.09.32-.18.44-.25.12-.08.22-.12.304-.12.11 0 .194.04.254.13l.374.48zm6.18-5.28c-.06.11-.152.165-.278.165-.075 0-.16-.027-.255-.082-.095-.056-.21-.117-.348-.184-.14-.068-.31-.13-.5-.188-.19-.057-.42-.086-.68-.086-.23 0-.43.03-.61.086-.18.058-.34.136-.46.237-.13.1-.23.216-.3.348-.07.14-.1.28-.1.44 0 .2.05.36.17.49.11.13.26.25.44.34.18.1.39.18.63.26.23.07.47.15.72.23.24.09.48.18.72.28.23.1.44.23.63.38.18.15.33.34.44.55.11.22.16.48.16.79 0 .35-.07.68-.19.97-.13.3-.31.56-.56.78-.25.21-.55.38-.9.51s-.77.19-1.23.19c-.53 0-1.01-.09-1.44-.26-.43-.17-.8-.39-1.1-.66l.31-.51c.04-.07.09-.11.14-.15.05-.04.12-.05.21-.05s.18.04.28.11c.1.07.22.15.36.23.14.09.31.17.52.24.2.07.46.1.76.1.26 0 .49-.03.68-.1.19-.07.352-.16.482-.28.13-.11.23-.24.29-.39.06-.15.09-.31.09-.48 0-.21-.05-.38-.17-.52-.11-.13-.26-.25-.44-.35-.184-.09-.395-.18-.633-.25-.236-.07-.48-.15-.726-.23-.25-.08-.49-.17-.73-.27-.238-.1-.45-.23-.635-.38s-.33-.35-.444-.58c-.11-.23-.17-.5-.17-.83 0-.29.06-.57.18-.84s.295-.5.526-.7c.23-.2.51-.36.85-.48.33-.12.712-.18 1.143-.18.5 0 .95.08 1.35.238.39.156.74.37 1.03.65l-.3.485zm4.402 6.465c-.6 0-1.06-.167-1.383-.502-.33-.336-.49-.818-.49-1.448v-4.65h-.91c-.08 0-.15-.024-.21-.07-.06-.05-.08-.122-.08-.222v-.533l1.24-.157.3-2.348c.01-.075.05-.136.1-.184.05-.047.12-.07.2-.07h.67v2.616h2.19v.968h-2.19v4.56c0 .32.08.557.23.713.15.155.35.232.6.232.14 0 .26-.02.36-.056.1-.04.19-.08.26-.13.08-.05.14-.09.19-.13.06-.04.1-.06.14-.06.07 0 .14.04.19.12l.39.64c-.23.21-.51.38-.83.5-.33.12-.66.18-1.01.18zm6.21-7.838c.556 0 1.055.093 1.5.278.446.185.825.447 1.14.787.316.34.557.752.724 1.234.168.49.252 1.03.252 1.62 0 .6-.084 1.14-.252 1.62-.167.48-.408.89-.724 1.23-.315.34-.694.6-1.14.79-.445.19-.944.28-1.5.28-.56 0-1.063-.09-1.51-.27-.448-.18-.83-.44-1.145-.78-.315-.34-.556-.75-.723-1.23-.168-.48-.252-1.02-.252-1.62 0-.59.084-1.13.252-1.61.167-.48.408-.89.724-1.23.315-.34.696-.6 1.143-.78.45-.18.96-.28 1.52-.28zm0 6.78c.75 0 1.31-.25 1.68-.753.37-.51.556-1.21.556-2.11 0-.91-.185-1.61-.556-2.12-.37-.51-.93-.76-1.68-.76-.38 0-.71.06-.993.19-.29.13-.52.31-.71.56-.19.24-.33.54-.42.9-.1.35-.14.76-.14 1.21 0 .9.18 1.6.56 2.1.37.5.94.75 1.7.75zm6.563-5.557c.165-.185.34-.352.525-.502.185-.15.38-.28.59-.387.206-.107.426-.19.66-.247.23-.06.482-.09.752-.09.416 0 .782.07 1.1.2.317.13.582.33.794.58.213.25.374.55.484.91.11.35.165.75.165 1.18V88h-1.343v-4.838c0-.575-.13-1.02-.393-1.338-.27-.318-.67-.477-1.2-.477-.4 0-.77.095-1.11.285-.34.19-.66.448-.95.773V88h-1.34v-7.597h.8c.19 0 .31.092.35.277l.1.825zm12.195 1.868c0-.31-.044-.594-.13-.852-.09-.25-.216-.48-.384-.66-.167-.19-.37-.33-.61-.43-.24-.1-.513-.15-.82-.15-.64 0-1.145.19-1.517.56-.38.37-.61.89-.7 1.55h4.15zm1.08 3.562c-.165.2-.362.374-.593.52-.23.15-.476.27-.738.365-.27.095-.54.166-.82.214-.28.047-.56.07-.83.07-.53 0-1.01-.088-1.45-.265-.44-.18-.83-.44-1.15-.78-.33-.35-.58-.77-.76-1.28-.18-.51-.27-1.09-.27-1.74 0-.53.08-1.03.24-1.49.16-.46.39-.86.7-1.2.3-.34.67-.6 1.11-.8.44-.19.93-.29 1.48-.29.45 0 .87.07 1.26.23.39.15.72.37 1.01.66.28.29.5.64.66 1.06.16.42.24.9.24 1.44 0 .21-.02.35-.07.42s-.13.11-.26.11h-5.08c.01.48.08.89.2 1.25.11.35.28.65.49.89.21.23.46.41.75.53.29.11.61.17.97.17.33 0 .62-.04.86-.12.24-.08.45-.17.63-.26.17-.09.32-.18.44-.25.11-.08.21-.12.3-.12.11 0 .19.04.25.13l.37.48zm1.672 2.88c-.04-.035-.067-.067-.082-.097s-.023-.068-.023-.113c0-.035.012-.07.034-.105.03-.035.05-.067.08-.097.05-.056.12-.128.19-.218.08-.09.16-.196.24-.32.08-.12.16-.256.22-.404.07-.14.12-.3.15-.46-.01.01-.03.01-.05.01h-.04c-.26 0-.47-.08-.63-.26-.16-.17-.24-.39-.24-.66 0-.23.08-.43.25-.6.17-.16.38-.25.65-.25.15 0 .29.03.4.09.12.06.21.13.29.23.08.1.14.21.18.34.04.13.06.27.06.42 0 .23-.03.46-.09.7-.06.25-.15.49-.27.72-.12.24-.27.47-.44.7-.17.23-.37.44-.6.63l-.22-.22zm11.446-5.235c-.616.02-1.14.07-1.572.146-.432.078-.785.18-1.057.304-.28.125-.47.272-.6.442-.12.17-.19.36-.19.57 0 .2.03.373.09.518.06.145.15.264.26.356.11.093.24.16.39.203.15.04.31.06.49.06.23 0 .45-.03.64-.07.19-.05.38-.12.55-.21.17-.09.34-.2.49-.33.16-.13.31-.27.46-.43v-1.57zm-4.313-3.105c.42-.405.872-.707 1.358-.907.485-.2 1.022-.3 1.612-.3.425 0 .802.07 1.132.21.33.14.608.334.833.585.225.25.395.552.51.907.115.355.172.745.172 1.17V88h-.592c-.13 0-.23-.02-.3-.064-.07-.042-.125-.126-.165-.25l-.15-.72c-.2.184-.395.348-.585.49-.19.143-.39.263-.6.36-.21.098-.434.173-.67.225-.24.06-.502.08-.793.08-.295 0-.572-.04-.832-.12-.26-.08-.486-.2-.68-.37-.19-.16-.344-.37-.456-.62-.12-.25-.17-.55-.17-.89 0-.3.08-.59.24-.86.16-.27.43-.52.8-.74.37-.21.85-.39 1.44-.52.59-.14 1.32-.22 2.19-.24v-.59c0-.59-.13-1.03-.38-1.34-.26-.3-.63-.45-1.12-.45-.33 0-.61.04-.83.13-.23.09-.42.18-.58.28-.16.1-.3.2-.42.28-.12.08-.24.13-.35.13-.09 0-.17-.03-.24-.07-.07-.05-.12-.11-.17-.18l-.24-.43zm8.91.03c.165-.185.34-.352.525-.502.185-.15.38-.28.59-.387.206-.107.426-.19.66-.247.23-.06.482-.09.753-.09.415 0 .78.07 1.098.2.32.13.59.33.8.58.22.25.38.55.49.91.11.35.17.75.17 1.18V88h-1.34v-4.838c0-.575-.13-1.02-.39-1.338-.26-.318-.66-.477-1.19-.477-.4 0-.76.095-1.11.285-.34.19-.66.448-.95.773V88H95.8v-7.597h.803c.19 0 .308.092.353.277l.103.825zm12.06.705c-.25-.335-.52-.57-.81-.7-.29-.134-.615-.2-.975-.2-.705 0-1.247.252-1.627.757-.38.506-.57 1.225-.57 2.16 0 .496.042.92.127 1.272.085.35.21.64.375.87.165.22.367.39.608.49.24.1.512.15.817.15.44 0 .824-.1 1.15-.3.33-.2.63-.48.905-.85V82.2zm1.335-5.257V88h-.795c-.19 0-.31-.092-.36-.278l-.12-.922c-.325.39-.695.705-1.11.945-.415.24-.895.36-1.44.36-.435 0-.83-.084-1.185-.25-.355-.17-.657-.415-.908-.74-.25-.325-.442-.73-.577-1.215-.135-.485-.202-1.042-.202-1.672 0-.56.074-1.082.225-1.564.15-.483.364-.9.644-1.257.28-.355.624-.633 1.032-.836.407-.2.866-.3 1.376-.3.465 0 .864.08 1.196.24.333.16.63.38.89.66v-4.21h1.334zm10.073 7.627c-.616.02-1.14.07-1.572.146-.43.078-.78.18-1.05.304-.27.125-.47.272-.59.442-.12.17-.18.36-.18.57 0 .2.04.373.1.518.07.145.16.264.27.356.12.093.25.16.4.203.15.04.32.06.49.06.24 0 .45-.03.65-.07.2-.05.38-.12.55-.21.18-.09.34-.2.5-.33.16-.13.32-.27.47-.43v-1.57zm-4.313-3.105c.42-.405.872-.707 1.358-.907.485-.2 1.022-.3 1.612-.3.425 0 .802.07 1.132.21.33.14.608.334.833.585.225.25.395.552.51.907.115.355.172.745.172 1.17V88h-.592c-.13 0-.23-.02-.3-.064-.07-.042-.125-.126-.165-.25l-.15-.72c-.2.184-.395.348-.585.49-.19.143-.39.263-.6.36-.21.098-.434.173-.67.225-.24.06-.502.08-.792.08-.296 0-.573-.04-.833-.12-.26-.08-.486-.2-.68-.37-.19-.16-.344-.37-.456-.62-.113-.25-.17-.55-.17-.89 0-.3.083-.59.25-.86.164-.27.43-.52.8-.74.37-.21.853-.39 1.45-.52.594-.14 1.323-.22 2.19-.24v-.59c0-.59-.13-1.03-.384-1.34-.255-.3-.627-.45-1.117-.45-.33 0-.607.04-.83.13-.222.09-.414.18-.577.28-.162.1-.302.2-.42.28-.117.08-.233.13-.35.13-.088 0-.166-.03-.23-.07-.066-.05-.12-.11-.166-.18l-.24-.43zm12.075.18c-.06.11-.152.165-.278.165-.075 0-.16-.027-.254-.082-.096-.056-.212-.117-.35-.184-.137-.068-.3-.13-.49-.188-.19-.057-.415-.086-.675-.086-.226 0-.428.03-.608.086-.18.058-.334.136-.46.237-.13.1-.226.216-.294.348-.067.14-.1.28-.1.44 0 .2.055.36.168.49.112.13.26.25.446.34.185.1.395.18.63.26.235.07.476.15.724.23.247.09.488.18.724.28.235.1.444.23.63.38.185.15.333.34.446.55.112.22.168.48.168.79 0 .35-.062.68-.187.97-.125.3-.31.56-.555.78-.245.21-.545.38-.9.51s-.765.19-1.23.19c-.53 0-1.01-.09-1.44-.26-.43-.17-.795-.39-1.095-.66l.315-.51c.04-.07.088-.11.142-.15.056-.04.126-.05.21-.05.09 0 .185.04.285.11.1.07.222.15.364.23.15.09.32.17.53.24.21.07.46.1.77.1.26 0 .49-.03.69-.1.2-.07.36-.16.49-.28.13-.11.23-.24.29-.39.07-.15.1-.31.1-.48 0-.21-.05-.38-.17-.52-.11-.13-.26-.25-.44-.35-.18-.09-.4-.18-.63-.25-.23-.07-.48-.15-.72-.23-.25-.08-.49-.17-.73-.27-.23-.1-.44-.23-.63-.38-.18-.16-.33-.35-.45-.58-.11-.23-.17-.5-.17-.83 0-.29.06-.57.18-.84s.3-.5.53-.7c.23-.2.51-.36.85-.48.33-.12.71-.18 1.14-.18.5 0 .95.08 1.35.238.4.156.74.37 1.03.65l-.3.485zm6.495 0c-.06.11-.152.165-.278.165-.075 0-.16-.027-.254-.082-.095-.056-.212-.117-.35-.184-.137-.068-.3-.13-.49-.188-.19-.057-.415-.086-.675-.086-.226 0-.428.03-.608.086-.18.058-.334.136-.46.237-.13.1-.226.216-.294.348-.06.14-.1.28-.1.44 0 .2.06.36.17.49.11.13.26.25.45.34.19.1.4.18.63.26.24.07.48.15.73.23.25.09.49.18.73.28.24.1.45.23.63.38.19.15.34.34.45.55.11.22.17.48.17.79 0 .35-.06.68-.18.97-.12.3-.31.56-.55.78-.24.21-.54.38-.9.51s-.76.19-1.23.19c-.53 0-1.01-.09-1.44-.26-.43-.17-.79-.39-1.09-.66l.32-.51c.04-.07.09-.11.14-.15.06-.04.13-.05.21-.05.09 0 .19.04.29.11.1.07.22.15.37.23.14.09.32.17.52.24.21.07.46.1.77.1.26 0 .49-.03.69-.1.2-.07.36-.16.49-.28.13-.11.23-.24.29-.39.07-.15.1-.31.1-.48 0-.21-.053-.38-.17-.52-.11-.13-.26-.25-.442-.35-.19-.09-.4-.18-.64-.25s-.48-.15-.73-.23c-.25-.08-.49-.17-.73-.27s-.45-.23-.64-.38-.332-.35-.445-.58c-.11-.23-.167-.5-.167-.83 0-.29.06-.57.18-.84s.295-.5.525-.7c.23-.2.51-.36.85-.48.33-.12.71-.18 1.14-.18.5 0 .95.08 1.35.238.4.156.74.37 1.03.65l-.3.485zm3.48-1.252V88h-1.335v-7.597h1.335zm.285-2.386c0 .13-.026.252-.08.364-.05.12-.12.22-.21.3-.086.09-.19.16-.306.21-.12.05-.25.08-.38.08s-.25-.02-.37-.07-.21-.12-.3-.2c-.09-.08-.15-.18-.2-.3-.05-.11-.08-.23-.08-.36 0-.13.02-.25.07-.37.05-.11.12-.22.2-.3.08-.09.18-.15.29-.21.11-.05.23-.07.36-.07s.25.03.37.08c.11.05.22.12.3.21.09.09.16.19.21.31.05.12.08.24.08.37zm4.553 6.27c.27 0 .507-.037.712-.112.205-.075.377-.18.517-.315s.245-.296.315-.484c.07-.187.106-.393.106-.62 0-.464-.142-.833-.424-1.11-.283-.274-.69-.41-1.226-.41-.54 0-.952.136-1.234.41-.283.277-.424.646-.424 1.11 0 .227.036.433.11.62.07.188.177.35.317.484.14.135.313.24.518.315.205.075.442.112.713.112zm2.407 4.125c0-.185-.052-.334-.157-.45-.106-.115-.247-.204-.424-.27-.178-.065-.384-.11-.62-.138-.234-.028-.483-.05-.745-.064l-.8-.045c-.27-.015-.53-.04-.78-.075-.28.13-.51.294-.69.49-.18.2-.27.43-.27.695 0 .17.04.33.13.476.09.15.22.28.4.39.18.11.4.19.68.26.27.06.59.1.96.1.36 0 .68-.03.96-.1.28-.06.52-.15.72-.28.19-.12.34-.26.45-.42.1-.16.15-.34.15-.54zm1.357-7.71v.496c0 .165-.104.27-.315.315l-.862.112c.17.33.255.695.255 1.095 0 .37-.07.706-.214 1.01-.142.3-.338.56-.59.775-.25.215-.548.38-.9.495-.35.115-.728.172-1.138.172-.356 0-.69-.042-1.005-.127-.16.1-.283.206-.368.32-.085.11-.127.225-.127.34 0 .18.073.316.22.41.148.09.342.157.582.198.24.04.514.064.82.075.31.01.624.026.946.048.323.023.638.06.945.116.31.056.59.145.83.27.24.126.44.298.58.518.15.22.22.505.22.855 0 .325-.08.64-.24.945-.16.305-.39.576-.7.814-.3.237-.68.427-1.12.57-.44.142-.94.213-1.5.213s-1.04-.054-1.45-.164c-.41-.11-.76-.258-1.03-.443s-.48-.4-.62-.64c-.14-.244-.2-.497-.2-.762 0-.376.12-.693.35-.953s.56-.467.97-.623c-.22-.1-.4-.233-.54-.4-.13-.168-.19-.394-.19-.68 0-.11.02-.223.06-.34.04-.118.1-.236.18-.353.08-.12.19-.23.31-.34.12-.11.26-.2.42-.28-.37-.21-.66-.49-.87-.84-.21-.35-.31-.75-.31-1.21 0-.37.07-.71.22-1.01.14-.3.34-.56.6-.77.26-.22.56-.38.91-.5.36-.12.74-.18 1.16-.18.33 0 .64.03.93.11.28.07.54.17.78.31h2.06zm2.648.803c.165-.185.34-.352.525-.502.185-.15.38-.28.59-.387.206-.107.426-.19.66-.247.23-.06.482-.09.752-.09.416 0 .782.07 1.1.2.317.13.582.33.794.58.22.25.38.55.49.91.11.35.17.75.17 1.18V88h-1.34v-4.838c0-.575-.13-1.02-.39-1.338-.26-.318-.66-.477-1.19-.477-.39 0-.76.095-1.1.285-.34.19-.65.448-.94.773V88h-1.34v-7.597h.8c.19 0 .31.092.36.277l.11.825zm12.195 1.868c0-.31-.044-.594-.13-.852-.09-.25-.216-.48-.384-.66-.16-.19-.37-.33-.61-.43-.24-.1-.51-.15-.81-.15-.64 0-1.14.19-1.52.56-.37.37-.6.89-.69 1.55h4.16zm1.08 3.562c-.165.2-.362.374-.593.52-.23.15-.476.27-.738.365-.263.095-.534.166-.814.214-.28.047-.557.07-.832.07-.526 0-1.01-.088-1.452-.265-.442-.18-.825-.44-1.147-.78-.33-.35-.58-.77-.76-1.28-.18-.51-.27-1.09-.27-1.74 0-.53.08-1.03.24-1.49.16-.46.39-.86.7-1.2.3-.34.67-.6 1.12-.8.44-.19.93-.29 1.48-.29.45 0 .87.07 1.26.23.39.15.72.37 1 .66.28.29.5.64.66 1.06.16.42.24.9.24 1.44 0 .21-.03.35-.07.42-.05.07-.13.11-.26.11h-5.08c.01.48.08.89.2 1.25.11.35.28.65.49.89.21.23.46.41.75.53.29.11.61.17.97.17.33 0 .62-.04.86-.12.24-.08.45-.17.62-.26s.32-.18.44-.25c.11-.08.22-.12.3-.12.11 0 .19.04.25.13l.37.48zm6.84-3.563c0-.31-.044-.593-.13-.85-.09-.258-.216-.48-.384-.668-.16-.188-.37-.333-.61-.435-.24-.11-.51-.16-.81-.16-.64 0-1.14.18-1.52.56-.37.37-.6.88-.69 1.54h4.16zm1.08 3.563c-.165.2-.362.374-.593.52-.23.15-.476.27-.738.365-.263.095-.534.166-.814.214-.28.047-.557.07-.833.07-.525 0-1.008-.088-1.45-.265-.443-.18-.826-.44-1.148-.78-.33-.35-.58-.77-.76-1.28-.18-.51-.27-1.09-.27-1.74 0-.53.08-1.03.24-1.49.16-.46.39-.86.7-1.2.3-.34.67-.6 1.12-.8.44-.19.93-.29 1.48-.29.45 0 .87.07 1.26.23.39.15.72.37 1 .66.28.29.5.64.66 1.06.16.42.24.9.24 1.44 0 .21-.03.35-.07.42-.05.07-.13.11-.26.11h-5.07c.01.48.08.89.2 1.25.11.35.28.65.49.89.21.23.46.41.75.53.29.11.61.17.97.17.33 0 .62-.04.86-.12.24-.08.45-.17.62-.26s.32-.18.44-.25c.12-.08.22-.12.3-.12.11 0 .19.04.25.13l.37.48zm6.938-.765c.245.33.513.562.806.698.29.135.61.202.96.202.71 0 1.26-.252 1.64-.757.38-.506.57-1.258.57-2.258 0-.93-.17-1.614-.51-2.05-.34-.44-.82-.657-1.45-.657-.44 0-.82.1-1.14.3-.33.2-.62.482-.9.847v3.675zm0-4.672c.32-.37.68-.665 1.083-.886.403-.22.866-.33 1.39-.33.447 0 .848.085 1.205.255.36.17.67.417.92.74.25.322.44.713.58 1.173.14.46.2.977.2 1.552 0 .616-.07 1.175-.22 1.68-.15.506-.36.937-.65 1.294-.28.358-.62.635-1.03.833-.4.19-.86.29-1.36.29-.5 0-.92-.1-1.26-.28-.34-.19-.64-.46-.89-.8l-.07.69c-.04.19-.15.28-.34.28h-.86V76.95h1.35v4.544zM191.05 80.4l-4.238 9.84c-.044.1-.1.18-.168.24s-.17.09-.31.09h-.992l1.388-3.014-3.135-7.156h1.155c.115 0 .206.03.274.087.067.056.113.12.138.19l2.033 4.785c.08.21.148.43.203.66.07-.235.144-.457.225-.668l1.972-4.777c.03-.08.08-.146.154-.2.07-.05.15-.078.24-.078h1.05z" fill="#2C2D30"/><path d="M24.655 38.443c.11 0 .207.042.293.127l.794.862c-.44.546-.98.963-1.623 1.253-.65.29-1.42.435-2.32.435-.81 0-1.53-.137-2.17-.412-.65-.276-1.19-.658-1.65-1.148-.46-.49-.81-1.075-1.05-1.755-.24-.68-.37-1.422-.37-2.227 0-.816.13-1.562.39-2.24.26-.677.62-1.26 1.1-1.75.47-.49 1.03-.872 1.69-1.144.65-.273 1.38-.41 2.17-.41s1.49.13 2.1.39c.61.26 1.13.6 1.56 1.02l-.68.94c-.04.06-.09.11-.16.156-.06.045-.15.068-.26.068-.08 0-.15-.022-.23-.064-.08-.043-.17-.095-.26-.158l-.33-.206c-.13-.075-.27-.144-.44-.206-.17-.063-.36-.115-.58-.158-.22-.042-.47-.063-.76-.063-.48 0-.93.086-1.33.258-.4.18-.75.43-1.04.75-.29.33-.51.73-.67 1.2-.16.48-.24 1.02-.24 1.62 0 .61.09 1.16.26 1.63.17.48.4.88.7 1.2.29.33.64.58 1.04.75.4.18.83.26 1.29.26.27 0 .52-.01.75-.04.22-.03.42-.07.61-.14.19-.06.36-.15.53-.25.17-.1.33-.23.5-.38.05-.04.1-.08.15-.11.05-.03.11-.04.17-.04zm6.247-.728c-.535.025-.984.07-1.35.14-.365.066-.657.152-.877.258-.22.105-.377.227-.473.367-.095.14-.142.292-.142.458 0 .325.096.557.29.697.19.14.442.21.752.21.38 0 .71-.07.987-.206.27-.14.54-.35.81-.63v-1.3zm-4.245-3.338c.886-.81 1.95-1.215 3.195-1.215.45 0 .853.074 1.208.222.355.147.655.352.9.615.245.26.43.57.56.94.126.36.19.76.19 1.2V41h-.84c-.175 0-.31-.026-.405-.08-.095-.05-.17-.157-.225-.318l-.165-.554c-.195.175-.385.328-.57.46-.185.133-.377.244-.578.334-.2.09-.413.16-.64.207-.228.04-.48.07-.755.07-.325 0-.624-.05-.9-.13-.275-.09-.512-.22-.712-.4-.2-.18-.355-.39-.465-.65-.11-.26-.165-.57-.165-.91 0-.2.032-.39.098-.58.065-.2.17-.38.318-.55.148-.18.34-.34.574-.5.235-.16.524-.29.866-.41.343-.12.74-.21 1.197-.28.455-.07.974-.12 1.56-.13v-.45c0-.52-.11-.9-.33-1.15-.22-.25-.538-.37-.953-.37-.3 0-.55.03-.746.1-.198.07-.37.15-.52.23l-.41.24c-.123.07-.26.1-.41.1-.13 0-.24-.04-.33-.1-.09-.07-.16-.15-.216-.24l-.33-.6zm9.525-.127c.156-.155.32-.3.492-.43.172-.134.355-.246.547-.34.2-.09.4-.164.62-.216.22-.053.46-.08.72-.08.42 0 .8.072 1.12.215.33.14.6.34.82.6.22.25.39.56.5.92.12.36.17.75.17 1.18V41h-1.86v-4.898c0-.47-.11-.833-.32-1.09-.21-.258-.54-.387-.98-.387-.32 0-.62.072-.9.218-.28.145-.54.342-.79.592V41h-1.86v-7.695h1.14c.24 0 .4.112.47.337l.13.608zM48.872 41h-2.025V30.155h2.026V41zm8.588-4.035c.23 0 .43-.03.6-.094.17-.06.31-.14.424-.25.112-.11.197-.24.255-.39.05-.15.08-.32.08-.51 0-.38-.12-.68-.34-.9-.23-.22-.57-.33-1.03-.33-.46 0-.8.11-1.03.34-.23.23-.34.53-.34.91 0 .18.03.35.08.51.06.16.14.29.25.4.11.11.25.2.43.26s.37.1.59.1zm2.093 4.38c0-.15-.045-.272-.136-.367-.09-.096-.212-.17-.367-.222-.155-.052-.336-.09-.544-.116-.207-.025-.427-.044-.66-.056-.232-.013-.472-.024-.72-.034-.247-.01-.488-.03-.723-.06-.206.115-.372.25-.5.405-.127.155-.19.335-.19.54 0 .135.033.26.1.38.068.116.176.217.323.303.148.085.34.15.574.198.235.048.522.072.862.072.346 0 .643-.027.893-.08.25-.052.456-.124.62-.217.16-.09.28-.2.355-.33.075-.12.113-.26.113-.41zm1.845-7.777v.69c0 .22-.133.354-.398.404l-.69.128c.105.265.157.555.157.87 0 .38-.076.724-.228 1.03-.16.31-.37.57-.64.785-.27.215-.59.38-.96.5-.37.116-.77.175-1.19.175-.15 0-.3-.007-.44-.023-.14-.015-.28-.034-.42-.06-.24.146-.36.308-.36.488 0 .155.07.27.21.34.14.074.33.125.57.155.23.03.5.05.8.056.3.008.6.024.92.05.32.024.62.068.92.13.3.063.56.16.8.297.23.135.42.318.57.55.14.233.21.532.21.897 0 .34-.09.67-.26.99-.16.32-.41.605-.72.855-.32.25-.71.45-1.17.604-.47.15-.99.22-1.58.22-.58 0-1.09-.06-1.52-.17-.43-.11-.79-.26-1.08-.45-.29-.19-.5-.41-.64-.65s-.21-.5-.21-.77c0-.36.11-.66.32-.91.22-.24.52-.44.9-.58-.21-.11-.37-.25-.49-.42s-.18-.41-.18-.69c0-.12.02-.24.06-.36.04-.12.11-.24.19-.36s.19-.24.31-.34c.13-.11.27-.21.44-.29-.39-.21-.69-.49-.92-.84-.22-.35-.33-.76-.33-1.23 0-.38.08-.73.23-1.03.16-.31.37-.57.64-.79.28-.22.6-.39.97-.5.37-.12.78-.18 1.22-.18.33 0 .64.03.93.1.29.07.56.16.8.29h2.21zm5.992 2.7c0-.24-.034-.467-.1-.68-.07-.212-.17-.398-.305-.558-.135-.16-.306-.286-.514-.38-.2-.09-.44-.137-.72-.137-.53 0-.95.152-1.26.457-.31.305-.5.737-.59 1.297h3.5zm-3.532 1.117c.03.395.1.736.21 1.024.11.28.254.52.434.71.18.19.394.33.642.42.247.09.52.14.82.14.3 0 .56-.04.777-.11.22-.07.41-.15.57-.24.17-.09.31-.16.43-.23s.24-.11.36-.11c.16 0 .27.05.35.17l.54.67c-.2.24-.43.44-.69.6-.25.16-.52.29-.8.39-.28.1-.56.16-.85.21-.28.04-.56.06-.83.06-.53 0-1.03-.09-1.49-.27-.46-.18-.86-.44-1.2-.79-.34-.35-.61-.78-.8-1.29-.19-.52-.29-1.11-.29-1.79 0-.53.09-1.02.26-1.48.17-.46.42-.87.73-1.21.32-.34.71-.61 1.17-.81.46-.2.98-.3 1.55-.3.49 0 .94.07 1.35.23.41.15.77.38 1.06.68.3.29.53.66.7 1.09.17.43.25.92.25 1.48 0 .28-.03.47-.09.56-.06.1-.17.15-.34.15H63.9zm9.075 3.735c-.67 0-1.184-.19-1.542-.566-.35-.378-.53-.9-.53-1.564v-4.297h-.79c-.1 0-.18-.033-.25-.098s-.1-.162-.1-.292v-.735l1.24-.203.39-2.1c.03-.1.07-.177.15-.233.07-.055.16-.082.27-.082h.96v2.423h2.05v1.32h-2.06v4.17c0 .24.06.427.18.562.12.135.28.203.49.203.11 0 .21-.014.29-.042.08-.027.15-.056.21-.086l.15-.086c.04-.028.09-.04.13-.04.06-.002.1.012.14.04.04.027.08.068.12.123l.56.9c-.27.226-.58.395-.93.51-.35.116-.71.173-1.09.173zm10.724-3.405c-.535.025-.984.07-1.35.14-.365.066-.657.152-.877.258-.22.105-.377.227-.473.367-.095.14-.142.292-.142.458 0 .325.096.557.29.697.19.14.442.21.752.21.38 0 .71-.07.987-.206.277-.14.548-.35.814-.63v-1.3zm-4.245-3.338c.886-.81 1.95-1.215 3.195-1.215.45 0 .853.074 1.208.222.355.147.655.352.9.615.245.26.43.57.56.94.126.36.19.76.19 1.2V41h-.84c-.175 0-.31-.026-.405-.08-.095-.05-.17-.157-.225-.318l-.165-.554c-.195.175-.385.328-.57.46-.185.133-.377.244-.578.334-.2.09-.413.16-.64.207-.228.04-.48.07-.755.07-.325 0-.624-.05-.9-.13-.275-.09-.512-.22-.712-.4-.2-.18-.355-.39-.465-.65-.11-.26-.165-.57-.165-.91 0-.2.032-.39.097-.58.066-.2.172-.38.32-.55.147-.18.338-.34.573-.5.235-.16.524-.29.866-.41.35-.12.75-.21 1.2-.28.46-.07.98-.12 1.56-.13v-.45c0-.52-.11-.9-.33-1.15-.22-.25-.53-.37-.95-.37-.3 0-.55.03-.74.1-.2.07-.37.15-.52.23-.15.09-.29.17-.41.24-.12.07-.26.1-.41.1-.13 0-.24-.04-.33-.1-.09-.07-.16-.15-.21-.24l-.33-.6zm13.29-.247c.3-.28.63-.507.99-.683.36-.175.783-.262 1.268-.262.42 0 .792.07 1.118.214.325.14.596.34.813.6.22.25.39.56.5.92.12.36.17.75.17 1.18V41h-1.85v-4.898c0-.47-.1-.833-.32-1.09-.21-.258-.54-.387-.98-.387-.32 0-.62.072-.9.218-.28.145-.54.342-.79.592V41h-1.86V29.855h1.86v4.275zm10.673 3.585c-.535.025-.985.07-1.35.14-.365.066-.657.152-.878.258-.22.105-.377.227-.472.367-.095.14-.142.292-.142.458 0 .325.096.557.288.697.2.14.45.21.76.21.38 0 .71-.07.99-.206.28-.14.55-.35.82-.63v-1.3zm-4.245-3.338c.885-.81 1.95-1.215 3.195-1.215.45 0 .852.074 1.207.222.356.147.655.352.9.615.246.26.432.57.56.94.127.36.19.76.19 1.2V41h-.84c-.175 0-.31-.026-.404-.08-.096-.05-.17-.157-.225-.318l-.165-.554c-.196.175-.385.328-.57.46-.186.133-.378.244-.578.334-.2.09-.414.16-.64.207-.23.04-.48.07-.755.07-.325 0-.625-.05-.9-.13-.275-.09-.512-.22-.713-.4-.2-.18-.354-.39-.465-.65-.11-.26-.165-.57-.165-.91 0-.2.033-.39.098-.58.065-.2.17-.38.32-.55.146-.18.337-.34.572-.5.236-.16.524-.29.867-.41.34-.12.74-.21 1.19-.28.45-.07.97-.12 1.56-.13v-.45c0-.52-.11-.9-.33-1.15-.22-.25-.54-.37-.96-.37-.3 0-.55.03-.75.1-.2.07-.37.15-.52.23-.15.09-.29.17-.41.24-.12.07-.26.1-.41.1-.13 0-.24-.04-.33-.1-.09-.07-.16-.15-.22-.24l-.33-.6zm10.252 6.743c-.67 0-1.183-.19-1.54-.566-.358-.378-.537-.9-.537-1.564v-4.297h-.788c-.1 0-.184-.033-.254-.098s-.106-.162-.106-.292v-.735l1.238-.203.39-2.1c.025-.1.073-.177.142-.233.07-.055.16-.082.27-.082h.96v2.423h2.056v1.32h-2.055v4.17c0 .24.058.427.176.562.117.135.278.203.483.203.116 0 .212-.014.29-.042.077-.027.144-.056.202-.086l.15-.086c.04-.028.09-.04.13-.04.05-.002.1.012.13.04.03.027.07.068.11.123l.55.9c-.27.226-.58.395-.93.51-.35.116-.72.173-1.09.173zm17.34-7.815L124.278 41h-1.486c-.17 0-.287-.11-.352-.33l-1.38-4.448c-.045-.15-.086-.298-.124-.446-.037-.147-.07-.296-.094-.446-.03.15-.063.3-.1.454-.038.152-.08.303-.124.453l-1.403 4.433c-.06.22-.192.33-.398.33h-1.424l-2.438-7.695h1.478c.135 0 .25.032.344.098.096.065.158.147.188.247l1.102 4.11c.056.225.104.445.147.66.042.215.08.43.11.645.053-.215.112-.43.175-.645.06-.215.12-.435.19-.66l1.27-4.125c.03-.1.09-.182.17-.247.08-.066.19-.098.31-.098h.82c.13 0 .24.032.33.098.09.065.15.147.18.247L123 37.76c.066.225.127.446.185.664l.17.648c.06-.425.153-.862.273-1.312l1.134-4.11c.04-.1.1-.182.19-.247.09-.066.2-.098.324-.098h1.41zm4.328-.12c.57 0 1.09.092 1.556.277.468.186.868.448 1.2.788.333.34.59.755.77 1.245.18.49.27 1.037.27 1.643 0 .61-.09 1.16-.27 1.65-.18.49-.437.907-.77 1.252-.332.345-.732.61-1.2.795-.467.185-.986.277-1.556.277-.575 0-1.097-.092-1.568-.277-.47-.185-.87-.45-1.203-.795-.34-.345-.59-.762-.78-1.252-.18-.49-.28-1.04-.28-1.65 0-.606.09-1.153.27-1.643.18-.49.44-.905.77-1.245.33-.34.73-.602 1.2-.788.47-.185.99-.277 1.56-.277zm0 6.502c.64 0 1.114-.214 1.42-.645.31-.43.463-1.06.463-1.89 0-.83-.154-1.462-.462-1.897-.3-.435-.78-.653-1.42-.653-.65 0-1.13.22-1.44.657-.31.43-.47 1.06-.47 1.89 0 .82.16 1.45.47 1.88.32.43.8.65 1.45.65zm7.065-.682c.21.255.44.435.686.54.25.105.51.157.79.157.29 0 .54-.05.77-.153.23-.11.42-.27.58-.48.16-.22.28-.5.37-.84.09-.34.13-.74.13-1.21 0-.85-.14-1.46-.42-1.84-.28-.38-.68-.57-1.2-.57-.35 0-.66.08-.93.24-.26.16-.52.39-.76.68V39zm0-4.755c.31-.325.654-.584 1.03-.776.38-.193.81-.29 1.295-.29.445 0 .846.088 1.204.264.357.175.662.426.915.753.25.33.44.73.58 1.19.13.47.2.99.2 1.57 0 .63-.08 1.19-.24 1.7-.16.51-.38.95-.67 1.31-.29.36-.64.65-1.04.85-.41.2-.86.3-1.35.3-.24 0-.46-.02-.66-.07-.2-.04-.38-.11-.54-.19-.17-.08-.32-.19-.46-.31s-.27-.25-.4-.4l-.08.52c-.03.13-.08.23-.16.28-.07.06-.17.09-.3.09h-1.23V29.86h1.85v4.397zm8.512 4.755c.21.255.44.435.687.54.247.105.508.157.784.157.285 0 .54-.05.768-.153.228-.11.42-.27.58-.48.162-.22.284-.5.37-.84.084-.34.126-.74.126-1.21 0-.85-.14-1.46-.42-1.84-.28-.38-.682-.57-1.207-.57-.355 0-.665.08-.93.24-.265.16-.517.39-.757.68V39zm0-4.755c.31-.325.654-.584 1.032-.776.37-.193.8-.29 1.29-.29.44 0 .84.088 1.2.264.36.175.66.426.91.753.25.33.44.73.58 1.19.13.47.2.99.2 1.57 0 .63-.08 1.19-.23 1.7-.16.51-.38.95-.67 1.31-.29.36-.64.65-1.04.85-.41.2-.86.3-1.35.3-.24 0-.46-.02-.66-.07-.2-.04-.38-.11-.54-.19-.17-.08-.32-.19-.46-.31s-.27-.25-.4-.4l-.09.52c-.03.13-.08.23-.16.28-.08.06-.17.09-.3.09h-1.22V29.86h1.85v4.397zm8.535-4.395V41h-1.852V29.855h1.852zm6.81 6.412c0-.24-.033-.466-.1-.678-.068-.22-.17-.4-.305-.56-.135-.16-.306-.29-.513-.38-.208-.09-.45-.14-.724-.14-.535 0-.956.15-1.264.45-.307.3-.504.73-.59 1.29h3.496zm-3.532 1.118c.03.395.1.736.21 1.024.11.28.255.52.435.71.18.19.394.33.64.42.25.09.522.14.823.14.3 0 .558-.04.776-.11.217-.07.407-.15.57-.24.162-.09.305-.16.427-.23.13-.07.25-.11.36-.11.16 0 .27.05.35.17l.53.67c-.2.24-.43.44-.69.6-.25.16-.52.29-.8.39-.27.1-.56.16-.84.21-.29.04-.56.06-.83.06-.53 0-1.03-.09-1.49-.27-.46-.18-.86-.44-1.2-.79-.34-.35-.6-.78-.8-1.29-.19-.52-.29-1.11-.29-1.79 0-.53.09-1.02.26-1.48.17-.46.42-.87.73-1.21.32-.34.71-.61 1.17-.81.46-.2.98-.3 1.55-.3.49 0 .93.07 1.34.23.41.15.77.38 1.06.68.3.29.53.66.7 1.09.17.43.25.92.25 1.48 0 .28-.03.47-.09.56-.06.1-.17.15-.34.15h-4.76zm14.295.33c-.535.025-.985.07-1.35.14-.365.066-.657.152-.877.258-.22.105-.378.227-.473.367-.095.14-.142.292-.142.458 0 .325.096.557.288.697.2.14.45.21.76.21.38 0 .71-.07.99-.206.28-.14.55-.35.82-.63v-1.3zm-4.245-3.338c.885-.81 1.95-1.215 3.195-1.215.45 0 .852.074 1.208.222.355.147.654.352.9.615.245.26.43.57.558.94.13.36.2.76.2 1.2V41h-.84c-.17 0-.31-.026-.4-.08-.09-.05-.17-.157-.22-.318l-.16-.554c-.19.175-.38.328-.57.46-.18.133-.37.244-.57.334-.2.09-.41.16-.64.207-.23.04-.48.07-.75.07-.32 0-.62-.05-.9-.13-.27-.09-.51-.22-.71-.4-.2-.18-.35-.39-.46-.65-.11-.26-.16-.57-.16-.91 0-.2.04-.39.1-.58.07-.2.17-.38.32-.55.15-.18.34-.34.58-.5.24-.16.53-.29.87-.41.34-.12.74-.21 1.2-.28.46-.07.98-.12 1.56-.13v-.45c0-.52-.11-.9-.33-1.15-.22-.25-.53-.37-.95-.37-.3 0-.55.03-.74.1-.2.07-.37.15-.52.23-.15.09-.29.17-.41.24-.12.07-.26.1-.41.1-.13 0-.24-.04-.33-.1-.09-.07-.16-.15-.22-.24l-.33-.6zm9.525-.127c.155-.155.32-.3.49-.43.174-.134.356-.246.55-.34.19-.09.397-.164.618-.216.22-.053.46-.08.72-.08.42 0 .792.072 1.117.215.325.14.596.34.814.6.217.25.382.56.495.92.11.36.16.75.16 1.18V41h-1.86v-4.898c0-.47-.11-.833-.32-1.09-.22-.258-.55-.387-.99-.387-.32 0-.62.072-.9.218-.28.145-.55.342-.8.592V41h-1.85v-7.695h1.13c.24 0 .4.112.47.337l.13.608zm11.558 1.02c-.21-.255-.44-.435-.687-.54-.247-.105-.513-.157-.798-.157-.28 0-.533.052-.758.157-.225.105-.417.264-.578.476-.16.213-.282.483-.367.81-.085.328-.127.714-.127 1.16 0 .45.036.83.108 1.143.073.31.176.56.31.76.137.19.3.34.497.42.195.09.412.13.652.13.385 0 .712-.08.983-.24.27-.16.524-.39.764-.69v-3.45zm1.852-5.415V41h-1.133c-.245 0-.4-.112-.465-.337l-.157-.743c-.31.355-.666.642-1.07.862-.4.22-.87.33-1.405.33-.42 0-.805-.087-1.155-.262-.35-.175-.65-.43-.904-.76-.252-.334-.447-.745-.585-1.235-.13-.49-.2-1.05-.2-1.68 0-.57.08-1.1.23-1.59.16-.49.38-.915.67-1.275.29-.36.64-.64 1.04-.844.41-.202.86-.303 1.37-.303.43 0 .8.067 1.11.202.31.135.58.317.82.547v-4.057h1.86zm9.54 7.86c-.535.025-.985.07-1.35.14-.365.066-.657.152-.877.258-.22.105-.378.227-.473.367-.095.14-.142.292-.142.458 0 .325.096.557.288.697.2.14.45.21.76.21.38 0 .71-.07.99-.206.28-.14.55-.35.82-.63v-1.3zm-4.245-3.338c.885-.81 1.95-1.215 3.195-1.215.45 0 .852.074 1.208.222.355.147.654.352.9.615.245.26.43.57.558.94.13.36.2.76.2 1.2V41h-.84c-.17 0-.31-.026-.4-.08-.09-.05-.17-.157-.22-.318l-.16-.554c-.19.175-.38.328-.57.46-.18.133-.37.244-.57.334-.2.09-.41.16-.64.207-.23.04-.48.07-.75.07-.33 0-.63-.05-.9-.13-.28-.09-.51-.22-.71-.4-.2-.18-.35-.39-.46-.65-.11-.26-.16-.57-.16-.91 0-.2.03-.39.1-.58.07-.2.17-.38.32-.55.15-.18.34-.34.58-.5.24-.16.52-.29.87-.41.34-.12.74-.21 1.2-.28.46-.07.98-.12 1.56-.13v-.45c0-.52-.11-.9-.33-1.15-.22-.25-.53-.37-.95-.37-.3 0-.55.03-.74.1-.19.07-.37.15-.52.23-.15.09-.28.17-.41.24-.12.07-.25.1-.41.1-.13 0-.24-.04-.32-.1-.09-.07-.16-.15-.22-.24l-.33-.6zM208.705 41v-6.3l-.668-.105c-.145-.03-.26-.08-.348-.154-.09-.07-.14-.17-.14-.31v-.75h1.14v-.32c0-.41.06-.8.19-1.17.13-.37.32-.7.59-.99.26-.29.6-.52 1-.69.4-.17.88-.26 1.43-.26.42 0 .82.02 1.2.04.37.03.75.05 1.13.05h1.22V41h-1.85v-9.69c-.27-.01-.53-.022-.78-.037-.26-.016-.47-.023-.64-.023-.56 0-.99.156-1.28.47-.3.31-.44.755-.44 1.33v.323h1.82v1.32h-1.77V41h-1.85zm12.697-3.285c-.535.025-.984.07-1.35.14-.365.066-.657.152-.877.258-.22.105-.377.227-.473.367-.095.14-.142.292-.142.458 0 .325.096.557.29.697.19.14.442.21.752.21.38 0 .71-.07.987-.206.27-.14.54-.35.81-.63v-1.3zm-4.244-3.338c.885-.81 1.95-1.215 3.195-1.215.45 0 .852.074 1.207.222.355.147.655.352.9.615.245.26.43.57.56.94.126.36.19.76.19 1.2V41h-.84c-.175 0-.31-.026-.405-.08-.095-.05-.17-.157-.225-.318l-.165-.554c-.195.175-.385.328-.57.46-.185.133-.377.244-.577.334-.2.09-.414.16-.642.207-.227.04-.478.07-.754.07-.325 0-.624-.05-.9-.13-.275-.09-.512-.22-.712-.4-.2-.18-.355-.39-.465-.65-.11-.26-.165-.57-.165-.91 0-.2.032-.39.097-.58.065-.2.172-.38.32-.55.147-.18.338-.34.573-.5.235-.16.524-.29.866-.41.343-.12.74-.21 1.197-.28.455-.07.974-.12 1.56-.13v-.45c0-.52-.11-.9-.33-1.15-.22-.25-.538-.37-.953-.37-.3 0-.55.03-.746.1-.198.07-.37.15-.522.23-.15.09-.286.17-.408.24-.123.07-.26.1-.41.1-.13 0-.24-.04-.33-.1-.09-.07-.162-.15-.216-.24l-.33-.6zm9.54.263c.24-.46.524-.82.855-1.084.33-.262.72-.393 1.17-.393.355 0 .64.077.854.232l-.12 1.387c-.024.09-.06.154-.108.192-.05.037-.12.056-.2.056-.08 0-.19-.012-.34-.038-.15-.025-.29-.037-.43-.037-.21 0-.39.03-.55.09-.16.06-.31.146-.43.26-.13.11-.24.247-.34.407-.1.16-.19.343-.28.548V41h-1.86v-7.695H226c.19 0 .323.034.4.1.074.07.124.19.15.365l.11.87zm5.7-.51c.3-.28.63-.507.99-.683.36-.175.782-.262 1.267-.262.42 0 .792.07 1.118.214.325.14.596.34.813.6.218.25.383.56.495.92.12.36.17.75.17 1.18V41h-1.85v-4.898c0-.47-.11-.833-.32-1.09-.21-.258-.54-.387-.98-.387-.32 0-.62.072-.9.218-.28.145-.54.342-.79.592V41h-1.85V29.855h1.86v4.275zm9.42 2.835c.23 0 .43-.03.6-.094.17-.06.31-.14.423-.25.12-.11.2-.24.26-.39.06-.15.09-.32.09-.51 0-.38-.11-.68-.34-.9-.22-.22-.56-.33-1.02-.33-.45 0-.79.11-1.02.34-.23.23-.34.53-.34.91 0 .18.03.35.09.51.06.16.14.29.26.4.12.11.26.2.43.26.18.07.38.1.6.1zm2.092 4.38c0-.15-.045-.272-.135-.367-.09-.096-.212-.17-.368-.222-.155-.052-.336-.09-.543-.116-.208-.025-.428-.044-.66-.056-.233-.013-.473-.024-.72-.034-.248-.01-.49-.03-.724-.06-.205.115-.37.25-.5.405-.126.155-.19.335-.19.54 0 .135.034.26.1.38.07.116.176.217.324.303.147.085.338.15.573.198.236.048.523.072.863.072.345 0 .642-.027.892-.08.25-.052.457-.124.62-.217.162-.09.28-.2.356-.33.075-.12.112-.26.112-.41zm1.845-7.777v.69c0 .22-.132.354-.398.404l-.69.128c.106.265.158.555.158.87 0 .38-.076.724-.23 1.03-.15.31-.362.57-.632.785-.27.215-.59.38-.957.5-.367.116-.763.175-1.19.175-.15 0-.293-.007-.434-.023-.14-.015-.277-.034-.412-.06-.24.146-.36.308-.36.488 0 .155.07.27.214.34.142.074.33.125.566.155.235.03.502.05.803.056.3.008.607.024.922.05.315.024.622.068.922.13.3.063.568.16.803.297.235.135.424.318.566.55.143.233.214.532.214.897 0 .34-.084.67-.25.99-.17.32-.41.605-.73.855-.316.25-.706.45-1.17.604-.46.15-.987.22-1.577.22-.58 0-1.085-.06-1.516-.17-.43-.11-.787-.26-1.072-.45-.285-.19-.497-.41-.638-.65-.14-.25-.21-.5-.21-.77 0-.36.11-.66.327-.91.217-.24.516-.44.896-.58-.205-.11-.367-.25-.488-.42-.12-.18-.18-.41-.18-.69 0-.12.022-.24.064-.36.043-.12.105-.24.188-.36.082-.12.186-.24.31-.34.126-.11.273-.21.444-.29-.39-.21-.697-.49-.92-.84-.222-.35-.333-.76-.333-1.23 0-.38.076-.73.23-1.03.15-.31.364-.57.636-.79.28-.22.6-.39.97-.5.37-.12.78-.18 1.22-.18.33 0 .64.03.93.1.29.07.56.16.8.29h2.22zm7.8-.263V41h-1.132c-.246 0-.4-.112-.465-.337l-.128-.615c-.315.32-.662.578-1.043.776-.38.197-.827.296-1.342.296-.42 0-.79-.07-1.114-.214-.32-.142-.59-.343-.81-.603-.22-.26-.38-.57-.5-.927-.11-.357-.17-.75-.17-1.18v-4.89h1.86v4.89c0 .47.11.833.33 1.09.22.258.54.386.98.386.32 0 .62-.07.9-.213.28-.15.55-.34.8-.59V33.3h1.86zm3.563.945c.155-.155.318-.3.49-.43.173-.134.356-.246.548-.34.193-.09.4-.164.62-.216.22-.053.46-.08.72-.08.42 0 .79.072 1.117.215.325.14.596.34.813.6.218.25.383.56.495.92.12.36.17.75.17 1.18V41h-1.85v-4.898c0-.47-.11-.833-.32-1.09-.21-.258-.54-.387-.98-.387-.32 0-.62.072-.9.218-.28.145-.54.342-.79.592V41h-1.85v-7.695h1.13c.24 0 .4.112.48.337l.13.608zm8.46 0c.155-.155.318-.3.49-.43.173-.134.356-.246.548-.34.193-.09.4-.164.62-.216.22-.053.46-.08.72-.08.42 0 .79.072 1.116.215.326.14.597.34.814.6.218.25.383.56.495.92.12.36.17.75.17 1.18V41h-1.85v-4.898c0-.47-.1-.833-.32-1.09-.21-.258-.54-.387-.98-.387-.32 0-.62.072-.9.218-.28.145-.54.342-.79.592V41h-1.85v-7.695h1.13c.24 0 .4.112.48.337l.13.608zm11.422.555c-.05.08-.103.136-.158.17-.054.03-.125.047-.21.047-.09 0-.186-.024-.288-.075-.103-.05-.22-.106-.356-.168-.136-.07-.29-.12-.462-.17-.172-.05-.376-.08-.61-.08-.366 0-.652.07-.86.23-.207.15-.31.35-.31.6 0 .16.053.3.16.41.108.11.25.21.428.29.177.08.378.16.603.23.226.06.454.14.687.22.232.08.46.17.686.27.225.1.426.23.604.39.177.16.32.35.427.57.11.22.17.48.17.79 0 .37-.06.71-.2 1.02-.13.31-.33.58-.59.81-.26.23-.58.4-.96.53s-.82.19-1.32.19c-.26 0-.52-.03-.77-.07-.25-.05-.49-.12-.72-.2-.23-.09-.44-.19-.64-.3-.2-.12-.37-.24-.52-.38l.43-.71c.06-.08.12-.15.2-.19.08-.05.17-.07.29-.07.12 0 .23.03.33.1l.36.21c.14.07.3.14.48.21.18.06.41.09.69.09.22 0 .41-.03.57-.08.16-.05.29-.12.39-.2.1-.09.18-.19.23-.3.05-.11.07-.23.07-.35 0-.18-.05-.32-.16-.44-.11-.11-.25-.21-.43-.3-.17-.08-.38-.16-.6-.23-.23-.06-.46-.14-.7-.22-.23-.08-.47-.17-.69-.28-.23-.11-.43-.24-.61-.41-.17-.16-.32-.36-.42-.6-.11-.24-.16-.53-.16-.87 0-.32.06-.62.19-.9.13-.29.31-.54.55-.75.25-.22.55-.39.91-.51.36-.13.78-.19 1.26-.19.53 0 1.01.08 1.45.26.44.17.8.4 1.09.69l-.42.66zm4.462 6.315c-.67 0-1.183-.19-1.54-.566-.358-.378-.537-.9-.537-1.564v-4.297h-.787c-.1 0-.185-.033-.256-.098-.07-.065-.104-.162-.104-.292v-.735l1.237-.203.39-2.1c.025-.1.072-.177.142-.233.07-.055.16-.082.27-.082h.96v2.423h2.055v1.32h-2.054v4.17c0 .24.058.427.176.562.117.135.278.203.483.203.116 0 .212-.014.29-.042.077-.027.144-.056.202-.086l.15-.086c.04-.028.09-.04.13-.04.05-.002.1.012.13.04.03.027.07.068.11.123l.55.9c-.27.226-.58.395-.93.51-.35.116-.72.173-1.09.173zm6.36-7.935c.57 0 1.09.092 1.557.277.46.186.86.448 1.2.788.33.34.58.755.76 1.245.18.49.27 1.037.27 1.643 0 .61-.09 1.16-.27 1.65-.18.49-.44.907-.77 1.252s-.73.61-1.2.795c-.47.185-.99.277-1.56.277-.58 0-1.1-.092-1.57-.277-.47-.185-.87-.45-1.21-.795-.33-.345-.59-.762-.77-1.252-.19-.49-.28-1.04-.28-1.65 0-.606.09-1.153.27-1.643.18-.49.44-.905.77-1.245.33-.34.73-.602 1.2-.788.47-.185.99-.277 1.57-.277zm0 6.502c.64 0 1.114-.214 1.422-.645.307-.43.46-1.06.46-1.89 0-.83-.153-1.462-.46-1.897-.308-.435-.78-.653-1.422-.653-.65 0-1.13.22-1.443.657-.32.43-.47 1.06-.47 1.89 0 .82.15 1.45.47 1.88.31.43.79.65 1.44.65zm16.073-6.382L301.45 41h-1.485c-.17 0-.287-.11-.352-.33l-1.38-4.448c-.046-.15-.087-.298-.124-.446-.04-.147-.07-.296-.1-.446-.03.15-.07.3-.1.454-.04.152-.08.303-.13.453l-1.41 4.433c-.06.22-.19.33-.4.33h-1.43l-2.44-7.695h1.47c.13 0 .25.032.34.098.09.065.16.147.19.247l1.1 4.11c.05.225.1.445.14.66.04.215.08.43.11.645.05-.215.11-.43.17-.645.07-.215.13-.435.2-.66l1.28-4.125c.03-.1.09-.182.17-.247.09-.066.19-.098.32-.098h.82c.13 0 .24.032.33.098.09.065.15.147.18.247l1.23 4.125c.06.225.13.446.18.664.06.217.11.433.17.648.06-.425.16-.862.28-1.312l1.13-4.11c.03-.1.09-.182.19-.247.09-.066.2-.098.32-.098h1.41zm.668-2.168c.17-.15.356-.292.558-.427.21-.135.43-.252.66-.352.24-.1.49-.18.77-.237.28-.05.57-.08.89-.08.44 0 .83.06 1.19.18s.66.29.92.52c.26.22.45.49.59.81.14.32.21.67.21 1.06 0 .38-.05.71-.16.99s-.24.52-.41.72c-.16.21-.34.38-.54.53l-.56.43c-.17.13-.32.26-.45.39-.12.13-.2.27-.22.43l-.17 1.1h-1.26l-.13-1.22c-.03-.23.01-.44.1-.62.1-.17.23-.34.39-.48.17-.15.35-.29.55-.43.2-.14.39-.29.57-.45.18-.16.32-.34.44-.55.12-.2.18-.44.18-.72 0-.18-.03-.34-.1-.48-.07-.14-.16-.26-.28-.37-.12-.1-.26-.18-.43-.23-.17-.05-.35-.08-.54-.08-.28 0-.52.03-.72.1-.19.07-.36.14-.5.21-.14.08-.26.15-.35.21-.1.07-.18.1-.26.1-.18 0-.31-.07-.39-.22l-.49-.77zm1.417 8.843c0-.155.03-.302.086-.442.058-.14.137-.26.237-.36.1-.1.22-.18.36-.24.14-.06.29-.09.45-.09.16 0 .308.03.446.09.13.06.25.14.36.24.1.1.18.22.24.36.06.14.09.287.09.442 0 .16-.03.31-.09.446-.06.138-.14.256-.25.356-.11.1-.23.18-.36.237-.14.05-.29.08-.45.08-.16 0-.31-.03-.45-.09s-.26-.14-.36-.24c-.1-.1-.18-.22-.24-.36-.06-.14-.09-.29-.09-.45z" fill="#2B80B9"/><rect fill="#E3E4E6" y="28.4199982" width="4" height="80" rx="3"/><path d="M11.303 6.63c0 .805-.128 1.544-.383 2.216-.255.673-.615 1.25-1.08 1.736-.465.486-1.024.862-1.676 1.13-.653.267-1.374.4-2.164.4s-1.51-.133-2.16-.4c-.65-.268-1.207-.644-1.672-1.13-.466-.485-.825-1.063-1.08-1.736C.83 8.174.704 7.436.704 6.63c0-.805.127-1.544.382-2.216.256-.673.615-1.253 1.08-1.74.466-.488 1.023-.866 1.673-1.136.65-.27 1.37-.405 2.16-.405s1.51.134 2.16.405c.65.27 1.21.648 1.67 1.136.46.487.82 1.067 1.08 1.74.25.672.38 1.41.38 2.216zm-1.493 0c0-.66-.09-1.252-.27-1.777-.18-.526-.435-.97-.765-1.332-.33-.36-.73-.64-1.2-.83C7.105 2.5 6.58 2.4 6 2.4c-.575 0-1.097.097-1.567.292-.47.194-.872.473-1.204.835-.34.364-.59.807-.77 1.333-.18.525-.27 1.117-.27 1.777 0 .66.09 1.25.27 1.774.18.52.43.97.77 1.33.33.37.73.64 1.2.84.47.19.99.29 1.56.29.58 0 1.1-.09 1.57-.29.47-.19.87-.47 1.2-.83.33-.36.58-.8.76-1.32.18-.52.27-1.12.27-1.78zM14.265.952v6.503h.345c.1 0 .184-.014.25-.04.07-.03.14-.085.215-.17l2.4-2.572c.07-.086.144-.152.22-.2.08-.047.182-.07.313-.07h1.207L16.418 7.38c-.136.17-.28.302-.435.397.09.06.17.13.243.207.073.077.14.166.207.266l2.97 3.75H18.21c-.115 0-.214-.02-.296-.056-.083-.038-.154-.106-.214-.207l-2.497-3.112c-.076-.105-.15-.174-.222-.206-.07-.04-.18-.05-.33-.05h-.38V12h-1.34V.953h1.35zM24.66 8.58c-.615.02-1.14.07-1.57.146-.434.078-.786.18-1.06.304-.27.125-.47.272-.59.443-.124.17-.185.36-.185.57 0 .2.032.372.098.517.065.145.153.264.266.356.11.093.24.16.39.203.15.04.31.06.49.06.23 0 .45-.03.64-.07.19-.05.38-.12.55-.21.17-.09.34-.2.49-.32.15-.13.31-.27.46-.43V8.58zm-4.313-3.105c.42-.405.873-.707 1.358-.907.485-.2 1.022-.3 1.613-.3.425 0 .802.07 1.132.21.33.14.607.334.832.585.226.25.395.552.51.907.116.355.173.745.173 1.17V12h-.593c-.13 0-.23-.02-.3-.064-.07-.042-.124-.126-.165-.25l-.15-.72c-.2.184-.394.348-.585.49-.19.143-.39.263-.6.36-.21.098-.433.173-.67.225-.238.06-.502.08-.792.08-.295 0-.572-.04-.832-.12-.26-.08-.487-.2-.68-.37-.192-.16-.344-.37-.457-.62-.11-.25-.16-.55-.16-.89 0-.3.09-.59.25-.86.17-.27.44-.52.81-.74.37-.21.85-.39 1.45-.52.6-.14 1.33-.22 2.19-.24v-.6c0-.59-.12-1.03-.38-1.34-.25-.3-.62-.45-1.11-.45-.33 0-.6.04-.83.13-.22.09-.41.18-.57.28-.16.1-.3.2-.42.28-.12.09-.23.13-.35.13-.09 0-.16-.02-.23-.07-.06-.05-.12-.1-.16-.18l-.24-.42zm14.026-1.072l-4.238 9.84c-.045.1-.1.18-.17.24-.066.06-.17.09-.31.09h-.99l1.387-3.016-3.134-7.155h1.155c.115 0 .206.03.273.087.068.05.114.12.14.19l2.03 4.78c.082.21.15.43.204.66.07-.24.145-.46.225-.67l1.972-4.78c.03-.08.082-.15.154-.2.08-.05.16-.08.25-.08h1.06zm.532 9.412c-.04-.035-.067-.067-.083-.098-.015-.03-.022-.067-.022-.112 0-.035.01-.07.034-.105.022-.035.048-.067.078-.098.05-.055.114-.127.192-.217.077-.09.156-.196.236-.32.08-.12.154-.256.22-.404.07-.14.117-.3.148-.46-.016.01-.032.01-.05.01h-.048c-.26 0-.47-.08-.634-.26-.162-.17-.243-.39-.243-.66 0-.23.08-.43.243-.6.163-.16.38-.25.65-.25.15 0 .28.03.397.09.115.06.21.13.288.23.08.1.14.21.18.34.04.13.06.27.06.42 0 .23-.03.46-.09.7-.06.25-.15.49-.28.72-.12.24-.27.47-.44.7-.17.23-.37.44-.6.63l-.22-.22zM44.002 12h-1.455V1.252h1.456V12zM55.56 5.753c-.04.055-.08.097-.12.127-.04.03-.095.045-.165.045-.075 0-.157-.03-.247-.094-.09-.06-.202-.13-.334-.2-.133-.07-.295-.14-.488-.2-.192-.06-.428-.09-.71-.09-.374 0-.703.07-.99.2-.284.13-.522.32-.715.57-.19.25-.33.56-.43.91-.09.36-.14.75-.14 1.19 0 .46.06.87.16 1.23.11.36.26.66.45.9.2.24.43.43.7.56.28.13.58.19.92.19.33 0 .6-.04.81-.11.21-.08.39-.16.52-.26.14-.09.26-.18.35-.26.09-.07.19-.11.28-.11.11 0 .2.04.26.13l.38.49c-.16.21-.35.38-.56.53-.21.15-.43.27-.68.37-.24.1-.49.17-.76.22-.26.05-.53.07-.81.07-.47 0-.91-.09-1.32-.26-.4-.17-.76-.43-1.06-.76-.3-.33-.53-.74-.7-1.23-.17-.49-.26-1.04-.26-1.66 0-.57.08-1.09.24-1.57.16-.48.39-.89.69-1.24.31-.35.68-.62 1.12-.82.44-.19.95-.29 1.53-.29.54 0 1.01.09 1.42.26.41.17.77.42 1.09.73l-.35.48zm3.142.172c.24-.52.535-.926.886-1.22.35-.29.777-.438 1.282-.438.16 0 .314.018.46.053.15.035.28.09.395.165l-.098.997c-.03.126-.104.188-.224.188-.07 0-.173-.015-.308-.045s-.287-.045-.457-.045c-.24 0-.454.035-.642.105-.187.07-.355.174-.502.31-.148.14-.28.31-.398.51-.117.204-.223.435-.318.695V12h-1.343V4.402h.765c.145 0 .245.028.3.083.055.055.092.15.112.285l.09 1.155zm8.97 1.447c0-.31-.043-.593-.13-.85-.088-.258-.216-.48-.383-.668-.17-.188-.38-.333-.62-.435-.24-.11-.52-.16-.82-.16-.64 0-1.15.18-1.52.56-.37.37-.61.88-.7 1.54h4.15zm1.08 3.563c-.165.2-.362.374-.592.52-.23.15-.476.27-.74.365-.26.095-.532.166-.813.214-.28.047-.557.07-.832.07-.525 0-1.01-.088-1.45-.265-.444-.18-.826-.44-1.15-.78-.32-.35-.572-.77-.752-1.28-.18-.51-.27-1.09-.27-1.74 0-.53.08-1.03.243-1.49.163-.46.396-.86.7-1.2.307-.34.68-.6 1.12-.8.44-.19.934-.29 1.484-.29.455 0 .876.08 1.264.23.387.15.722.37 1.005.66.28.29.5.64.66 1.06.16.42.24.9.24 1.44 0 .21-.02.35-.07.42s-.13.1-.26.1h-5.08c.01.48.08.9.2 1.25.12.36.28.65.49.89.21.24.46.41.75.53.29.11.61.17.97.17.33 0 .62-.04.86-.12.24-.08.45-.16.62-.25s.32-.17.44-.25c.11-.08.21-.12.3-.12.11 0 .19.04.25.13l.37.48zm5.873-2.355c-.615.02-1.14.07-1.57.146-.434.078-.786.18-1.06.304-.27.125-.47.272-.59.443-.124.17-.185.36-.185.57 0 .2.032.372.097.517.066.145.154.264.267.356.112.093.245.16.397.203.16.04.32.06.5.06.24 0 .45-.03.65-.07.2-.05.38-.12.55-.21.18-.09.34-.2.5-.32.16-.13.31-.27.46-.43V8.58zm-4.313-3.105c.42-.405.873-.707 1.358-.907.485-.2 1.022-.3 1.612-.3.426 0 .803.07 1.133.21.33.14.607.334.832.585.226.25.395.552.51.907.116.355.173.745.173 1.17V12h-.593c-.13 0-.23-.02-.3-.064-.07-.042-.124-.126-.165-.25l-.15-.72c-.2.184-.394.348-.584.49-.19.143-.39.263-.6.36-.21.098-.434.173-.672.225-.237.06-.5.08-.79.08-.296 0-.573-.04-.833-.12-.26-.08-.487-.2-.68-.37-.192-.16-.344-.37-.457-.62-.112-.25-.168-.55-.168-.89 0-.3.082-.59.247-.86.165-.27.432-.52.802-.74.37-.21.853-.39 1.448-.52.595-.14 1.325-.22 2.19-.24v-.6c0-.59-.127-1.03-.382-1.34-.256-.3-.628-.45-1.118-.45-.33 0-.606.04-.83.13-.22.09-.414.18-.576.28-.17.1-.31.2-.42.28-.12.09-.24.13-.35.13-.09 0-.17-.02-.24-.07-.07-.05-.12-.1-.17-.18l-.24-.43zm9.886 6.645c-.6 0-1.062-.167-1.384-.502-.323-.336-.484-.818-.484-1.448V5.52h-.915c-.08 0-.147-.024-.203-.07-.055-.05-.082-.122-.082-.223v-.532l1.245-.158.308-2.347c.015-.075.048-.136.1-.184.053-.047.122-.07.207-.07h.675v2.617h2.197v.967h-2.197v4.56c0 .32.077.557.232.713.156.155.355.232.6.232.14 0 .262-.02.364-.056.11-.04.2-.08.27-.13.08-.05.14-.09.19-.13.05-.04.1-.06.14-.06.07 0 .13.04.19.13l.39.63c-.23.21-.5.38-.83.5-.32.12-.66.18-1 .18zm8.092-4.747c0-.31-.044-.594-.13-.852-.09-.25-.216-.48-.384-.66-.167-.19-.37-.33-.61-.43-.24-.1-.513-.15-.82-.15-.64 0-1.145.19-1.517.56-.38.37-.61.89-.7 1.55h4.15zm1.08 3.562c-.165.2-.362.374-.593.52-.23.15-.476.27-.738.365-.27.095-.54.166-.82.214-.28.047-.56.07-.83.07-.53 0-1.01-.088-1.45-.265-.44-.18-.83-.44-1.15-.78-.33-.35-.58-.77-.76-1.28-.18-.51-.27-1.09-.27-1.74 0-.53.08-1.03.24-1.49.16-.46.39-.86.7-1.2.3-.34.67-.6 1.11-.8.44-.19.93-.29 1.48-.29.45 0 .87.08 1.26.23.39.15.72.37 1.01.66.28.29.5.64.66 1.06.16.42.24.9.24 1.44 0 .21-.02.35-.07.42s-.13.1-.26.1h-5.08c.02.48.08.9.2 1.25.12.36.28.65.49.89.21.24.46.41.75.53.29.11.62.17.98.17.33 0 .62-.04.86-.12.24-.08.45-.16.63-.25.17-.09.32-.17.44-.25.11-.08.21-.12.3-.12.11 0 .19.04.25.13l.37.48zm6.705-4.725c-.25-.335-.52-.57-.81-.7-.29-.134-.615-.2-.975-.2-.705 0-1.247.252-1.628.758-.38.505-.57 1.224-.57 2.16 0 .495.043.918.128 1.27.085.353.21.643.375.87.165.228.367.394.608.5.24.105.512.157.817.157.44 0 .824-.1 1.15-.3.33-.2.63-.482.905-.848V6.21zM97.41.952V12h-.795c-.19 0-.31-.092-.36-.277l-.12-.923c-.325.39-.695.705-1.11.945-.415.24-.895.36-1.44.36-.435 0-.83-.084-1.185-.25-.355-.17-.657-.415-.907-.74s-.443-.73-.578-1.215c-.135-.485-.203-1.042-.203-1.673 0-.56.075-1.08.225-1.563.15-.483.365-.9.645-1.256s.624-.634 1.032-.837c.407-.2.866-.3 1.376-.3.465 0 .864.08 1.196.24.333.16.63.38.89.66V.96h1.334zm10.073 7.628c-.616.02-1.14.07-1.572.146-.43.078-.78.18-1.05.304-.27.125-.47.272-.59.443-.12.17-.18.36-.18.57 0 .2.04.372.1.517.07.145.16.264.27.356.12.093.25.16.4.203.15.04.32.06.49.06.24 0 .45-.03.65-.07.2-.05.38-.12.55-.21.18-.09.34-.2.5-.32.16-.13.32-.27.47-.43V8.58zm-4.313-3.105c.42-.405.872-.707 1.358-.907.485-.2 1.022-.3 1.612-.3.425 0 .802.07 1.132.21.33.14.608.334.833.585.225.25.395.552.51.907.115.355.172.745.172 1.17V12h-.592c-.13 0-.23-.02-.3-.064-.07-.042-.125-.126-.165-.25l-.15-.72c-.2.184-.395.348-.585.49-.19.143-.39.263-.6.36-.21.098-.434.173-.67.225-.24.06-.502.08-.792.08-.296 0-.573-.04-.833-.12-.26-.08-.486-.2-.68-.37-.19-.16-.344-.37-.456-.62-.113-.25-.17-.55-.17-.89 0-.3.083-.59.25-.86.164-.27.43-.52.8-.74.37-.21.853-.39 1.45-.52.594-.14 1.323-.22 2.19-.24v-.6c0-.59-.13-1.03-.384-1.34-.255-.3-.627-.45-1.117-.45-.33 0-.607.04-.83.13-.222.09-.414.18-.577.28-.162.1-.302.2-.42.28-.117.09-.233.13-.35.13-.088 0-.166-.02-.23-.07-.066-.05-.12-.1-.166-.18l-.24-.42zm12.75.03c.165-.185.34-.352.525-.502.185-.15.38-.28.59-.387.206-.107.426-.19.66-.247.23-.06.482-.09.753-.09.415 0 .78.07 1.098.2.318.13.583.33.795.58.22.25.38.55.49.91.11.35.17.75.17 1.18V12h-1.34V7.162c0-.575-.13-1.02-.39-1.338-.26-.318-.66-.476-1.19-.476-.39 0-.76.094-1.1.285-.34.19-.65.447-.95.772V12h-1.34V4.402h.81c.19 0 .31.093.36.278l.11.825zm12.195 1.867c0-.31-.044-.593-.13-.85-.09-.258-.216-.48-.384-.668-.16-.188-.37-.333-.61-.435-.24-.11-.51-.16-.81-.16-.64 0-1.14.18-1.52.56-.37.37-.6.88-.69 1.54h4.16zm1.08 3.563c-.165.2-.362.374-.593.52-.23.15-.476.27-.738.365-.263.095-.534.166-.814.214-.28.047-.557.07-.832.07-.526 0-1.01-.088-1.452-.265-.442-.18-.825-.44-1.147-.78-.33-.35-.58-.77-.76-1.28-.18-.51-.27-1.09-.27-1.74 0-.53.08-1.03.24-1.49.16-.46.39-.86.7-1.2.3-.34.67-.6 1.11-.8.44-.19.93-.29 1.48-.29.45 0 .87.08 1.26.23.39.15.72.37 1 .66.28.29.5.64.66 1.06.16.42.24.9.24 1.44 0 .21-.03.35-.07.42-.05.07-.13.1-.26.1h-5.07c.01.48.08.9.2 1.25.11.36.28.65.49.89.21.24.46.41.75.53.29.11.61.17.97.17.33 0 .62-.04.86-.12.24-.08.45-.16.62-.25s.32-.17.44-.25c.12-.08.22-.12.3-.12.11 0 .2.04.26.13l.37.48zm12.157-6.533L138.892 12h-1.057c-.13 0-.22-.085-.27-.255l-1.68-5.152c-.04-.116-.072-.232-.097-.35l-.076-.348-.075.35c-.024.116-.057.235-.097.355l-1.71 5.145c-.045.17-.145.255-.3.255h-1.005l-2.46-7.598h1.05c.105 0 .194.028.266.083.08.055.13.12.15.195l1.46 4.89c.09.36.16.7.21 1.02.05-.165.09-.332.14-.502.05-.17.1-.343.16-.518l1.61-4.92c.03-.075.07-.137.13-.188.07-.05.14-.074.23-.074h.59c.1 0 .18.024.25.075.06.05.11.112.13.187L138 9.57c.053.175.104.347.15.518.044.17.086.337.126.502.023-.165.054-.33.09-.5.04-.166.08-.34.126-.52l1.483-4.89c.028-.08.076-.146.146-.2.07-.05.15-.078.25-.078h1zm6.248 0V12h-1.335V4.402h1.335zm.285-2.385c0 .13-.026.252-.08.364-.05.12-.12.22-.21.3-.086.09-.19.16-.306.21-.12.05-.25.08-.38.08s-.25-.02-.37-.07-.21-.12-.3-.2c-.09-.08-.15-.18-.2-.3-.05-.11-.08-.23-.08-.36 0-.13.02-.25.07-.37.05-.11.12-.22.2-.3.08-.09.18-.15.29-.21.11-.05.23-.07.36-.07s.25.03.37.08c.11.05.22.12.3.21.09.09.16.19.21.31.05.12.08.24.08.37zm6.33 3.638c-.06.11-.152.165-.278.165-.075 0-.16-.027-.255-.083-.094-.055-.21-.116-.348-.183-.138-.068-.3-.13-.492-.188-.19-.057-.414-.086-.675-.086-.225 0-.427.03-.607.086-.18.058-.334.136-.46.237-.13.1-.226.216-.294.348-.067.14-.1.28-.1.44 0 .2.055.36.168.49.112.13.26.25.446.34.185.1.395.18.63.26.235.07.476.15.724.23.247.09.488.18.724.28.235.1.444.23.63.38.185.15.333.34.446.55.112.22.17.48.17.79 0 .35-.064.68-.19.97-.124.3-.31.56-.554.78-.245.21-.545.38-.9.51s-.765.19-1.23.19c-.53 0-1.01-.09-1.44-.26-.43-.17-.795-.39-1.095-.66l.315-.51c.04-.07.087-.11.142-.15.055-.04.125-.05.21-.05.09 0 .185.04.286.11.1.07.22.15.363.23.15.09.32.17.53.24.21.07.46.11.77.11.26 0 .49-.03.68-.1.2-.07.36-.16.49-.27.13-.115.23-.25.29-.4.06-.15.09-.31.09-.48 0-.21-.05-.39-.17-.52-.11-.14-.26-.26-.44-.36-.18-.1-.39-.18-.63-.252-.23-.07-.48-.15-.72-.23-.25-.08-.49-.17-.73-.27-.23-.103-.45-.23-.63-.39-.18-.15-.33-.34-.44-.57-.11-.22-.17-.5-.17-.83 0-.29.06-.56.18-.83s.3-.5.53-.705c.23-.2.51-.363.85-.483.34-.12.72-.18 1.15-.18.5 0 .95.08 1.35.237.4.16.74.37 1.03.65l-.3.49zm6.495 0c-.06.11-.152.165-.278.165-.075 0-.16-.027-.254-.083-.095-.055-.212-.116-.35-.183-.137-.068-.3-.13-.49-.188-.19-.057-.415-.086-.675-.086-.226 0-.428.03-.608.086-.18.058-.334.136-.46.237-.13.1-.226.216-.294.348-.06.14-.1.28-.1.44 0 .2.06.36.17.49.11.13.26.25.45.34.19.1.4.18.63.26.24.07.48.15.73.23.25.09.49.18.73.28.24.1.45.23.63.38.19.15.34.34.45.55.11.22.17.48.17.79 0 .35-.06.68-.18.97-.13.3-.31.56-.56.78-.24.21-.54.38-.9.51-.35.13-.76.19-1.23.19-.53 0-1.01-.09-1.44-.26-.43-.17-.79-.39-1.09-.66l.32-.51c.04-.07.09-.11.14-.15.06-.04.13-.05.21-.05.09 0 .19.04.29.11.1.07.22.15.37.23.14.09.31.17.52.24.2.07.46.11.76.11.26 0 .49-.03.69-.1.2-.07.36-.16.49-.27.13-.115.23-.25.29-.4.07-.15.1-.31.1-.48 0-.21-.05-.39-.17-.52-.11-.14-.26-.26-.44-.36-.19-.1-.4-.18-.64-.252-.24-.07-.48-.15-.73-.23-.25-.08-.49-.17-.73-.27-.23-.103-.44-.23-.63-.39-.19-.15-.33-.34-.45-.57-.11-.22-.16-.5-.16-.83 0-.29.06-.56.18-.83s.3-.5.53-.705c.23-.2.52-.363.85-.483.34-.12.72-.18 1.15-.18.5 0 .95.08 1.35.237.4.16.74.37 1.03.65l-.3.49zm8.317-1.253V12h-.794c-.19 0-.31-.092-.36-.277l-.105-.818c-.33.365-.7.66-1.11.88-.41.224-.88.335-1.41.335-.416 0-.782-.07-1.1-.206-.317-.138-.583-.33-.798-.582-.215-.25-.376-.552-.484-.907-.107-.355-.16-.747-.16-1.178V4.403h1.334V9.25c0 .574.13 1.02.394 1.334.262.315.663.472 1.203.472.396 0 .764-.094 1.107-.28.342-.19.658-.447.948-.777V4.4h1.335zm7.2 2.97c0-.31-.043-.593-.13-.85-.088-.258-.216-.48-.383-.668-.168-.188-.37-.333-.612-.435-.24-.11-.512-.16-.817-.16-.64 0-1.146.18-1.52.56-.37.37-.602.88-.692 1.54h4.154zm1.08 3.563c-.165.2-.362.374-.592.52-.23.15-.476.27-.74.365-.26.095-.532.166-.813.214-.28.047-.557.07-.832.07-.525 0-1.01-.088-1.45-.265-.444-.18-.826-.44-1.15-.78-.32-.35-.572-.77-.752-1.28-.18-.51-.27-1.09-.27-1.74 0-.53.08-1.03.243-1.49.17-.46.4-.86.71-1.2.31-.34.68-.6 1.12-.8.44-.19.94-.29 1.49-.29.46 0 .88.08 1.27.23.39.15.72.37 1.01.66.29.29.51.64.67 1.06.16.42.24.9.24 1.44 0 .21-.02.35-.06.42s-.13.1-.25.1h-5.08c.02.48.08.9.2 1.25.12.36.28.65.49.89.21.24.46.41.75.53.29.11.62.17.98.17.34 0 .63-.04.87-.12.24-.08.45-.16.63-.25s.32-.17.44-.25c.12-.08.22-.12.31-.12.11 0 .19.04.25.13l.38.48zm3.36-9.683v4.29c0 .226-.005.445-.014.66-.01.216-.023.432-.038.65-.015.217-.034.44-.056.667-.03.22-.05.47-.08.73h-.9c-.03-.26-.06-.51-.08-.73l-.06-.67c-.02-.22-.03-.44-.04-.65-.01-.22-.02-.44-.02-.66V1.25h1.27zm-1.597 9.923c0-.13.024-.252.07-.368.05-.115.115-.214.2-.3.085-.085.184-.152.296-.202.113-.05.236-.075.37-.075.132 0 .253.025.365.075.12.05.22.117.3.203.09.085.16.184.21.3.05.115.08.237.08.367 0 .135-.02.26-.07.37-.05.114-.11.212-.2.297-.08.086-.18.152-.29.2-.11.047-.23.07-.36.07-.13 0-.26-.023-.37-.07-.11-.048-.21-.114-.29-.2-.08-.085-.15-.183-.2-.296-.04-.112-.07-.236-.07-.37z" fill="#2C2D30"/><path d="M200.52 83.42c0-.31-.044-.594-.13-.85-.09-.26-.216-.48-.384-.67-.167-.186-.37-.33-.61-.434-.24-.102-.513-.153-.82-.153-.64 0-1.145.186-1.517.558-.38.38-.61.89-.7 1.55h4.15zm1.08 3.563c-.165.2-.362.373-.593.52-.23.148-.476.27-.738.365-.27.095-.54.166-.82.213-.28.05-.56.08-.84.08-.53 0-1.01-.09-1.45-.26-.45-.17-.83-.43-1.15-.78-.33-.34-.58-.76-.76-1.27-.18-.5-.27-1.08-.27-1.74 0-.53.08-1.02.24-1.48.16-.46.39-.86.7-1.19.3-.34.67-.6 1.12-.79.44-.19.93-.29 1.48-.29.45 0 .87.08 1.26.23.39.15.72.37 1 .66.28.29.5.64.66 1.06.16.42.24.91.24 1.45 0 .21-.03.35-.07.42-.05.07-.13.11-.26.11h-5.07c.01.48.08.9.2 1.25.11.36.28.65.49.89.21.24.46.42.75.53.29.12.61.18.97.18.33 0 .62-.04.86-.11s.45-.16.62-.25.32-.17.44-.25c.12-.08.22-.12.3-.12.11 0 .2.05.26.13l.37.49zm6.705-4.726c-.25-.335-.52-.568-.81-.7-.29-.133-.615-.2-.975-.2-.705 0-1.247.253-1.627.758-.38.505-.57 1.225-.57 2.16 0 .495.042.92.127 1.27.085.354.21.644.375.87.165.23.367.395.608.5.24.105.512.157.817.157.44 0 .824-.1 1.15-.3.33-.2.63-.482.905-.847v-3.668zM209.64 77v11.047h-.795c-.19 0-.31-.092-.36-.277l-.12-.922c-.325.39-.695.704-1.11.945-.415.24-.895.36-1.44.36-.435 0-.83-.084-1.185-.252-.355-.16-.657-.41-.907-.73s-.443-.73-.578-1.21c-.135-.48-.203-1.04-.203-1.67 0-.56.075-1.08.225-1.56.15-.48.365-.9.645-1.25s.624-.63 1.032-.83c.407-.2.866-.3 1.376-.3.465 0 .864.08 1.196.24.333.16.63.38.89.66V77h1.334zm3.525 3.45v7.597h-1.335V80.45h1.335zm.285-2.385c0 .13-.026.25-.08.364-.05.11-.12.21-.21.3-.086.08-.19.15-.306.2-.118.05-.24.07-.372.07-.13 0-.25-.03-.363-.08-.12-.05-.22-.12-.3-.21-.09-.09-.15-.19-.2-.3-.05-.12-.08-.24-.08-.37s.02-.26.07-.37c.05-.12.11-.22.2-.31.08-.09.18-.16.3-.21.11-.05.23-.08.36-.08.13 0 .25.02.37.07.11.05.22.12.3.21.09.09.16.19.21.31.05.12.08.24.08.37zm8.955 9.983h-1.335v-6.48h-3.915v4.56c0 .32.077.557.232.712.156.155.355.233.6.233.14 0 .262-.02.364-.057.11-.037.2-.078.27-.124.08-.045.14-.086.19-.123.06-.04.1-.06.14-.06.07 0 .13.04.19.12l.39.63c-.23.21-.5.38-.83.5-.32.12-.66.18-1 .18-.6 0-1.06-.17-1.38-.5-.32-.34-.48-.82-.48-1.45v-4.65h-.91c-.08 0-.15-.02-.2-.07-.05-.05-.08-.12-.08-.22v-.53l1.25-.17.31-2.34c.02-.08.05-.14.1-.19.06-.05.12-.07.21-.07h.68v2.62h5.25v7.44zm.33-10.035c0 .13-.026.25-.08.363-.05.113-.12.21-.21.296-.086.086-.187.153-.302.203-.116.05-.238.075-.368.075s-.25-.025-.364-.075c-.11-.05-.21-.117-.29-.203-.08-.085-.15-.183-.2-.296-.05-.112-.07-.233-.07-.364 0-.13.03-.253.08-.37.05-.118.12-.22.2-.308s.19-.156.3-.207c.12-.05.24-.075.37-.075s.25.025.37.075c.12.05.22.12.31.207s.16.19.21.307c.05.12.08.25.08.38zm3.12 3.54c.165-.186.34-.353.525-.503.185-.15.38-.28.59-.386.206-.108.426-.19.66-.248.23-.057.482-.086.752-.086.416 0 .782.07 1.1.206.317.138.582.333.794.585.213.26.374.56.484.92.11.36.165.75.165 1.18v4.84h-1.343v-4.84c0-.57-.13-1.02-.393-1.34-.27-.31-.67-.47-1.2-.47-.4 0-.77.1-1.11.29-.34.19-.66.45-.95.77v5.6h-1.35v-7.6h.8c.19 0 .3.1.35.28l.1.83zm9.758 2.782c.27 0 .507-.037.712-.112.205-.076.377-.18.518-.316.14-.135.245-.296.315-.483.07-.188.105-.394.105-.62 0-.464-.142-.834-.424-1.11-.29-.274-.7-.412-1.23-.412-.54 0-.95.138-1.24.413-.29.275-.43.645-.43 1.11 0 .225.03.43.11.62.07.186.17.347.31.483.14.135.31.24.51.314.2.076.44.113.71.113zm2.407 4.125c0-.185-.052-.335-.157-.45-.106-.115-.247-.205-.424-.27-.18-.065-.39-.11-.62-.14-.24-.026-.49-.047-.75-.063l-.8-.044c-.27-.016-.53-.04-.78-.075-.28.13-.51.293-.69.49-.18.198-.27.43-.27.695 0 .17.04.328.13.476.09.14.22.27.4.38.18.11.41.19.68.25.27.06.59.09.96.09.36 0 .68-.04.96-.1.28-.07.52-.16.72-.28.2-.12.35-.26.45-.43.1-.17.15-.35.15-.55zm1.357-7.71v.495c0 .165-.104.27-.315.315l-.862.112c.17.33.255.695.255 1.096 0 .37-.07.706-.214 1.008-.14.303-.33.56-.58.776-.25.216-.55.38-.9.495-.35.116-.73.173-1.14.173-.35 0-.69-.042-1-.127-.16.1-.28.206-.36.318-.08.12-.12.23-.12.35 0 .18.08.32.22.41.15.1.34.16.58.2.24.04.52.07.82.08.31.01.63.03.95.05.33.02.64.06.95.12.31.06.58.15.82.27.25.13.44.3.59.52.14.22.22.51.22.86 0 .33-.08.64-.25.95-.16.31-.39.58-.7.82-.3.24-.68.43-1.12.57-.44.14-.94.22-1.49.22s-1.04-.05-1.46-.16c-.42-.11-.76-.26-1.04-.44-.27-.18-.48-.4-.61-.64-.14-.24-.2-.49-.2-.76 0-.37.12-.69.35-.95.24-.26.56-.47.97-.62-.22-.1-.4-.23-.53-.4s-.2-.4-.2-.68c0-.11.02-.22.06-.34.04-.12.1-.24.19-.35.09-.12.19-.23.31-.34.12-.1.26-.19.42-.27-.37-.21-.67-.49-.88-.83-.21-.35-.31-.75-.31-1.21 0-.37.07-.71.217-1.01.147-.3.34-.56.6-.77.256-.21.56-.37.91-.49.35-.11.738-.17 1.16-.17.33 0 .636.03.92.108.286.074.546.18.78.32h2.064zm7.56 7.418c-.6 0-1.06-.168-1.383-.503-.323-.335-.484-.817-.484-1.448v-4.65h-.915c-.08 0-.148-.023-.203-.07-.054-.048-.082-.122-.082-.222v-.532l1.245-.158.308-2.347c.014-.076.048-.137.1-.184.053-.048.122-.072.207-.072h.675V80.6h2.197v.968h-2.197v4.56c0 .32.077.557.232.712.156.155.355.233.6.233.14 0 .262-.02.364-.057.11-.037.2-.078.27-.124.08-.045.14-.086.19-.123.06-.04.1-.06.14-.06.07 0 .13.04.19.12l.39.63c-.23.21-.5.38-.83.5-.32.12-.66.18-1 .18zm4.388-6.706c.325-.345.685-.62 1.08-.825.395-.205.85-.307 1.365-.307.415 0 .78.07 1.1.206.316.138.58.333.794.585.212.26.373.56.483.92.11.36.166.75.166 1.18v4.84h-1.343v-4.84c0-.57-.13-1.02-.394-1.34-.262-.31-.66-.47-1.196-.47-.395 0-.764.1-1.106.29-.343.19-.66.45-.95.77v5.6h-1.342V77h1.343v4.463zm12.113 1.958c0-.31-.044-.594-.132-.85-.087-.26-.215-.48-.382-.67-.168-.186-.37-.33-.61-.434-.242-.102-.514-.153-.82-.153-.64 0-1.145.186-1.518.558-.372.38-.603.89-.693 1.55h4.154zm1.08 3.563c-.166.2-.363.373-.593.52-.23.148-.476.27-.74.365-.26.095-.532.166-.813.213-.28.05-.557.08-.832.08-.525 0-1.01-.09-1.45-.26-.444-.17-.826-.43-1.15-.78-.32-.34-.572-.76-.752-1.27-.18-.5-.27-1.08-.27-1.74 0-.53.08-1.02.243-1.48.17-.46.4-.86.71-1.19.31-.34.68-.6 1.12-.79.44-.19.94-.29 1.49-.29.46 0 .88.08 1.27.23.39.15.72.37 1.01.66.29.29.51.64.67 1.06.16.42.24.91.24 1.45 0 .21-.02.35-.06.42s-.13.11-.25.11h-5.08c.02.48.08.9.2 1.25.12.36.28.65.49.89.21.24.46.42.75.53.29.12.62.18.98.18.34 0 .63-.04.87-.11s.45-.16.63-.25.32-.17.44-.25c.12-.08.22-.12.31-.12.11 0 .19.05.25.13l.38.49zm7.005-6.533v7.597h-1.336V80.45h1.335zm.284-2.385c0 .13-.026.25-.078.364-.06.11-.13.21-.21.3-.09.08-.19.15-.31.2-.12.05-.24.07-.37.07s-.25-.03-.37-.08c-.11-.05-.21-.12-.3-.21s-.16-.19-.21-.3c-.05-.12-.08-.24-.08-.37s.02-.26.07-.37c.05-.12.12-.22.2-.31.08-.09.18-.16.29-.21.11-.05.23-.08.36-.08s.25.02.37.07.22.12.31.21c.08.09.15.19.21.31.05.12.07.24.07.37zm6.33 3.638c-.06.11-.152.165-.277.165-.075 0-.16-.028-.255-.083-.095-.055-.21-.116-.35-.184-.136-.06-.3-.13-.49-.18-.19-.06-.415-.08-.675-.08-.225 0-.427.03-.607.09s-.334.14-.462.24c-.12.1-.22.22-.29.35-.07.13-.1.28-.1.43 0 .2.06.36.17.49.11.13.26.25.45.34.19.1.4.18.63.25.24.08.48.15.73.24.25.08.49.17.73.28.24.1.45.22.63.37s.34.33.45.55c.12.22.17.48.17.78 0 .35-.06.68-.19.98-.12.3-.31.56-.55.78-.24.22-.54.39-.9.51-.35.13-.76.19-1.23.19-.53 0-1.01-.08-1.44-.26-.43-.17-.79-.39-1.09-.66l.32-.51c.04-.06.09-.11.14-.15.06-.03.13-.05.21-.05.09 0 .19.04.29.11.1.07.22.15.37.23.14.08.32.16.52.23.21.07.46.11.77.11.26 0 .49-.03.68-.1.2-.07.36-.16.49-.27.13-.11.23-.25.29-.4.06-.15.1-.31.1-.48 0-.21-.05-.38-.17-.52-.11-.14-.26-.25-.45-.35-.18-.09-.39-.18-.63-.25s-.48-.14-.73-.22c-.24-.08-.49-.17-.72-.28-.24-.1-.45-.23-.63-.38s-.33-.35-.44-.58c-.11-.22-.17-.5-.17-.83 0-.29.06-.56.18-.83.12-.27.3-.5.53-.7.23-.2.51-.36.85-.48.34-.12.72-.18 1.15-.18.5 0 .95.08 1.35.234.4.16.74.377 1.03.65l-.3.49zm6.495 0c-.06.11-.152.165-.277.165-.075 0-.16-.028-.255-.083-.095-.055-.21-.116-.35-.184-.136-.06-.3-.13-.49-.18-.19-.06-.415-.08-.675-.08-.225 0-.427.03-.607.09s-.334.14-.462.24c-.127.1-.225.22-.292.35-.068.13-.1.28-.1.43-.002.2.055.36.167.49.12.13.27.25.45.34.19.1.4.18.63.25.24.08.48.15.73.24.25.08.49.17.73.28.24.1.45.22.63.37s.34.33.45.55c.12.22.17.48.17.78 0 .35-.06.68-.19.98-.12.3-.31.56-.55.78-.24.22-.54.39-.9.51-.35.13-.76.19-1.23.19-.53 0-1.01-.08-1.44-.26-.43-.17-.79-.39-1.09-.66l.32-.51c.04-.06.09-.11.15-.15.06-.03.13-.05.21-.05.09 0 .19.04.29.11.1.07.22.15.37.23.14.08.32.16.52.23.21.07.46.11.77.11.26 0 .49-.03.68-.1.2-.07.36-.16.49-.27.13-.11.23-.25.29-.4.06-.15.1-.31.1-.48 0-.21-.05-.38-.17-.52-.11-.14-.26-.25-.44-.35-.18-.09-.39-.18-.63-.25s-.48-.14-.73-.22c-.24-.08-.49-.17-.72-.28-.23-.1-.45-.23-.63-.38s-.33-.35-.45-.58c-.11-.22-.17-.5-.17-.83 0-.29.06-.56.18-.83.12-.27.3-.5.53-.7.23-.2.52-.36.85-.48.34-.12.72-.18 1.15-.18.5 0 .95.08 1.35.234.4.16.74.377 1.03.65l-.3.49zm8.318-1.253v7.597h-.795c-.19 0-.31-.092-.36-.277l-.105-.817c-.33.365-.7.658-1.11.88-.41.223-.88.335-1.41.335-.415 0-.78-.07-1.1-.207-.316-.13-.582-.33-.798-.58-.215-.25-.376-.55-.483-.9-.11-.35-.17-.75-.17-1.18v-4.85h1.33v4.85c0 .58.13 1.02.39 1.34.26.32.66.48 1.2.48.39 0 .76-.09 1.1-.28.34-.18.66-.44.95-.77v-5.6h1.33zm7.2 2.97c0-.31-.044-.594-.13-.85-.09-.26-.216-.48-.384-.67-.167-.186-.37-.33-.61-.434-.24-.102-.513-.153-.82-.153-.64 0-1.145.186-1.517.558-.38.38-.61.89-.7 1.55h4.15zm1.08 3.563c-.165.2-.362.373-.593.52-.23.148-.476.27-.738.365-.27.095-.54.166-.82.213-.28.05-.56.08-.83.08-.53 0-1.01-.09-1.45-.26-.44-.17-.83-.43-1.15-.78-.33-.34-.58-.76-.76-1.27-.18-.5-.27-1.08-.27-1.74 0-.53.08-1.02.24-1.48.16-.46.39-.86.7-1.19.3-.34.67-.6 1.11-.79.44-.19.93-.29 1.48-.29.45 0 .87.08 1.26.23.39.15.72.37 1.01.66.28.29.5.64.66 1.06.16.42.24.91.24 1.45 0 .21-.02.35-.07.42s-.13.11-.26.11h-5.08c.02.48.08.9.2 1.25.12.36.28.65.49.89.21.24.46.42.75.53.29.12.62.18.98.18.33 0 .62-.04.86-.11s.45-.16.62-.25.32-.17.44-.25c.11-.08.22-.12.3-.12.11 0 .19.05.25.13l.37.49zm8.797-6.653c.556 0 1.055.092 1.5.278.446.185.825.447 1.14.787.316.34.557.75.724 1.234.17.48.26 1.02.26 1.61 0 .6-.08 1.14-.25 1.62-.17.48-.41.89-.72 1.23-.31.34-.69.6-1.14.78-.44.18-.94.27-1.5.27s-1.06-.09-1.51-.28c-.44-.19-.82-.45-1.14-.79-.31-.34-.55-.75-.72-1.23-.17-.48-.25-1.02-.25-1.62 0-.6.08-1.14.25-1.62.17-.49.41-.9.73-1.24.32-.34.7-.6 1.14-.79.45-.19.95-.28 1.51-.28zm0 6.78c.75 0 1.31-.25 1.68-.754.37-.502.555-1.203.555-2.103 0-.906-.184-1.61-.555-2.115-.37-.506-.93-.758-1.68-.758-.38 0-.71.065-.993.195-.283.13-.518.317-.705.563-.19.245-.33.546-.42.903-.1.36-.14.77-.14 1.22 0 .9.18 1.6.56 2.11.37.51.93.76 1.69.76zm6.563-5.558c.165-.185.34-.352.525-.502.185-.15.38-.28.59-.386.206-.108.426-.19.66-.248.23-.057.482-.086.752-.086.416 0 .782.07 1.1.206.317.138.582.333.794.585.22.26.38.56.49.92.11.36.17.75.17 1.18v4.84h-1.34v-4.84c0-.57-.13-1.02-.39-1.34-.26-.31-.66-.47-1.19-.47-.39 0-.76.1-1.1.29-.34.19-.65.45-.94.77v5.6h-1.34v-7.6h.81c.19 0 .31.1.36.28l.11.83zM25.398 100.88v4.125c-.54.39-1.117.68-1.73.874-.612.19-1.283.28-2.013.28-.865 0-1.645-.14-2.34-.4-.695-.27-1.29-.64-1.78-1.13-.494-.48-.872-1.06-1.137-1.74-.266-.68-.398-1.42-.398-2.23 0-.82.13-1.57.386-2.25.258-.67.624-1.25 1.1-1.74.474-.49 1.05-.86 1.732-1.13.68-.27 1.44-.4 2.28-.4.425 0 .82.03 1.184.09.366.06.703.15 1.013.27.31.11.597.26.863.42.265.17.512.36.742.57l-.413.66c-.065.1-.148.16-.25.19-.103.02-.217 0-.342-.08-.12-.07-.257-.16-.413-.26-.155-.1-.343-.2-.566-.29-.222-.09-.485-.17-.787-.24-.31-.07-.67-.1-1.08-.1-.61 0-1.15.1-1.64.29-.49.19-.91.48-1.26.84s-.61.81-.8 1.33c-.19.52-.28 1.11-.28 1.76 0 .67.09 1.28.29 1.81.19.53.46.98.82 1.36.35.37.79.65 1.3.85.51.19 1.08.29 1.72.29.5 0 .94-.06 1.33-.17.38-.11.76-.27 1.13-.47v-2.36H22.4c-.095 0-.17-.03-.23-.08-.056-.06-.084-.13-.084-.21v-.827h3.3zm3.262-2.43v7.597h-1.335V98.45h1.335zm.285-2.385c0 .13-.026.25-.08.364-.05.11-.12.21-.21.3-.086.08-.19.15-.306.2-.12.05-.25.07-.38.07s-.25-.03-.37-.08-.21-.12-.3-.21-.15-.19-.2-.3c-.05-.12-.08-.24-.08-.37s.02-.26.07-.37c.05-.12.12-.22.2-.31.08-.09.18-.16.29-.21.11-.05.23-.08.36-.08s.25.02.37.07c.11.05.22.12.3.21.08.09.15.19.21.31.05.12.08.24.08.37zm4.237 10.103c-.6 0-1.06-.168-1.383-.503-.33-.335-.49-.817-.49-1.448v-4.65h-.91c-.08 0-.15-.023-.21-.07-.06-.048-.09-.122-.09-.222v-.532l1.24-.158.3-2.347c.01-.076.04-.137.1-.184.05-.048.12-.072.2-.072h.67V98.6h2.19v.968h-2.19v4.56c0 .32.08.557.23.712.15.155.35.233.6.233.14 0 .26-.02.36-.057.1-.037.19-.08.27-.124.08-.044.14-.086.19-.123.05-.04.1-.06.14-.06.07 0 .13.04.19.12l.39.63c-.23.21-.51.38-.84.5-.33.12-.66.18-1.01.18zm4.388-6.706c.325-.345.685-.62 1.08-.825.395-.205.85-.307 1.365-.307.415 0 .78.07 1.1.206.316.138.58.333.794.585.21.26.37.56.48.92.11.36.16.75.16 1.18v4.84h-1.34v-4.84c0-.57-.13-1.02-.4-1.34-.26-.31-.66-.47-1.2-.47-.4 0-.76.1-1.11.29-.35.19-.66.45-.95.78v5.6h-1.34V95h1.34v4.463zm13.275-1.012v7.597h-.795c-.19 0-.31-.092-.36-.277l-.105-.817c-.33.365-.7.658-1.11.88-.41.223-.88.335-1.41.335-.415 0-.78-.07-1.1-.207-.316-.13-.582-.33-.798-.58-.215-.25-.376-.55-.483-.9-.108-.35-.16-.75-.16-1.18l-.002-4.84h1.336v4.85c0 .58.13 1.02.393 1.34.27.32.67.48 1.21.48.4 0 .77-.09 1.11-.28.35-.18.66-.44.95-.77v-5.6h1.34zm3.458 5.767c.245.33.513.563.806.698.29.135.61.203.96.203.71 0 1.26-.253 1.64-.758.38-.505.57-1.257.57-2.257 0-.93-.17-1.614-.51-2.052-.34-.43-.82-.65-1.45-.65-.44 0-.82.1-1.14.3-.33.2-.62.48-.9.85v3.68zm0-4.672c.32-.37.68-.665 1.083-.885.403-.22.866-.33 1.392-.33.445 0 .846.085 1.203.255.36.17.67.416.92.74.25.32.44.712.58 1.172.14.46.2.978.2 1.553 0 .615-.07 1.175-.22 1.68-.15.505-.36.936-.65 1.294-.28.357-.62.635-1.03.832-.4.198-.86.297-1.36.297-.5 0-.92-.094-1.26-.282-.34-.18-.64-.45-.89-.79l-.07.69c-.04.19-.15.29-.34.29H53V95h1.35v4.545z" fill="#2B80B9"/><path d="M61.333 105.175c0-.13.023-.252.07-.367.048-.116.113-.216.196-.3.08-.085.18-.153.29-.203.11-.05.23-.075.36-.075s.25.025.37.075c.11.05.21.117.3.202.08.085.15.185.2.3.05.116.07.238.07.368 0 .135-.03.26-.08.37-.05.114-.12.212-.21.297-.09.085-.19.152-.3.2-.12.047-.24.07-.37.07s-.26-.023-.37-.07c-.12-.048-.22-.115-.3-.2-.08-.085-.15-.183-.2-.296-.05-.112-.07-.236-.07-.37z" fill="#2C2D30"/></g></g></svg>