<svg viewBox="0 0 412 111" xmlns="http://www.w3.org/2000/svg" xmlns:xlink="http://www.w3.org/1999/xlink"><title>tell team</title><defs><path id="a" d="M0 .32h32.775V38H0"/></defs><g transform="translate(1 1)" fill="none" fill-rule="evenodd"><rect stroke="#E7E7E7" stroke-width="2" fill="#FFF" width="410" height="109" rx="10"/><g transform="translate(19 20)"><rect fill="#870030" width="50" height="50" rx="6"/><g transform="translate(9 6)"><mask id="b" fill="#fff"><use xlink:href="#a"/></mask><path d="M29.895 19.213c-.953-.196-2.038-.004-3.075.69-.863-5.076-.35-10.352-.96-15.52-.297-2.524-2.892-5.622-5.47-3.17-1.086 1.036-1.35 2.838-1.516 4.527-.018.185-11.4-.314-11.35.418C7.292 2.863 6.31.498 3.714.782c-4.49.487-3.8 7.207-3.466 10.94.373 4.196.638 8.398.916 12.6.097 1.483.35 2.598.823 3.422-1.24 2.833-.55 6.6 1.445 8.944 1.217 1.428 3.157-.744 1.955-2.156-1.134-1.332-1.474-3.366-.925-5.024.584.153 1.254.245 2.034.28.645.03 1.282.06 1.913.092-.52 2.55-.03 5.27 1.448 7.48 1.044 1.557 3.48-.02 2.434-1.587-1.165-1.74-1.47-3.828-.923-5.775 1.458.043 2.907.05 4.363-.017-.12 2.203.504 4.412 1.94 6.194 1.162 1.445 3.61-.12 2.43-1.585-1.106-1.376-1.674-3.12-1.49-4.846.81-.1 1.63-.234 2.46-.405.552-.116 1.12-.195 1.686-.287-.106 1.97.502 3.87 1.88 5.556 1.172 1.434 3.62-.13 2.433-1.586-1.222-1.498-1.776-3.135-1.278-4.952.05-.03.1-.054.15-.087 2.586 2.1 5.998-1.037 6.65-3.58.697-2.72-.723-4.788-2.7-5.192" fill="#F2BF3A" mask="url(#b)"/></g><path d="M15.432 22.002c-1.998.086-1.86 3.082.137 2.996 1.996-.085 1.86-3.082-.138-2.996M24.432 22.002c-1.998.086-1.86 3.082.137 2.996 1.996-.085 1.86-3.082-.138-2.996M17.308 28.853c.65.54 1.43.873 2.236 1.115.412.124.776-.136.992-.45.296-.433.835-.69 1.206-1.055.82-.808-.504-2-1.32-1.196-.306.302-.627.545-.926.82-.352-.133-.696-.304-.98-.54-.88-.733-2.092.57-1.208 1.306" fill="#1C1C1C"/></g><path d="M82.348 23.626V37h-2.223V23.626h2.223zm10.18 4.14V37h-1.36c-.294 0-.48-.135-.558-.405l-.153-.738c-.378.384-.795.694-1.25.93-.457.24-.994.357-1.612.357-.504 0-.95-.085-1.337-.256-.387-.172-.712-.413-.976-.725s-.463-.682-.6-1.11c-.134-.43-.2-.903-.2-1.42v-5.867h2.222v5.868c0 .564.13 1 .392 1.31.26.31.652.463 1.174.463.384 0 .744-.085 1.08-.257.336-.17.654-.406.954-.706v-6.678h2.223zm8.81 1.953c-.066.083-.13.15-.194.197-.063.048-.154.072-.274.072-.114 0-.225-.035-.333-.104-.108-.07-.237-.147-.387-.234-.15-.088-.328-.165-.535-.234-.208-.07-.464-.104-.77-.104-.39 0-.732.07-1.026.212-.295.14-.54.343-.734.607-.196.264-.34.583-.437.96-.097.374-.145.798-.145 1.272 0 .492.052.93.157 1.314.106.383.257.705.455.967.198.26.438.458.72.594.282.136.6.203.954.203.355 0 .64-.043.86-.13.22-.088.404-.183.554-.288.15-.106.28-.2.392-.288.11-.088.235-.13.373-.13.18 0 .314.068.404.206l.64.81c-.247.288-.514.53-.802.725-.288.195-.586.35-.895.468-.31.117-.627.2-.954.247-.328.048-.653.072-.977.072-.57 0-1.107-.106-1.61-.32-.505-.213-.946-.523-1.324-.93-.378-.41-.676-.908-.895-1.5-.22-.59-.33-1.264-.33-2.02 0-.678.098-1.306.293-1.886.196-.58.482-1.08.86-1.503.378-.424.846-.755 1.404-.995.558-.24 1.2-.36 1.926-.36.69 0 1.294.11 1.814.333.52.222.985.54 1.4.954l-.586.81zm4.365-1.954V37h-2.232v-9.234h2.233zm.306-2.69c0 .19-.04.37-.118.54-.078.167-.18.314-.31.44s-.28.226-.455.3c-.174.077-.36.114-.558.114-.193 0-.374-.037-.545-.112-.172-.076-.32-.176-.446-.302-.127-.126-.227-.273-.302-.44-.076-.17-.113-.35-.113-.54 0-.2.037-.385.112-.56.076-.173.176-.323.302-.45.125-.125.273-.225.445-.3.17-.076.352-.113.544-.113.197 0 .383.037.557.113.174.075.325.175.455.3.13.127.232.277.31.45.078.175.117.36.117.56zm6.84 7.982c-.643.03-1.183.085-1.62.167-.44.08-.79.184-1.054.31s-.453.273-.567.44c-.115.17-.172.352-.172.55 0 .39.115.67.346.837.232.168.533.252.905.252.455 0 .85-.082 1.183-.248.333-.165.658-.415.976-.75v-1.558zm-5.095-4.005c1.062-.972 2.34-1.458 3.834-1.458.54 0 1.022.088 1.448.266.426.178.786.423 1.08.738.294.316.517.692.67 1.13.154.438.23.918.23 1.44V37h-1.008c-.21 0-.372-.03-.486-.095-.114-.063-.204-.19-.27-.382l-.198-.666c-.234.21-.462.394-.684.553-.222.16-.453.293-.693.4-.24.11-.497.19-.77.248-.274.058-.575.086-.905.086-.39 0-.75-.052-1.08-.158-.33-.105-.615-.262-.855-.472-.24-.21-.426-.47-.558-.783-.132-.31-.198-.674-.198-1.088 0-.234.04-.466.117-.698.08-.23.206-.45.383-.66.178-.21.407-.41.69-.595.28-.187.627-.35 1.038-.487.413-.138.89-.25 1.437-.337.546-.088 1.17-.14 1.872-.158v-.54c0-.618-.133-1.075-.397-1.372-.264-.298-.645-.446-1.143-.446-.36 0-.658.042-.895.126-.238.084-.446.178-.626.284-.18.105-.344.2-.492.283-.147.084-.31.126-.49.126-.156 0-.288-.04-.396-.122-.108-.082-.195-.176-.26-.284l-.397-.71zM81.88 52.098c.39-.414.822-.744 1.296-.99.474-.246 1.02-.37 1.638-.37.498 0 .937.083 1.32.248.38.166.697.4.953.703.255.302.448.666.58 1.092.132.426.198.897.198 1.413V60h-1.61v-5.805c0-.69-.158-1.225-.473-1.607-.316-.38-.794-.57-1.436-.57-.474 0-.916.113-1.327.34-.413.23-.792.538-1.14.928V60h-1.61V46.743h1.61v5.355zm14.535 2.35c0-.373-.052-.713-.158-1.023-.105-.31-.257-.575-.46-.8-.2-.226-.444-.4-.732-.523s-.615-.184-.98-.184c-.77 0-1.376.223-1.823.67-.448.448-.725 1.067-.833 1.86h4.985zm1.296 4.274c-.197.24-.434.448-.71.625-.276.178-.57.323-.887.437-.315.114-.64.2-.976.256-.336.058-.67.086-1 .086-.63 0-1.21-.106-1.74-.32-.532-.213-.99-.524-1.378-.936-.388-.41-.69-.92-.905-1.525-.216-.606-.324-1.302-.324-2.088 0-.636.098-1.23.293-1.782.196-.552.476-1.03.842-1.436.366-.406.813-.723 1.34-.955.53-.23 1.123-.346 1.783-.346.546 0 1.05.09 1.516.273.466.184.867.447 1.206.792.34.346.605.77.797 1.278.192.508.288 1.085.288 1.733 0 .252-.027.42-.08.504-.055.084-.157.126-.307.126h-6.093c.018.576.097 1.077.238 1.503.142.425.338.78.59 1.065.252.286.552.498.9.64.348.14.738.21 1.17.21.402 0 .748-.045 1.04-.14.29-.092.54-.192.75-.3.21-.108.386-.208.527-.302.142-.093.263-.14.365-.14.132 0 .234.052.306.154l.45.585zm9.74-7.84l-5.086 11.81c-.054.12-.12.215-.203.287-.08.07-.204.107-.372.107H100.6l1.665-3.618-3.762-8.587h1.386c.137 0 .246.034.327.104.082.07.137.145.167.23l2.44 5.74c.095.253.176.517.242.793.084-.282.174-.55.27-.8l2.367-5.734c.036-.096.097-.175.184-.238.088-.064.185-.095.293-.095h1.27zm86.525 3.043h4.446v1.36h-4.445v-1.36zM207.538 60h-1.746V47.103h1.746V60zm9.216-9.117v9.792c0 .366-.048.706-.144 1.02-.096.317-.25.59-.46.825-.21.234-.477.418-.805.553-.327.136-.718.203-1.174.203-.19 0-.368-.015-.53-.045-.162-.03-.324-.074-.486-.134l.063-.864c.012-.054.03-.094.058-.122.027-.027.065-.043.113-.05.048-.005.11-.007.184-.004.075.003.17.005.284.005.468 0 .8-.108 1-.328.197-.22.296-.57.296-1.057v-9.792h1.602zm.333-2.862c0 .157-.032.302-.095.437-.063.136-.146.255-.252.36-.105.106-.226.188-.364.248-.138.06-.285.09-.44.09-.157 0-.302-.03-.438-.09-.135-.06-.253-.142-.355-.248-.102-.105-.183-.224-.243-.36-.06-.135-.09-.28-.09-.436 0-.155.03-.303.09-.445.06-.14.14-.263.243-.37.102-.104.22-.186.355-.246.136-.06.28-.09.437-.09.156 0 .303.03.44.09.14.06.26.14.365.246.106.106.19.228.252.37.063.14.095.29.095.445zm9.792 2.863V60h-.955c-.228 0-.372-.11-.432-.333l-.126-.98c-.396.437-.84.79-1.332 1.057-.492.267-1.056.4-1.692.4-.498 0-.937-.082-1.32-.248-.38-.165-.7-.397-.957-.697-.258-.3-.45-.664-.58-1.09-.13-.426-.194-.897-.194-1.413v-5.814h1.602v5.814c0 .69.157 1.224.472 1.602.316.377.797.566 1.445.566.475 0 .917-.112 1.328-.337.412-.227.79-.537 1.14-.933v-6.714h1.6zm7.847 1.503c-.072.132-.183.198-.333.198-.09 0-.192-.033-.306-.1-.114-.065-.253-.138-.42-.22-.164-.08-.36-.155-.588-.225-.228-.07-.498-.104-.81-.104-.27 0-.513.034-.73.103-.215.07-.4.163-.553.283-.153.12-.27.26-.35.418-.082.16-.122.333-.122.52 0 .233.067.428.202.584.136.156.314.29.536.405.222.113.474.213.756.3.28.088.57.18.867.28.298.1.587.208.87.328.28.12.533.27.755.45.222.18.4.4.535.662.136.26.203.574.203.94 0 .42-.075.808-.225 1.165-.15.358-.372.666-.666.927-.295.262-.655.467-1.08.617-.427.15-.92.224-1.477.224-.636 0-1.212-.103-1.728-.31-.516-.208-.954-.473-1.314-.797l.38-.612c.047-.078.104-.138.17-.18.066-.042.15-.063.252-.063.108 0 .222.042.342.126.12.084.265.177.436.28.172.1.38.194.626.278.246.084.552.126.918.126.312 0 .585-.04.82-.12.233-.083.428-.192.584-.33.156-.138.27-.297.346-.477.075-.18.113-.372.113-.576 0-.253-.067-.46-.203-.626-.135-.166-.313-.306-.535-.423-.223-.117-.476-.218-.762-.305-.285-.088-.575-.18-.873-.275-.297-.096-.587-.205-.873-.329-.285-.122-.538-.276-.76-.462-.222-.186-.4-.415-.536-.688-.135-.274-.202-.605-.202-.995 0-.348.072-.682.216-1.003.144-.322.354-.603.63-.847.276-.243.615-.436 1.017-.58.402-.144.86-.216 1.377-.216.6 0 1.138.093 1.615.282.477.19.89.45 1.237.78l-.36.584zm5.283 7.758c-.72 0-1.273-.2-1.66-.603-.388-.4-.58-.98-.58-1.736v-5.58h-1.1c-.095 0-.176-.028-.242-.086-.066-.057-.1-.145-.1-.265v-.64l1.495-.188.37-2.817c.017-.09.057-.163.12-.22.063-.058.146-.086.248-.086h.81v3.14h2.638v1.162h-2.637v5.472c0 .384.094.67.28.855.186.187.426.28.72.28.168 0 .313-.022.436-.068.124-.045.23-.094.32-.148.09-.054.166-.103.23-.15.062-.044.118-.066.166-.066.084 0 .16.05.225.153l.468.766c-.276.258-.61.46-1 .607-.39.148-.79.22-1.205.22zm13.203-4.248c-.738.024-1.366.082-1.886.175-.52.095-.94.216-1.27.366-.326.15-.562.327-.71.53-.147.205-.22.433-.22.685 0 .24.04.448.117.622.078.174.184.316.32.428.135.11.293.19.476.242.184.052.38.077.59.077.282 0 .54-.03.774-.086.234-.058.454-.14.66-.248.21-.108.406-.237.595-.387.19-.15.373-.322.553-.514v-1.89zm-5.175-3.726c.504-.486 1.047-.85 1.63-1.09.58-.24 1.226-.36 1.934-.36.51 0 .963.085 1.36.253.395.168.728.402.998.702.27.3.474.663.612 1.09.138.425.207.893.207 1.403V60h-.712c-.156 0-.276-.025-.36-.076-.084-.052-.15-.152-.198-.302l-.18-.864c-.24.222-.474.418-.702.59-.228.17-.468.314-.72.43-.252.12-.52.208-.806.27-.285.065-.6.096-.95.096-.353 0-.686-.05-.998-.15-.312-.098-.583-.246-.815-.444-.232-.198-.414-.448-.55-.752-.135-.303-.202-.66-.202-1.075 0-.36.1-.706.297-1.04.198-.333.52-.628.963-.886.444-.258 1.023-.47 1.737-.635.714-.165 1.59-.26 2.628-.283v-.712c0-.708-.153-1.243-.46-1.607-.305-.362-.752-.543-1.34-.543-.396 0-.727.05-.995.148-.267.1-.497.21-.693.333-.195.124-.362.234-.504.333-.14.1-.28.15-.417.15-.108 0-.2-.028-.28-.086-.077-.057-.143-.127-.197-.21l-.288-.514zm15.12.882c-.3-.402-.624-.682-.972-.84-.348-.16-.738-.24-1.17-.24-.846 0-1.497.303-1.953.91-.456.605-.684 1.47-.684 2.59 0 .595.05 1.103.152 1.526.102.424.252.77.45 1.044s.44.473.73.6c.287.125.614.188.98.188.528 0 .988-.12 1.38-.36.395-.24.756-.58 1.086-1.017v-4.4zm1.602-6.31V60h-.954c-.228 0-.372-.11-.432-.333l-.144-1.107c-.39.468-.834.846-1.332 1.134-.498.288-1.074.432-1.728.432-.522 0-.996-.1-1.422-.3-.426-.203-.79-.498-1.09-.888-.3-.39-.53-.876-.692-1.458-.162-.582-.243-1.25-.243-2.007 0-.672.09-1.297.27-1.876.18-.58.438-1.082.774-1.508.336-.427.748-.76 1.238-1.004s1.04-.365 1.65-.365c.56 0 1.037.095 1.437.285.4.19.754.45 1.066.787v-5.05h1.602zm8.478 6.31c-.3-.402-.624-.682-.972-.84-.348-.16-.738-.24-1.17-.24-.846 0-1.497.303-1.953.91-.456.605-.684 1.47-.684 2.59 0 .595.05 1.103.152 1.526.102.424.252.77.45 1.044s.44.473.73.6c.287.125.614.188.98.188.528 0 .988-.12 1.382-.36.393-.24.754-.58 1.084-1.017v-4.4zm1.602-6.31V60h-.954c-.228 0-.372-.11-.432-.333l-.144-1.107c-.39.468-.834.846-1.332 1.134-.498.288-1.074.432-1.728.432-.522 0-.996-.1-1.422-.3-.426-.203-.79-.498-1.09-.888-.3-.39-.53-.876-.692-1.458-.162-.582-.243-1.25-.243-2.007 0-.672.09-1.297.27-1.876.18-.58.438-1.082.774-1.508.336-.427.748-.76 1.238-1.004s1.04-.365 1.65-.365c.56 0 1.037.095 1.437.285.4.19.754.45 1.066.787v-5.05h1.602zm8.64 7.705c0-.372-.052-.712-.157-1.02-.106-.31-.258-.577-.46-.802-.2-.226-.445-.4-.733-.522-.288-.124-.615-.185-.98-.185-.77 0-1.376.223-1.823.67-.448.448-.725 1.067-.833 1.86h4.986zm1.296 4.275c-.198.24-.435.448-.71.626-.277.177-.572.322-.887.436-.317.114-.642.2-.978.257-.336.058-.67.086-1 .086-.63 0-1.21-.106-1.74-.32-.532-.213-.99-.524-1.377-.935-.388-.41-.69-.92-.905-1.525-.216-.606-.324-1.302-.324-2.088 0-.636.097-1.23.293-1.782.194-.552.474-1.03.84-1.435.366-.406.813-.723 1.34-.954.53-.232 1.123-.347 1.783-.347.546 0 1.05.09 1.517.274.465.183.866.446 1.206.792.34.345.604.77.796 1.278.192.507.288 1.084.288 1.732 0 .252-.027.42-.08.504-.055.084-.157.126-.307.126h-6.093c.018.576.097 1.077.24 1.503.14.425.336.78.588 1.066.252.285.552.497.9.64.348.14.738.21 1.17.21.402 0 .748-.046 1.04-.14.29-.093.54-.193.75-.3.21-.11.386-.21.528-.302.14-.094.262-.14.364-.14.132 0 .234.05.306.153l.45.585zm8.046-5.67c-.3-.402-.624-.682-.972-.84-.348-.16-.738-.24-1.17-.24-.846 0-1.497.303-1.953.91-.456.605-.684 1.47-.684 2.59 0 .595.05 1.103.153 1.526.102.424.252.77.45 1.044s.44.473.73.6c.287.125.614.188.98.188.528 0 .988-.12 1.382-.36.393-.24.754-.58 1.084-1.017v-4.4zm1.602-6.31V60h-.954c-.228 0-.372-.11-.432-.333l-.144-1.107c-.39.468-.834.846-1.332 1.134-.498.288-1.074.432-1.728.432-.522 0-.996-.1-1.422-.3-.426-.203-.79-.498-1.09-.888-.3-.39-.53-.876-.692-1.458-.162-.582-.243-1.25-.243-2.007 0-.672.09-1.297.27-1.876.18-.58.438-1.082.774-1.508.337-.427.75-.76 1.24-1.004.488-.244 1.038-.365 1.65-.365.558 0 1.036.095 1.436.285.4.19.754.45 1.066.787v-5.05h1.602zM83.068 86.145c-.72 0-1.273-.2-1.66-.603-.388-.4-.58-.98-.58-1.736v-5.58h-1.1c-.095 0-.176-.028-.242-.086-.066-.057-.1-.145-.1-.265v-.64l1.495-.188.37-2.817c.018-.09.058-.163.122-.22.063-.058.145-.086.247-.086h.81v3.14h2.636v1.162H82.43v5.472c0 .384.092.67.278.855.186.187.426.28.72.28.168 0 .313-.022.437-.067.123-.046.23-.095.32-.15.09-.053.165-.102.23-.147.062-.046.117-.068.165-.068.084 0 .16.05.225.153l.468.766c-.276.258-.61.46-1 .608-.39.147-.79.22-1.205.22zm7.452-9.405c.666 0 1.266.11 1.8.332.534.222.99.537 1.368.945.378.408.667.9.87 1.48.2.58.3 1.226.3 1.94 0 .72-.1 1.368-.3 1.944-.203.577-.492 1.07-.87 1.477-.378.408-.834.72-1.368.94-.534.22-1.134.33-1.8.33-.672 0-1.276-.11-1.813-.33-.538-.22-.995-.532-1.373-.94-.378-.408-.667-.9-.868-1.476-.202-.575-.302-1.223-.302-1.943 0-.714.1-1.36.302-1.94.2-.58.49-1.072.868-1.48.378-.408.835-.723 1.373-.945.537-.222 1.14-.333 1.813-.333zm0 8.135c.9 0 1.572-.3 2.016-.904.444-.603.666-1.444.666-2.524 0-1.086-.222-1.932-.666-2.538-.444-.606-1.116-.91-2.016-.91-.456 0-.853.08-1.192.235-.34.156-.62.38-.846.675-.226.294-.393.655-.504 1.084-.112.43-.167.914-.167 1.454 0 1.08.224 1.92.672 2.524.447.604 1.126.905 2.038.905zm14.814-8.136c.666 0 1.266.11 1.8.332.534.222.99.537 1.368.945.378.408.667.9.87 1.48.2.58.3 1.226.3 1.94 0 .72-.1 1.368-.3 1.944-.203.577-.492 1.07-.87 1.477-.378.408-.834.72-1.368.94-.534.22-1.134.33-1.8.33-.672 0-1.276-.11-1.813-.33-.537-.22-.994-.532-1.372-.94-.378-.408-.667-.9-.868-1.476-.202-.575-.302-1.223-.302-1.943 0-.714.1-1.36.302-1.94.2-.58.49-1.072.868-1.48.378-.408.835-.723 1.373-.945.538-.222 1.142-.333 1.814-.333zm0 8.135c.9 0 1.572-.3 2.016-.904.444-.603.666-1.444.666-2.524 0-1.086-.222-1.932-.666-2.538-.444-.606-1.116-.91-2.016-.91-.456 0-.853.08-1.192.235-.34.156-.62.38-.846.675-.226.294-.393.655-.504 1.084-.112.43-.167.914-.167 1.454 0 1.08.223 1.92.67 2.524.448.604 1.127.905 2.04.905zm13.86-7.992V86h-.954c-.228 0-.372-.11-.432-.333l-.126-.98c-.396.437-.84.79-1.332 1.057-.492.267-1.056.4-1.692.4-.498 0-.937-.082-1.318-.247-.382-.166-.7-.398-.96-.698-.257-.3-.45-.664-.58-1.09-.13-.426-.193-.897-.193-1.413v-5.814h1.602v5.814c0 .69.156 1.224.472 1.602.315.377.796.566 1.444.566.474 0 .916-.112 1.328-.337.41-.227.79-.537 1.138-.933v-6.714h1.602zm4.06 1.827c.287-.624.64-1.11 1.06-1.463.42-.35.934-.526 1.54-.526.192 0 .376.022.554.064.177.042.334.108.472.198l-.117 1.197c-.036.15-.126.224-.27.224-.084 0-.207-.018-.37-.054-.16-.036-.344-.054-.548-.054-.288 0-.544.042-.77.126-.225.084-.425.208-.602.373-.178.166-.336.37-.477.613-.142.243-.27.52-.383.832V86h-1.61v-9.117h.917c.174 0 .294.033.36.1.066.065.11.18.135.34l.108 1.387zm16.235-3.59c-.055.09-.113.156-.176.2-.064.047-.14.07-.23.07-.102 0-.222-.052-.36-.154-.138-.102-.31-.214-.517-.338-.208-.123-.456-.235-.747-.337-.292-.1-.644-.152-1.058-.152-.39 0-.733.052-1.03.157-.298.106-.546.248-.747.428-.202.18-.353.39-.455.634-.102.244-.153.506-.153.788 0 .36.088.658.266.895.177.238.41.44.702.608.29.168.62.313.99.436.37.124.746.25 1.134.383.386.132.763.28 1.133.445.37.166.698.374.99.626.29.252.524.56.702.927.177.366.265.816.265 1.35 0 .564-.096 1.093-.288 1.588-.192.496-.472.926-.84 1.292-.37.366-.823.654-1.36.864-.538.21-1.148.314-1.832.314-.84 0-1.602-.15-2.286-.455-.684-.304-1.27-.713-1.755-1.23l.503-.827c.048-.066.106-.12.176-.167.068-.045.144-.067.228-.067.078 0 .166.03.266.093.1.064.21.143.337.24.127.095.27.2.433.314.162.114.346.22.554.315.207.096.442.175.706.238.264.064.56.095.89.095.415 0 .784-.057 1.108-.17.325-.115.6-.275.825-.483.225-.207.397-.454.517-.742s.18-.61.18-.963c0-.39-.088-.71-.265-.96-.178-.248-.41-.456-.698-.624-.29-.168-.62-.31-.99-.428-.373-.117-.75-.236-1.135-.36-.384-.123-.762-.265-1.134-.427-.37-.162-.7-.372-.99-.63-.287-.258-.52-.58-.696-.968-.178-.387-.266-.865-.266-1.435 0-.456.088-.897.266-1.323.177-.426.434-.804.774-1.134.34-.33.755-.594 1.25-.792.496-.198 1.064-.297 1.706-.297.72 0 1.375.113 1.967.34.592.23 1.112.56 1.562.99l-.423.83zm4.292-2.377V86h-1.602V72.743h1.602zm7.533 9.153c-.738.024-1.366.082-1.885.175-.52.095-.942.216-1.27.366-.327.15-.563.327-.71.53-.148.205-.22.433-.22.685 0 .24.038.448.116.622.078.174.184.316.32.428.135.11.293.19.477.242.183.052.38.077.59.077.28 0 .54-.03.773-.087.234-.057.454-.14.662-.247.207-.108.404-.237.594-.387.19-.15.373-.322.553-.514v-1.89zm-5.175-3.726c.504-.486 1.047-.85 1.63-1.09.58-.24 1.226-.36 1.934-.36.51 0 .963.085 1.36.253.395.168.728.402.998.702.27.3.474.663.612 1.09.138.425.207.893.207 1.403V86h-.71c-.156 0-.276-.025-.36-.077-.084-.05-.15-.15-.198-.3l-.18-.865c-.24.222-.474.418-.702.59-.228.17-.468.314-.72.43-.252.12-.52.208-.805.27-.286.065-.602.096-.95.096-.354 0-.687-.05-1-.15-.31-.098-.582-.246-.813-.444-.232-.198-.414-.448-.55-.752-.135-.303-.202-.66-.202-1.075 0-.36.1-.706.297-1.04.198-.333.52-.628.963-.886.444-.258 1.023-.47 1.737-.635.714-.165 1.59-.26 2.628-.283v-.712c0-.708-.153-1.243-.46-1.607-.305-.362-.752-.543-1.34-.543-.396 0-.727.05-.994.148-.267.1-.497.21-.692.333-.196.124-.363.234-.504.333-.142.1-.28.15-.42.15-.107 0-.2-.028-.278-.086-.078-.057-.144-.127-.198-.21l-.288-.514zm15.525.333c-.048.066-.096.117-.144.153-.047.036-.113.054-.197.054-.09 0-.19-.037-.297-.112-.108-.076-.24-.158-.4-.248-.16-.09-.354-.172-.585-.248-.23-.075-.514-.112-.85-.112-.45 0-.846.08-1.188.238-.342.16-.628.39-.86.69-.23.3-.404.662-.52 1.088-.12.426-.177.903-.177 1.43 0 .553.063 1.043.19 1.472.125.43.303.79.535 1.08.23.292.51.513.837.667.327.153.694.23 1.102.23.39 0 .71-.047.962-.14.252-.094.46-.197.626-.31.165-.115.302-.218.414-.31.11-.095.22-.14.328-.14.132 0 .234.05.306.152l.45.585c-.198.246-.423.456-.675.63-.25.174-.522.32-.813.437-.292.116-.596.2-.914.255-.318.054-.642.08-.972.08-.57 0-1.098-.104-1.587-.314-.49-.21-.914-.513-1.274-.912-.36-.4-.643-.89-.847-1.472-.204-.582-.306-1.245-.306-1.99 0-.677.094-1.304.284-1.88.19-.576.465-1.072.83-1.49.362-.417.808-.742 1.34-.976.53-.234 1.14-.35 1.83-.35.643 0 1.208.102 1.698.31.49.207.922.5 1.3.877l-.423.576zm3.86-5.76v7.803h.415c.12 0 .22-.016.302-.05.08-.033.166-.1.256-.202l2.88-3.087c.084-.102.172-.18.266-.24.093-.056.217-.084.373-.084h1.45l-3.358 3.573c-.163.204-.337.363-.523.477.108.072.205.154.293.247.087.094.17.2.247.32l3.564 4.5h-1.43c-.138 0-.256-.022-.355-.068-.1-.045-.185-.127-.257-.247l-2.997-3.735c-.09-.126-.177-.208-.264-.248-.088-.04-.22-.058-.4-.058h-.46V86h-1.61V72.743h1.61zm7.264 12.267c0-.156.027-.303.085-.44.057-.14.134-.26.234-.36.098-.103.216-.184.354-.244.138-.06.285-.09.44-.09.157 0 .304.03.442.09s.258.14.36.243c.102.1.183.22.243.36.06.137.09.284.09.44 0 .162-.03.31-.09.445-.06.136-.142.254-.244.356-.102.103-.222.182-.36.24-.138.057-.285.085-.44.085-.157 0-.304-.028-.442-.086-.138-.058-.256-.137-.355-.24-.1-.1-.178-.22-.235-.355-.058-.135-.086-.283-.086-.445zm18.557-1.674c.096 0 .18.04.252.117l.692.747c-.528.612-1.168 1.09-1.92 1.43-.755.343-1.665.514-2.733.514-.925 0-1.765-.16-2.52-.482-.757-.32-1.402-.77-1.936-1.35-.534-.58-.948-1.273-1.242-2.083-.294-.81-.44-1.702-.44-2.674s.152-1.863.458-2.673c.306-.81.736-1.506 1.292-2.088.555-.582 1.22-1.033 1.993-1.355.774-.32 1.63-.48 2.565-.48.918 0 1.728.146 2.43.44.702.294 1.32.693 1.854 1.197l-.576.8c-.036.06-.082.11-.14.15-.056.04-.133.058-.23.058-.107 0-.24-.058-.395-.176-.156-.118-.36-.248-.612-.392-.25-.144-.566-.274-.944-.392-.378-.117-.843-.175-1.395-.175-.665 0-1.274.116-1.826.347-.552.232-1.027.566-1.426 1.004-.4.44-.71.973-.932 1.603-.222.63-.333 1.34-.333 2.133 0 .804.115 1.52.347 2.15.23.63.545 1.163.945 1.598.4.436.87.767 1.413.995.543.227 1.13.34 1.76.34.383 0 .73-.02 1.04-.067.308-.045.592-.115.854-.21.26-.097.503-.218.73-.366.224-.147.447-.322.67-.526.1-.09.203-.134.305-.134zm4.203-5.238c.39-.414.822-.744 1.296-.99.474-.246 1.02-.37 1.638-.37.498 0 .937.083 1.32.248.38.166.697.4.953.702.255.304.448.668.58 1.094.132.426.198.897.198 1.413V86h-1.61v-5.805c0-.69-.158-1.225-.473-1.606-.316-.383-.794-.573-1.436-.573-.474 0-.916.114-1.327.342-.413.227-.792.536-1.14.926V86h-1.61V72.743h1.61v5.355zm14.535 2.35c0-.373-.052-.713-.157-1.023-.106-.31-.258-.575-.46-.8-.2-.226-.445-.4-.733-.523s-.615-.184-.98-.184c-.77 0-1.376.223-1.823.67-.448.448-.725 1.067-.833 1.86h4.985zm1.296 4.274c-.197.24-.434.448-.71.625-.276.178-.57.323-.886.437-.316.114-.64.2-.977.256-.336.058-.67.086-1 .086-.63 0-1.21-.106-1.74-.32-.532-.213-.99-.524-1.377-.936-.388-.41-.69-.92-.905-1.525-.216-.606-.324-1.302-.324-2.088 0-.636.098-1.23.294-1.782.195-.552.475-1.03.84-1.436.367-.406.814-.723 1.342-.955.528-.23 1.122-.346 1.782-.346.546 0 1.05.09 1.517.273.465.184.866.447 1.206.792.34.346.605.77.797 1.278.192.508.288 1.085.288 1.733 0 .252-.027.42-.08.504-.055.084-.157.126-.307.126h-6.093c.018.576.097 1.077.24 1.503.14.425.336.78.588 1.066.252.285.552.497.9.638.348.142.738.212 1.17.212.402 0 .748-.046 1.04-.14.29-.093.54-.193.75-.3.21-.11.386-.21.528-.303.142-.093.263-.14.365-.14.132 0 .234.052.306.154l.45.585zm8.452-6.22c-.048.067-.096.118-.144.154-.048.036-.114.054-.198.054-.09 0-.19-.037-.297-.113-.108-.075-.24-.157-.4-.247-.16-.09-.354-.172-.585-.248-.232-.075-.515-.112-.85-.112-.45 0-.847.08-1.19.238-.34.16-.627.39-.858.69-.232.3-.405.662-.522 1.088-.118.426-.176.903-.176 1.43 0 .553.063 1.043.19 1.472.125.43.303.79.535 1.08.23.292.51.513.837.666.327.154.694.23 1.102.23.39 0 .71-.046.963-.14.25-.093.46-.196.625-.31.165-.114.302-.217.414-.31.11-.094.22-.14.327-.14.132 0 .234.05.306.153l.45.585c-.198.246-.423.456-.675.63-.252.174-.523.32-.814.436-.292.118-.596.203-.914.257-.318.054-.642.08-.972.08-.57 0-1.1-.104-1.588-.314-.49-.21-.914-.513-1.274-.913s-.642-.89-.846-1.47c-.204-.583-.306-1.246-.306-1.99 0-.678.094-1.305.284-1.88.19-.577.464-1.073.828-1.49.363-.418.81-.743 1.34-.977.532-.234 1.142-.35 1.832-.35.642 0 1.207.102 1.697.31.49.207.922.5 1.3.877l-.423.576zm3.86-5.76v7.804h.415c.12 0 .22-.016.302-.05.08-.033.165-.1.255-.202l2.88-3.087c.084-.102.173-.18.266-.24.094-.056.218-.084.374-.084h1.45l-3.358 3.573c-.162.204-.336.363-.522.477.108.072.206.154.293.247.087.094.17.2.247.32l3.564 4.5h-1.43c-.14 0-.257-.022-.356-.068-.1-.045-.185-.127-.257-.247l-2.997-3.735c-.09-.126-.178-.208-.265-.248-.087-.04-.22-.058-.4-.058h-.46V86h-1.61V72.743h1.61zm13.834 4.14V86h-1.602v-9.117h1.602zm.342-2.86c0 .155-.03.3-.094.435-.063.136-.147.255-.252.36-.106.106-.228.188-.37.248-.14.06-.29.09-.445.09-.156 0-.3-.03-.436-.09-.135-.06-.253-.142-.355-.248-.102-.105-.183-.224-.243-.36-.06-.135-.09-.28-.09-.436 0-.155.03-.303.09-.445.06-.14.14-.263.243-.37.102-.104.22-.186.356-.246.136-.06.28-.09.437-.09.156 0 .304.03.446.09.14.06.263.14.37.246.104.106.188.228.25.37.064.14.095.29.095.445zm5.085 12.122c-.72 0-1.273-.2-1.66-.603-.388-.4-.58-.98-.58-1.736v-5.58h-1.1c-.095 0-.176-.028-.242-.086-.065-.057-.098-.145-.098-.265v-.64l1.494-.188.37-2.817c.017-.09.058-.163.12-.22.064-.058.146-.086.248-.086h.81v3.14h2.637v1.162h-2.636v5.472c0 .384.093.67.28.855.185.187.425.28.72.28.167 0 .312-.022.436-.068.123-.045.23-.094.32-.148.09-.054.166-.103.23-.15.062-.044.117-.066.165-.066.084 0 .16.05.225.153l.468.766c-.276.258-.61.46-1 .607-.39.148-.79.22-1.205.22zm12.105-9.405c.666 0 1.266.11 1.8.332.534.222.99.537 1.368.945.378.408.667.9.87 1.48.2.58.3 1.226.3 1.94 0 .72-.1 1.368-.3 1.944-.203.577-.492 1.07-.87 1.477-.378.408-.834.72-1.368.94-.534.22-1.134.33-1.8.33-.672 0-1.276-.11-1.814-.33-.537-.22-.994-.532-1.372-.94-.378-.408-.667-.9-.87-1.476-.2-.575-.3-1.223-.3-1.943 0-.714.1-1.36.302-1.94.2-.58.49-1.072.868-1.48.378-.408.835-.723 1.372-.945.538-.222 1.142-.333 1.814-.333zm0 8.135c.9 0 1.572-.3 2.016-.905.444-.603.666-1.444.666-2.524 0-1.086-.222-1.932-.666-2.538-.444-.606-1.116-.91-2.016-.91-.456 0-.853.08-1.192.235-.34.156-.62.38-.846.675-.226.294-.393.655-.504 1.084-.112.43-.167.914-.167 1.454 0 1.08.222 1.92.67 2.524.447.604 1.126.905 2.038.905zm13.86-7.992V86h-.954c-.228 0-.372-.11-.432-.333l-.126-.98c-.396.437-.84.79-1.332 1.056-.492.268-1.056.4-1.692.4-.498 0-.937-.08-1.318-.247-.382-.165-.7-.397-.96-.697-.257-.3-.45-.664-.58-1.09-.13-.426-.193-.897-.193-1.413v-5.814h1.603v5.814c0 .69.157 1.224.473 1.602.315.377.796.566 1.444.566.474 0 .916-.112 1.328-.338.41-.225.79-.535 1.138-.93v-6.715h1.602zm5.337 9.26c-.72 0-1.273-.2-1.66-.602-.388-.4-.58-.98-.58-1.736v-5.58h-1.1c-.095 0-.176-.028-.242-.086-.066-.057-.1-.145-.1-.265v-.64l1.495-.188.37-2.817c.017-.09.058-.163.12-.22.064-.058.146-.086.248-.086h.81v3.14h2.637v1.162h-2.637v5.472c0 .384.093.67.28.855.185.187.425.28.72.28.167 0 .312-.022.436-.068.123-.045.23-.094.32-.148.09-.054.166-.103.23-.15.062-.044.117-.066.165-.066.084 0 .16.05.225.153l.468.766c-.276.258-.61.46-1 .607-.39.148-.79.22-1.205.22zm5.58-13.04v5.148c0 .27-.006.535-.018.793-.012.258-.027.517-.045.778-.018.263-.04.53-.067.802-.027.274-.06.566-.095.878h-1.08c-.036-.312-.067-.604-.094-.878-.027-.273-.05-.54-.068-.8-.018-.262-.033-.52-.045-.78-.012-.257-.018-.52-.018-.79V73.1h1.53zm-1.917 11.907c0-.156.03-.303.086-.44.057-.14.136-.26.238-.36.102-.103.22-.184.356-.244.135-.06.283-.09.445-.09.156 0 .3.03.437.09.135.06.253.14.355.243.102.1.183.22.243.36.06.137.09.284.09.44 0 .162-.03.31-.09.445-.06.136-.14.254-.243.356-.102.103-.22.182-.355.24-.136.057-.28.085-.437.085-.162 0-.31-.028-.445-.086-.136-.058-.254-.137-.356-.24-.102-.1-.18-.22-.238-.355-.057-.135-.086-.283-.086-.445z" fill="#2C2D30"/><path d="M129.982 34.556V35h-4.38v-.444h1.95v-6.888c0-.136.006-.28.018-.432l-1.872 1.662c-.056.048-.112.066-.168.054-.056-.012-.1-.036-.132-.072l-.174-.24 2.454-2.166h.45v8.082h1.854zm7.5-3.804c0 .744-.08 1.388-.24 1.932-.16.544-.378.994-.654 1.35-.276.356-.6.62-.97.795-.37.173-.764.26-1.184.26-.42 0-.814-.087-1.182-.26-.368-.175-.69-.44-.966-.796-.276-.356-.493-.806-.65-1.35-.16-.544-.238-1.188-.238-1.932s.08-1.388.237-1.932c.158-.544.375-.994.65-1.35.277-.356.6-.62.967-.795.368-.174.762-.26 1.182-.26.42 0 .815.086 1.185.26.37.174.692.44.968.795.276.356.494.806.654 1.35.16.544.24 1.188.24 1.932zm-.6 0c0-.688-.066-1.276-.198-1.764s-.31-.887-.53-1.197c-.223-.31-.483-.536-.78-.68-.3-.144-.612-.216-.94-.216-.328 0-.64.072-.936.216-.296.144-.556.37-.78.68-.224.31-.402.71-.534 1.198s-.198 1.076-.198 1.764c0 .692.066 1.28.198 1.767.132.485.31.883.534 1.193.224.31.484.536.78.678.296.143.608.214.936.214.328 0 .64-.07.94-.213.297-.14.557-.367.78-.677.22-.31.398-.708.53-1.194.132-.487.198-1.076.198-1.768zm1.92 3.786c0-.076.014-.148.042-.216.028-.068.067-.127.117-.177.05-.05.11-.09.175-.12.066-.03.14-.045.22-.045.075 0 .147.015.215.045s.127.07.177.12c.05.05.09.11.12.177.03.068.045.14.045.216 0 .08-.015.153-.045.22-.03.065-.07.123-.12.173-.05.05-.11.09-.177.118-.068.028-.14.042-.216.042-.156 0-.287-.053-.393-.16-.105-.105-.158-.236-.158-.392zm0-4.782c0-.076.014-.148.042-.216.028-.068.067-.127.117-.177.05-.05.11-.09.175-.12.066-.03.14-.045.22-.045.075 0 .147.015.215.045s.127.07.177.12c.05.05.09.11.12.177.03.068.045.14.045.216 0 .08-.015.153-.045.22-.03.065-.07.123-.12.173-.05.05-.11.088-.177.116-.068.028-.14.042-.216.042-.156 0-.287-.053-.393-.16-.105-.105-.158-.236-.158-.392zm6.516 2.352v-4.446c0-.068.003-.142.01-.222.005-.08.012-.162.02-.246l-3.672 4.914h3.642zm2.058 0v.312c0 .044-.013.08-.04.105-.025.026-.066.04-.122.04h-1.392V35h-.504v-2.436h-4.014c-.06 0-.106-.013-.138-.04-.032-.025-.054-.06-.066-.104l-.054-.282 4.266-5.64h.51v5.61h1.554zm6.348 2.352c.064 0 .114.02.15.057.036.038.054.087.054.147V35h-5.478v-.204c0-.044.01-.09.033-.135.022-.045.05-.084.087-.116l2.898-2.934c.24-.244.462-.48.666-.708.204-.228.38-.458.53-.69.15-.232.268-.47.352-.714.084-.244.126-.504.126-.78 0-.312-.052-.583-.156-.813-.104-.23-.242-.42-.414-.567-.172-.148-.372-.258-.6-.33-.228-.072-.464-.108-.708-.108-.268 0-.515.04-.74.123-.227.082-.427.196-.6.342-.175.146-.32.32-.433.522-.113.202-.192.423-.236.663-.028.088-.065.146-.11.174-.047.028-.11.038-.19.03l-.294-.048c.052-.364.152-.688.3-.972.148-.284.336-.524.564-.72.228-.196.492-.345.792-.447.3-.102.624-.153.972-.153.324 0 .633.047.927.14.294.095.554.237.78.427.226.19.405.43.537.715.132.286.198.62.198 1.005 0 .32-.05.617-.147.89-.098.275-.23.538-.4.79-.167.252-.362.497-.584.735-.223.238-.456.48-.7.73l-2.658 2.71c.128-.03.26-.055.4-.07.137-.017.276-.025.416-.025h3.666zm9.69-2.544l-1.728-4.29c-.06-.14-.118-.308-.174-.504-.024.096-.05.187-.078.273-.028.086-.058.165-.09.237l-1.728 4.284h3.798zM165.292 35h-.474c-.056 0-.102-.015-.138-.045-.036-.03-.064-.07-.084-.117l-.996-2.466h-4.17l-.996 2.466c-.016.044-.044.082-.084.114-.04.032-.088.048-.144.048h-.468l3.474-8.49h.606l3.474 8.49zm9.798-8.49V35h-.534v-7.236c0-.104.006-.214.018-.33l-3.342 5.934c-.056.104-.136.156-.24.156h-.096c-.104 0-.184-.052-.24-.156l-3.432-5.946c.012.12.018.234.018.342V35h-.54v-8.49h.426c.056 0 .1.006.132.018.032.012.064.044.096.096l3.426 5.904c.06.112.112.232.156.36.024-.064.05-.127.078-.19.028-.06.058-.12.09-.176l3.33-5.898c.032-.052.065-.084.1-.096.033-.012.078-.018.134-.018h.42z" fill="#9E9EA6"/><g transform="translate(302 42)"><rect stroke="#E1E1E8" fill="#F7F7F9" width="68" height="22" rx="3"/><path d="M6.434 16.312H5.22l6.553-10.924h1.176L6.433 16.312zm8.9-6.063c.38-.62.833-1.088 1.36-1.402.527-.314 1.012-.47 1.454-.47.62 0 1.178.266 1.674.802s.744 1.348.744 2.437c0 .86-.165 1.626-.495 2.3-.33.676-.768 1.21-1.317 1.602-.55.39-1.23.586-2.04.586-.23 0-.583-.024-1.06-.073-.072-.01-.18-.02-.32-.033h-1.235V5.282h1.235v4.967zm0 1.467v3.18c.446.116.858.173 1.234.173.748 0 1.378-.293 1.89-.88.51-.586.766-1.39.766-2.407 0-.74-.14-1.295-.418-1.667-.28-.37-.596-.557-.95-.557-.385 0-.81.193-1.27.583-.464.39-.88.914-1.253 1.574zm13.12-3.135V16H27.22v-1.627c-.4.61-.842 1.07-1.33 1.375-.486.305-.973.458-1.46.458-.433 0-.83-.116-1.192-.35-.36-.23-.612-.537-.753-.915-.142-.378-.213-1.116-.213-2.214V8.582h1.235v4.297c0 .712.035 1.182.103 1.41.07.228.195.415.38.56.183.147.38.22.593.22.434 0 .9-.204 1.398-.614.5-.41.912-.926 1.24-1.55V8.58h1.235zm7.013 5.75c-.376.62-.83 1.088-1.358 1.402-.53.315-1.016.472-1.458.472-.62 0-1.177-.268-1.67-.804-.494-.535-.74-1.348-.74-2.437 0-.86.163-1.626.49-2.3.328-.676.766-1.21 1.315-1.6.55-.393 1.23-.59 2.04-.59.234 0 .588.026 1.06.074.072.008.18.02.32.032h1.242v5.247c0 1.247-.018 2.01-.05 2.286-.034.277-.088.557-.164.84-.177.66-.58 1.18-1.21 1.56-.632.382-1.395.572-2.29.572-.898 0-1.808-.23-2.728-.69v-1.25c.35.24.78.45 1.29.635.513.184 1.007.276 1.485.276.377 0 .733-.06 1.07-.18.336-.12.608-.293.816-.52.207-.224.35-.487.424-.786.076-.298.113-.696.113-1.192v-1.05zm0-1.466v-3.18c-.438-.116-.845-.174-1.222-.174-.76 0-1.395.295-1.902.883-.507.59-.76 1.39-.76 2.404 0 .734.138 1.29.414 1.663.277.374.593.56.947.56.385 0 .81-.194 1.275-.584.464-.39.88-.915 1.247-1.574zm4.35-2.617c.38-.62.834-1.088 1.36-1.402.528-.314 1.013-.47 1.455-.47.62 0 1.178.266 1.674.802s.744 1.348.744 2.437c0 .86-.165 1.626-.495 2.3-.33.676-.77 1.21-1.318 1.602-.55.39-1.23.586-2.04.586-.23 0-.583-.024-1.06-.073-.072-.01-.18-.02-.32-.033h-1.235V5.282h1.235v4.967zm0 1.467v3.18c.447.116.86.173 1.235.173.748 0 1.378-.293 1.89-.88.51-.586.766-1.39.766-2.407 0-.74-.14-1.295-.418-1.667-.28-.37-.596-.557-.95-.557-.385 0-.81.193-1.27.583-.464.39-.88.914-1.253 1.574zm10.074 4.49c-1.062 0-1.912-.372-2.55-1.113-.637-.742-.956-1.677-.956-2.806 0-1.13.32-2.063.957-2.802.638-.74 1.488-1.11 2.55-1.11 1.06 0 1.906.37 2.544 1.11.637.74.956 1.673.956 2.802 0 1.13-.32 2.064-.956 2.806-.638.74-1.485 1.112-2.543 1.112zm0-1.03c.66 0 1.185-.257 1.574-.77.39-.514.585-1.22.585-2.12 0-.893-.196-1.597-.586-2.11-.39-.514-.914-.77-1.573-.77-.663 0-1.19.256-1.58.77-.39.513-.584 1.217-.584 2.11 0 .9.195 1.606.584 2.12.39.513.917.77 1.58.77zm11.31.524c-.58.245-1 .39-1.262.436-.26.047-.514.07-.757.07-.517 0-.99-.1-1.42-.3-.43-.198-.754-.493-.973-.882-.22-.39-.33-.992-.33-1.806v-2.99h-1.852V9.2h1.853V6.212h1.235V9.2h3.3v1.03h-3.3v2.968c0 .597.07 1.02.213 1.265.142.245.33.426.568.54.236.116.516.174.84.174.597 0 1.226-.19 1.886-.565v1.09z" fill="#C25"/></g><path d="M121.495 52.602c-.234-.054-.492-.08-.774-.08-.45 0-.86.093-1.236.282-.376.19-.698.437-.968.743s-.48.657-.635 1.053c-.152.396-.228.8-.228 1.215 0 .432.1.778.297 1.04.197.26.49.39.88.39.187 0 .374-.03.564-.09.19-.06.37-.164.548-.314.178-.15.34-.353.49-.61.15-.26.277-.583.38-.973l.683-2.655zm.558 2.51c-.12.457-.177.827-.17 1.112.005.286.052.51.14.67.086.163.207.272.363.33.156.057.327.085.513.085.293 0 .572-.085.836-.253.264-.168.496-.405.697-.71.202-.307.36-.674.477-1.104.118-.43.176-.904.176-1.426 0-.828-.132-1.554-.396-2.178-.264-.625-.628-1.145-1.093-1.563-.466-.417-1.014-.728-1.647-.935-.634-.208-1.316-.31-2.048-.31-.804 0-1.557.152-2.26.458-.7.306-1.313.73-1.835 1.27s-.934 1.178-1.237 1.916c-.304.738-.455 1.542-.455 2.412 0 1.02.16 1.915.482 2.687.32.77.758 1.417 1.314 1.94.556.52 1.208.914 1.958 1.178.75.264 1.554.396 2.412.396.912 0 1.717-.1 2.416-.298.7-.198 1.304-.45 1.814-.756.12-.072.225-.095.315-.067.09.026.156.093.198.2l.234.595c-.648.432-1.38.77-2.2 1.017-.82.246-1.745.37-2.777.37-1.044 0-2.013-.166-2.907-.496-.894-.33-1.67-.805-2.327-1.426-.657-.622-1.172-1.382-1.547-2.282-.377-.9-.564-1.92-.564-3.06 0-.654.082-1.284.247-1.89.166-.606.398-1.17.698-1.696.3-.526.66-1.005 1.08-1.44.42-.436.89-.807 1.405-1.116.516-.31 1.072-.55 1.67-.72.597-.172 1.22-.257 1.867-.257.552 0 1.092.06 1.62.18s1.027.296 1.498.53c.472.234.903.523 1.297.87.393.344.733.74 1.02 1.187.29.447.512.944.67 1.494.16.55.24 1.145.24 1.787 0 .648-.09 1.246-.275 1.796-.183.55-.434 1.024-.755 1.426-.322.4-.7.716-1.14.944-.437.228-.908.342-1.412.342-.456 0-.832-.112-1.13-.337-.297-.227-.487-.57-.57-1.032-.343.48-.718.825-1.126 1.035-.41.21-.85.315-1.324.315-.354 0-.664-.06-.93-.184-.27-.124-.49-.294-.663-.513-.174-.22-.304-.478-.392-.778-.086-.3-.13-.624-.13-.972 0-.51.098-1.024.293-1.543.196-.52.485-.987.87-1.404.383-.418.86-.758 1.43-1.022.57-.263 1.23-.395 1.98-.395.402 0 .756.03 1.062.095.306.063.594.154.864.274l-.847 3.25zm12.618-2.61c-.047.067-.095.118-.143.154-.048.036-.114.054-.198.054-.09 0-.19-.037-.298-.113-.108-.075-.24-.157-.4-.247-.16-.09-.354-.172-.586-.248-.23-.075-.514-.112-.85-.112-.45 0-.846.08-1.188.238-.342.16-.628.39-.86.69-.23.3-.404.662-.522 1.088-.117.426-.175.903-.175 1.43 0 .553.064 1.043.19 1.472.126.43.304.79.535 1.08.232.292.51.513.837.666.328.154.695.23 1.103.23.39 0 .71-.046.963-.14.252-.093.46-.196.625-.31.166-.114.303-.217.414-.31.112-.094.22-.14.33-.14.13 0 .233.05.305.153l.45.585c-.198.246-.423.456-.675.63-.252.174-.523.32-.815.437-.29.116-.595.2-.913.255-.32.054-.643.08-.973.08-.57 0-1.1-.104-1.59-.314-.488-.21-.912-.513-1.272-.913s-.642-.89-.846-1.47c-.205-.583-.307-1.246-.307-1.99 0-.678.094-1.305.283-1.88.19-.577.465-1.073.828-1.49.364-.418.81-.743 1.34-.977.533-.234 1.143-.35 1.833-.35.642 0 1.207.102 1.696.31.49.207.923.5 1.3.877l-.422.576zm3.862-.404c.39-.414.822-.744 1.296-.99.474-.246 1.02-.37 1.638-.37.498 0 .937.083 1.318.25.382.164.7.397.954.7.256.304.45.668.58 1.094.133.426.2.897.2 1.413V60h-1.612v-5.805c0-.69-.157-1.225-.473-1.606-.315-.383-.793-.573-1.435-.573-.474 0-.916.114-1.328.342-.41.227-.79.536-1.138.926V60h-1.61V46.743h1.61v5.355zm13.374 3.798c-.738.024-1.366.082-1.886.175-.52.095-.94.216-1.27.366-.326.15-.562.327-.71.53-.147.205-.22.433-.22.685 0 .24.04.448.117.622.078.174.184.316.32.428.135.11.293.19.476.242.184.052.38.077.59.077.282 0 .54-.03.774-.087.234-.057.454-.14.66-.247.21-.108.406-.237.595-.387.19-.15.374-.322.554-.514v-1.89zm-5.175-3.726c.505-.486 1.048-.85 1.63-1.09.582-.24 1.227-.36 1.935-.36.51 0 .963.085 1.36.253.395.168.728.402.998.702.27.3.474.663.612 1.09.138.425.207.893.207 1.403V60h-.71c-.157 0-.277-.025-.36-.077-.085-.05-.15-.15-.2-.3l-.18-.865c-.24.222-.473.418-.7.59-.23.17-.47.314-.72.43-.253.12-.52.208-.806.27-.286.065-.602.096-.95.096-.354 0-.687-.05-1-.15-.31-.098-.582-.246-.814-.444-.23-.198-.413-.448-.55-.752-.134-.303-.2-.66-.2-1.075 0-.36.098-.706.296-1.04.198-.333.52-.628.963-.886.445-.258 1.024-.47 1.738-.635.714-.165 1.59-.26 2.628-.283v-.712c0-.708-.153-1.243-.46-1.607-.305-.362-.752-.543-1.34-.543-.396 0-.727.05-.994.148-.268.1-.498.21-.694.333-.195.124-.362.234-.504.333-.14.1-.28.15-.418.15-.108 0-.2-.028-.28-.086-.077-.057-.143-.127-.197-.21l-.29-.514zm10.693.036c.198-.222.408-.423.63-.603.222-.18.457-.334.707-.463.25-.13.512-.228.792-.298.28-.07.58-.103.904-.103.498 0 .937.08 1.32.247.38.165.697.398.952.702.256.302.45.666.58 1.092.133.426.2.897.2 1.413V60h-1.612v-5.805c0-.69-.157-1.225-.472-1.606-.316-.383-.794-.573-1.436-.573-.474 0-.916.114-1.327.342-.41.227-.79.536-1.138.926V60h-1.61v-9.117h.962c.228 0 .37.11.423.333l.126.99zm10.044 0c.198-.222.408-.423.63-.603.222-.18.457-.334.707-.463.25-.13.512-.228.79-.298.28-.07.582-.103.906-.103.498 0 .937.08 1.32.247.38.165.697.398.953.702.255.302.448.666.58 1.092.132.426.198.897.198 1.413V60h-1.61v-5.805c0-.69-.157-1.225-.472-1.606-.316-.383-.794-.573-1.436-.573-.474 0-.916.114-1.328.342-.41.227-.79.536-1.138.926V60h-1.61v-9.117h.962c.228 0 .37.11.423.333l.127.99zm14.634 2.24c0-.37-.05-.71-.156-1.02-.106-.31-.258-.576-.46-.802-.2-.225-.445-.398-.733-.522-.287-.123-.614-.184-.98-.184-.768 0-1.375.223-1.823.67-.447.448-.724 1.067-.832 1.86h4.986zm1.297 4.276c-.198.24-.435.448-.71.625-.277.178-.572.323-.888.437-.316.114-.64.2-.977.257-.336.058-.67.086-1 .086-.63 0-1.21-.106-1.74-.32-.532-.213-.99-.524-1.377-.935-.388-.41-.69-.92-.905-1.525-.215-.606-.323-1.302-.323-2.088 0-.636.097-1.23.292-1.782.195-.552.475-1.03.84-1.436.367-.406.814-.723 1.342-.954.528-.232 1.122-.347 1.782-.347.546 0 1.05.09 1.516.273.466.184.867.447 1.207.792.34.346.604.77.796 1.278.192.508.288 1.085.288 1.733 0 .252-.026.42-.08.504-.054.084-.156.126-.306.126h-6.093c.02.576.098 1.077.24 1.503.14.425.337.78.59 1.066.25.285.55.497.9.64.347.14.737.21 1.17.21.4 0 .747-.046 1.038-.14.292-.093.542-.193.752-.3.21-.11.385-.21.526-.303.142-.093.263-.14.365-.14.133 0 .235.052.307.154l.45.585zm3.762-11.98V60h-1.603V46.743h1.602z" fill="#2B80B9"/></g></svg>