<svg viewBox="0 0 412 152" xmlns="http://www.w3.org/2000/svg"><g transform="translate(1)" fill="none" fill-rule="evenodd"><rect stroke="#E7E7E7" stroke-width="2" fill="#FFF" width="410" height="151" rx="10"/><g transform="translate(65 51)"><path d="M18.828 42h-1.456V31.253h1.456V42zm4.544.12c-.6 0-1.06-.167-1.383-.502-.33-.336-.49-.818-.49-1.448v-4.65h-.92c-.08 0-.15-.024-.21-.07-.06-.05-.08-.122-.08-.223v-.532l1.24-.157.3-2.348c.01-.075.05-.136.1-.184.05-.047.12-.07.2-.07h.67v2.617H25v.967h-2.19v4.56c0 .32.08.557.237.712.154.156.353.233.6.233.14 0 .26-.02.362-.056.1-.04.19-.08.26-.13s.14-.09.19-.13c.05-.04.1-.06.14-.06.07 0 .13.04.18.12l.39.64c-.23.21-.51.38-.83.5-.33.12-.66.18-1.01.18zm8.265-11.167V42h-1.335V30.953h1.335zM37 34.283c.555 0 1.055.09 1.5.276.445.18.825.44 1.14.78.315.34.556.75.724 1.23.167.48.25 1.02.25 1.61 0 .6-.083 1.14-.25 1.62-.168.48-.41.89-.724 1.23-.315.34-.695.6-1.14.78-.445.18-.945.27-1.5.27-.56 0-1.064-.09-1.51-.27-.45-.18-.83-.45-1.145-.79-.315-.34-.556-.75-.724-1.23-.16-.48-.25-1.02-.25-1.62 0-.6.09-1.14.25-1.62.17-.48.41-.89.73-1.23.32-.34.7-.6 1.15-.79.45-.19.95-.28 1.51-.28zm0 6.78c.75 0 1.31-.253 1.68-.755.37-.504.555-1.205.555-2.105 0-.905-.185-1.61-.555-2.115-.37-.505-.93-.758-1.68-.758-.38 0-.71.065-.994.196-.282.13-.517.317-.705.562-.18.245-.32.546-.42.904-.09.357-.13.76-.13 1.21 0 .9.19 1.602.56 2.105.37.5.94.752 1.7.752zm8.505-6.78c.555 0 1.055.09 1.5.276.445.18.825.44 1.14.78.315.34.556.75.724 1.23.16.48.25 1.02.25 1.61 0 .6-.09 1.14-.25 1.62-.17.48-.41.89-.73 1.23-.32.34-.7.6-1.14.78-.45.18-.95.27-1.5.27-.56 0-1.07-.09-1.51-.27-.45-.18-.83-.45-1.15-.79-.32-.34-.56-.75-.73-1.23-.17-.48-.25-1.02-.25-1.62 0-.6.08-1.14.25-1.62.17-.48.41-.89.72-1.23.31-.34.69-.6 1.14-.79.44-.19.95-.28 1.51-.28zm0 6.78c.75 0 1.31-.253 1.68-.755.37-.504.555-1.205.555-2.105 0-.905-.185-1.61-.555-2.115-.37-.505-.93-.758-1.68-.758-.38 0-.71.065-.994.196-.28.13-.51.317-.7.562-.18.245-.32.546-.42.904-.09.357-.14.76-.14 1.21 0 .9.19 1.602.56 2.105.38.5.94.752 1.7.752zm6.645-10.11v6.5h.345c.1 0 .184-.013.25-.04.07-.03.14-.084.215-.17l2.4-2.57c.07-.087.144-.153.22-.2.08-.048.182-.07.313-.07H57.1l-2.797 2.976c-.136.17-.28.3-.435.39.09.06.17.13.243.2.08.07.15.16.21.26L57.29 42h-1.194c-.115 0-.214-.02-.296-.057-.084-.038-.155-.106-.215-.207l-2.498-3.112c-.075-.105-.148-.174-.22-.206-.073-.034-.184-.05-.334-.05h-.383V42h-1.343V30.953h1.343zm10.703 4.7c-.06.11-.153.166-.278.166-.075 0-.16-.03-.255-.09s-.21-.12-.35-.19c-.136-.07-.3-.13-.49-.19s-.415-.09-.675-.09c-.225 0-.427.03-.608.08-.18.06-.333.13-.46.23-.128.1-.226.21-.293.35-.068.13-.102.27-.102.43 0 .19.057.36.17.49.112.13.26.24.446.33.185.09.394.17.63.25.235.07.476.15.723.23.25.08.49.17.73.27s.45.23.63.38.34.33.45.55c.12.22.17.48.17.78 0 .35-.06.68-.19.97-.12.3-.31.56-.55.78-.24.21-.54.38-.9.51-.35.12-.76.19-1.23.19-.53 0-1.01-.09-1.44-.26-.43-.17-.79-.4-1.09-.67l.32-.51c.04-.07.09-.12.15-.15.06-.04.13-.05.21-.05.09 0 .19.03.29.1.1.07.22.14.37.23.14.08.32.16.52.23.21.07.46.11.77.11.26 0 .49-.04.69-.1.2-.07.36-.16.49-.28.13-.12.23-.25.29-.4.06-.15.09-.31.09-.48 0-.21-.06-.39-.17-.52-.11-.14-.26-.26-.44-.35-.19-.1-.4-.19-.64-.26-.24-.08-.48-.15-.73-.23-.25-.08-.49-.17-.73-.28-.23-.1-.45-.23-.63-.39-.18-.15-.33-.34-.44-.57-.11-.22-.17-.5-.17-.83 0-.29.06-.56.18-.83s.3-.5.53-.71c.23-.2.52-.36.85-.48.34-.12.72-.18 1.15-.18.5 0 .95.08 1.35.23.4.16.74.37 1.04.65l-.3.49zm7.29-4.702V42h-1.335V30.953h1.334zm3.57 3.45V42h-1.335v-7.597h1.335zm.285-2.38c0 .13-.027.25-.08.37-.052.12-.122.22-.21.3-.087.09-.19.16-.307.21-.11.05-.24.08-.37.08s-.25-.02-.36-.07c-.11-.05-.21-.12-.29-.2-.08-.08-.15-.18-.2-.3-.05-.11-.07-.23-.07-.36 0-.13.03-.25.08-.37s.12-.22.2-.31c.09-.09.19-.15.3-.2.12-.05.24-.07.37-.07s.26.03.37.08c.12.05.22.12.31.21s.16.19.21.31c.05.12.08.24.08.37zm3.247-1.06v6.51h.345c.1 0 .184-.01.25-.04.07-.03.14-.08.215-.17l2.4-2.57c.07-.08.144-.15.22-.2.08-.04.182-.07.313-.07h1.207l-2.797 2.98c-.136.17-.28.3-.435.4.09.06.17.13.243.21.073.08.14.17.206.27l2.97 3.75H81.19c-.115 0-.214-.02-.296-.05-.083-.04-.154-.11-.214-.21l-2.498-3.11c-.075-.1-.148-.17-.22-.2-.073-.03-.184-.05-.335-.05h-.382V42h-1.343V30.953h1.343zm10.935 6.42c0-.31-.044-.59-.13-.85-.09-.25-.216-.48-.384-.66-.167-.19-.37-.33-.61-.43-.24-.1-.513-.15-.82-.15-.64 0-1.145.19-1.517.56-.38.37-.61.89-.7 1.55h4.15zm1.08 3.57c-.165.2-.362.38-.593.52-.23.15-.476.27-.738.37-.27.1-.54.17-.82.22-.28.05-.56.07-.83.07-.53 0-1.01-.09-1.45-.26-.44-.18-.83-.44-1.15-.78-.33-.34-.58-.76-.76-1.27-.18-.5-.27-1.08-.27-1.74 0-.53.08-1.02.24-1.48.16-.46.39-.86.7-1.19.3-.34.67-.6 1.11-.8.44-.19.93-.29 1.48-.29.45 0 .87.08 1.26.23.39.16.72.38 1.01.66.28.29.5.65.66 1.07.16.42.24.9.24 1.44 0 .21-.02.35-.07.42s-.13.11-.26.11h-5.08c.02.48.08.9.2 1.26.12.36.28.65.49.89.21.24.46.42.75.54.29.12.62.18.98.18.33 0 .62-.04.86-.11.24-.08.45-.16.63-.25.17-.09.32-.17.44-.25.11-.07.21-.11.3-.11.11 0 .19.04.25.13l.37.49zm11.775-6.53l-4.237 9.84c-.046.1-.102.18-.17.24-.067.06-.17.09-.31.09h-.99l1.387-3.01-3.135-7.15h1.155c.115 0 .206.03.274.09.06.06.11.12.13.19l2.03 4.79c.08.21.14.43.2.66.07-.23.14-.45.22-.66l1.97-4.78c.03-.08.08-.14.15-.2.07-.05.15-.07.24-.07H101zm4.17-.12c.555 0 1.055.1 1.5.28.445.19.825.45 1.14.79.315.34.556.75.724 1.24.16.49.25 1.02.25 1.62 0 .6-.09 1.14-.25 1.62-.17.48-.41.89-.73 1.23-.32.34-.7.61-1.14.79-.45.19-.95.28-1.5.28-.56 0-1.07-.09-1.51-.27-.45-.18-.83-.44-1.15-.78-.32-.34-.56-.75-.73-1.23-.17-.48-.25-1.02-.25-1.62 0-.59.08-1.13.25-1.62.17-.48.41-.89.72-1.23.31-.34.69-.6 1.14-.79.44-.18.95-.27 1.51-.27zm0 6.78c.75 0 1.31-.25 1.68-.75.37-.5.555-1.2.555-2.1 0-.9-.185-1.61-.555-2.11-.37-.5-.93-.75-1.68-.75-.38 0-.71.07-.994.2-.28.13-.51.32-.7.56-.18.25-.32.55-.42.9-.09.36-.14.76-.14 1.21 0 .9.19 1.6.56 2.11.38.5.94.75 1.7.75zm11.55-6.66V42h-.795c-.19 0-.31-.092-.36-.278l-.105-.817c-.33.365-.7.66-1.11.88-.41.224-.88.335-1.41.335-.415 0-.78-.07-1.1-.206-.316-.138-.582-.33-.797-.58-.216-.252-.377-.554-.484-.91-.108-.354-.16-.746-.16-1.176v-4.845h1.334v4.845c0 .575.13 1.02.393 1.335.27.315.67.472 1.21.472.4 0 .77-.094 1.11-.28.35-.19.66-.447.95-.777v-5.595h1.34zm3.383 1.53c.24-.52.534-.93.884-1.22.35-.29.778-.44 1.283-.44.16 0 .314.02.46.05.15.04.28.09.395.17l-.097 1c-.03.13-.105.19-.225.19-.07 0-.173-.01-.308-.04s-.287-.04-.457-.04c-.24 0-.454.04-.642.11-.18.07-.35.18-.5.31-.15.14-.28.31-.4.51-.11.21-.22.44-.31.7V42h-1.34v-7.597h.77c.15 0 .25.027.3.082.06.055.1.15.11.285l.09 1.155zm16.762.91v4.13c-.54.39-1.116.68-1.73.88-.61.19-1.282.29-2.012.29-.866 0-1.645-.13-2.34-.4-.696-.27-1.29-.64-1.782-1.13-.492-.48-.87-1.06-1.136-1.73-.265-.67-.398-1.42-.398-2.23 0-.82.13-1.57.387-2.24.25-.67.62-1.25 1.09-1.73.47-.48 1.05-.85 1.73-1.12.68-.26 1.44-.39 2.28-.39.42 0 .82.04 1.18.1s.7.15 1.01.27c.31.12.59.26.86.43.26.16.51.35.74.56l-.42.66c-.07.1-.15.16-.25.19-.11.03-.22 0-.34-.07-.12-.07-.26-.16-.41-.26-.16-.1-.35-.19-.57-.29-.23-.09-.49-.17-.79-.23-.3-.06-.66-.09-1.08-.09-.61 0-1.16.1-1.65.3-.49.2-.91.48-1.25.85-.35.37-.61.82-.8 1.34-.19.52-.28 1.11-.28 1.76 0 .67.09 1.28.28 1.81.19.53.47.99.82 1.36.36.37.79.65 1.3.85.51.19 1.08.29 1.72.29.5 0 .94-.05 1.33-.17.39-.11.77-.26 1.14-.46V38h-1.67c-.1 0-.17-.027-.23-.08-.06-.05-.09-.12-.09-.2v-.82h3.3zm3.262-2.43V42h-1.335v-7.597h1.335zm.285-2.38c0 .13-.026.25-.078.36-.06.12-.13.22-.21.3-.09.09-.19.16-.31.21-.12.05-.24.08-.37.08s-.25-.02-.37-.07c-.11-.05-.21-.12-.3-.2s-.16-.18-.21-.3c-.05-.11-.08-.23-.08-.36 0-.13.02-.25.07-.37s.12-.22.2-.31c.08-.09.18-.16.29-.21.11-.05.23-.07.36-.07s.25.02.37.07.22.12.31.21c.08.09.15.19.21.31.05.12.07.24.07.37v.01zm4.238 10.1c-.6 0-1.06-.16-1.384-.5-.32-.33-.48-.81-.48-1.44v-4.65h-.91c-.08 0-.14-.02-.2-.07-.05-.05-.08-.12-.08-.22v-.54l1.25-.16.31-2.35c.02-.07.05-.13.1-.18.06-.05.13-.07.21-.07h.68v2.62h2.2v.97h-2.19v4.56c0 .32.08.56.24.71.16.16.36.24.6.24.14 0 .26-.02.37-.05.1-.04.19-.08.27-.12.08-.05.14-.09.19-.13.05-.04.1-.06.14-.06.07 0 .13.05.19.13l.39.64c-.23.22-.5.39-.83.51-.32.13-.66.19-1 .19zm4.387-6.7c.326-.34.685-.62 1.08-.82.396-.2.85-.31 1.366-.31.415 0 .78.07 1.098.21.318.14.583.33.795.59.22.26.38.56.49.91.11.36.17.75.17 1.18V42h-1.34v-4.837c0-.576-.13-1.022-.39-1.34-.26-.317-.66-.476-1.19-.476-.39 0-.76.095-1.1.285-.34.19-.65.448-.95.773V42h-1.34V30.953h1.35v4.462zm13.275-1.01V42h-.794c-.19 0-.31-.092-.36-.278l-.106-.817c-.33.365-.7.66-1.11.88-.41.224-.88.335-1.41.335-.415 0-.78-.07-1.098-.206-.32-.138-.59-.33-.8-.58-.22-.252-.38-.554-.49-.91-.11-.354-.16-.746-.16-1.176v-4.845h1.33v4.845c0 .575.13 1.02.39 1.335.26.315.66.472 1.2.472.39 0 .76-.094 1.1-.28.34-.19.66-.447.95-.777v-5.595h1.33zm3.458 5.77c.245.33.514.56.806.7.3.14.62.2.97.2.72 0 1.26-.25 1.65-.76.38-.5.57-1.25.57-2.25 0-.93-.17-1.61-.5-2.05-.33-.44-.81-.65-1.44-.65-.43 0-.81.1-1.13.3-.32.2-.62.48-.89.85v3.67zm0-4.67c.32-.37.68-.67 1.084-.89.4-.22.86-.33 1.39-.33.44 0 .84.09 1.2.26.35.17.66.42.91.74s.44.71.57 1.17c.13.46.19.98.19 1.55 0 .62-.08 1.18-.23 1.68-.15.51-.37.94-.65 1.3-.28.36-.63.64-1.03.84-.41.2-.86.3-1.37.3-.5 0-.92-.09-1.26-.28-.35-.19-.64-.46-.9-.8l-.07.69c-.04.19-.16.28-.35.28h-.86V30.96h1.34v4.54zm15.015 3.08c-.615.02-1.14.07-1.57.15-.434.08-.786.18-1.06.31-.27.13-.47.27-.59.44-.124.17-.185.36-.185.57 0 .2.032.38.097.52.065.15.154.26.267.36.11.09.24.16.39.2.15.04.31.06.49.06.23 0 .45-.02.64-.07.19-.04.38-.11.55-.2.17-.09.33-.19.49-.32.15-.12.31-.26.46-.42v-1.6zm-4.313-3.11c.42-.4.873-.7 1.358-.9.485-.2 1.022-.3 1.612-.3.426 0 .803.07 1.133.21.33.14.607.34.832.59.226.25.395.56.51.91.116.36.173.75.173 1.17V42h-.593c-.13 0-.23-.02-.3-.064-.07-.042-.125-.126-.165-.25l-.15-.72c-.2.184-.394.348-.584.49-.19.143-.39.263-.6.36-.21.098-.434.173-.672.225-.23.06-.5.08-.79.08-.29 0-.57-.04-.83-.12-.26-.08-.48-.2-.68-.37-.19-.16-.34-.37-.46-.62-.11-.25-.16-.55-.16-.89 0-.3.09-.59.25-.86.17-.27.44-.52.81-.74.37-.21.85-.39 1.45-.53.6-.13 1.33-.21 2.19-.23v-.59c0-.59-.12-1.03-.38-1.34-.25-.3-.63-.45-1.12-.45-.33 0-.6.05-.83.13-.22.09-.41.18-.57.28-.16.1-.3.2-.42.28-.12.09-.23.13-.35.13-.09 0-.16-.02-.23-.07s-.12-.1-.16-.17l-.24-.43zm12.938.28c-.04.06-.08.1-.12.13-.04.03-.095.05-.165.05-.075 0-.157-.03-.248-.09-.09-.06-.2-.13-.333-.2-.14-.07-.3-.14-.49-.21s-.43-.1-.71-.1c-.38 0-.71.07-.99.2-.29.13-.53.33-.72.58-.19.25-.34.55-.44.9-.1.36-.15.75-.15 1.19 0 .46.05.87.15 1.23.1.36.25.66.44.9s.42.43.69.55c.27.13.58.19.92.19.32 0 .59-.04.8-.11.21-.07.38-.16.52-.26.14-.09.25-.18.34-.25.09-.08.18-.12.27-.12.11 0 .19.04.25.13l.37.48c-.17.21-.35.38-.56.53-.21.15-.44.27-.68.37-.24.1-.5.17-.76.22-.27.05-.54.07-.81.07-.48 0-.92-.08-1.33-.26-.41-.17-.76-.43-1.06-.76-.3-.33-.54-.74-.71-1.22-.17-.48-.26-1.03-.26-1.65 0-.57.08-1.09.23-1.57.15-.48.38-.89.69-1.24.3-.35.67-.62 1.11-.81.44-.2.95-.29 1.53-.29.53 0 1 .09 1.41.26.4.17.76.41 1.08.73l-.35.48zm7.028 0c-.04.06-.08.1-.12.13-.04.03-.096.05-.166.05-.075 0-.157-.03-.247-.09s-.2-.13-.334-.2c-.132-.07-.295-.14-.487-.21-.2-.06-.43-.1-.71-.1-.38 0-.71.07-.99.2-.29.13-.53.33-.72.58-.2.25-.34.55-.44.9-.1.36-.15.75-.15 1.19 0 .46.05.87.15 1.23.1.36.25.66.44.9s.42.43.7.55c.27.13.58.19.92.19.32 0 .59-.04.8-.11.21-.07.38-.16.52-.26.14-.09.25-.18.34-.25.09-.08.18-.12.27-.12.11 0 .19.04.25.13l.37.48c-.17.21-.35.38-.56.53-.21.15-.44.27-.68.37-.24.1-.5.17-.76.22-.27.05-.54.07-.81.07-.48 0-.92-.08-1.32-.26-.41-.17-.76-.43-1.06-.76-.3-.33-.54-.74-.71-1.22-.17-.48-.26-1.03-.26-1.65 0-.57.08-1.09.24-1.57.16-.48.39-.89.69-1.24.3-.35.67-.62 1.12-.81.44-.2.95-.29 1.52-.29.53 0 1 .09 1.41.26.41.17.77.41 1.08.73l-.35.48zm4.942-1.47c.555 0 1.055.1 1.5.28.445.19.825.45 1.14.79.315.34.556.75.724 1.23.16.49.25 1.03.25 1.62 0 .6-.09 1.14-.25 1.62-.17.48-.41.89-.73 1.23-.32.34-.7.6-1.14.79-.45.19-.95.28-1.5.28-.56 0-1.07-.09-1.51-.28-.45-.18-.83-.44-1.15-.78-.32-.34-.56-.75-.73-1.23-.17-.48-.25-1.02-.25-1.62 0-.59.08-1.13.25-1.61.17-.48.41-.89.72-1.23.31-.34.69-.6 1.14-.78.44-.18.95-.28 1.51-.28zm0 6.78c.75 0 1.31-.25 1.68-.75.37-.5.555-1.2.555-2.1 0-.9-.185-1.61-.555-2.11-.37-.51-.93-.76-1.68-.76-.38 0-.71.06-.994.19-.28.13-.51.32-.7.56-.18.25-.32.55-.42.91-.09.36-.14.76-.14 1.21 0 .9.19 1.6.56 2.11.38.5.94.75 1.7.75zm11.55-6.66V42h-.795c-.19 0-.31-.092-.36-.278l-.105-.817c-.33.365-.7.66-1.11.88-.41.224-.88.335-1.41.335-.415 0-.78-.07-1.1-.206-.316-.138-.582-.33-.798-.58-.215-.252-.376-.554-.483-.91-.108-.354-.16-.746-.16-1.176v-4.845h1.333v4.845c0 .575.132 1.02.394 1.335.27.315.67.472 1.21.472.4 0 .77-.094 1.11-.28.35-.19.66-.447.95-.777v-5.595h1.34zm3.375 1.11c.165-.18.34-.35.525-.5.185-.15.38-.27.59-.38.206-.1.426-.19.66-.24.23-.06.482-.08.752-.08.416 0 .782.07 1.1.21.317.14.582.33.794.59.22.26.38.56.49.91.11.36.17.75.17 1.18V42h-1.34v-4.837c0-.576-.13-1.022-.39-1.34-.26-.317-.66-.476-1.19-.476-.39 0-.76.095-1.1.285-.34.19-.65.448-.94.773V42h-1.34v-7.597h.8c.19 0 .31.092.36.277l.11.825zm9.338 6.62c-.6 0-1.062-.17-1.384-.51-.323-.33-.484-.82-.484-1.45v-4.65h-.915c-.08 0-.148-.02-.203-.07-.055-.05-.082-.12-.082-.22v-.53l1.245-.15.308-2.35c.014-.08.048-.14.1-.18.053-.05.122-.07.207-.07h.675v2.61h2.197v.96h-2.197v4.56c0 .32.077.56.232.71.156.16.355.24.6.24.14 0 .262-.02.364-.06.11-.04.2-.08.27-.12.08-.05.14-.09.19-.13.05-.03.1-.05.14-.05.07 0 .14.04.19.13l.39.64c-.23.22-.5.39-.83.51-.32.13-.66.19-1 .19zm8.294-7.72V42h-1.335v-7.597h1.335zm.285-2.39c0 .13-.026.25-.078.37-.06.11-.13.21-.21.3-.09.09-.19.15-.31.21-.12.05-.24.07-.37.07s-.25-.02-.37-.07c-.11-.05-.21-.12-.3-.2s-.16-.19-.21-.3c-.05-.11-.08-.23-.08-.36 0-.13.02-.25.07-.37s.12-.22.2-.31c.08-.09.18-.16.29-.21.11-.05.23-.08.36-.08s.25.03.37.08.22.12.31.21c.08.09.15.19.21.31.05.12.07.24.07.37v.01zm6.33 3.64c-.06.11-.152.17-.277.17-.075 0-.16-.02-.255-.08s-.21-.12-.35-.18c-.136-.06-.3-.13-.49-.18-.19-.05-.415-.08-.675-.08-.225 0-.427.03-.607.09s-.334.14-.462.24c-.12.1-.22.22-.29.35-.07.13-.1.28-.1.43 0 .2.06.36.17.49.11.13.26.24.45.34.19.1.4.18.63.25.24.07.48.15.73.23.25.08.49.18.73.28.24.1.45.22.63.37s.34.34.45.55c.12.22.17.48.17.79 0 .35-.06.68-.19.97-.12.3-.31.56-.55.78-.24.22-.54.39-.9.51-.35.13-.76.19-1.23.19-.53 0-1.01-.08-1.44-.26-.43-.17-.79-.39-1.09-.66l.32-.51c.04-.06.09-.11.15-.15.06-.03.13-.05.21-.05.09 0 .19.04.29.11.1.07.22.14.37.23.14.08.32.16.52.23.21.07.46.11.77.11.26 0 .49-.03.68-.1.2-.07.36-.16.49-.27.13-.11.23-.25.29-.4.06-.15.09-.31.09-.48 0-.21-.06-.38-.17-.52-.11-.13-.26-.25-.44-.35-.19-.1-.4-.18-.63-.25-.24-.07-.48-.15-.73-.23-.24-.08-.49-.17-.72-.27-.24-.1-.45-.23-.63-.38s-.33-.35-.44-.58c-.11-.23-.17-.51-.17-.83 0-.29.06-.57.18-.84s.29-.5.52-.7c.23-.2.51-.36.85-.48.34-.12.72-.18 1.15-.18.5 0 .95.08 1.35.24.4.15.74.37 1.03.64l-.3.49zm10.028 2.93c-.615.02-1.14.07-1.57.15-.434.08-.786.18-1.06.3-.27.12-.47.27-.59.44-.124.17-.185.36-.185.57 0 .2.032.37.097.52.066.14.154.26.267.36.112.09.245.16.397.2.16.04.32.07.5.07.24 0 .45-.02.65-.07s.38-.11.55-.2c.17-.09.34-.2.5-.32.16-.13.31-.27.46-.43v-1.6zm-4.313-3.1c.42-.4.873-.7 1.358-.9.485-.2 1.022-.3 1.613-.3.425 0 .802.07 1.132.21.33.14.607.34.833.59.225.25.394.55.51.91.115.35.172.74.172 1.17V42h-.593c-.13 0-.23-.02-.3-.064-.07-.042-.124-.126-.164-.25l-.15-.72c-.2.184-.395.348-.585.49-.19.143-.39.263-.6.36-.21.098-.434.173-.672.225-.237.06-.5.08-.79.08-.296 0-.573-.04-.834-.12-.26-.08-.486-.2-.678-.37-.193-.16-.345-.37-.458-.62-.112-.25-.168-.55-.168-.89 0-.3.082-.59.247-.86.165-.27.432-.52.802-.74.37-.21.853-.39 1.448-.53.595-.13 1.325-.21 2.19-.23v-.59c0-.59-.127-1.03-.383-1.34-.255-.3-.627-.45-1.117-.45-.33 0-.606.05-.83.13-.22.09-.414.18-.576.28-.17.1-.31.2-.42.28-.12.09-.24.13-.35.13-.09 0-.17-.02-.24-.07-.07-.05-.12-.1-.17-.17l-.24-.43zm13.898-1.1V42h-.795c-.19 0-.31-.092-.36-.278l-.105-.817c-.33.365-.7.66-1.11.88-.41.224-.88.335-1.41.335-.415 0-.78-.07-1.1-.206-.316-.138-.582-.33-.797-.58-.216-.252-.377-.554-.484-.91-.11-.354-.17-.746-.17-1.176v-4.845h1.33v4.845c0 .575.13 1.02.39 1.335.26.315.66.472 1.2.472.39 0 .76-.094 1.1-.28.34-.19.66-.447.95-.777v-5.595h1.33zm4.447 7.72c-.6 0-1.06-.16-1.383-.5-.323-.33-.484-.82-.484-1.45v-4.65h-.915c-.08 0-.148-.02-.202-.07-.055-.05-.083-.12-.083-.22v-.54l1.245-.15.308-2.35c.014-.07.048-.14.1-.18.053-.05.122-.07.207-.07h.675v2.61h2.197v.97h-2.197v4.56c0 .32.077.56.233.71.155.16.354.23.6.23.14 0 .26-.02.363-.06.11-.04.2-.08.27-.12.08-.04.14-.08.19-.12.05-.04.1-.05.14-.05.07 0 .13.04.19.13l.39.64c-.23.21-.5.38-.83.5-.32.12-.66.18-1 .18zm4.388-6.7c.325-.34.685-.62 1.08-.82.395-.2.85-.31 1.365-.31.415 0 .78.07 1.1.21.316.14.58.33.794.59.212.25.373.56.483.91.11.36.165.75.165 1.18V42h-1.342v-4.837c0-.576-.13-1.022-.394-1.34-.262-.317-.66-.476-1.196-.476-.395 0-.764.095-1.106.285-.343.19-.66.448-.95.773V42h-1.34l-.002-11.047h1.343v4.462zm10.23-1.13c.555 0 1.055.1 1.5.28.445.19.825.45 1.14.79.315.34.556.75.724 1.24.16.49.25 1.02.25 1.62 0 .6-.09 1.14-.25 1.62-.17.48-.41.89-.73 1.23-.32.34-.7.6-1.14.79-.45.19-.95.28-1.5.28-.56 0-1.07-.09-1.51-.27-.45-.18-.83-.44-1.15-.78-.32-.34-.56-.75-.73-1.23-.17-.48-.25-1.02-.25-1.62 0-.6.08-1.13.25-1.62.17-.48.41-.89.72-1.23.31-.34.69-.6 1.14-.79.44-.19.95-.28 1.51-.28zm0 6.78c.75 0 1.31-.25 1.68-.75.37-.5.555-1.2.555-2.1 0-.9-.185-1.61-.555-2.11-.37-.5-.93-.76-1.68-.76-.38 0-.71.07-.994.2-.28.13-.51.32-.7.57-.18.25-.32.55-.42.9-.09.36-.14.76-.14 1.21 0 .9.19 1.6.56 2.11.38.5.94.75 1.7.75zm6.57-5.13c.24-.52.535-.92.885-1.22.35-.29.777-.44 1.282-.44.16 0 .314.02.462.06.147.04.278.09.394.17l-.098 1c-.03.13-.105.19-.225.19-.07 0-.172-.02-.308-.05-.135-.03-.287-.04-.457-.04-.24 0-.454.04-.64.11-.19.07-.356.17-.504.31-.147.14-.28.31-.397.51-.12.2-.23.43-.32.69V42h-1.35v-7.597h.76c.14 0 .24.027.3.082.05.055.09.15.11.285l.09 1.155zm5.603-1.52V42h-1.335v-7.597h1.334zm.285-2.38c0 .13-.027.25-.08.37-.052.12-.122.22-.21.3-.087.09-.19.16-.307.21-.117.05-.24.08-.37.08s-.252-.02-.365-.07c-.11-.05-.21-.12-.29-.2-.08-.09-.15-.19-.2-.3-.05-.11-.07-.23-.07-.36 0-.13.03-.25.08-.37s.12-.22.21-.31.19-.16.3-.21c.11-.05.24-.07.37-.07s.25.02.37.07.22.12.31.21.16.19.21.31c.05.12.08.24.08.37zM298.87 35c0 .1-.016.19-.05.28-.03.09-.075.17-.13.23l-4.118 5.48h4.156V42h-5.723v-.555c0-.065.015-.14.045-.23.03-.086.075-.17.135-.25l4.14-5.513h-4.087v-1.05h5.632v.57zm6.48 2.4c0-.31-.044-.59-.13-.85-.09-.26-.216-.48-.384-.67-.167-.19-.37-.33-.61-.43-.24-.1-.513-.15-.818-.15-.64 0-1.147.19-1.52.56-.372.37-.603.89-.693 1.55h4.155zm1.08 3.57c-.165.2-.362.38-.593.52-.23.15-.476.27-.738.37-.27.096-.54.167-.82.215-.28.05-.56.07-.84.07-.53 0-1.01-.09-1.45-.265-.45-.18-.83-.44-1.15-.78-.33-.344-.58-.767-.76-1.273-.18-.5-.27-1.08-.27-1.74 0-.53.08-1.02.24-1.48.16-.46.39-.86.7-1.195.3-.335.67-.6 1.11-.793.44-.19.94-.29 1.49-.29.45 0 .87.08 1.26.23.39.15.72.37 1 .66.28.29.5.64.66 1.06.16.42.24.9.24 1.44 0 .21-.02.35-.07.42s-.13.1-.26.1h-5.08c.01.48.08.9.2 1.25.11.35.28.65.49.89.21.23.46.41.75.53.29.12.61.18.97.18.33 0 .62-.04.86-.11.24-.08.45-.16.63-.25.17-.09.32-.18.44-.26.11-.08.21-.12.3-.12.11 0 .2.05.26.13l.37.49zm6.705-4.72c-.25-.334-.52-.57-.81-.7-.29-.133-.615-.2-.975-.2-.705 0-1.247.25-1.627.76-.38.507-.57 1.226-.57 2.16 0 .497.042.92.127 1.27.085.355.21.645.375.87.165.23.367.396.608.5.24.107.512.16.817.16.44 0 .824-.1 1.15-.3.33-.2.63-.48.905-.848v-3.67zm1.335-5.26V42h-.795c-.19 0-.31-.092-.36-.278l-.12-.922c-.325.39-.695.705-1.11.945-.415.24-.895.36-1.44.36-.435 0-.83-.084-1.185-.25-.355-.17-.657-.415-.907-.74s-.443-.73-.578-1.215c-.135-.485-.203-1.042-.203-1.672 0-.56.075-1.082.226-1.564.15-.483.364-.9.644-1.257.28-.355.624-.633 1.032-.836.407-.2.866-.3 1.376-.3.465 0 .864.08 1.196.24.333.16.63.38.89.66v-4.21h1.334zM17.837 55.29c0 1.07.137 2.11.41 3.12.272 1.01.67 1.97 1.195 2.88.08.152.1.27.06.36-.04.08-.097.15-.172.2l-.592.36c-.376-.57-.694-1.14-.957-1.71-.26-.56-.47-1.13-.63-1.7-.16-.57-.28-1.15-.35-1.72-.07-.58-.11-1.17-.11-1.78 0-.61.04-1.2.12-1.78.08-.58.19-1.16.36-1.72.16-.57.38-1.14.64-1.7.27-.57.59-1.14.96-1.72l.59.37c.08.05.14.11.18.2.04.08.02.19-.06.34-.52.91-.92 1.87-1.19 2.88-.27 1.01-.41 2.05-.41 3.12h.01zm9.63-2.88l-4.237 9.84c-.045.1-.1.18-.17.24-.066.06-.17.09-.31.09h-.99l1.387-3.02-3.134-7.16h1.154c.116 0 .207.03.274.08.07.05.12.12.14.19l2.04 4.78c.08.21.15.43.2.66.07-.24.15-.46.23-.67l1.98-4.78c.03-.08.08-.15.16-.2.08-.05.16-.08.25-.08h1.06zm5.145 4.18c-.615.02-1.138.07-1.57.15-.433.072-.786.18-1.058.3-.273.124-.47.27-.593.44-.12.17-.18.36-.18.57 0 .2.04.37.1.51.07.14.16.26.27.35.12.09.25.16.4.2.15.04.32.06.49.06.24 0 .45-.02.65-.07s.38-.117.55-.207c.18-.09.34-.2.5-.322.16-.12.31-.26.46-.42v-1.58zM28.3 53.48c.42-.405.872-.707 1.357-.907.486-.2 1.023-.3 1.613-.3.425 0 .802.07 1.133.21.33.14.607.334.832.584.225.25.395.553.51.908.115.357.172.747.172 1.17V60h-.592c-.13 0-.23-.02-.3-.064-.07-.042-.125-.126-.165-.25l-.15-.72c-.2.184-.395.348-.585.49-.19.143-.39.263-.6.36-.21.098-.434.173-.67.225-.24.06-.502.08-.793.08-.295 0-.572-.04-.832-.12-.26-.08-.486-.2-.68-.37-.19-.16-.344-.37-.456-.62-.113-.25-.17-.55-.17-.89 0-.3.083-.59.248-.86.166-.27.433-.52.803-.74.37-.21.852-.39 1.447-.53.596-.13 1.325-.21 2.19-.23v-.59c0-.59-.127-1.03-.382-1.34-.255-.3-.627-.45-1.117-.45-.33 0-.607.05-.83.13-.222.09-.414.18-.577.28-.162.1-.302.2-.42.28-.117.09-.233.13-.35.13-.09 0-.166-.02-.23-.07-.066-.05-.12-.1-.166-.17l-.24-.43zm14.025-1.072l-4.238 9.84c-.045.1-.1.18-.168.24-.07.06-.18.09-.32.09h-.99L38 59.56l-3.134-7.155h1.154c.116 0 .207.028.275.086.066.06.112.12.138.19l2.032 4.79c.08.21.147.43.203.66.07-.23.144-.45.224-.66l1.973-4.78c.03-.08.08-.14.154-.2.07-.05.15-.08.24-.08h1.06zm2.782-3.15v4.29c0 .225-.004.444-.014.66-.01.215-.023.43-.038.648-.015.22-.034.44-.056.67-.03.228-.05.47-.08.73h-.9c-.03-.26-.06-.502-.08-.73l-.06-.67c-.02-.214-.03-.43-.04-.646-.01-.215-.02-.434-.02-.66v-4.29h1.28zM43.51 59.18c0-.13.024-.252.07-.367.05-.116.115-.215.2-.3.085-.086.184-.153.296-.203.113-.05.236-.075.37-.075.132 0 .253.027.365.077.12.05.22.116.3.202.09.084.16.183.21.3.05.114.08.236.08.366 0 .135-.02.26-.07.37-.05.114-.11.212-.2.297-.08.086-.18.152-.29.2-.11.047-.23.07-.36.07-.13 0-.26-.023-.37-.07-.11-.048-.21-.114-.29-.2-.08-.085-.15-.183-.2-.296-.04-.11-.07-.23-.07-.37zm5.138-3.892c0-1.07-.137-2.11-.41-3.12-.272-1.01-.67-1.97-1.196-2.88-.04-.076-.064-.142-.075-.2-.01-.057-.007-.107.008-.15.015-.042.04-.08.07-.112.034-.03.07-.06.11-.083l.593-.367c.375.58.693 1.15.956 1.716.262.564.475 1.13.637 1.7.17.565.29 1.14.36 1.72.08.58.12 1.17.12 1.776 0 .61-.03 1.204-.11 1.782-.07.577-.19 1.15-.35 1.72-.16.57-.37 1.138-.63 1.703-.26.567-.58 1.136-.95 1.71l-.59-.36c-.04-.024-.07-.052-.11-.085-.03-.03-.05-.07-.07-.11-.01-.044-.02-.095-.01-.155s.04-.13.08-.205c.53-.91.93-1.87 1.2-2.88.27-1.01.41-2.05.41-3.12zm2.812 6.532c-.04-.035-.067-.067-.083-.097-.015-.03-.022-.07-.022-.113 0-.035.01-.07.034-.105.02-.033.04-.065.07-.095l.19-.218c.08-.09.15-.197.23-.32.08-.12.15-.257.22-.405.07-.144.11-.3.15-.466-.02.01-.03.01-.05.01h-.05c-.26 0-.47-.08-.64-.26-.16-.17-.25-.39-.25-.66 0-.23.08-.43.24-.6.16-.16.38-.24.65-.24.15 0 .28.03.4.09.11.06.21.13.28.23.07.1.13.21.17.34.04.13.06.27.06.42 0 .23-.03.46-.1.7-.06.25-.16.49-.28.72-.12.24-.27.47-.45.7-.18.23-.38.43-.6.62l-.23-.21zm8.67-3.645c.245.33.514.563.806.698.293.137.614.204.964.204.715 0 1.262-.25 1.642-.757.38-.505.57-1.257.57-2.257 0-.93-.168-1.615-.506-2.05-.337-.44-.818-.66-1.444-.66-.435 0-.813.1-1.136.3-.322.2-.62.484-.896.85v3.674zm0-4.67c.32-.37.68-.666 1.084-.887.402-.22.866-.33 1.39-.33.446 0 .847.085 1.205.256.35.17.66.416.91.738.25.323.44.714.57 1.174.13.46.2.978.2 1.553 0 .61-.08 1.17-.23 1.68-.15.5-.37.93-.65 1.29-.29.36-.63.63-1.04.83-.41.19-.86.29-1.37.29-.5 0-.92-.1-1.27-.28-.35-.19-.64-.46-.9-.8l-.07.69c-.04.19-.16.28-.35.28h-.86V48.95h1.35v4.544zm13.305-1.096V60h-.795c-.19 0-.31-.092-.36-.278l-.105-.817c-.33.365-.7.66-1.11.88-.41.224-.88.335-1.41.335-.415 0-.78-.07-1.1-.206-.316-.138-.582-.33-.798-.58-.215-.252-.376-.554-.483-.91-.108-.354-.162-.746-.162-1.176v-4.845h1.336v4.845c0 .575.13 1.02.393 1.335.27.315.67.472 1.21.472.4 0 .77-.094 1.11-.28.35-.19.66-.447.95-.777v-5.595h1.34zm4.447 7.71c-.6 0-1.06-.17-1.383-.5-.33-.34-.49-.82-.49-1.45v-4.65h-.91c-.08 0-.15-.03-.21-.07-.06-.05-.08-.12-.08-.22v-.53l1.24-.16.3-2.35c.01-.08.05-.14.1-.19.05-.05.12-.07.2-.07h.67v2.61h2.19v.96h-2.19v4.56c0 .32.07.56.23.71.15.15.35.23.6.23.14 0 .26-.02.36-.06.1-.04.19-.08.26-.13.08-.05.14-.09.19-.13.05-.04.1-.06.14-.06.07 0 .13.04.19.13l.39.64c-.23.21-.51.38-.84.5-.33.12-.66.18-1.01.18zm8.655-.12h-1.455V49.25h1.456V60zm10.695-6.35c-.06.11-.152.16-.277.16-.075 0-.16-.03-.255-.08-.095-.06-.21-.12-.35-.19-.136-.07-.3-.13-.49-.19s-.415-.09-.675-.09c-.225 0-.427.03-.608.08-.18.06-.333.14-.46.24-.128.1-.226.21-.293.35-.068.13-.102.27-.102.43 0 .19.057.35.17.48.112.13.26.24.446.34.185.09.394.18.63.25.235.07.476.15.723.23.25.08.49.18.73.28.24.1.45.22.63.37s.34.33.45.55c.12.22.17.48.17.78 0 .35-.06.67-.19.97-.12.3-.31.55-.55.77-.24.22-.54.39-.9.51-.35.13-.76.19-1.23.19-.53 0-1.01-.09-1.44-.26-.43-.17-.79-.39-1.09-.66l.32-.51c.04-.06.09-.11.15-.15.06-.03.13-.05.21-.05.09 0 .19.03.29.1.1.07.22.15.37.23.14.09.32.16.52.23.21.07.46.1.77.1.26 0 .49-.04.69-.1.2-.07.36-.16.49-.28.13-.12.23-.25.29-.4.06-.15.09-.31.09-.48 0-.21-.06-.39-.17-.52-.11-.14-.26-.26-.44-.36-.19-.1-.4-.18-.64-.26-.24-.08-.48-.15-.73-.23-.25-.08-.49-.17-.73-.28-.23-.1-.45-.23-.63-.39s-.33-.34-.44-.57c-.11-.23-.17-.5-.17-.83 0-.29.06-.57.18-.84s.3-.5.53-.71c.23-.2.52-.36.85-.48.34-.12.72-.18 1.15-.18.5 0 .95.08 1.35.23.4.15.74.37 1.03.65l-.3.49zm9.12 6.34h-1.335v-6.48h-3.914v4.56c0 .32.077.56.232.71.155.15.355.23.6.23.14 0 .26-.02.364-.06.1-.04.19-.08.26-.13s.14-.09.19-.13c.05-.04.1-.06.14-.06.07 0 .13.04.19.12l.39.64c-.23.21-.51.38-.84.5-.33.12-.66.18-1.01.18-.6 0-1.06-.17-1.39-.51-.32-.34-.49-.82-.49-1.45V53.5h-.92c-.08 0-.15-.025-.2-.07-.06-.05-.09-.123-.09-.224v-.53l1.24-.166.31-2.34c.02-.077.05-.14.1-.186.05-.047.12-.07.21-.07h.67v2.617h5.25V60zm.33-10.04c0 .13-.026.25-.078.36-.053.11-.123.21-.21.29-.088.08-.19.15-.304.2-.115.05-.237.07-.368.07-.13 0-.25-.02-.363-.07-.12-.05-.22-.12-.3-.21-.09-.09-.16-.19-.21-.3-.05-.11-.08-.24-.08-.37s.02-.25.07-.37.11-.22.2-.31c.08-.09.18-.16.29-.21.11-.05.23-.08.36-.08.13 0 .25.03.37.08.11.05.21.12.3.2s.16.19.21.31c.05.12.08.24.08.37zm3.24-1.01V60h-1.334V48.953h1.335zm3.54 0V60h-1.335V48.953h1.336zm7.26 4.55c.166-.19.34-.35.526-.5.185-.15.38-.28.588-.39.208-.11.428-.19.66-.25.233-.06.484-.09.754-.09.415 0 .78.07 1.1.2.316.14.58.33.794.58.212.25.373.55.483.91.11.35.166.75.166 1.18V60h-1.343v-4.837c0-.576-.13-1.022-.394-1.34-.262-.317-.66-.476-1.196-.476-.395 0-.764.095-1.106.285-.343.19-.66.448-.95.773V60h-1.34v-7.597h.8c.19 0 .31.092.354.277l.105.825zm12.195 1.87c0-.31-.043-.6-.13-.85-.088-.26-.216-.48-.383-.67-.168-.19-.37-.34-.612-.44-.24-.11-.512-.16-.817-.16-.64 0-1.146.18-1.52.56-.37.37-.603.88-.693 1.54h4.155zm1.08 3.56c-.165.2-.362.37-.592.52-.23.15-.476.27-.74.36-.26.1-.532.17-.813.21-.28.04-.557.07-.832.07-.525 0-1.01-.09-1.45-.27-.444-.18-.826-.44-1.15-.78-.32-.35-.572-.77-.752-1.28-.18-.51-.27-1.09-.27-1.74 0-.53.08-1.03.243-1.49.17-.46.4-.86.71-1.2.31-.34.68-.6 1.12-.79.44-.19.94-.29 1.49-.29.46 0 .88.08 1.27.23.39.15.72.37 1.01.66.29.29.51.64.67 1.06.16.43.24.91.24 1.45 0 .21-.02.35-.06.42s-.13.1-.25.1h-5.08c.02.48.08.89.2 1.25.12.36.28.65.49.89.21.24.46.42.75.53.29.11.62.17.98.17.34 0 .63-.04.87-.12.24-.08.45-.16.63-.25s.32-.17.44-.25c.12-.08.22-.12.31-.12.11 0 .19.04.25.12l.38.49zm6.84-3.57c0-.31-.043-.6-.13-.85-.088-.26-.216-.48-.383-.67-.168-.19-.37-.34-.612-.44-.24-.11-.512-.16-.817-.16-.64 0-1.146.18-1.52.56-.37.37-.602.88-.692 1.54h4.155zm1.08 3.56c-.165.2-.362.37-.592.52-.23.15-.476.27-.74.36-.26.09-.532.16-.813.21-.28.05-.557.07-.832.07-.525 0-1.01-.09-1.45-.27-.444-.18-.826-.44-1.15-.78-.32-.34-.572-.77-.752-1.27-.18-.51-.27-1.08-.27-1.74 0-.53.08-1.02.243-1.48.17-.46.4-.86.71-1.2.31-.34.68-.6 1.12-.8.44-.19.94-.29 1.49-.29.46 0 .88.08 1.27.23.39.15.72.37 1.01.66.29.29.51.64.67 1.06.16.42.24.9.24 1.44 0 .21-.02.35-.06.42s-.13.11-.25.11h-5.08c.02.48.08.89.2 1.25.12.35.28.65.49.89.21.23.46.41.75.53.29.11.62.17.98.17.34 0 .63-.04.87-.12.24-.08.45-.16.63-.25s.32-.18.44-.26c.12-.08.22-.12.3-.12.11 0 .2.04.26.13l.38.49zm6.706-4.73c-.25-.34-.52-.57-.81-.7-.29-.14-.615-.2-.975-.2-.706 0-1.248.25-1.628.76-.38.5-.57 1.22-.57 2.16 0 .49.043.91.128 1.27.084.35.21.64.375.87.165.22.367.39.607.5.24.1.512.15.817.15.44 0 .824-.1 1.152-.3.32-.2.62-.48.9-.85V54.2zm1.335-5.26V60h-.796c-.19 0-.31-.092-.36-.278l-.12-.922c-.325.39-.694.705-1.11.945-.415.24-.894.36-1.44.36-.435 0-.83-.084-1.185-.25-.355-.17-.657-.415-.907-.74s-.442-.73-.577-1.215c-.136-.485-.203-1.042-.203-1.672 0-.56.075-1.082.225-1.564.15-.483.365-.9.645-1.257.28-.355.624-.633 1.03-.836.41-.2.867-.3 1.377-.3.466 0 .864.08 1.197.24.332.16.628.38.888.66v-4.21h1.335zm7.297 0v6.5h.345c.1 0 .184-.02.25-.04.07-.03.14-.09.215-.17l2.4-2.57c.07-.09.144-.16.22-.2.08-.05.182-.07.313-.07h1.207l-2.798 2.97c-.135.17-.28.3-.435.4.09.06.172.13.244.21.073.08.14.16.207.26l2.97 3.75H161.2c-.115 0-.214-.02-.296-.06-.083-.04-.154-.11-.214-.21l-2.498-3.12c-.075-.1-.148-.17-.22-.2-.073-.04-.184-.05-.335-.05h-.382V60h-1.343V48.953h1.343zm7.537 4.55c.166-.19.34-.35.525-.5.186-.15.382-.28.59-.39.207-.11.427-.19.66-.25.232-.06.483-.09.753-.09.415 0 .78.07 1.1.2.316.13.58.33.794.58.212.25.373.55.483.91.11.35.166.75.166 1.18V60h-1.343v-4.837c0-.576-.13-1.022-.394-1.34-.262-.317-.66-.476-1.196-.476-.395 0-.764.095-1.106.285-.343.19-.66.448-.95.773V60h-1.34v-7.597h.8c.19 0 .31.092.353.277l.105.825zm10.313-1.22c.555 0 1.055.09 1.5.27.445.19.825.45 1.14.79.315.34.556.75.724 1.23.16.48.25 1.02.25 1.62 0 .6-.09 1.14-.25 1.62-.17.48-.41.89-.73 1.23-.32.34-.7.6-1.14.78-.45.18-.95.27-1.5.27-.56 0-1.07-.09-1.51-.28-.45-.18-.83-.44-1.15-.78-.32-.34-.56-.75-.73-1.23-.17-.48-.25-1.02-.25-1.62 0-.6.08-1.14.25-1.62.17-.48.41-.9.72-1.24.31-.34.69-.6 1.14-.79.44-.19.95-.28 1.51-.28zm0 6.78c.75 0 1.31-.25 1.68-.76.37-.51.555-1.21.555-2.11 0-.91-.185-1.61-.555-2.12-.37-.51-.93-.76-1.68-.76-.38 0-.71.06-.994.2-.28.13-.51.31-.7.56-.18.25-.32.55-.42.9-.09.36-.14.76-.14 1.21 0 .9.19 1.6.56 2.1.38.5.94.75 1.7.75zm15.668-6.66l-2.46 7.59h-1.058c-.13 0-.22-.09-.27-.26l-1.68-5.16c-.04-.12-.073-.23-.097-.35l-.076-.35-.075.35c-.024.11-.057.23-.097.35l-1.71 5.14c-.045.17-.145.25-.3.25h-1.005l-2.46-7.6h1.05c.105 0 .194.02.266.08.08.05.13.12.15.19l1.46 4.89c.09.36.15.7.2 1.02.05-.17.09-.34.14-.51.05-.17.1-.34.16-.52l1.61-4.92c.03-.08.07-.14.13-.19.07-.05.14-.07.23-.07h.59c.1 0 .19.03.25.08s.11.11.14.19l1.57 4.92c.06.17.11.34.15.51.05.17.09.33.13.5.03-.17.06-.33.1-.5.04-.17.08-.34.13-.52l1.49-4.89c.03-.08.08-.15.15-.2.07-.05.16-.08.25-.08h1.01zm15.007 0l-2.46 7.6h-1.058c-.13 0-.22-.09-.27-.26l-1.68-5.16c-.04-.11-.072-.23-.097-.35l-.075-.35-.075.35c-.025.11-.058.23-.097.35l-1.71 5.14c-.046.17-.145.25-.3.25h-1.006l-2.46-7.6h1.05c.106 0 .194.03.267.08.07.05.12.12.14.19l1.45 4.89c.08.36.15.7.2 1.02.04-.17.09-.33.13-.5l.15-.52 1.6-4.92c.02-.08.07-.14.13-.19.06-.05.14-.08.23-.08h.58c.1 0 .18.02.24.07s.11.11.13.19l1.56 4.92.15.52c.04.17.09.34.13.5.02-.17.06-.33.09-.5l.12-.52 1.48-4.89c.03-.08.07-.15.14-.2.07-.05.15-.08.24-.08h1zm2.648 1.01c.325-.35.684-.62 1.08-.83.395-.21.85-.31 1.364-.31.416 0 .782.07 1.1.21.317.13.582.33.794.58.213.25.374.55.484.91.11.35.165.75.165 1.18V60h-1.343v-4.837c0-.576-.13-1.022-.393-1.34-.27-.317-.67-.476-1.2-.476-.4 0-.77.095-1.11.285-.34.19-.66.448-.95.773V60h-1.35V48.953h1.34v4.462zm12.112 1.96c0-.31-.044-.6-.13-.86-.09-.26-.216-.48-.384-.67-.167-.19-.37-.34-.61-.44-.24-.1-.513-.15-.82-.15-.64 0-1.145.18-1.517.56-.38.37-.61.88-.7 1.54h4.15zm1.08 3.56c-.165.2-.362.37-.593.52-.23.15-.476.27-.738.36-.27.09-.54.17-.82.21-.28.05-.56.07-.83.07-.53 0-1.01-.09-1.45-.27-.44-.18-.83-.44-1.15-.78-.33-.35-.58-.77-.76-1.28-.18-.51-.27-1.09-.27-1.74 0-.53.08-1.03.24-1.49.16-.46.39-.86.7-1.19.3-.34.67-.6 1.12-.8.44-.19.93-.29 1.48-.29.45 0 .87.08 1.26.23.39.15.72.37 1 .66.28.29.5.64.66 1.06.16.42.24.9.24 1.44 0 .21-.02.35-.07.42s-.13.1-.26.1h-5.08c.01.48.08.9.2 1.25.11.36.28.65.49.89.21.24.46.42.75.54.29.11.61.17.97.17.33 0 .62-.04.86-.12.24-.08.45-.16.62-.25s.32-.18.44-.25c.12-.08.22-.12.3-.12.11 0 .2.05.26.13l.37.49zm3.023-5.01c.24-.52.534-.93.885-1.22.35-.29.777-.44 1.282-.44.16 0 .314.01.46.05.15.03.28.09.395.16l-.097.99c-.03.12-.105.18-.226.18-.07 0-.172-.02-.307-.05s-.287-.05-.458-.05c-.24 0-.453.03-.64.1-.188.07-.356.18-.503.31-.148.14-.28.31-.398.51-.117.21-.224.44-.32.7V60h-1.34v-7.597h.764c.145 0 .245.027.3.082.055.055.093.15.113.285l.09 1.155zm8.97 1.45c0-.31-.044-.6-.132-.86-.08-.26-.21-.48-.38-.67-.17-.19-.37-.34-.61-.44-.24-.1-.51-.15-.82-.15-.64 0-1.14.18-1.52.56-.37.37-.6.88-.69 1.54h4.16zm1.08 3.56c-.166.2-.363.37-.593.52-.23.15-.476.27-.74.36-.26.09-.532.17-.813.21-.28.05-.557.07-.832.07-.525 0-1.01-.09-1.45-.27-.444-.18-.826-.44-1.15-.78-.32-.35-.572-.77-.752-1.28-.18-.51-.27-1.09-.27-1.74 0-.53.08-1.03.243-1.49.163-.46.396-.86.7-1.19.307-.34.68-.6 1.12-.8.44-.19.934-.29 1.484-.29.455 0 .876.08 1.264.23.387.15.722.37 1.005.66.28.29.5.64.66 1.06.16.42.24.9.24 1.44 0 .21-.02.35-.07.42s-.13.1-.26.1h-5.08c.01.48.08.9.2 1.25.12.36.28.65.49.89.21.24.46.42.75.54.29.11.61.17.97.17.33 0 .62-.04.86-.12.24-.08.45-.16.62-.25s.32-.18.44-.25c.11-.08.21-.12.3-.12.11 0 .19.05.25.13l.37.49zm7.927 1.18c-.6 0-1.06-.17-1.384-.5-.322-.34-.483-.82-.483-1.45V53.5h-.915c-.08 0-.148-.02-.203-.07-.055-.05-.082-.12-.082-.22v-.53l1.245-.16.307-2.35c.015-.073.05-.134.1-.182.054-.05.122-.07.207-.07h.675v2.617h2.198v.965h-2.197v4.56c0 .32.077.56.232.717.155.155.355.232.6.232.14 0 .26-.02.364-.06.102-.04.19-.08.266-.13.075-.05.14-.09.19-.13.054-.04.1-.06.14-.06.07 0 .132.04.188.12l.39.64c-.23.21-.508.38-.833.5-.325.12-.66.18-1.005.18zm6.21-7.84c.555 0 1.055.09 1.5.28.445.18.825.44 1.14.78.315.34.556.75.724 1.23.167.48.25 1.02.25 1.62 0 .6-.083 1.14-.25 1.62-.168.48-.41.89-.724 1.23-.315.34-.695.6-1.14.78-.445.18-.945.27-1.5.27-.56 0-1.064-.09-1.51-.27-.45-.18-.83-.44-1.145-.78-.315-.34-.556-.75-.724-1.23-.16-.48-.25-1.02-.25-1.62 0-.6.09-1.13.25-1.62.17-.48.41-.89.73-1.23.32-.34.7-.6 1.15-.78.45-.19.95-.28 1.51-.28zm0 6.78c.75 0 1.31-.25 1.68-.76.37-.5.555-1.21.555-2.11 0-.9-.185-1.61-.555-2.11-.37-.51-.93-.76-1.68-.76-.38 0-.71.06-.994.19-.282.13-.517.32-.705.56-.18.24-.32.54-.42.9-.09.36-.13.76-.13 1.21 0 .9.19 1.6.56 2.11.37.5.94.75 1.7.75zm13.567-5.41c-.06.11-.152.16-.277.16-.075 0-.16-.03-.255-.08-.095-.06-.21-.12-.35-.18-.136-.07-.3-.13-.49-.19s-.415-.09-.675-.09c-.225 0-.427.03-.608.09-.18.06-.333.13-.46.23-.128.1-.226.21-.293.35-.07.13-.11.27-.11.43 0 .19.05.36.17.49.11.13.26.24.44.34.18.09.39.17.63.25.23.07.47.15.72.23.25.08.49.17.72.27.23.1.44.23.63.38s.33.33.44.55c.11.22.17.48.17.78 0 .35-.07.67-.19.97-.13.3-.31.55-.56.77-.25.21-.55.39-.9.51-.36.13-.77.19-1.23.19-.53 0-1.01-.09-1.44-.26-.43-.17-.8-.39-1.1-.66l.31-.51c.04-.07.09-.12.14-.15.05-.04.12-.06.21-.06s.18.03.28.1c.1.07.22.15.36.23.14.09.31.16.52.23.2.07.46.1.76.1.26 0 .48-.03.68-.1.19-.07.35-.16.48-.28.13-.11.22-.24.29-.39.06-.15.09-.31.09-.48 0-.21-.06-.38-.17-.52-.12-.14-.26-.26-.45-.35-.19-.1-.4-.18-.63-.26-.24-.08-.48-.15-.73-.23-.25-.08-.49-.17-.73-.28-.24-.1-.45-.23-.64-.39s-.34-.35-.45-.58c-.11-.23-.17-.51-.17-.83 0-.29.06-.57.18-.84s.29-.5.52-.71c.23-.21.51-.37.84-.49.34-.12.72-.18 1.15-.18.5 0 .95.07 1.35.23.4.15.74.37 1.03.64l-.3.49zm7.156 1.71c0-.31-.044-.59-.132-.85-.08-.26-.21-.48-.38-.67-.17-.19-.37-.34-.61-.44-.24-.11-.51-.16-.81-.16-.64 0-1.14.18-1.52.56-.37.37-.6.88-.69 1.54h4.16zm1.08 3.56c-.166.2-.363.37-.593.52-.23.15-.476.27-.74.36-.26.09-.532.17-.813.21-.28.04-.557.07-.832.07-.525 0-1.01-.09-1.45-.27-.444-.18-.826-.44-1.15-.78-.32-.35-.572-.77-.752-1.28-.18-.51-.27-1.08-.27-1.74 0-.53.08-1.02.243-1.48.163-.46.396-.86.702-1.2.305-.34.677-.6 1.117-.8.44-.19.935-.29 1.485-.29.455 0 .876.08 1.264.23.387.15.722.37 1.005.66.28.29.5.64.66 1.06.16.42.24.9.24 1.44 0 .21-.02.35-.07.42s-.13.1-.26.1h-5.08c.01.48.08.89.19 1.25.12.35.28.65.49.89.21.24.46.41.75.53.29.11.61.17.97.17.33 0 .62-.04.86-.11.24-.08.45-.16.62-.25s.32-.17.44-.25c.11-.08.22-.11.3-.11.11 0 .19.04.25.12l.37.49zm3.014-5.43c.166-.19.34-.35.526-.5.185-.15.38-.28.588-.39.21-.11.43-.19.66-.25.24-.06.49-.09.76-.09.42 0 .78.07 1.1.2.32.14.58.33.8.58.21.25.38.56.49.91.11.36.17.75.17 1.18V60h-1.34v-4.837c0-.576-.13-1.022-.39-1.34-.26-.317-.66-.476-1.19-.476-.39 0-.76.095-1.1.285-.34.19-.66.448-.95.773V60h-1.35v-7.597h.81c.19 0 .31.092.35.277l.11.825zm12.06.7c-.25-.34-.52-.57-.81-.7-.29-.13-.614-.2-.974-.2-.706 0-1.248.25-1.628.76-.38.5-.57 1.22-.57 2.16 0 .49.042.92.127 1.27.086.35.21.64.376.87.165.23.367.39.607.5.24.1.512.15.817.15.44 0 .824-.1 1.152-.3.327-.2.628-.48.904-.85V54.2zm1.336-5.26V60h-.796c-.19 0-.31-.092-.36-.278l-.12-.922c-.325.39-.694.705-1.11.945-.415.24-.894.36-1.44.36-.435 0-.83-.084-1.184-.25-.356-.17-.658-.415-.908-.74s-.442-.73-.577-1.215c-.136-.485-.203-1.042-.203-1.672 0-.56.075-1.082.225-1.564.15-.483.365-.9.645-1.257.28-.355.624-.633 1.03-.836.41-.2.867-.3 1.377-.3.466 0 .864.08 1.197.24.33.16.62.38.88.66v-4.21h1.33zm10.072 7.63c-.615.02-1.14.07-1.57.15-.434.07-.786.18-1.06.3-.27.12-.47.27-.59.44-.124.17-.185.36-.185.57 0 .2.033.37.098.51s.153.26.266.35c.112.09.245.16.397.2.16.04.32.06.5.06.24 0 .45-.02.65-.07s.38-.12.55-.21c.18-.09.34-.19.5-.32.16-.12.31-.27.46-.43V56.5zm-4.313-3.1c.42-.4.873-.7 1.358-.9.485-.2 1.022-.3 1.612-.3.426 0 .803.07 1.133.21.33.14.607.33.833.58.225.25.394.55.51.91.115.35.172.74.172 1.17V60h-.593c-.13 0-.23-.02-.3-.064-.07-.042-.125-.126-.164-.25l-.15-.72c-.2.184-.395.348-.586.49-.19.143-.39.263-.6.36-.21.098-.433.173-.67.225-.238.06-.502.08-.792.08-.295 0-.572-.04-.832-.12-.26-.08-.487-.2-.68-.37-.192-.16-.344-.37-.457-.62-.112-.25-.168-.55-.168-.89 0-.3.082-.59.247-.86.165-.27.432-.52.803-.74.37-.21.852-.39 1.447-.53.595-.13 1.325-.21 2.19-.23v-.59c0-.59-.127-1.03-.382-1.34-.256-.3-.628-.45-1.118-.45-.33 0-.606.05-.83.13-.22.09-.414.18-.576.28-.17.1-.31.2-.42.28-.12.09-.24.13-.35.13-.09 0-.17-.02-.24-.07-.07-.05-.12-.1-.17-.17l-.24-.43zm8.91.03c.166-.18.34-.35.526-.5.185-.15.38-.28.588-.38.208-.11.428-.19.66-.25.233-.06.484-.09.754-.09.415 0 .78.07 1.1.2.316.14.58.33.794.58.212.25.373.56.483.91.11.36.166.75.166 1.18V60h-1.343v-4.837c0-.576-.13-1.022-.394-1.34-.262-.317-.66-.476-1.196-.476-.395 0-.764.095-1.106.285-.343.19-.66.448-.95.773V60h-1.34l-.002-7.597h.803c.19 0 .308.092.353.277l.104.825zm12.06.71c-.25-.34-.52-.57-.81-.7-.29-.14-.614-.2-.974-.2-.706 0-1.248.25-1.628.76-.38.5-.57 1.22-.57 2.16 0 .49.042.91.127 1.27.086.35.21.64.376.87.165.22.367.39.607.5.24.1.512.15.817.15.44 0 .824-.1 1.152-.3.32-.2.62-.48.9-.85V54.2zm1.336-5.26V60h-.796c-.19 0-.31-.092-.36-.278l-.12-.922c-.325.39-.694.705-1.11.945-.415.24-.894.36-1.44.36-.435 0-.83-.084-1.184-.25-.356-.17-.658-.415-.908-.74s-.442-.73-.577-1.215c-.136-.485-.203-1.042-.203-1.672 0-.56.075-1.082.225-1.564.15-.483.365-.9.645-1.257.28-.355.624-.633 1.03-.836.41-.2.867-.3 1.377-.3.466 0 .864.08 1.197.24.332.16.628.38.888.66v-4.21h1.336zm-296.783 23c.24-.52.535-.93.885-1.22.35-.29.777-.44 1.282-.44.16 0 .314.02.462.05.147.04.278.09.393.17l-.097.99c-.03.13-.105.19-.225.19-.07 0-.172-.02-.307-.05-.136-.03-.288-.05-.458-.05-.24 0-.454.03-.64.1-.19.07-.356.17-.504.31-.147.14-.28.31-.397.51-.12.2-.23.43-.32.69V78h-1.35v-7.597h.76c.14 0 .24.027.3.082.05.055.09.15.11.285l.09 1.155zm8.97 1.44c0-.31-.044-.6-.13-.86-.09-.25-.216-.48-.384-.66-.16-.19-.37-.33-.61-.43-.24-.1-.51-.15-.81-.15-.64 0-1.14.19-1.52.56-.37.37-.6.89-.69 1.55h4.15zm1.08 3.56c-.165.2-.362.37-.593.52-.23.15-.476.27-.738.36-.263.1-.534.17-.814.22-.28.04-.557.07-.832.07-.526 0-1.01-.09-1.452-.27-.442-.18-.825-.44-1.147-.78-.33-.35-.58-.77-.76-1.28-.18-.51-.27-1.09-.27-1.74 0-.53.08-1.03.24-1.49.16-.46.39-.86.7-1.2.3-.33.67-.6 1.11-.79.44-.19.93-.29 1.48-.29.45 0 .87.08 1.26.23.39.16.72.38 1 .66.28.29.5.65.66 1.07.16.42.24.9.24 1.44 0 .21-.02.35-.07.42s-.13.1-.26.1h-5.07c.01.48.08.9.2 1.25.11.35.28.65.49.89.21.23.46.41.75.53.29.11.61.17.97.17.33 0 .62-.04.86-.12.24-.08.45-.16.63-.25s.32-.18.44-.26c.12-.08.22-.12.3-.12.11 0 .19.04.25.13l.37.49zm7.042-5.19c-.04.06-.08.1-.12.13-.04.03-.094.05-.164.05-.076 0-.158-.03-.248-.09s-.2-.13-.334-.2c-.13-.07-.29-.14-.48-.2s-.43-.09-.71-.09c-.37 0-.7.07-.99.2-.28.13-.52.32-.71.57-.19.25-.34.56-.43.91-.1.36-.14.75-.14 1.2 0 .46.05.87.16 1.23s.26.66.45.9c.2.24.43.43.7.56.27.12.58.19.92.19.33 0 .59-.04.8-.12.21-.08.39-.17.52-.26.14-.1.26-.18.35-.26.09-.08.18-.12.27-.12.11 0 .2.04.26.12l.38.48c-.16.2-.35.38-.56.52-.21.14-.43.27-.67.36-.24.1-.49.17-.76.22-.26.04-.53.06-.81.06-.47 0-.92-.09-1.32-.27-.4-.17-.76-.42-1.06-.76-.3-.33-.53-.74-.7-1.22-.17-.49-.26-1.04-.26-1.66 0-.57.08-1.09.24-1.57.16-.48.39-.895.69-1.24.3-.35.67-.62 1.12-.82.44-.2.95-.29 1.53-.29.53 0 1 .09 1.41.26.41.17.77.42 1.08.73l-.35.48zm6.825 1.62c0-.31-.043-.59-.13-.85-.088-.25-.216-.48-.383-.66-.17-.19-.38-.33-.62-.43-.24-.11-.52-.16-.82-.16-.64 0-1.15.18-1.52.56-.37.37-.61.88-.7 1.54h4.15zm1.08 3.57c-.165.2-.362.38-.592.52-.23.15-.476.27-.74.37-.26.1-.532.17-.813.22-.28.05-.557.07-.832.07-.525 0-1.01-.09-1.45-.26-.444-.18-.826-.44-1.15-.78-.32-.35-.572-.77-.752-1.28-.18-.51-.27-1.09-.27-1.74 0-.53.08-1.03.243-1.49.163-.46.396-.86.7-1.2.307-.33.68-.6 1.12-.79.44-.19.934-.29 1.484-.29.455 0 .876.08 1.264.23.387.16.722.38 1.005.66.28.29.5.65.66 1.07.16.42.24.9.24 1.44 0 .21-.03.35-.07.42-.05.07-.13.1-.26.1h-5.08c.01.48.08.9.2 1.25.12.35.28.65.49.89.21.23.46.41.75.53.29.11.61.17.97.17.33 0 .62-.04.86-.12.24-.08.45-.16.62-.25s.32-.18.44-.25c.11-.08.21-.12.3-.12.11 0 .19.04.25.13l.37.49zm3.165-6.53V78h-1.334v-7.597h1.334zm.285-2.38c0 .13-.026.25-.078.36-.053.12-.123.22-.21.3-.088.09-.19.16-.308.21-.117.05-.24.08-.37.08s-.252-.02-.365-.07c-.11-.05-.21-.12-.29-.2-.08-.08-.15-.18-.2-.3-.05-.11-.07-.23-.07-.36 0-.13.03-.25.08-.37s.12-.22.2-.31c.09-.09.19-.15.3-.2.12-.05.24-.08.37-.08s.26.02.37.07c.12.05.22.12.31.2.09.08.16.19.21.3.05.12.08.24.08.37zm8.416 2.39L52.09 78h-1.2l-3.098-7.597h1.088c.11 0 .2.027.27.082.07.055.117.12.142.195l1.928 4.89c.06.185.112.365.157.54.046.175.088.35.128.525.04-.175.082-.35.127-.525.046-.175.1-.355.166-.54l1.95-4.89c.03-.08.08-.146.15-.2.07-.05.152-.078.247-.078h1.042zm6.104 2.97c0-.31-.043-.6-.13-.86-.088-.25-.216-.48-.383-.66-.17-.19-.38-.33-.62-.43-.24-.1-.51-.15-.82-.15-.64 0-1.15.19-1.52.56-.37.37-.61.89-.7 1.55h4.15zm1.08 3.56c-.165.2-.362.37-.592.52-.23.15-.476.27-.74.36-.26.1-.532.17-.813.22-.28.04-.557.07-.832.07-.525 0-1.01-.09-1.45-.27-.444-.18-.826-.44-1.15-.78-.32-.35-.572-.77-.753-1.28-.18-.5-.27-1.08-.27-1.74 0-.53.082-1.02.244-1.48.163-.46.396-.86.702-1.2.305-.33.677-.6 1.117-.79.44-.19.935-.29 1.485-.29.455 0 .876.08 1.264.23.387.16.722.38 1.005.66.28.29.5.65.66 1.07.16.42.24.9.24 1.44 0 .21-.02.35-.07.42s-.13.1-.26.1h-5.08c.01.48.08.9.2 1.25.12.35.28.65.49.89.21.23.46.41.75.53.29.12.61.17.97.17.33 0 .62-.04.86-.12.24-.08.45-.16.62-.25s.32-.18.44-.25c.11-.08.21-.12.3-.12.11 0 .19.04.25.13l.37.49zm11.775-6.53l-4.237 9.84c-.045.1-.1.18-.17.24-.066.06-.17.09-.31.09h-.99l1.388-3.02-3.136-7.16h1.156c.115 0 .206.03.273.08.07.05.12.12.14.19l2.04 4.78c.08.21.15.43.21.66.07-.24.15-.46.23-.67l1.97-4.78c.03-.08.09-.15.16-.2.08-.05.16-.08.25-.08h1.06zm4.17-.12c.556 0 1.055.09 1.5.27.446.19.825.45 1.14.79.316.34.557.75.724 1.23.17.49.26 1.03.26 1.62 0 .6-.08 1.14-.25 1.62-.17.48-.41.89-.72 1.23-.31.34-.69.6-1.14.79-.44.18-.94.27-1.5.27s-1.06-.09-1.51-.28c-.45-.18-.83-.44-1.14-.78-.31-.34-.55-.75-.72-1.23-.17-.48-.25-1.02-.25-1.62 0-.59.09-1.13.25-1.61.17-.48.41-.89.73-1.23.32-.34.7-.6 1.15-.78.45-.19.95-.28 1.51-.28zm0 6.78c.75 0 1.31-.26 1.68-.76.37-.51.555-1.21.555-2.11 0-.91-.184-1.61-.555-2.12-.37-.51-.93-.76-1.68-.76-.38 0-.71.06-.993.19-.283.13-.518.31-.705.56-.19.24-.33.54-.42.9-.1.35-.14.76-.14 1.21 0 .9.18 1.6.56 2.1.37.5.93.75 1.69.75zm11.55-6.66V78h-.794c-.19 0-.31-.092-.36-.278l-.105-.817c-.33.365-.7.66-1.11.88-.41.224-.88.335-1.41.335-.416 0-.782-.07-1.1-.206-.317-.138-.583-.33-.798-.582-.215-.25-.376-.552-.484-.907-.107-.355-.16-.747-.16-1.177V70.4h1.334v4.846c0 .575.13 1.02.394 1.334.262.316.663.473 1.204.473.395 0 .763-.094 1.106-.28.342-.19.658-.447.948-.778V70.4h1.336zm3.383 1.52c.24-.52.535-.93.885-1.22.35-.29.777-.44 1.282-.44.16 0 .314.02.462.05.14.04.27.09.39.17l-.1 1c-.03.12-.11.19-.23.19-.07 0-.18-.02-.31-.05-.14-.03-.29-.05-.46-.05-.24 0-.46.03-.64.1-.19.07-.36.17-.51.31-.15.14-.28.31-.4.51s-.22.43-.32.69V78h-1.34v-7.597h.76c.14 0 .24.027.3.082.05.055.09.15.11.285l.09 1.155zm16.763.91v4.12c-.54.39-1.117.68-1.73.87-.612.2-1.283.29-2.013.29-.865 0-1.645-.13-2.34-.4-.695-.27-1.29-.64-1.78-1.12-.494-.48-.872-1.06-1.138-1.74-.265-.68-.397-1.42-.397-2.23 0-.82.13-1.57.386-2.24.26-.68.63-1.26 1.1-1.74.48-.48 1.06-.86 1.74-1.12.68-.27 1.44-.4 2.28-.4.43 0 .82.03 1.19.09.37.07.71.16 1.02.27.31.12.6.26.87.43.27.17.52.36.75.57l-.41.66c-.07.1-.15.17-.25.19-.1.03-.22.01-.34-.07-.12-.07-.25-.15-.41-.25-.15-.1-.34-.19-.57-.29-.22-.09-.48-.17-.78-.23-.3-.06-.66-.1-1.08-.1-.6 0-1.15.1-1.64.3-.49.2-.91.48-1.25.85-.34.37-.61.81-.79 1.33-.18.52-.28 1.11-.28 1.76 0 .67.1 1.28.29 1.81.19.53.47.99.83 1.36.36.37.79.65 1.3.85.51.19 1.08.29 1.72.29.5 0 .94-.06 1.33-.17.39-.12.77-.27 1.14-.47v-2.37h-1.67c-.09 0-.17-.03-.23-.09-.05-.06-.08-.12-.08-.21v-.82h3.3zm3.262-2.43V78h-1.335v-7.597h1.335zm.285-2.38c0 .13-.026.25-.08.36-.05.12-.12.22-.21.3-.086.09-.19.16-.306.21-.118.05-.24.08-.37.08-.132 0-.253-.02-.365-.07-.12-.05-.22-.12-.3-.2-.09-.09-.16-.19-.21-.3-.05-.11-.08-.23-.08-.36 0-.13.02-.25.07-.37s.11-.22.2-.31c.08-.09.18-.16.29-.21.11-.05.23-.08.36-.08.13 0 .25.02.37.07s.22.12.31.2c.09.08.16.19.21.3.05.12.08.24.08.37zm4.237 10.1c-.6 0-1.06-.16-1.383-.5-.323-.33-.484-.82-.484-1.45V71.5h-.915c-.08 0-.147-.02-.203-.07-.055-.05-.082-.12-.082-.22v-.53l1.245-.154.308-2.35c.014-.075.048-.136.1-.18.053-.04.122-.07.207-.07h.675v2.62h2.198v.97h-2.198v4.56c0 .32.077.56.233.72.155.15.354.23.6.23.14 0 .26-.02.363-.06.11-.04.2-.08.27-.13.08-.046.14-.09.19-.125.06-.04.1-.05.14-.05.07 0 .13.04.19.13l.39.64c-.23.21-.5.38-.83.51-.32.12-.66.18-1 .18zm4.388-6.7c.325-.35.685-.62 1.08-.83.395-.21.85-.31 1.365-.31.415 0 .78.07 1.1.21.316.13.58.33.794.58.212.25.373.55.483.91.11.35.165.75.165 1.18V78h-1.342v-4.838c0-.575-.13-1.02-.394-1.338-.262-.318-.66-.477-1.196-.477-.395 0-.764.095-1.106.285-.343.19-.66.448-.95.773V78h-1.34V66.953h1.34v4.462zm13.275-1.01V78h-.795c-.19 0-.31-.092-.36-.278l-.105-.817c-.33.365-.7.66-1.11.88-.41.224-.88.335-1.41.335-.415 0-.78-.07-1.1-.206-.316-.138-.582-.33-.798-.582-.215-.25-.376-.552-.483-.907-.11-.355-.17-.747-.17-1.177V70.4h1.33v4.846c0 .575.13 1.02.39 1.334.26.316.66.473 1.2.473.39 0 .76-.094 1.1-.28.34-.19.66-.447.95-.778V70.4h1.33zm3.457 5.76c.246.33.514.56.807.7.292.13.613.2.964.2.715 0 1.262-.25 1.642-.76.38-.51.57-1.26.57-2.26 0-.93-.17-1.62-.506-2.05-.338-.44-.82-.66-1.444-.66-.435 0-.814.1-1.136.3-.323.2-.62.48-.897.84v3.67zm0-4.67c.32-.37.682-.67 1.084-.89.41-.22.87-.33 1.4-.33.45 0 .85.08 1.21.25s.66.42.91.74c.25.33.45.72.58 1.18.14.46.2.98.2 1.55 0 .62-.07 1.18-.22 1.68-.15.51-.37.94-.65 1.29-.28.36-.62.64-1.03.84-.4.19-.86.29-1.36.29-.5 0-.92-.1-1.26-.28-.34-.19-.64-.46-.9-.8l-.06.69c-.04.19-.15.28-.34.28h-.86V66.96h1.34v4.54zm12.668 6.5h-1.455V67.26h1.455V78zm6.63-6.35c-.06.11-.152.16-.278.16-.075 0-.16-.03-.255-.08-.094-.05-.21-.11-.348-.18-.138-.07-.3-.13-.492-.19-.19-.05-.414-.08-.675-.08-.225 0-.427.03-.607.09-.18.05-.334.13-.46.23-.13.1-.226.22-.294.35-.067.14-.1.28-.1.44 0 .2.055.36.168.49.112.13.26.24.446.34.185.1.395.18.63.26.235.07.476.15.724.23.247.08.488.17.724.27.235.1.444.22.63.37.185.15.333.33.446.55.112.22.17.48.17.78 0 .35-.064.67-.19.97-.124.3-.31.56-.554.77-.245.21-.545.38-.9.51s-.765.19-1.23.19c-.53 0-1.01-.09-1.44-.26-.43-.17-.795-.39-1.095-.66l.315-.51c.04-.07.087-.12.142-.15.055-.04.125-.06.21-.06.09 0 .186.03.286.1.1.07.22.14.363.23.15.08.32.16.53.23.21.07.46.11.77.11.26 0 .49-.04.68-.1.2-.07.36-.16.49-.28.13-.12.23-.25.29-.4.06-.15.09-.31.09-.48 0-.21-.05-.38-.17-.52-.11-.13-.26-.25-.44-.35-.18-.1-.39-.18-.63-.25-.23-.08-.48-.15-.72-.23-.25-.08-.49-.17-.73-.28-.23-.1-.45-.23-.63-.39s-.33-.35-.44-.57c-.11-.23-.17-.5-.17-.83 0-.29.06-.57.18-.835s.3-.5.53-.7c.23-.2.51-.36.85-.48.34-.12.72-.18 1.15-.18.5 0 .95.08 1.35.236.4.15.74.37 1.03.65l-.3.48zm6.495 0c-.06.11-.152.16-.278.16-.075 0-.16-.03-.254-.08-.095-.05-.212-.11-.35-.18-.137-.07-.3-.13-.49-.19-.19-.05-.415-.08-.675-.08-.226 0-.428.03-.608.09-.18.05-.334.13-.46.23-.13.1-.226.22-.294.35-.06.14-.1.28-.1.44 0 .2.06.36.17.49.11.13.26.24.45.34.19.1.4.18.63.26.24.07.48.15.73.23.25.08.49.17.73.27s.45.22.63.37c.19.15.34.33.45.55.11.22.17.48.17.78 0 .35-.06.67-.18.97-.13.3-.31.56-.56.77-.24.21-.54.38-.9.51s-.76.19-1.23.19c-.53 0-1.01-.09-1.44-.26-.43-.17-.79-.39-1.09-.66l.32-.51c.04-.07.09-.12.14-.15.06-.04.13-.06.21-.06.09 0 .19.03.29.1.1.07.22.14.37.23.14.08.31.16.52.23.2.07.46.11.76.11.26 0 .49-.04.69-.1.2-.07.36-.16.49-.28.13-.12.23-.25.29-.4.07-.15.1-.31.1-.48 0-.21-.05-.38-.17-.52-.11-.13-.26-.25-.44-.35-.19-.1-.4-.18-.64-.25-.24-.08-.48-.15-.73-.23-.25-.08-.49-.17-.73-.28-.23-.1-.44-.23-.63-.39s-.33-.35-.45-.57c-.11-.23-.16-.5-.16-.83 0-.29.06-.57.18-.835s.3-.5.53-.7c.23-.2.52-.36.85-.48.34-.12.72-.18 1.15-.18.5 0 .95.08 1.35.236.4.15.74.37 1.03.65l-.3.48zm8.317-1.25V78h-.794c-.19 0-.31-.092-.36-.278l-.105-.817c-.33.365-.7.66-1.11.88-.41.224-.88.335-1.41.335-.416 0-.782-.07-1.1-.206-.317-.138-.583-.33-.798-.582-.215-.25-.376-.552-.484-.907-.107-.355-.16-.747-.16-1.177V70.4h1.334v4.846c0 .575.13 1.02.394 1.334.262.316.663.473 1.203.473.396 0 .764-.094 1.107-.28.342-.19.658-.447.948-.778V70.4h1.335zm7.2 2.97c0-.31-.043-.6-.13-.85-.088-.25-.216-.48-.383-.66-.168-.19-.37-.33-.612-.44-.24-.1-.512-.15-.817-.15-.64 0-1.146.18-1.52.56-.37.37-.602.88-.692 1.54h4.154zm1.08 3.56c-.165.2-.362.37-.592.52-.23.15-.476.27-.74.36-.26.09-.532.16-.813.21-.28.05-.557.07-.832.07-.525 0-1.01-.09-1.45-.26-.444-.18-.826-.44-1.15-.78-.32-.35-.572-.77-.752-1.28-.18-.51-.27-1.09-.27-1.74 0-.53.08-1.03.243-1.49.17-.46.4-.86.71-1.2.31-.34.68-.6 1.12-.8.44-.19.94-.29 1.49-.29.46 0 .88.08 1.27.23.39.15.72.37 1.01.66.29.29.51.64.67 1.07.16.43.24.91.24 1.45 0 .21-.02.35-.06.42s-.13.11-.25.11h-5.08c.02.48.08.9.2 1.25.12.35.28.65.49.89.21.23.46.41.75.53.29.12.62.17.98.17.34 0 .63-.04.87-.12.24-.08.45-.16.63-.25s.32-.18.44-.25c.12-.08.22-.12.31-.12.11 0 .19.04.25.12l.38.49zm6.18-5.28c-.06.11-.152.16-.277.16-.075 0-.16-.03-.255-.08s-.21-.11-.35-.18c-.136-.07-.3-.13-.49-.19-.19-.05-.415-.08-.675-.08-.225 0-.427.03-.607.09-.18.05-.334.13-.462.23-.12.1-.22.22-.29.35-.07.14-.1.28-.1.44 0 .2.06.36.17.49.11.13.26.25.45.34.19.1.4.18.63.26.24.07.48.15.73.23.25.08.49.17.73.27s.45.22.63.37.34.33.45.55c.12.22.17.48.17.78 0 .35-.06.68-.19.97-.12.3-.31.56-.55.78-.24.21-.54.38-.9.51-.35.13-.76.19-1.23.19-.53 0-1.01-.09-1.44-.26-.43-.17-.79-.4-1.09-.67l.32-.51c.04-.07.09-.12.15-.15.06-.04.13-.06.21-.06.09 0 .19.03.29.1.1.07.22.14.37.23.14.08.31.16.52.23.2.07.46.1.76.1.26 0 .49-.03.69-.1.2-.07.36-.16.49-.28.13-.11.23-.25.29-.4.06-.15.1-.31.1-.48 0-.21-.06-.38-.17-.52-.11-.13-.26-.25-.45-.35-.19-.09-.4-.18-.63-.25-.24-.08-.48-.15-.73-.23-.25-.08-.49-.17-.73-.28-.24-.1-.45-.23-.63-.384s-.33-.35-.45-.573c-.11-.23-.17-.508-.17-.83 0-.29.06-.57.18-.84s.29-.5.52-.71c.23-.2.51-.364.85-.484.34-.12.72-.18 1.15-.18.5 0 .95.08 1.35.24.4.16.74.37 1.03.65l-.3.49zm1.846 5.52c0-.13.023-.26.07-.37.048-.11.113-.21.196-.3.08-.08.18-.15.29-.2.11-.05.23-.07.36-.07s.25.03.37.08c.11.05.21.11.3.2.08.08.15.18.2.3.05.11.07.24.07.37s-.03.26-.08.37c-.05.11-.12.21-.2.29s-.19.15-.3.2c-.12.05-.24.07-.37.07s-.25-.02-.37-.07-.22-.11-.3-.2c-.09-.08-.15-.18-.2-.3-.05-.12-.07-.24-.07-.37zM24.783 3.81h-3.27V13h-2.018V3.812h-3.27V2.155h8.557v1.658zm2.984 1.492V13h-1.86V5.305h1.86zm.256-2.242c0 .16-.033.31-.098.45s-.15.262-.26.367c-.106.104-.232.19-.377.25-.146.063-.3.094-.465.094-.16 0-.312-.03-.454-.09-.15-.06-.27-.14-.38-.25-.11-.1-.19-.22-.25-.36-.07-.14-.1-.29-.1-.45 0-.16.03-.32.09-.46s.14-.27.25-.37c.1-.1.22-.19.37-.25.14-.06.29-.09.45-.09.16 0 .32.03.46.1s.27.15.37.26c.11.11.19.23.26.38s.1.3.1.47zM29.657 13V5.305h1.133c.24 0 .397.112.473.338l.12.57c.135-.15.276-.288.423-.413.148-.125.305-.232.473-.322.16-.09.34-.162.54-.214.19-.053.4-.08.63-.08.48 0 .88.132 1.19.395.31.26.54.61.7 1.04.12-.26.27-.48.45-.66.18-.19.37-.33.59-.45.21-.12.44-.2.68-.26.24-.06.48-.09.73-.09.42 0 .8.06 1.13.19.33.13.6.32.83.57.22.25.39.55.51.91.11.36.17.77.17 1.23V13H38.6V8.102c0-.49-.107-.858-.322-1.106-.215-.247-.53-.37-.945-.37-.19 0-.367.03-.53.096-.16.066-.305.16-.427.282-.123.122-.22.276-.29.46-.07.186-.104.398-.104.638V13h-1.86V8.102c0-.515-.105-.89-.31-1.125-.21-.235-.513-.352-.914-.352-.27 0-.52.066-.753.2-.235.13-.45.312-.65.542V13h-1.85zm17.52-4.732c0-.24-.033-.467-.1-.68-.068-.212-.17-.398-.304-.558-.136-.16-.307-.286-.514-.38-.21-.09-.45-.138-.73-.138-.54 0-.96.153-1.27.458-.31.305-.51.737-.59 1.298h3.49zm-3.532 1.117c.03.395.1.736.21 1.024.11.28.255.52.435.71.18.19.394.33.64.42.25.09.522.14.822.14.3 0 .56-.04.777-.11.21-.07.4-.15.57-.23.16-.09.3-.17.42-.24s.24-.11.35-.11c.15 0 .27.05.34.17l.53.67c-.21.24-.44.44-.69.6-.26.16-.52.29-.8.39-.28.1-.56.17-.85.21-.29.04-.57.06-.84.06-.54 0-1.03-.09-1.49-.27-.46-.18-.86-.44-1.2-.79-.34-.35-.61-.78-.81-1.29-.2-.51-.29-1.11-.29-1.78 0-.53.08-1.02.25-1.48.17-.46.41-.87.73-1.21.32-.35.71-.62 1.16-.82.45-.2.97-.3 1.55-.3.48 0 .93.08 1.34.23.41.15.76.38 1.06.68.29.29.53.66.69 1.09.17.43.25.92.25 1.48 0 .28-.03.47-.09.56-.06.09-.18.14-.35.14H43.6zM56.44 13.12c-.67 0-1.184-.19-1.54-.566-.36-.378-.538-.9-.538-1.564V6.692h-.787c-.1 0-.185-.032-.255-.097s-.105-.162-.105-.292v-.736l1.237-.202.39-2.1c.026-.1.073-.177.143-.232.07-.056.16-.083.27-.083h.96v2.422h2.055v1.32h-2.055v4.17c0 .24.06.428.176.563.12.135.28.202.49.202.12 0 .21-.013.29-.04.08-.028.15-.057.2-.087.06-.03.11-.06.16-.086.05-.028.09-.04.14-.04.06-.002.1.012.14.04.04.027.08.068.12.123l.56.9c-.27.226-.58.395-.93.51-.35.116-.71.173-1.09.173zm6.36-7.935c.57 0 1.09.092 1.556.278.468.185.868.447 1.2.787.333.34.59.755.77 1.245.18.49.27 1.037.27 1.642 0 .61-.09 1.16-.27 1.65-.18.49-.437.908-.77 1.253-.332.345-.732.61-1.2.795-.467.185-.986.277-1.556.277-.575 0-1.097-.092-1.567-.277-.47-.185-.872-.45-1.204-.795-.34-.345-.59-.762-.78-1.252-.18-.49-.28-1.04-.28-1.65 0-.606.09-1.153.27-1.643.18-.49.44-.905.77-1.245.33-.34.73-.602 1.2-.787.47-.186.99-.278 1.56-.278zm0 6.503c.64 0 1.114-.215 1.42-.646.31-.43.463-1.06.463-1.89 0-.83-.154-1.462-.462-1.897-.3-.435-.78-.652-1.42-.652-.65 0-1.13.218-1.44.656-.31.43-.47 1.06-.47 1.89 0 .82.16 1.45.47 1.88.32.43.8.65 1.45.65zm14.37-4.756c-.055.07-.11.125-.16.165-.054.04-.13.06-.23.06-.095 0-.187-.028-.278-.086-.09-.05-.197-.12-.322-.19s-.274-.13-.446-.19c-.173-.05-.386-.08-.64-.08-.327 0-.61.06-.856.18s-.45.29-.612.51c-.162.22-.283.49-.364.8-.08.32-.12.67-.12 1.06 0 .41.044.78.132 1.1.087.32.213.59.38.81.164.22.363.38.6.5.234.11.498.17.793.17.296 0 .534-.03.717-.11.182-.07.336-.15.46-.24.126-.09.235-.17.327-.24.1-.07.2-.11.32-.11.15 0 .26.06.34.18l.54.68c-.2.24-.42.44-.66.6-.24.17-.49.3-.74.39-.26.1-.52.17-.79.21-.27.04-.54.06-.81.06-.47 0-.92-.09-1.34-.27-.42-.17-.78-.43-1.1-.77-.31-.34-.56-.75-.74-1.25-.18-.49-.27-1.05-.27-1.68 0-.56.08-1.09.24-1.57.16-.48.4-.9.72-1.25.32-.35.71-.63 1.17-.83.47-.2 1-.3 1.61-.3.58 0 1.08.09 1.51.28.44.19.82.45 1.17.79l-.49.68zm4.987-1.747c.57 0 1.09.092 1.557.278.467.185.867.447 1.2.787.332.34.588.755.77 1.245.18.49.27 1.037.27 1.642 0 .61-.09 1.16-.27 1.65-.182.49-.438.908-.77 1.253-.333.345-.733.61-1.2.795-.468.185-.986.277-1.556.277-.576 0-1.098-.092-1.568-.277-.47-.185-.87-.45-1.204-.795-.332-.345-.59-.762-.772-1.252-.183-.49-.274-1.04-.274-1.65 0-.606.09-1.153.274-1.643.182-.49.44-.905.772-1.245.333-.34.734-.602 1.204-.787.47-.186.992-.278 1.567-.278zm0 6.503c.64 0 1.114-.215 1.422-.646.3-.43.46-1.06.46-1.89 0-.83-.16-1.462-.46-1.897-.31-.435-.79-.652-1.43-.652-.65 0-1.13.218-1.45.656-.32.43-.47 1.06-.47 1.89 0 .82.15 1.45.47 1.88.31.43.79.65 1.44.65zm6.946-5.438c.155-.155.318-.3.49-.43.173-.134.356-.246.548-.34.2-.09.4-.164.62-.216.22-.053.46-.08.72-.08.42 0 .8.072 1.12.215.33.14.6.34.82.6.22.25.39.56.5.92.12.36.17.75.17 1.18V13h-1.86V8.102c0-.47-.11-.833-.32-1.09-.21-.258-.54-.387-.98-.387-.32 0-.62.072-.9.218-.28.145-.54.342-.79.592V13h-1.86V5.305h1.13c.24 0 .4.112.47.338l.13.607zm7.14 6.75V6.7l-.668-.105c-.145-.03-.26-.08-.35-.154-.086-.07-.13-.17-.13-.31v-.75h1.148v-.25c0-.47.077-.9.232-1.31.155-.4.39-.75.705-1.04.315-.29.714-.52 1.196-.69.483-.16 1.05-.25 1.706-.25.21 0 .424.01.642.04.217.02.406.06.566.11l-.06.96c-.01.12-.072.19-.188.21-.115.02-.257.04-.427.04-.485 0-.89.04-1.22.13-.326.09-.59.21-.794.38-.2.17-.34.38-.43.63-.08.25-.13.55-.13.88v.19h4.77V13h-1.85V6.692H98.1V13h-1.853zm11.272-4.035c.23 0 .43-.03.6-.094.17-.06.31-.14.424-.25.11-.11.19-.24.25-.4.05-.15.08-.32.08-.51 0-.38-.12-.68-.34-.9-.23-.22-.57-.33-1.03-.33-.46 0-.8.11-1.03.34-.23.23-.34.53-.34.91 0 .18.03.35.08.5.05.16.14.29.25.41.11.11.26.2.43.26.17.07.37.1.59.1zm2.093 4.38c0-.15-.046-.272-.136-.368-.09-.095-.212-.168-.367-.22-.155-.053-.336-.092-.544-.117-.2-.025-.42-.044-.66-.056-.23-.013-.47-.024-.72-.034-.24-.01-.48-.03-.72-.06-.2.115-.37.25-.5.405-.13.155-.19.335-.19.54 0 .135.04.26.1.38.07.116.18.217.33.303.15.085.34.15.58.198.24.048.52.07.86.07.35.002.65-.025.9-.077.25-.06.46-.13.62-.22.16-.09.28-.2.36-.33.08-.13.11-.27.11-.42zm1.844-7.778v.69c0 .22-.132.355-.397.405l-.69.128c.105.265.157.555.157.87 0 .38-.076.724-.228 1.03-.153.31-.364.57-.634.785-.27.215-.59.38-.956.5-.368.116-.764.175-1.19.175-.15 0-.294-.007-.434-.023-.14-.015-.277-.034-.412-.06-.24.146-.36.308-.36.488 0 .155.07.27.213.34.15.074.34.125.57.155.24.03.5.05.8.056.3.008.61.024.93.05.32.024.63.068.93.13.3.063.57.16.8.296.24.136.43.32.57.552.15.232.22.53.22.896 0 .34-.08.67-.25.99-.17.32-.41.605-.73.855s-.71.45-1.17.604c-.46.15-.99.22-1.58.22-.58 0-1.08-.06-1.51-.17-.43-.12-.79-.27-1.07-.45-.28-.19-.49-.41-.63-.65s-.21-.5-.21-.77c0-.36.11-.66.33-.91.22-.24.52-.44.9-.58-.2-.11-.36-.25-.48-.42s-.18-.41-.18-.69c0-.12.02-.24.07-.36.04-.13.11-.25.19-.37.09-.12.19-.24.32-.34.13-.11.27-.21.44-.29-.39-.21-.69-.49-.92-.84-.22-.35-.33-.76-.33-1.23 0-.38.08-.73.23-1.03.15-.31.37-.57.64-.79.27-.22.59-.39.97-.5.38-.12.78-.18 1.22-.18.33 0 .64.03.93.1.29.07.56.16.8.29h2.21zm7.8-.262V13h-1.132c-.245 0-.4-.112-.465-.338l-.127-.615c-.316.32-.663.58-1.043.777-.38.197-.827.296-1.343.296-.42 0-.79-.07-1.113-.214-.33-.142-.6-.343-.82-.604-.22-.26-.39-.568-.5-.926-.11-.357-.17-.75-.17-1.18v-4.89h1.85v4.89c0 .47.11.833.32 1.09.22.258.54.386.98.386.32 0 .62-.07.9-.213.28-.15.54-.34.79-.59V5.3h1.85zm3.578 1.335c.24-.46.525-.82.855-1.084.33-.262.72-.394 1.17-.394.355 0 .64.078.855.233l-.12 1.388c-.025.09-.06.153-.11.19-.046.038-.11.057-.19.057-.075 0-.186-.012-.334-.038-.147-.025-.29-.037-.43-.037-.206 0-.388.03-.548.09-.16.06-.304.146-.432.26-.127.11-.24.247-.337.408-.1.16-.19.342-.28.547V13h-1.86V5.305h1.09c.19 0 .32.034.39.1.07.07.12.19.15.365l.11.87zm8.587 1.628c0-.24-.033-.467-.1-.68-.068-.212-.17-.398-.305-.558-.135-.16-.306-.286-.513-.38-.21-.09-.45-.138-.73-.138-.54 0-.96.153-1.27.458-.31.305-.51.737-.59 1.298h3.49zm-3.532 1.117c.03.395.1.736.21 1.024.11.28.255.52.435.71.18.19.394.33.64.42.25.09.522.14.823.14.3 0 .558-.04.776-.11.21-.07.4-.15.57-.23.16-.09.3-.17.42-.24s.24-.11.36-.11c.15 0 .27.05.34.17l.53.67c-.21.24-.44.44-.69.6-.26.16-.52.29-.8.39-.28.1-.56.17-.85.21-.29.04-.57.06-.84.06-.54 0-1.03-.09-1.49-.27-.46-.18-.86-.44-1.2-.79-.34-.35-.61-.78-.81-1.29-.2-.51-.29-1.11-.29-1.78 0-.53.08-1.02.25-1.48.17-.46.41-.87.73-1.21.32-.35.71-.62 1.16-.82.45-.2.97-.3 1.54-.3.48 0 .93.08 1.34.23.41.15.76.38 1.05.67.3.3.53.66.69 1.09.17.43.25.93.25 1.48 0 .28-.03.47-.09.56-.06.1-.17.14-.34.14h-4.77zm16.845-4.08l-4.192 9.81c-.056.13-.127.23-.214.296-.088.07-.22.11-.4.11h-1.382l1.44-3.09-3.112-7.11h1.627c.146 0 .26.04.342.11.08.07.14.15.18.24l1.63 3.99c.05.14.1.27.14.41.04.14.07.27.11.41l.13-.41c.04-.13.09-.27.15-.4l1.54-3.98c.04-.1.1-.18.2-.25.09-.06.19-.09.31-.09h1.48zm4.088-.12c.57 0 1.088.092 1.556.278.467.185.867.447 1.2.787.332.34.588.755.768 1.245.18.49.27 1.037.27 1.642 0 .61-.09 1.16-.27 1.65-.18.49-.436.908-.768 1.253-.333.345-.733.61-1.2.795-.468.185-.986.277-1.556.277-.576 0-1.098-.092-1.568-.277-.47-.185-.87-.45-1.204-.795-.332-.345-.59-.762-.772-1.252-.183-.49-.274-1.04-.274-1.65 0-.606.09-1.153.274-1.643.182-.49.44-.905.772-1.245.333-.34.734-.602 1.204-.787.47-.186.992-.278 1.567-.278zm0 6.503c.64 0 1.113-.215 1.42-.646.308-.43.462-1.06.462-1.89 0-.83-.154-1.462-.46-1.897-.31-.435-.782-.652-1.423-.652-.65 0-1.13.218-1.443.656-.313.43-.47 1.06-.47 1.89 0 .82.157 1.45.47 1.88.312.43.793.65 1.444.65zm11.842-6.383V13h-1.132c-.246 0-.4-.112-.465-.338l-.128-.615c-.315.32-.662.58-1.042.777-.38.197-.828.296-1.343.296-.42 0-.79-.07-1.114-.214-.322-.142-.593-.343-.814-.604-.22-.26-.386-.568-.498-.926-.113-.357-.17-.75-.17-1.18v-4.89h1.853v4.89c0 .47.11.833.327 1.09.217.258.543.386.98.386.32 0 .618-.07.898-.213.28-.15.545-.34.796-.59V5.3h1.852zm3.578 1.335c.24-.46.524-.82.855-1.084.33-.262.72-.394 1.17-.394.355 0 .64.078.855.233l-.12 1.388c-.025.09-.062.153-.11.19-.047.038-.11.057-.19.057-.076 0-.187-.012-.334-.038-.148-.025-.29-.037-.43-.037-.207 0-.39.03-.55.09-.16.06-.303.146-.43.26-.128.11-.24.247-.338.408-.097.16-.19.342-.274.547V13h-1.852V5.305h1.087c.19 0 .323.034.398.1.075.07.125.19.15.365l.113.87zm8.924 0c.24-.46.525-.82.856-1.084.33-.262.72-.394 1.17-.394.355 0 .64.078.855.233l-.12 1.388c-.025.09-.062.153-.11.19-.047.038-.11.057-.19.057-.075 0-.187-.012-.334-.038-.15-.025-.3-.037-.44-.037-.21 0-.39.03-.55.09-.16.06-.31.146-.43.26-.13.11-.24.247-.34.408-.1.16-.19.342-.28.547V13h-1.85V5.305h1.09c.19 0 .32.034.39.1.07.07.12.19.15.365l.11.87zm8.588 1.628c0-.24-.034-.467-.1-.68-.07-.212-.17-.398-.305-.558-.135-.16-.306-.286-.514-.38-.2-.09-.44-.138-.72-.138-.53 0-.95.153-1.26.458-.31.305-.5.737-.59 1.298h3.5zm-3.532 1.117c.03.395.1.736.21 1.024.11.28.254.52.435.71.18.19.393.33.64.42.248.09.522.14.822.14.3 0 .56-.04.776-.11.22-.07.41-.15.57-.23.17-.09.31-.17.43-.24s.24-.11.36-.11c.16 0 .27.05.35.17l.54.67c-.2.24-.43.44-.69.6-.25.16-.52.29-.8.39-.28.1-.56.17-.85.21-.28.04-.56.06-.83.06-.53 0-1.03-.09-1.49-.27-.46-.18-.86-.44-1.2-.79-.34-.35-.6-.78-.8-1.29-.19-.51-.29-1.11-.29-1.78 0-.53.09-1.02.26-1.48.17-.46.41-.87.73-1.21.32-.35.71-.62 1.16-.82.46-.2.98-.3 1.55-.3.49 0 .93.08 1.35.23.41.15.76.38 1.06.68.3.29.53.66.7 1.09.17.43.25.92.25 1.48 0 .28-.03.47-.09.56-.06.09-.17.14-.34.14h-4.76zm8.437 1.62c.21.255.44.435.686.54.25.105.52.158.81.158.28 0 .53-.053.76-.158.23-.105.42-.265.58-.48.16-.215.28-.486.37-.814.09-.32.13-.71.13-1.15 0-.45-.03-.83-.11-1.14-.07-.31-.17-.56-.31-.76-.13-.19-.3-.33-.49-.42-.19-.09-.41-.13-.65-.13-.38 0-.71.08-.98.25-.27.16-.52.39-.76.69v3.45zm-.097-4.65c.315-.355.672-.642 1.072-.863.4-.22.87-.33 1.41-.33.42 0 .804.088 1.15.263.35.175.65.43.9.76.254.334.45.744.586 1.23.138.49.207 1.047.207 1.677 0 .576-.078 1.108-.233 1.598-.155.49-.376.915-.664 1.275-.287.36-.635.64-1.042.844-.408.2-.864.3-1.37.3-.43 0-.796-.07-1.102-.2-.305-.13-.577-.32-.817-.55v3.15h-1.852V5.3h1.132c.24 0 .398.112.472.338l.15.713zm10.17-1.17c.57 0 1.088.092 1.556.278.467.185.867.447 1.2.787.332.34.588.755.768 1.245.18.49.27 1.037.27 1.642 0 .61-.09 1.16-.27 1.65-.18.49-.436.908-.768 1.253-.333.345-.733.61-1.2.795-.468.185-.986.277-1.556.277-.576 0-1.098-.092-1.568-.277-.47-.185-.87-.45-1.204-.795-.332-.345-.59-.762-.772-1.252-.183-.49-.274-1.04-.274-1.65 0-.606.09-1.153.274-1.643.182-.49.44-.905.772-1.245.333-.34.734-.602 1.204-.787.47-.186.992-.278 1.567-.278zm0 6.503c.64 0 1.113-.215 1.42-.646.308-.43.462-1.06.462-1.89 0-.83-.154-1.462-.46-1.897-.31-.435-.782-.652-1.423-.652-.65 0-1.13.218-1.443.656-.313.43-.47 1.06-.47 1.89 0 .82.157 1.45.47 1.88.312.43.793.65 1.444.65zm7.282-9.533v4.29c0 .455-.022.9-.067 1.34-.046.436-.103.9-.173 1.39h-1.26c-.07-.49-.127-.954-.172-1.39-.046-.44-.068-.885-.068-1.34v-4.29h1.74zm-2.032 9.825c0-.155.028-.302.086-.443.057-.14.137-.26.24-.36.102-.1.223-.18.363-.24.14-.06.29-.09.45-.09.156 0 .303.03.443.09s.26.14.364.24c.102.1.183.22.243.36.06.14.09.288.09.443 0 .16-.03.31-.09.446-.06.138-.14.256-.243.357-.103.1-.224.178-.364.236-.14.05-.287.08-.442.08-.16 0-.31-.03-.45-.09s-.262-.14-.364-.24c-.103-.1-.183-.22-.24-.36-.058-.14-.087-.29-.087-.45z" fill="#2C2D30"/><rect fill="#E3E4E6" y="0.419998169" width="4" height="80" rx="3"/></g><path d="M163.982 33.556V34h-4.38v-.444h1.95v-6.888c0-.136.006-.28.018-.432l-1.872 1.662c-.056.048-.112.066-.168.054-.056-.012-.1-.036-.132-.072l-.174-.24 2.454-2.166h.45v8.082h1.854zm7.5-3.804c0 .744-.08 1.388-.24 1.932-.16.544-.378.994-.654 1.35-.276.356-.6.62-.97.795-.37.17-.764.26-1.184.26-.42 0-.814-.09-1.182-.26-.368-.18-.69-.44-.966-.8-.276-.36-.493-.81-.65-1.35-.16-.55-.238-1.19-.238-1.93s.08-1.39.237-1.93c.158-.55.375-1 .65-1.35.277-.36.6-.62.967-.8.368-.18.762-.26 1.182-.26.42 0 .815.08 1.185.26.37.17.69.44.96.79.27.35.49.8.65 1.35.16.54.24 1.18.24 1.93zm-.6 0c0-.688-.066-1.276-.198-1.764s-.31-.887-.53-1.197c-.223-.31-.483-.53-.78-.68-.3-.14-.612-.21-.94-.21-.328 0-.64.07-.936.22-.296.15-.556.37-.78.68-.224.31-.402.71-.534 1.2s-.198 1.08-.198 1.77.066 1.28.198 1.77.31.89.534 1.2c.224.31.484.54.78.68.296.15.608.22.936.22.328 0 .64-.07.94-.21.297-.14.557-.37.78-.68.22-.31.398-.71.53-1.19s.198-1.08.198-1.77zm1.92 3.786c0-.076.014-.148.042-.216.028-.068.067-.127.117-.177.05-.05.11-.09.18-.12.07-.03.14-.045.22-.045.08 0 .15.015.22.045s.13.07.18.12c.05.05.09.11.12.177.03.068.05.14.05.216 0 .08-.01.153-.04.22-.03.065-.07.123-.12.173-.05.05-.11.09-.17.12-.06.03-.14.04-.21.04-.15 0-.29-.05-.39-.16-.1-.1-.16-.23-.16-.39zm0-4.782c0-.076.014-.148.042-.216.028-.068.067-.127.117-.177.05-.05.11-.09.18-.12.07-.03.14-.045.22-.045.08 0 .15.015.22.045s.13.07.18.12c.05.05.09.11.12.177.03.068.05.14.05.216 0 .08-.01.153-.04.22-.03.065-.07.123-.12.173-.05.05-.11.08-.17.11-.06.03-.14.04-.21.04-.15 0-.29-.06-.39-.16-.1-.11-.16-.24-.16-.39zm6.516 2.352v-4.446c0-.068.003-.142.01-.222.005-.08.012-.162.02-.246l-3.672 4.914h3.642zm2.058 0v.312c0 .044-.013.08-.04.105-.025.026-.066.04-.122.04h-1.392V34h-.504v-2.436h-4.014c-.06 0-.106-.013-.138-.04-.032-.025-.054-.06-.066-.104l-.054-.282 4.266-5.64h.51v5.61h1.554zm6.348 2.352c.064 0 .114.02.15.057.036.038.054.087.054.147V34h-5.478v-.204c0-.044.01-.09.033-.135.022-.04.05-.08.087-.11l2.898-2.93c.24-.24.462-.48.666-.7.204-.23.38-.46.53-.69.15-.23.268-.47.352-.71.084-.24.126-.5.126-.78 0-.31-.052-.58-.156-.81-.104-.23-.242-.42-.414-.56-.172-.15-.372-.26-.6-.33-.228-.07-.464-.11-.708-.11-.268 0-.515.04-.74.12-.227.08-.427.2-.6.34-.175.15-.32.32-.433.52-.11.21-.19.43-.23.67-.03.09-.06.15-.11.18-.04.03-.11.04-.19.03l-.29-.05c.06-.36.16-.69.3-.97.15-.28.34-.52.57-.72.23-.2.49-.34.79-.45.3-.1.63-.15.97-.15.33 0 .64.05.93.14.3.1.56.24.78.43.23.19.41.43.54.72s.2.62.2 1.01c0 .32-.05.62-.14.89-.09.28-.23.54-.4.79-.16.25-.36.5-.58.74-.22.24-.45.48-.7.73l-2.65 2.71c.13-.03.26-.05.4-.07.14-.02.28-.02.42-.02h3.67zm9.69-2.544l-1.728-4.29c-.06-.14-.118-.308-.174-.504-.024.096-.05.187-.078.273-.028.086-.058.165-.09.237l-1.728 4.284h3.798zM199.292 34h-.474c-.056 0-.102-.015-.138-.045-.036-.03-.064-.07-.084-.117l-.996-2.466h-4.17l-.996 2.466c-.016.044-.044.082-.084.114-.04.032-.088.048-.144.048h-.468l3.474-8.49h.606l3.474 8.49zm9.798-8.49V34h-.534v-7.236c0-.104.006-.214.018-.33l-3.342 5.934c-.056.104-.136.156-.24.156h-.096c-.104 0-.184-.052-.24-.156l-3.432-5.946c.012.12.018.234.018.342V34h-.54v-8.49h.426c.056 0 .1.006.132.018.032.012.064.044.096.096l3.426 5.904c.06.112.112.232.156.36.024-.064.05-.127.078-.19.028-.06.058-.12.09-.176l3.33-5.898c.032-.052.065-.084.1-.096.033-.012.078-.018.134-.018h.42z" fill="#9E9EA6"/><path fill="#F7F7F7" d="M123 22h27v15.968h-27z"/><path d="M127.95 29.24v-2.27h1.9c.207 0 .402.012.585.035.183.023.345.075.485.155s.25.193.33.34c.08.147.12.347.12.6 0 .38-.118.665-.355.855-.237.19-.625.285-1.165.285h-1.9zm-.95-3.07v7.14h3.45c.353 0 .665-.058.935-.175.27-.117.497-.27.68-.46.183-.19.322-.408.415-.655.093-.247.14-.5.14-.76 0-.44-.117-.813-.35-1.12-.233-.307-.57-.507-1.01-.6v-.02c.34-.133.602-.338.785-.615.183-.277.275-.605.275-.985 0-.36-.082-.663-.245-.91-.163-.247-.362-.44-.595-.58-.107-.067-.235-.117-.385-.15-.15-.033-.312-.058-.485-.075-.173-.017-.348-.027-.525-.03-.177-.003-.342-.005-.495-.005H127zm.95 6.34v-2.47h2.17c.2 0 .393.018.58.055.187.037.352.1.495.19.143.09.258.212.345.365.087.153.13.347.13.58 0 .4-.118.713-.355.94-.237.227-.565.34-.985.34h-2.38zm6.45-2.77c0-.36.047-.715.14-1.065.093-.35.24-.665.44-.945.2-.28.457-.505.77-.675.313-.17.687-.255 1.12-.255.433 0 .807.085 1.12.255.313.17.57.395.77.675.2.28.347.595.44.945.093.35.14.705.14 1.065s-.047.715-.14 1.065c-.093.35-.24.665-.44.945-.2.28-.457.505-.77.675-.313.17-.687.255-1.12.255-.433 0-.807-.085-1.12-.255-.313-.17-.57-.395-.77-.675-.2-.28-.347-.595-.44-.945-.093-.35-.14-.705-.14-1.065zm-.95 0c0 .487.072.955.215 1.405.143.45.358.848.645 1.195.287.347.643.622 1.07.825.427.203.923.305 1.49.305s1.063-.102 1.49-.305c.427-.203.783-.478 1.07-.825.287-.347.502-.745.645-1.195.143-.45.215-.918.215-1.405s-.072-.955-.215-1.405c-.143-.45-.358-.848-.645-1.195-.287-.347-.643-.623-1.07-.83-.427-.207-.923-.31-1.49-.31s-1.063.103-1.49.31c-.427.207-.783.483-1.07.83-.287.347-.502.745-.645 1.195-.143.45-.215.918-.215 1.405zm9.62-2.77v6.34h.95v-6.34h2.38v-.8h-5.71v.8h2.38z" fill="#A3A3A3"/><path d="M69.265 32.425c.375 0 .69-.045.945-.135.255-.09.46-.21.61-.36.154-.15.264-.325.33-.525.07-.2.102-.412.102-.638 0-.235-.037-.446-.112-.633-.075-.188-.192-.348-.352-.48-.16-.133-.367-.234-.62-.304-.252-.07-.555-.105-.91-.105h-2.033v3.18h2.04zm-2.04-7.71v3.135h1.605c.69 0 1.21-.125 1.564-.375.352-.25.528-.647.528-1.193 0-.565-.16-.967-.48-1.207-.32-.24-.82-.36-1.5-.36h-1.717zm1.718-1.56c.71 0 1.317.067 1.822.202.505.136.92.328 1.24.578.324.25.56.552.71.908.15.355.225.754.225 1.2 0 .255-.037.498-.112.73-.076.233-.192.45-.35.653-.157.203-.357.386-.6.552-.242.165-.53.304-.865.42 1.49.335 2.234 1.14 2.234 2.415 0 .46-.087.884-.262 1.275-.175.39-.43.726-.765 1.008-.335.283-.747.504-1.237.664-.49.16-1.05.24-1.68.24h-4.095V23.155h3.735zm12.344 3.15V34h-1.132c-.245 0-.4-.112-.465-.338l-.127-.614c-.316.32-.663.578-1.043.776-.38.197-.827.296-1.342.296-.42 0-.792-.07-1.114-.214-.323-.142-.594-.343-.814-.603-.22-.26-.386-.57-.5-.927-.11-.357-.167-.75-.167-1.18v-4.89h1.852v4.89c0 .47.11.833.326 1.09.22.258.55.387.98.387.32 0 .62-.072.9-.214.28-.15.55-.34.8-.59V26.3h1.85zm4.643 3.66c.23 0 .43-.03.6-.094.17-.06.31-.14.424-.25.112-.11.197-.24.255-.39.05-.15.08-.32.08-.51 0-.38-.12-.68-.34-.9-.23-.22-.57-.33-1.03-.33-.46 0-.8.11-1.03.34-.23.23-.34.53-.34.91 0 .18.03.35.08.5.06.16.14.29.25.41.11.11.25.2.43.26.17.06.37.09.59.09zm2.092 4.38c0-.15-.044-.272-.135-.368-.09-.095-.212-.168-.367-.22-.155-.053-.336-.092-.544-.117-.207-.025-.427-.044-.66-.056-.232-.013-.472-.024-.72-.034-.247-.01-.488-.03-.724-.06-.205.115-.37.25-.498.405-.128.155-.19.335-.19.54 0 .135.032.26.1.38.067.116.175.217.322.303.148.085.34.15.574.198.235.048.522.07.862.07.346 0 .643-.025.893-.077.25-.06.456-.13.62-.22.16-.09.28-.2.355-.33.075-.13.112-.27.112-.42zm1.846-7.778v.69c0 .22-.133.355-.398.405l-.69.128c.105.265.157.555.157.87 0 .38-.076.724-.228 1.03-.16.31-.37.57-.64.785-.27.215-.59.38-.96.5-.37.116-.77.175-1.19.175-.15 0-.3-.007-.44-.022-.14-.016-.28-.035-.42-.06-.24.145-.36.307-.36.487 0 .155.07.27.21.34.14.074.33.125.57.155.23.03.5.05.8.056.3.008.6.024.92.05.32.024.62.068.92.13.3.063.56.16.8.296.23.136.42.32.56.552.14.232.21.53.21.896 0 .34-.09.67-.26.99-.17.32-.41.605-.73.855s-.71.45-1.17.604c-.46.15-.99.22-1.58.22-.58 0-1.09-.06-1.52-.17-.43-.11-.79-.26-1.07-.45-.29-.19-.5-.41-.64-.65s-.21-.5-.21-.77c0-.36.11-.66.33-.91.22-.24.52-.44.9-.58-.2-.11-.37-.25-.49-.42s-.18-.41-.18-.69c0-.12.02-.24.06-.36.04-.12.1-.24.19-.36.08-.12.19-.24.31-.34.13-.11.28-.21.45-.29-.39-.21-.7-.49-.92-.84-.22-.35-.33-.76-.33-1.23 0-.38.07-.73.23-1.03.15-.31.36-.57.63-.79.27-.22.59-.39.96-.5.37-.12.78-.17 1.22-.17.33 0 .64.03.93.1.29.07.55.16.79.3h2.21zm3.022 5.438c.21.255.44.435.686.54.248.105.51.158.784.158.285 0 .54-.052.77-.154.226-.11.42-.27.58-.48.16-.22.282-.5.368-.84.085-.34.127-.74.127-1.21 0-.85-.14-1.46-.42-1.84-.28-.38-.682-.57-1.207-.57-.356 0-.665.08-.93.24-.266.16-.518.39-.758.68V32zm0-4.755c.31-.325.654-.584 1.03-.776.38-.193.81-.29 1.295-.29.445 0 .846.088 1.204.263.35.176.66.427.91.754.25.33.44.73.58 1.19.13.47.2.99.2 1.57 0 .63-.08 1.2-.24 1.71-.16.51-.38.95-.67 1.31-.29.36-.64.65-1.04.85-.41.2-.86.3-1.35.3-.24 0-.46-.02-.66-.07-.2-.04-.38-.11-.54-.19-.17-.08-.32-.19-.46-.31s-.27-.26-.4-.41l-.08.52c-.03.13-.08.22-.16.28-.07.06-.17.09-.3.09H91V22.86h1.85v4.394zm10.065-1.065c.57 0 1.09.092 1.556.278.47.185.87.447 1.2.787.34.34.59.755.77 1.245.18.49.27 1.037.27 1.642 0 .61-.09 1.16-.27 1.65-.18.49-.43.908-.77 1.253-.33.345-.73.61-1.2.795-.46.185-.98.277-1.55.277-.57 0-1.09-.092-1.56-.277-.47-.185-.87-.45-1.2-.795-.33-.345-.59-.762-.77-1.253-.18-.49-.27-1.04-.27-1.65 0-.605.09-1.152.28-1.642.19-.49.44-.905.78-1.245.33-.34.74-.602 1.21-.787.47-.186 1-.278 1.57-.278zm0 6.503c.64 0 1.114-.215 1.42-.646.31-.43.463-1.06.463-1.89 0-.83-.154-1.462-.462-1.897-.307-.435-.78-.652-1.42-.652-.65 0-1.132.218-1.445.656-.31.43-.46 1.06-.46 1.89 0 .82.16 1.45.47 1.88.31.43.8.65 1.45.65zm7.627 1.432c-.67 0-1.183-.19-1.54-.566-.358-.378-.537-.9-.537-1.564v-4.297h-.787c-.1 0-.185-.033-.255-.098s-.105-.162-.105-.292v-.735l1.237-.203.39-2.1c.025-.1.072-.177.142-.232.07-.056.16-.083.27-.083h.96v2.422h2.055v1.32h-2.055v4.17c0 .24.06.428.177.563.117.135.278.202.483.202.116 0 .212-.013.29-.04.077-.028.144-.057.202-.087l.15-.086c.04-.028.09-.042.13-.042.05 0 .1.014.13.042.03.027.07.068.11.123l.55.9c-.27.226-.58.395-.93.51-.35.116-.72.173-1.09.173z" fill="#2C2D30"/><g transform="translate(19.39 19.522)"><path d="M2.565 36.478c-1.095 0-1.956-.86-1.956-1.956V2.435C.61 1.34 1.47.478 2.56.478h32.09c1.097 0 1.958.86 1.958 1.957v32.087c0 1.095-.862 1.956-1.958 1.956H2.565z" fill="#9DFFD9"/><path d="M13.287 7.287v-1.29h1.33v-1.96h-3.09v3.208c0 3.914 3.17 7.044 7.082 7.044v-1.8c-2.9.04-5.29-2.31-5.33-5.21z" fill="#02CE1B"/><path d="M22.6 4.04v1.917h1.33v1.29c-.04 2.896-2.426 5.244-5.32 5.244v1.8c3.912 0 7.08-3.13 7.12-7V4.04H22.6z" fill="#029925"/><path d="M18.648 12.49l-1.448.94-.313 3.092h.43v2.19h4.11v-2.19h.977v-3.287c-1.33-.118-2.543-.352-3.756-.744z" fill="#303123"/><path d="M14.852 13.196v3.287h.978v2.19h2.78V12.49h-.04c-1.213.394-2.466.628-3.718.707z" fill="#4D4D4D"/><path d="M12.622 23.057v2.152h-2.27v1.33h3.56v-2.16h3.484v-1.33h-4.773zm-.04 5.79v4.07h1.29v-2.74h3.524v-1.33h-4.812z" fill="#333"/><path d="M12.622 22.157v2.152h-2.27v1.29h3.56v-2.16h3.484v-1.29h-4.773zm-.04 5.79v4.03h1.29v-2.74h3.524v-1.29h-4.812z" fill="#4D4D4D"/><path d="M12.622 20.826v-2.19h-2.31v-1.293h3.6v2.153h3.484v1.33h-4.773zm11.818 2.23v2.153h2.308v1.33h-3.6v-2.16h-3.405v-1.33h4.695zm0 5.792v4.07h-1.292v-2.74h-3.405v-1.33h4.695z" fill="#333"/><path d="M12.622 19.887v-2.152h-2.31v-1.33h3.6v2.19h3.484v1.292h-4.773z" fill="#4D4D4D"/><path d="M24.596 20.826v-2.19h2.308v-1.293h-3.6v2.153h-3.482v1.33h4.774z" fill="#333"/><path d="M24.596 19.887v-2.152h2.308v-1.33h-3.6v2.19h-3.482v1.292h4.774zm-.156 2.27v2.152h2.308v1.29h-3.6v-2.16h-3.405v-1.29h4.695zm0 5.79v4.03h-1.292v-2.74h-3.405v-1.29h4.695z" fill="#4D4D4D"/><path d="M20.057 19.378l.313-.782h-3.327l.666.782h-3.8v7.944c0 2.348 1.91 4.265 4.26 4.265h.86c2.35 0 4.26-1.917 4.26-4.265v-7.944h-3.24z" fill="#303123"/><path d="M17.826 18.557h-3.913v7.278c0 2.152 1.76 3.913 3.913 3.913v-11.19z" fill="#02CE1B"/><path d="M19.39 18.557v11.19c2.153 0 3.914-1.76 3.914-3.912v-7.278H19.39z" fill="#029925"/><circle fill="#FFF" cx="15.8695652" cy="20.6695652" r="1.0173913"/></g></g></svg>