<svg id="Layer_1" xmlns="http://www.w3.org/2000/svg" x="0px" y="0px" viewBox="-98 340.7 414.2 112.3"><style>.screenshot-tellteam-0{fill:#FFFFFF;} .screenshot-tellteam-1{fill:#FFFFFF;screenshot-tellteam-roke:#E7E7E7;screenshot-tellteam-roke-width:2;} .screenshot-tellteam-2{fill:#870030;} .screenshot-tellteam-3{fill:#F2BF3A;} .screenshot-tellteam-4{fill:#1C1C1C;} .screenshot-tellteam-5{enable-background:new ;} .screenshot-tellteam-6{fill:#2C2D30;} .screenshot-tellteam-7{fill:#2B80B9;} .screenshot-tellteam-8{fill:#9E9EA6;} .screenshot-tellteam-9{fill:#F7F7F9;screenshot-tellteam-roke:#E1E1E8;} .screenshot-tellteam-10{fill:#CC2255;}</style><path id="path-1" class="screenshot-tellteam-0" d="M-67.8 368.6H-35v37.7h-32.8"/><g id="Page-1_1_"><g id="Tell-Team"><g id="Group"><path id="Rectangle-1" class="screenshot-tellteam-1" d="M-85.8 342.4h390c5.5 0 10 4.5 10 10v89c0 5.5-4.5 10-10 10h-390c-5.5 0-10-4.5-10-10v-89c0-5.5 4.5-10 10-10z"/><g id="Rectangle-2-_x2B_-Page-1"><path id="Rectangle-2" class="screenshot-tellteam-2" d="M-70.8 362.4h38c3.3 0 6 2.7 6 6v38c0 3.3-2.7 6-6 6h-38c-3.3 0-6-2.7-6-6v-38c0-3.3 2.7-6 6-6z"/><g id="Page-1"><g id="Group-3"><path id="Fill-1" class="screenshot-tellteam-3" d="M-37.9 387.6c-1-.2-2 0-3.1.7-.9-5.1-.4-10.4-1-15.5-.3-2.5-2.9-5.6-5.5-3.2-1.1 1-1.4 2.8-1.5 4.5 0 .2-11.4-.3-11.3.4-.2-3.3-1.2-5.7-3.8-5.4-4.5.5-3.8 7.2-3.5 10.9.4 4.2.6 8.4.9 12.6.1 1.5.4 2.6.8 3.4-1.2 2.8-.6 6.6 1.4 8.9 1.2 1.4 3.2-.7 2-2.2-1.1-1.3-1.5-3.4-.9-5 .6.2 1.3.2 2 .3.6 0 1.3.1 1.9.1-.5 2.6 0 5.3 1.4 7.5 1 1.6 3.5 0 2.4-1.6-1.2-1.7-1.5-3.8-.9-5.8h4.4c-.1 2.2.5 4.4 1.9 6.2 1.2 1.4 3.6-.1 2.4-1.6-1.1-1.4-1.7-3.1-1.5-4.8.8-.1 1.6-.2 2.5-.4.6-.1 1.1-.2 1.7-.3-.1 2 .5 3.9 1.9 5.6 1.2 1.4 3.6-.1 2.4-1.6s-1.8-3.1-1.3-5l.1-.1c2.6 2.1 6-1 6.7-3.6.9-2.5-.5-4.6-2.5-5"/></g><path id="Fill-4" class="screenshot-tellteam-4" d="M-61.4 384.4c-2 .1-1.9 3.1.1 3 2.1-.2 1.9-3.2-.1-3"/><path id="Fill-6" class="screenshot-tellteam-4" d="M-52.4 384.4c-2 .1-1.9 3.1.1 3 2.1-.2 1.9-3.2-.1-3"/><path id="Fill-8" class="screenshot-tellteam-4" d="M-59.5 391.2c.7.5 1.4.9 2.2 1.1.4.1.8-.1 1-.5.3-.4.8-.7 1.2-1.1.8-.8-.5-2-1.3-1.2-.3.3-.6.5-.9.8-.4-.1-.7-.3-1-.5-.9-.7-2.1.7-1.2 1.4"/></g></g><path class="screenshot-tellteam-5 screenshot-tellteam-6" d="M-13.5 366v13.4h-2.2V366h2.2zm10.2 4.1v9.2h-1.4c-.3 0-.5-.1-.6-.4l-.2-.7c-.4.4-.8.7-1.3.9-.5.2-1 .4-1.6.4-.5 0-.9-.1-1.3-.3-.4-.2-.7-.4-1-.7-.3-.3-.5-.7-.6-1.1s-.2-.9-.2-1.4v-5.9h2.2v5.9c0 .6.1 1 .4 1.3.3.3.7.5 1.2.5.4 0 .7-.1 1.1-.3s.7-.4 1-.7v-6.7h2.3zm8.8 2c-.1.1-.1.2-.2.2s-.2.1-.3.1c-.1 0-.2 0-.3-.1-.1-.1-.2-.1-.4-.2s-.3-.2-.5-.2c-.2-.1-.5-.1-.8-.1-.4 0-.7.1-1 .2s-.5.3-.7.6c-.2.3-.3.6-.4 1s-.1.8-.1 1.3.1.9.2 1.3.3.7.5 1 .4.5.7.6c.3.1.6.2 1 .2s.6 0 .9-.1l.6-.3c.1-.1.3-.2.4-.3.1-.1.2-.1.4-.1s.3.1.4.2l.6.8c-.2.3-.5.5-.8.7s-.6.4-.9.5-.6.2-1 .2c-.3 0-.7.1-1 .1-.6 0-1.1-.1-1.6-.3s-.9-.5-1.3-.9-.7-.9-.9-1.5c-.2-.6-.3-1.3-.3-2s.1-1.3.3-1.9.5-1.1.9-1.5.8-.8 1.4-1 1.2-.4 1.9-.4 1.3.1 1.8.3 1 .5 1.4 1l-.9.6zm4.7-4.6c0 .2 0 .4-.1.5-.1.2-.2.3-.3.4s-.3.2-.5.3c-.2.1-.4.1-.6.1-.2 0-.4 0-.5-.1s-.3-.2-.4-.3-.2-.3-.3-.4c-.1-.2-.1-.3-.1-.5s0-.4.1-.6.2-.3.3-.4.3-.2.4-.3.4-.1.5-.1c.2 0 .4 0 .6.1.2.1.3.2.5.3.1.1.2.3.3.4.1.2.1.3.1.6zm-.3 2.6v9.2H7.7v-9.2h2.2zm2.1 1.4c1.1-1 2.3-1.5 3.8-1.5.5 0 1 .1 1.4.3.4.2.8.4 1.1.7.3.3.5.7.7 1.1.2.4.2.9.2 1.4v5.8h-1c-.2 0-.4 0-.5-.1s-.2-.2-.3-.4l-.2-.7c-.2.2-.5.4-.7.6s-.5.3-.7.4-.5.2-.8.2c-.3.1-.6.1-.9.1-.4 0-.8-.1-1.1-.2s-.6-.3-.9-.5c-.2-.2-.4-.5-.6-.8-.1-.3-.2-.7-.2-1.1 0-.2 0-.5.1-.7s.2-.5.4-.7.4-.4.7-.6.6-.3 1-.5.9-.3 1.4-.3 1.2-.1 1.9-.2v-.5c0-.6-.1-1.1-.4-1.4s-.6-.4-1.1-.4c-.4 0-.7 0-.9.1l-.6.3c-.2.1-.3.2-.5.3s-.3.1-.5.1-.3 0-.4-.1l-.3-.3-.1-.4zm5 4c-.6 0-1.2.1-1.6.2s-.8.2-1.1.3c-.3.1-.5.3-.6.4-.1.2-.2.4-.2.5 0 .4.1.7.3.8s.5.3.9.3c.5 0 .9-.1 1.2-.2s.7-.4 1-.8v-1.5h.1z"/><g id="Message-body"><path class="screenshot-tellteam-5 screenshot-tellteam-6" d="M-13.9 394.5c.4-.4.8-.7 1.3-1 .5-.2 1-.4 1.6-.4.5 0 .9.1 1.3.2.4.2.7.4 1 .7s.4.7.6 1.1.2.9.2 1.4v5.8h-1.6v-5.8c0-.7-.2-1.2-.5-1.6s-.8-.6-1.4-.6c-.5 0-.9.1-1.3.3-.4.2-.8.5-1.1.9v6.7h-1.6v-13.3h1.6l-.1 5.6zm15.8 6.6c-.2.2-.4.4-.7.6s-.6.3-.9.4-.6.2-1 .3c-.3.1-.7.1-1 .1-.6 0-1.2-.1-1.7-.3-.5-.2-1-.5-1.4-.9s-.7-.9-.9-1.5c-.2-.6-.3-1.3-.3-2.1 0-.6.1-1.2.3-1.8.2-.6.5-1 .8-1.4.4-.4.8-.7 1.3-1 .5-.2 1.1-.3 1.8-.3.5 0 1.1.1 1.5.3.5.2.9.4 1.2.8s.6.8.8 1.3c.2.5.3 1.1.3 1.7 0 .3 0 .4-.1.5s-.2.1-.3.1h-6.1c0 .6.1 1.1.2 1.5s.3.8.6 1.1.6.5.9.6.7.2 1.2.2c.4 0 .7 0 1-.1s.5-.2.8-.3c.2-.1.4-.2.5-.3.1-.1.3-.1.4-.1s.2.1.3.2l.5.4zm-1.3-4.3c0-.4-.1-.7-.2-1s-.3-.6-.5-.8c-.2-.2-.4-.4-.7-.5s-.6-.2-1-.2c-.8 0-1.4.2-1.8.7-.4.4-.7 1.1-.8 1.9h5v-.1zm11-3.6L6.5 405c-.1.1-.1.2-.2.3-.1.1-.2.1-.4.1H4.7l1.7-3.6-3.8-8.6H4c.1 0 .2 0 .3.1l.2.2 2.4 5.7c.1.3.2.5.2.8.1-.3.2-.5.3-.8l2.4-5.7c0-.1.1-.2.2-.2.1-.1.2-.1.3-.1h1.3z"/><path class="screenshot-tellteam-5 screenshot-tellteam-7" d="M26 397.5c-.1.5-.2.8-.2 1.1s.1.5.1.7c.1.2.2.3.4.3.2.1.3.1.5.1.3 0 .6-.1.8-.3s.5-.4.7-.7c.2-.3.4-.7.5-1.1s.2-.9.2-1.4c0-.8-.1-1.6-.4-2.2s-.6-1.1-1.1-1.6c-.5-.4-1-.7-1.6-.9-.6-.2-1.3-.3-2-.3-.8 0-1.6.2-2.3.5s-1.3.7-1.8 1.3-.9 1.2-1.2 1.9c-.3.7-.5 1.5-.5 2.4 0 1 .2 1.9.5 2.7.3.8.8 1.4 1.3 1.9.6.5 1.2.9 2 1.2.8.3 1.6.4 2.4.4.9 0 1.7-.1 2.4-.3.7-.2 1.3-.5 1.8-.8.1-.1.2-.1.3-.1s.2.1.2.2l.2.6c-.6.4-1.4.8-2.2 1s-1.7.4-2.8.4c-1 0-2-.2-2.9-.5s-1.7-.8-2.3-1.4c-.7-.6-1.2-1.4-1.5-2.3-.4-.9-.6-1.9-.6-3.1 0-.7.1-1.3.2-1.9s.4-1.2.7-1.7c.3-.5.7-1 1.1-1.4s.9-.8 1.4-1.1c.5-.3 1.1-.5 1.7-.7.6-.2 1.2-.3 1.9-.3.6 0 1.1.1 1.6.2s1 .3 1.5.5.9.5 1.3.9.7.7 1 1.2c.3.4.5.9.7 1.5.2.5.2 1.1.2 1.8 0 .6-.1 1.2-.3 1.8-.2.5-.4 1-.8 1.4-.3.4-.7.7-1.1.9-.4.2-.9.3-1.4.3s-.8-.1-1.1-.3c-.3-.2-.5-.6-.6-1-.3.5-.7.8-1.1 1s-.8.3-1.3.3c-.4 0-.7-.1-.9-.2-.3-.1-.5-.3-.7-.5s-.3-.5-.4-.8c-.1-.3-.1-.6-.1-1 0-.5.1-1 .3-1.5s.5-1 .9-1.4.9-.8 1.4-1c.6-.3 1.2-.4 2-.4.4 0 .8 0 1.1.1l.9.3-1 3.3zm-.5-2.5c-.2-.1-.5-.1-.8-.1-.5 0-.9.1-1.2.3-.4.2-.7.4-1 .7s-.5.7-.6 1.1c-.2.4-.2.8-.2 1.2 0 .4.1.8.3 1 .2.3.5.4.9.4.2 0 .4 0 .6-.1.2-.1.4-.2.5-.3.2-.1.3-.4.5-.6.1-.3.3-.6.4-1l.6-2.6zm13.1-.1c0 .1-.1.1-.1.2 0 0-.1.1-.2.1s-.2 0-.3-.1-.2-.2-.4-.2c-.2-.1-.4-.2-.6-.2s-.5-.1-.9-.1c-.5 0-.8.1-1.2.2-.3.2-.6.4-.9.7s-.4.7-.5 1.1-.2.9-.2 1.4c0 .6.1 1 .2 1.5.1.4.3.8.5 1.1s.5.5.8.7.7.2 1.1.2c.4 0 .7 0 1-.1s.5-.2.6-.3c.2-.1.3-.2.4-.3.1-.1.2-.1.3-.1s.2.1.3.2l.5.6c-.2.2-.4.5-.7.6-.3.2-.5.3-.8.4l-.9.3c-.3.1-.6.1-1 .1-.6 0-1.1-.1-1.6-.3-.5-.2-.9-.5-1.3-.9s-.6-.9-.8-1.5-.3-1.2-.3-2c0-.7.1-1.3.3-1.9s.5-1.1.8-1.5c.4-.4.8-.7 1.3-1 .5-.2 1.1-.4 1.8-.4.6 0 1.2.1 1.7.3.5.2.9.5 1.3.9l-.2.3zm3.9-.4c.4-.4.8-.7 1.3-1 .5-.2 1-.4 1.6-.4.5 0 .9.1 1.3.2.4.2.7.4 1 .7s.4.7.6 1.1.2.9.2 1.4v5.8h-1.6v-5.8c0-.7-.2-1.2-.5-1.6s-.8-.6-1.4-.6c-.5 0-.9.1-1.3.3-.4.2-.8.5-1.1.9v6.7H41v-13.3h1.6l-.1 5.6zm8.2.1c.5-.5 1-.8 1.6-1.1s1.2-.4 1.9-.4c.5 0 1 .1 1.4.3s.7.4 1 .7.5.7.6 1.1.2.9.2 1.4v5.8h-.7c-.2 0-.3 0-.4-.1s-.1-.2-.2-.3l-.2-.9c-.2.2-.5.4-.7.6s-.5.3-.7.4c-.3.1-.5.2-.8.3-.3.1-.6.1-.9.1-.4 0-.7 0-1-.1s-.6-.2-.8-.4-.4-.4-.5-.8c-.1-.3-.2-.7-.2-1.1s.1-.7.3-1 .5-.6 1-.9c.4-.3 1-.5 1.7-.6.7-.2 1.6-.3 2.6-.3v-.7c0-.7-.2-1.2-.5-1.6s-.8-.5-1.3-.5c-.4 0-.7 0-1 .1s-.5.2-.7.3c-.2.1-.4.2-.5.3-.1.1-.3.1-.4.1s-.2 0-.3-.1l-.2-.2-.3-.4zm5.2 3.6c-.7 0-1.4.1-1.9.2s-.9.2-1.3.4c-.3.2-.6.3-.7.5s-.2.4-.2.7c0 .2 0 .4.1.6s.2.3.3.4c.1.1.3.2.5.2.2.1.4.1.6.1.3 0 .5 0 .8-.1s.5-.1.7-.2.4-.2.6-.4c.2-.1.4-.3.6-.5v-1.9h-.1zm5.5-3.6l.6-.6s.5-.3.7-.5c.2-.1.5-.2.8-.3.3-.1.6-.1.9-.1.5 0 .9.1 1.3.2.4.2.7.4 1 .7s.4.7.6 1.1c.1.4.2.9.2 1.4v5.8h-1.6v-5.8c0-.7-.2-1.2-.5-1.6s-.8-.6-1.4-.6c-.5 0-.9.1-1.3.3-.4.2-.8.5-1.1.9v6.7H60v-9.1h1c.2 0 .4.1.4.3v1.2zm10 0l.6-.6c.2-.2.5-.3.7-.5.2-.1.5-.2.8-.3.3-.1.6-.1.9-.1.5 0 .9.1 1.3.2.4.2.7.4 1 .7s.4.7.6 1.1.2.9.2 1.4v5.8h-1.6v-5.8c0-.7-.2-1.2-.5-1.6s-.8-.6-1.4-.6c-.5 0-.9.1-1.3.3-.4.2-.8.5-1.1.9v6.7H70v-9.1h1c.2 0 .4.1.4.3v1.2zm16 6.5c-.2.2-.4.4-.7.6-.3.2-.6.3-.9.4s-.6.2-1 .3c-.3.1-.7.1-1 .1-.6 0-1.2-.1-1.7-.3-.5-.2-1-.5-1.4-.9s-.7-.9-.9-1.5-.3-1.3-.3-2.1c0-.6.1-1.2.3-1.8.2-.6.5-1 .8-1.4.4-.4.8-.7 1.3-1 .5-.2 1.1-.3 1.8-.3.5 0 1.1.1 1.5.3.5.2.9.4 1.2.8s.6.8.8 1.3c.2.5.3 1.1.3 1.7 0 .3 0 .4-.1.5s-.2.1-.3.1H81c0 .6.1 1.1.2 1.5s.3.8.6 1.1.6.5.9.6.7.2 1.2.2c.4 0 .7 0 1-.1.3-.1.5-.2.8-.3.2-.1.4-.2.5-.3.1-.1.3-.1.4-.1s.2.1.3.2l.5.4zm-1.3-4.3c0-.4-.1-.7-.2-1-.1-.3-.3-.6-.5-.8-.2-.2-.4-.4-.7-.5s-.6-.2-1-.2c-.8 0-1.4.2-1.8.7-.4.4-.7 1.1-.8 1.9h5v-.1zm5-7.7v13.3h-1.6v-13.3h1.6z"/><path class="screenshot-tellteam-5 screenshot-tellteam-6" d="M93.6 396.2H98v1.4h-4.4v-1.4zm13.5 6.2h-1.7v-12.9h1.7v12.9zm9.2-9.2v9.8c0 .4 0 .7-.1 1s-.2.6-.5.8c-.2.2-.5.4-.8.6-.3.1-.7.2-1.2.2h-.5c-.2 0-.3-.1-.5-.1l.1-.9c0-.1 0-.1.1-.1h.6c.5 0 .8-.1 1-.3.2-.2.3-.6.3-1.1v-9.8h1.5v-.1zm.4-2.8c0 .2 0 .3-.1.4s-.1.3-.3.4c-.1.1-.2.2-.4.2-.1.1-.3.1-.4.1-.2 0-.3 0-.4-.1-.1-.1-.3-.1-.4-.2s-.2-.2-.2-.4c-.1-.1-.1-.3-.1-.4 0-.2 0-.3.1-.4s.1-.3.2-.4.2-.2.4-.2c.1-.1.3-.1.4-.1.2 0 .3 0 .4.1.1.1.3.1.4.2.1.1.2.2.3.4 0 .1.1.2.1.4zm9.8 2.8v9.1h-1c-.2 0-.4-.1-.4-.3l-.1-1c-.4.4-.8.8-1.3 1.1-.5.3-1.1.4-1.7.4-.5 0-.9-.1-1.3-.2s-.7-.4-1-.7c-.3-.3-.5-.7-.6-1.1s-.2-.9-.2-1.4v-5.8h1.6v5.8c0 .7.2 1.2.5 1.6s.8.6 1.4.6c.5 0 .9-.1 1.3-.3.4-.2.8-.5 1.1-.9v-6.7h1.7v-.2zm7.8 1.6c-.1.1-.2.2-.3.2s-.2 0-.3-.1-.3-.1-.4-.2-.4-.2-.6-.2c-.2-.1-.5-.1-.8-.1s-.5 0-.7.1l-.6.3-.4.4c-.1.2-.1.3-.1.5s.1.4.2.6c.1.2.3.3.5.4s.5.2.8.3l.9.3.9.3c.3.1.5.3.8.5.2.2.4.4.5.7s.2.6.2.9c0 .4-.1.8-.2 1.2-.2.4-.4.7-.7.9-.3.3-.7.5-1.1.6-.4.2-.9.2-1.5.2s-1.2-.1-1.7-.3c-.5-.2-1-.5-1.3-.8l.4-.6c0-.1.1-.1.2-.2.1 0 .1-.1.3-.1.1 0 .2 0 .3.1s.3.2.4.3l.6.3c.2.1.6.1.9.1.3 0 .6 0 .8-.1l.6-.3c.2-.1.3-.3.3-.5.1-.2.1-.4.1-.6 0-.3-.1-.5-.2-.6s-.3-.3-.5-.4-.5-.2-.8-.3l-.9-.3-.9-.3s-.5-.3-.8-.5c-.2-.2-.4-.4-.5-.7-.1-.3-.2-.6-.2-1 0-.3.1-.7.2-1 .1-.3.4-.6.6-.8.3-.2.6-.4 1-.6.4-.1.9-.2 1.4-.2.6 0 1.1.1 1.6.3.5.2.9.4 1.2.8l-.2.5zm5.3 7.7c-.7 0-1.3-.2-1.7-.6s-.6-1-.6-1.7v-5.6h-1.1c-.1 0-.2 0-.2-.1-.1-.1-.1-.1-.1-.3v-.6l1.5-.2.4-2.8c0-.1.1-.2.1-.2.1-.1.1-.1.2-.1h.8v3.1h2.6v1.2h-2.6v5.5c0 .4.1.7.3.9.2.2.4.3.7.3.2 0 .3 0 .4-.1s.2-.1.3-.1c.1-.1.2-.1.2-.1.1 0 .1-.1.2-.1s.2.1.2.2l.5.8c-.3.3-.6.5-1 .6h-1.1zm8-7.9c.5-.5 1-.8 1.6-1.1s1.2-.4 1.9-.4c.5 0 1 .1 1.4.3.4.2.7.4 1 .7.3.3.5.7.6 1.1s.2.9.2 1.4v5.8h-.7c-.2 0-.3 0-.4-.1s-.2-.3-.2-.3l-.2-.9c-.2.2-.5.4-.7.6s-.5.3-.7.4c-.3.1-.5.2-.8.3-.3.1-.6.1-1 .1s-.7 0-1-.1-.6-.2-.8-.4c-.2-.2-.4-.4-.5-.8-.1-.3-.2-.7-.2-1.1s.1-.7.3-1 .5-.6 1-.9 1-.5 1.7-.6c.7-.2 1.6-.3 2.6-.3v-.7c0-.7-.2-1.2-.5-1.6s-.8-.5-1.3-.5c-.4 0-.7 0-1 .1s-.5.2-.7.3c-.2.1-.4.2-.5.3-.1.1-.3.1-.4.1s-.2 0-.3-.1l-.2-.2-.2-.4zm5.2 3.6c-.7 0-1.4.1-1.9.2s-.9.2-1.3.4c-.3.2-.6.3-.7.5s-.2.4-.2.7c0 .2 0 .4.1.6s.2.3.3.4c.1.1.3.2.5.2s.4.1.6.1c.3 0 .5 0 .8-.1.2-.1.5-.1.7-.2s.4-.2.6-.4c.2-.1.4-.3.6-.5l-.1-1.9zm11.6-9.1v13.3h-1c-.2 0-.4-.1-.4-.3l-.1-1.1c-.4.5-.8.8-1.3 1.1s-1.1.4-1.7.4c-.5 0-1-.1-1.4-.3-.4-.2-.8-.5-1.1-.9-.3-.4-.5-.9-.7-1.5s-.2-1.3-.2-2 .1-1.3.3-1.9c.2-.6.4-1.1.8-1.5s.7-.8 1.2-1 1-.4 1.7-.4c.6 0 1 .1 1.4.3.4.2.8.5 1.1.8v-5h1.4zm-1.7 6.4c-.3-.4-.6-.7-1-.8-.3-.2-.7-.2-1.2-.2-.8 0-1.5.3-2 .9s-.7 1.5-.7 2.6c0 .6.1 1.1.2 1.5s.3.8.5 1c.2.3.4.5.7.6.3.1.6.2 1 .2.5 0 1-.1 1.4-.4.4-.2.8-.6 1.1-1v-4.4zm11.7-6.4v13.3h-1c-.2 0-.4-.1-.4-.3l-.1-1.1c-.4.5-.8.8-1.3 1.1s-1.1.4-1.7.4c-.5 0-1-.1-1.4-.3-.4-.2-.8-.5-1.1-.9-.3-.4-.5-.9-.7-1.5s-.2-1.3-.2-2 .1-1.3.3-1.9c.2-.6.4-1.1.8-1.5s.7-.8 1.2-1 1-.4 1.7-.4c.6 0 1 .1 1.4.3.4.2.8.5 1.1.8v-5h1.4zm-1.6 6.4c-.3-.4-.6-.7-1-.8-.3-.2-.7-.2-1.2-.2-.8 0-1.5.3-2 .9s-.7 1.5-.7 2.6c0 .6.1 1.1.2 1.5s.3.8.5 1c.2.3.4.5.7.6.3.1.6.2 1 .2.5 0 1-.1 1.4-.4.4-.2.8-.6 1.1-1v-4.4zm11.6 5.6c-.2.2-.4.4-.7.6-.3.2-.6.3-.9.4s-.6.2-1 .3c-.3.1-.7.1-1 .1-.6 0-1.2-.1-1.7-.3-.5-.2-1-.5-1.4-.9s-.7-.9-.9-1.5c-.2-.6-.3-1.3-.3-2.1 0-.6.1-1.2.3-1.8.2-.6.5-1 .8-1.4.4-.4.8-.7 1.3-1 .5-.2 1.1-.3 1.8-.3.5 0 1.1.1 1.5.3.5.2.9.4 1.2.8s.6.8.8 1.3c.2.5.3 1.1.3 1.7 0 .3 0 .4-.1.5s-.2.1-.3.1H178c0 .6.1 1.1.2 1.5s.3.8.6 1.1.6.5.9.6.7.2 1.2.2c.4 0 .7 0 1-.1s.5-.2.8-.3c.2-.1.4-.2.5-.3.1-.1.3-.1.4-.1s.2.1.3.2l.5.4zm-1.3-4.3c0-.4-.1-.7-.2-1s-.3-.6-.5-.8c-.2-.2-.4-.4-.7-.5s-.6-.2-1-.2c-.8 0-1.4.2-1.8.7-.4.4-.7 1.1-.8 1.9h5v-.1zm10.9-7.7v13.3h-1c-.2 0-.4-.1-.4-.3l-.1-1.1c-.4.5-.8.8-1.3 1.1-.5.3-1.1.4-1.7.4-.5 0-1-.1-1.4-.3-.4-.2-.8-.5-1.1-.9-.3-.4-.5-.9-.7-1.5s-.2-1.3-.2-2 .1-1.3.3-1.9c.2-.6.4-1.1.8-1.5s.7-.8 1.2-1 1-.4 1.7-.4c.6 0 1 .1 1.4.3.4.2.8.5 1.1.8v-5h1.4zm-1.6 6.4c-.3-.4-.6-.7-1-.8-.3-.2-.7-.2-1.2-.2-.8 0-1.5.3-2 .9s-.7 1.5-.7 2.6c0 .6.1 1.1.2 1.5s.3.8.5 1c.2.3.4.5.7.6s.6.2 1 .2c.5 0 1-.1 1.4-.4.4-.2.8-.6 1.1-1v-4.4zm-205.1 33c-.7 0-1.3-.2-1.7-.6-.4-.4-.6-1-.6-1.7v-5.6h-1.1c-.1 0-.2 0-.2-.1s-.1-.1-.1-.3v-.6l1.5-.2.4-2.8c0-.1.1-.2.1-.2.1-.1.1-.1.2-.1h.8v3.1h2.6v1.2h-2.6v5.5c0 .4.1.7.3.9.2.2.4.3.7.3.2 0 .3 0 .4-.1s.2-.1.3-.1c.1-.1.2-.1.2-.1s.1-.1.2-.1.2.1.2.2l.5.8c-.3.3-.6.5-1 .6h-1.1zm7.4-9.4c.7 0 1.3.1 1.8.3.5.2 1 .5 1.4.9s.7.9.9 1.5c.2.6.3 1.2.3 1.9s-.1 1.4-.3 1.9-.5 1.1-.9 1.5-.8.7-1.4.9c-.5.2-1.1.3-1.8.3s-1.3-.1-1.8-.3c-.5-.2-1-.5-1.4-.9s-.7-.9-.9-1.5c-.2-.6-.3-1.2-.3-1.9s.1-1.4.3-1.9c.2-.6.5-1.1.9-1.5s.8-.7 1.4-.9c.5-.3 1.1-.3 1.8-.3zm0 8.1c.9 0 1.6-.3 2-.9s.7-1.4.7-2.5-.2-1.9-.7-2.5c-.4-.6-1.1-.9-2-.9-.5 0-.9.1-1.2.2-.3.2-.6.4-.8.7-.2.3-.4.7-.5 1.1s-.2.9-.2 1.5c0 1.1.2 1.9.7 2.5.4.6 1.1.8 2 .8zm14.8-8.1c.7 0 1.3.1 1.8.3.5.2 1 .5 1.4.9s.7.9.9 1.5c.2.6.3 1.2.3 1.9s-.1 1.4-.3 1.9-.5 1.1-.9 1.5-.8.7-1.4.9c-.5.2-1.1.3-1.8.3s-1.3-.1-1.8-.3c-.5-.2-1-.5-1.4-.9s-.7-.9-.9-1.5c-.2-.6-.3-1.2-.3-1.9s.1-1.4.3-1.9c.2-.6.5-1.1.9-1.5s.8-.7 1.4-.9c.6-.3 1.2-.3 1.8-.3zm0 8.1c.9 0 1.6-.3 2-.9s.7-1.4.7-2.5-.2-1.9-.7-2.5c-.4-.6-1.1-.9-2-.9-.5 0-.9.1-1.2.2-.3.2-.6.4-.8.7-.2.3-.4.7-.5 1.1s-.2.9-.2 1.5c0 1.1.2 1.9.7 2.5.4.6 1.1.8 2 .8zm13.9-8v9.1h-1c-.2 0-.4-.1-.4-.3l-.1-1c-.4.4-.8.8-1.3 1.1-.5.3-1.1.4-1.7.4-.5 0-.9-.1-1.3-.2-.4-.2-.7-.4-1-.7-.3-.3-.5-.7-.6-1.1s-.2-.9-.2-1.4v-5.8h1.6v5.8c0 .7.2 1.2.5 1.6s.8.6 1.4.6c.5 0 .9-.1 1.3-.3.4-.2.8-.5 1.1-.9v-6.7h1.7v-.2zm4.1 1.9c.3-.6.6-1.1 1.1-1.5.4-.4.9-.5 1.5-.5.2 0 .4 0 .6.1.2 0 .3.1.5.2l-.1 1.2c0 .2-.1.2-.3.2-.1 0-.2 0-.4-.1-.2 0-.3-.1-.5-.1-.3 0-.5 0-.8.1-.2.1-.4.2-.6.4-.2.2-.3.4-.5.6-.1.2-.3.5-.4.8v5.8H26v-9.1h.9c.2 0 .3 0 .4.1.1.1.1.2.1.3l.1 1.5zm16.2-3.6c-.1.1-.1.2-.2.2s-.1.1-.2.1-.2-.1-.4-.2c-.1-.1-.3-.2-.5-.3s-.5-.2-.7-.3c-.3-.1-.6-.2-1.1-.2-.4 0-.7.1-1 .2s-.5.2-.7.4-.4.4-.5.6-.2.5-.2.8c0 .4.1.7.3.9.2.2.4.4.7.6s.6.3 1 .4.7.3 1.1.4c.4.1.8.3 1.1.4s.7.4 1 .6.5.6.7.9c.2.4.3.8.3 1.3 0 .6-.1 1.1-.3 1.6s-.5.9-.8 1.3c-.4.4-.8.7-1.4.9-.5.2-1.1.3-1.8.3-.8 0-1.6-.2-2.3-.5s-1.3-.7-1.8-1.2l.5-.8c0-.1.1-.1.2-.2s.1-.1.2-.1.2 0 .3.1.2.1.3.2.3.2.4.3.3.2.6.3c.2.1.4.2.7.2.3.1.6.1.9.1.4 0 .8-.1 1.1-.2s.6-.3.8-.5.4-.5.5-.7c.1-.3.2-.6.2-1s-.1-.7-.3-1c-.2-.2-.4-.5-.7-.6s-.6-.3-1-.4-.8-.2-1.1-.4-.8-.3-1.1-.4c-.4-.2-.7-.4-1-.6s-.5-.6-.7-1-.3-.9-.3-1.4.1-.9.3-1.3.4-.8.8-1.1c.3-.3.8-.6 1.3-.8s1.1-.3 1.7-.3c.7 0 1.4.1 2 .3.6.2 1.1.6 1.6 1l-.5 1.1zm4.3-2.4v13.3h-1.6v-13.3H48zm2.3 5.5c.5-.5 1-.8 1.6-1.1s1.2-.4 1.9-.4c.5 0 1 .1 1.4.3s.7.4 1 .7.5.7.6 1.1.2.9.2 1.4v5.8h-.7c-.2 0-.3 0-.4-.1s-.1-.2-.2-.3l-.2-.9c-.2.2-.5.4-.7.6s-.5.3-.7.4c-.3.1-.5.2-.8.3-.3.1-.6.1-.9.1-.4 0-.7 0-1-.1s-.6-.2-.8-.4-.4-.4-.5-.8c-.1-.3-.2-.7-.2-1.1s.1-.7.3-1 .5-.6 1-.9c.4-.3 1-.5 1.7-.6.7-.2 1.6-.3 2.6-.3v-.7c0-.7-.2-1.2-.5-1.6s-.8-.5-1.3-.5c-.4 0-.7 0-1 .1s-.5.2-.7.3c-.2.1-.4.2-.5.3-.1.1-.3.1-.4.1s-.2 0-.3-.1l-.2-.2-.3-.4zm5.2 3.6c-.7 0-1.4.1-1.9.2s-.9.2-1.3.4c-.3.2-.6.3-.7.5s-.2.4-.2.7c0 .2 0 .4.1.6s.2.3.3.4c.1.1.3.2.5.2.2.1.4.1.6.1.3 0 .5 0 .8-.1s.5-.1.7-.2.4-.2.6-.4c.2-.1.4-.3.6-.5v-1.9h-.1zm10.4-3.3c0 .1-.1.1-.1.2 0 0-.1.1-.2.1s-.2 0-.3-.1-.2-.2-.4-.2c-.2-.1-.4-.2-.6-.2s-.5-.1-.9-.1c-.5 0-.8.1-1.2.2-.3.2-.6.4-.9.7s-.4.7-.5 1.1-.2.9-.2 1.4c0 .6.1 1 .2 1.5.1.4.3.8.5 1.1s.5.5.8.7.7.2 1.1.2.7 0 1-.1.5-.2.6-.3c.2-.1.3-.2.4-.3.1-.1.2-.1.3-.1.1 0 .2.1.3.2l.5.6c-.2.2-.4.5-.7.6-.3.2-.5.3-.8.4l-.9.3c-.3.1-.6.1-1 .1-.6 0-1.1-.1-1.6-.3-.5-.2-.9-.5-1.3-.9s-.6-.9-.8-1.5-.3-1.2-.3-2c0-.7.1-1.3.3-1.9.2-.6.5-1.1.8-1.5.4-.4.8-.7 1.3-1 .5-.2 1.1-.4 1.8-.4.6 0 1.2.1 1.7.3.5.2.9.5 1.3.9l-.2.3zm3.8-5.8v7.8h.7s.2-.1.3-.2l2.9-3.1c.1-.1.2-.2.3-.2.1-.1.2-.1.4-.1h1.4l-3.4 3.6c-.2.2-.3.4-.5.5.1.1.2.2.3.2s.2.2.2.3l3.6 4.5h-1.4c-.1 0-.3 0-.4-.1-.1 0-.2-.1-.3-.2l-3-3.7c-.1-.1-.2-.2-.3-.2s-.2-.1-.4-.1h-.5v4.4H68v-13.3l1.7-.1zm7.3 12.3c0-.2 0-.3.1-.4s.1-.3.2-.4.2-.2.4-.2c.1-.1.3-.1.4-.1.2 0 .3 0 .4.1s.3.1.4.2.2.2.2.4c.1.1.1.3.1.4 0 .2 0 .3-.1.4s-.1.2-.2.3-.2.2-.4.2c-.1.1-.3.1-.4.1-.2 0-.3 0-.4-.1s-.3-.1-.4-.2-.2-.2-.2-.4c-.1-.1-.1-.1-.1-.3zm18.5-1.8c.1 0 .2 0 .3.1l.7.7c-.5.6-1.2 1.1-1.9 1.4s-1.7.5-2.7.5c-.9 0-1.8-.2-2.5-.5-.8-.3-1.4-.8-1.9-1.3-.5-.6-.9-1.3-1.2-2.1-.3-.8-.4-1.7-.4-2.7s.2-1.9.5-2.7c.3-.8.7-1.5 1.3-2.1.6-.6 1.2-1 2-1.4.8-.4 1.6-.5 2.6-.5.9 0 1.7.1 2.4.4.7.3 1.3.7 1.9 1.2l-.6.8c0 .1-.1.1-.1.1s-.1.1-.2.1-.2-.1-.4-.2-.4-.2-.6-.4c-.3-.1-.6-.3-.9-.4-.4-.1-.8-.2-1.4-.2-.7 0-1.3.1-1.8.3-.6.2-1 .6-1.4 1-.4.4-.7 1-.9 1.6s-.3 1.3-.3 2.1.1 1.5.3 2.2.5 1.2.9 1.6c.4.4.9.8 1.4 1s1.1.3 1.8.3c.4 0 .7 0 1-.1.3 0 .6-.1.9-.2.3-.1.5-.2.7-.4.2-.1.4-.3.7-.5-.4.5-.3.3-.2.3zm4.2-5.1c.4-.4.8-.7 1.3-1 .5-.2 1-.4 1.6-.4.5 0 .9.1 1.3.2.4.2.7.4 1 .7s.4.7.6 1.1.2.9.2 1.4v5.8h-1.6v-5.8c0-.7-.2-1.2-.5-1.6s-.8-.6-1.4-.6c-.5 0-.9.1-1.3.3-.4.2-.8.5-1.1.9v6.7h-1.6v-13.3h1.6v5.6h-.1zm15.9 6.6c-.2.2-.4.4-.7.6s-.6.3-.9.4c-.3.1-.6.2-1 .3-.3.1-.7.1-1 .1-.6 0-1.2-.1-1.7-.3-.5-.2-1-.5-1.4-.9s-.7-.9-.9-1.5c-.2-.6-.3-1.3-.3-2.1 0-.6.1-1.2.3-1.8.2-.6.5-1 .8-1.4.4-.4.8-.7 1.3-1 .5-.2 1.1-.3 1.8-.3.5 0 1.1.1 1.5.3.5.2.9.4 1.2.8.3.4.6.8.8 1.3s.3 1.1.3 1.7c0 .3 0 .4-.1.5s-.2.1-.3.1h-6.1c0 .6.1 1.1.2 1.5s.3.8.6 1.1.6.5.9.6.7.2 1.2.2c.4 0 .7 0 1-.1s.5-.2.8-.3c.2-.1.4-.2.5-.3.1-.1.3-.1.4-.1.1 0 .2.1.3.2l.5.4zm-1.3-4.3c0-.4-.1-.7-.2-1-.1-.3-.3-.6-.5-.8-.2-.2-.4-.4-.7-.5-.3-.1-.6-.2-1-.2-.8 0-1.4.2-1.8.7-.4.4-.7 1.1-.8 1.9h5v-.1zm9.7-1.9c0 .1-.1.1-.1.2 0 0-.1.1-.2.1s-.2 0-.3-.1-.2-.2-.4-.2c-.2-.1-.4-.2-.6-.2s-.5-.1-.9-.1-.8.1-1.2.2-.6.4-.9.7c-.2.3-.4.7-.5 1.1s-.2.9-.2 1.4c0 .6.1 1 .2 1.5.1.4.3.8.5 1.1.2.3.5.5.8.7s.7.2 1.1.2c.4 0 .7 0 1-.1s.5-.2.6-.3c.2-.1.3-.2.4-.3.1-.1.2-.1.3-.1s.2.1.3.2l.4.6c-.2.2-.4.5-.7.6-.3.2-.5.3-.8.4l-.9.3s-.6.1-1 .1c-.6 0-1.1-.1-1.6-.3-.5-.2-.9-.5-1.3-.9s-.6-.9-.8-1.5-.3-1.2-.3-2c0-.7.1-1.3.3-1.9s.5-1.1.8-1.5.8-.7 1.3-1c.5-.2 1.1-.4 1.8-.4.6 0 1.2.1 1.7.3.5.2.9.5 1.3.9l-.1.3zm3.9-5.8v7.8h.7s.2-.1.3-.2l2.9-3.1c.1-.1.2-.2.3-.2.1-.1.2-.1.4-.1h1.4l-3.4 3.6c-.2.2-.3.4-.5.5.1.1.2.2.3.2s.2.2.2.3l3.6 4.5h-1.4c-.1 0-.3 0-.4-.1-.1 0-.2-.1-.3-.2l-3-3.7c-.1-.1-.2-.2-.3-.2s-.2-.1-.4-.1h-.5v4.4h-1.6v-13.3l1.7-.1zm14.2 1.3c0 .2 0 .3-.1.4s-.1.3-.3.4c-.1.1-.2.2-.4.2-.1.1-.3.1-.4.1s-.3 0-.4-.1c-.1-.1-.3-.1-.4-.2-.1-.1-.2-.2-.2-.4-.1-.1-.1-.3-.1-.4 0-.2 0-.3.1-.4s.1-.3.2-.4c.1-.1.2-.2.4-.2.1-.1.3-.1.4-.1s.3 0 .4.1c.1.1.3.1.4.2.1.1.2.2.3.4 0 .1.1.2.1.4zm-.4 2.8v9.1h-1.6v-9.1h1.6zm5.5 9.3c-.7 0-1.3-.2-1.7-.6-.4-.4-.6-1-.6-1.7v-5.6h-1.1c-.1 0-.2 0-.2-.1s-.1-.1-.1-.3v-.6l1.5-.2.4-2.8c0-.1.1-.2.1-.2.1-.1.1-.1.2-.1h.8v3.1h2.6v1.2h-2.6v5.5c0 .4.1.7.3.9.2.2.4.3.7.3.2 0 .3 0 .4-.1s.2-.1.3-.1c.1-.1.2-.1.2-.1s.1-.1.2-.1.2.1.2.2l.5.8c-.3.3-.6.5-1 .6h-1.1zm12.1-9.4c.7 0 1.3.1 1.8.3.5.2 1 .5 1.4.9s.7.9.9 1.5c.2.6.3 1.2.3 1.9s-.1 1.4-.3 1.9-.5 1.1-.9 1.5-.8.7-1.4.9c-.5.2-1.1.3-1.8.3s-1.3-.1-1.8-.3c-.5-.2-1-.5-1.4-.9s-.7-.9-.9-1.5c-.2-.6-.3-1.2-.3-1.9s.1-1.4.3-1.9c.2-.6.5-1.1.9-1.5s.8-.7 1.4-.9c.5-.3 1.1-.3 1.8-.3zm0 8.1c.9 0 1.6-.3 2-.9s.7-1.4.7-2.5-.2-1.9-.7-2.5c-.4-.6-1.1-.9-2-.9-.5 0-.9.1-1.2.2-.3.2-.6.4-.8.7s-.4.7-.5 1.1-.2.9-.2 1.5c0 1.1.2 1.9.7 2.5.4.6 1 .8 2 .8zm13.8-8v9.1h-1c-.2 0-.4-.1-.4-.3l-.1-1c-.4.4-.8.8-1.3 1.1-.5.3-1.1.4-1.7.4-.5 0-.9-.1-1.3-.2-.4-.2-.7-.4-1-.7-.3-.3-.5-.7-.6-1.1s-.2-.9-.2-1.4v-5.8h1.6v5.8c0 .7.2 1.2.5 1.6s.8.6 1.4.6c.5 0 .9-.1 1.3-.3.4-.2.8-.5 1.1-.9v-6.7h1.7v-.2zm5.4 9.3c-.7 0-1.3-.2-1.7-.6s-.6-1-.6-1.7v-5.6h-1.1c-.1 0-.2 0-.2-.1-.1-.1-.1-.1-.1-.3v-.6l1.5-.2.4-2.8c0-.1.1-.2.1-.2.1-.1.1-.1.2-.1h.8v3.1h2.6v1.2h-2.6v5.5c0 .4.1.7.3.9.2.2.4.3.7.3.2 0 .3 0 .4-.1s.2-.1.3-.1c.1-.1.2-.1.2-.1.1 0 .1-.1.2-.1s.2.1.2.2l.5.8c-.3.3-.6.5-1 .6h-1.1zm3.6-1.1c0-.2 0-.3.1-.4s.1-.3.2-.4.2-.2.4-.2c.1-.1.3-.1.4-.1.2 0 .3 0 .4.1s.3.1.4.2.2.2.2.4c.1.1.1.3.1.4 0 .2 0 .3-.1.4s-.1.3-.2.4-.2.2-.4.2c-.1.1-.3.1-.4.1-.2 0-.3 0-.4-.1s-.3-.1-.4-.2-.2-.2-.2-.4c-.1-.2-.1-.2-.1-.4zm1.9-11.9v6.7s0 .5-.1.8c0 .3-.1.6-.1.9h-1.1c0-.3-.1-.6-.1-.9s0-.5-.1-.8v-6.7h1.5z"/></g><path class="screenshot-tellteam-5 screenshot-tellteam-8" d="M34.3 376.6v.8h-4.6v-.8h1.8v-6.4l-1.5 1.3c-.1 0-.1.1-.2.1h-.2s-.1 0-.1-.1l-.3-.5 2.6-2.2h.9v7.8h1.6zm7.5-3.5c0 .8-.1 1.4-.2 2s-.4 1-.7 1.4c-.3.4-.6.6-1 .8-.4.2-.8.3-1.2.3-.4 0-.8-.1-1.2-.3s-.7-.4-1-.8-.5-.8-.7-1.4c-.2-.5-.2-1.2-.2-2s.1-1.4.2-2c.2-.6.4-1 .7-1.4s.6-.6 1-.8c.4-.2.8-.3 1.2-.3.4 0 .8.1 1.2.3.4.2.7.4 1 .8s.5.8.7 1.4.2 1.3.2 2zm-1.1 0c0-.7-.1-1.2-.2-1.7-.1-.4-.3-.8-.4-1.1-.2-.3-.4-.5-.6-.6s-.5-.2-.8-.2c-.3 0-.5.1-.8.2-.2.1-.5.3-.6.6-.2.3-.3.6-.4 1.1-.1.4-.2 1-.2 1.7s.1 1.2.2 1.6.3.8.4 1.1c.2.3.4.5.6.6.2.1.5.2.8.2.3 0 .5-.1.8-.2.2-.1.5-.3.6-.6.2-.3.3-.6.4-1.1.1-.5.2-.9.2-1.6zm2.2-1c0-.1 0-.2.1-.3 0-.1.1-.2.2-.2l.2-.2c.1 0 .2-.1.3-.1s.2 0 .3.1c.1 0 .2.1.2.2l.2.2s.1.2.1.3c0 .1 0 .2-.1.3s-.1.2-.2.2l-.2.2c-.1 0-.2.1-.3.1s-.2 0-.3-.1c-.1 0-.2-.1-.2-.2s-.1-.1-.2-.2c-.1 0-.1-.2-.1-.3zm0 4.5c0-.1 0-.2.1-.3 0-.1.1-.2.2-.2l.2-.2c.1 0 .2-.1.3-.1s.2 0 .3.1c.1 0 .2.1.2.2l.2.2s.1.2.1.3c0 .1 0 .2-.1.3s-.1.2-.2.2l-.2.2c-.1 0-.2.1-.3.1s-.2 0-.3-.1c-.1 0-.2-.1-.2-.2s-.1-.1-.2-.2c-.1 0-.1-.1-.1-.3zm8.8-2.4v.6c0 .1 0 .1-.1.2s-.1.1-.2.1h-1.1v2.3h-.9v-2.3h-3.8c-.1 0-.1 0-.2-.1s-.1-.1-.1-.2l-.1-.5 4.2-5.5h1v5.5h1.3v-.1zm-2.2 0V370l-3.1 4.3h3.1v-.1zm8.5 2.2c.1 0 .2 0 .3.1s.1.2.1.3v.6h-5.7v-.6c0-.1.1-.2.2-.2l2.8-2.8c.2-.2.4-.5.6-.7s.3-.4.5-.6c.1-.2.2-.4.3-.7.1-.2.1-.5.1-.7 0-.3 0-.5-.1-.7s-.2-.3-.3-.5c-.1-.1-.3-.2-.5-.3-.2-.1-.4-.1-.6-.1-.2 0-.4 0-.6.1-.2.1-.3.2-.5.3-.2.1-.3.2-.4.4s-.2.3-.2.5c0 .1-.1.2-.2.3s-.2.1-.3 0l-.6-.1c.1-.4.2-.7.3-1 .2-.3.4-.6.6-.8.2-.2.5-.4.8-.5s.7-.2 1-.2c.4 0 .7.1 1 .2s.6.3.8.5.4.5.5.8.2.6.2 1c0 .3 0 .6-.1.9s-.2.5-.4.8-.4.5-.6.7c-.2.2-.4.5-.7.7l-2.3 2.3c.2 0 .3-.1.5-.1H58v.1zm11.8 1h-.9c-.1 0-.2 0-.3-.1s-.1-.1-.1-.2l-.8-2.1h-3.9l-.8 2c0 .1-.1.1-.1.2s-.2.1-.3.1h-.9l3.4-8.6h1.2l3.5 8.7zm-2.4-3.3l-1.4-3.5c0-.1-.1-.2-.1-.4 0-.1-.1-.3-.1-.4-.1.3-.2.6-.3.8l-1.4 3.5h3.3zm12.5-5.3v8.6h-1v-6.9l-3 5.4c-.1.2-.2.3-.4.3h-.2c-.2 0-.3-.1-.4-.3l-3-5.4v6.9h-1v-8.6H72c.1 0 .1.1.2.2l3 5.3c0 .1.1.2.1.3 0 .1.1.2.1.3 0-.1.1-.2.1-.3 0-.1.1-.2.1-.3l2.9-5.3c0-.1.1-.1.2-.2h1.2z"/><g id="repo"><path id="Rectangle-34" class="screenshot-tellteam-9" d="M209.2 384.4h62c1.7 0 3 1.3 3 3v16c0 1.7-1.3 3-3 3h-62c-1.7 0-3-1.3-3-3v-16c0-1.8 1.3-3 3-3z"/><path class="screenshot-tellteam-5 screenshot-tellteam-10" d="M212.6 400.6h-1.2l6.5-10.9h1.2l-6.5 10.9zm8.9-6c.4-.6.8-1.1 1.4-1.4.5-.3 1-.5 1.5-.5.6 0 1.2.3 1.7.8s.7 1.3.7 2.4c0 .9-.2 1.6-.5 2.3-.3.7-.8 1.2-1.3 1.6s-1.2.6-2 .6c-.2 0-.6 0-1.1-.1h-1.5v-10.7h1.2l-.1 5zm0 1.5v3.2c.4.1.9.2 1.2.2.7 0 1.4-.3 1.9-.9s.8-1.4.8-2.4c0-.7-.1-1.3-.4-1.7s-.6-.6-1-.6-.8.2-1.3.6c-.4.4-.8 1-1.2 1.6zm13.2-3.1v7.4h-1.2v-1.6c-.4.6-.8 1.1-1.3 1.4s-1 .5-1.5.5c-.4 0-.8-.1-1.2-.3-.4-.2-.6-.5-.8-.9-.1-.4-.2-1.1-.2-2.2v-4.1h1.2v4.3c0 .7 0 1.2.1 1.4.1.2.2.4.4.6.2.1.4.2.6.2.4 0 .9-.2 1.4-.6s.9-.9 1.2-1.6v-4.3h1.3v-.2zm7 5.6c-.4.6-.8 1.1-1.4 1.4-.5.3-1 .5-1.5.5-.6 0-1.2-.3-1.7-.8s-.7-1.3-.7-2.4c0-.9.2-1.6.5-2.3.3-.7.8-1.2 1.3-1.6s1.2-.6 2-.6c.2 0 .6 0 1.1.1h1.5v7.5s-.1.6-.2.8c-.2.7-.6 1.2-1.2 1.6s-1.4.6-2.3.6-1.8-.2-2.7-.7v-1.2c.3.2.8.5 1.3.6s1 .3 1.5.3c.4 0 .7-.1 1.1-.2.3-.1.6-.3.8-.5.2-.2.3-.5.4-.8s.1-.7.1-1.2l.1-1.1zm0-1.4V394c-.4-.1-.8-.2-1.2-.2-.8 0-1.4.3-1.9.9s-.8 1.4-.8 2.4c0 .7.1 1.3.4 1.7.3.4.6.6.9.6.4 0 .8-.2 1.3-.6.5-.4.9-.9 1.3-1.6zm4.3-2.6c.4-.6.8-1.1 1.4-1.4.5-.3 1-.5 1.5-.5.6 0 1.2.3 1.7.8s.7 1.3.7 2.4c0 .9-.2 1.6-.5 2.3-.3.7-.8 1.2-1.3 1.6s-1.2.6-2 .6c-.2 0-.6 0-1.1-.1h-1.5v-10.7h1.2v5h-.1zm0 1.5v3.2c.4.1.9.2 1.2.2.7 0 1.4-.3 1.9-.9s.8-1.4.8-2.4c0-.7-.1-1.3-.4-1.7s-.6-.6-1-.6-.8.2-1.3.6c-.4.4-.8 1-1.2 1.6zm10.1 4.5c-1.1 0-1.9-.4-2.5-1.1s-1-1.7-1-2.8.3-2.1 1-2.8 1.5-1.1 2.5-1.1c1.1 0 1.9.4 2.5 1.1s1 1.7 1 2.8-.3 2.1-1 2.8-1.5 1.1-2.5 1.1zm0-1c.7 0 1.2-.3 1.6-.8s.6-1.2.6-2.1-.2-1.6-.6-2.1c-.4-.5-.9-.8-1.6-.8-.7 0-1.2.3-1.6.8-.4.5-.6 1.2-.6 2.1s.2 1.6.6 2.1c.4.4.9.8 1.6.8zm11.3.5c-.6.2-1 .4-1.3.4s-.5.1-.8.1c-.5 0-1-.1-1.4-.3s-.8-.5-1-.9-.3-1-.3-1.8v-3h-1.9v-1h1.9v-3h1.2v3h3.3v1h-3.3v3c0 .6.1 1 .2 1.3.1.2.3.4.6.5s.5.2.8.2c.6 0 1.2-.2 1.9-.6l.1 1.1z"/></g></g></g></g></svg>