<svg viewBox="0 0 412 110" xmlns="http://www.w3.org/2000/svg" xmlns:xlink="http://www.w3.org/1999/xlink"><defs><path id="a" d="M0 .32h32.775V38H0"/></defs><g transform="translate(1)" fill="none" fill-rule="evenodd"><rect stroke="#E7E7E7" stroke-width="2" fill="#FFF" width="410" height="109" rx="10"/><g transform="translate(19 20)"><rect fill="#870030" width="50" height="50" rx="6"/><g transform="translate(9 6)"><mask id="b" fill="#fff"><use xlink:href="#a"/></mask><path d="M29.895 19.213c-.953-.196-2.038-.004-3.075.69-.863-5.076-.35-10.352-.96-15.52-.297-2.524-2.892-5.622-5.47-3.17-1.086 1.036-1.35 2.838-1.516 4.527-.018.185-11.4-.314-11.35.418C7.292 2.863 6.31.498 3.714.782c-4.49.487-3.8 7.207-3.466 10.94.373 4.196.638 8.398.916 12.6.097 1.483.35 2.598.823 3.422-1.24 2.833-.55 6.6 1.445 8.944 1.217 1.428 3.157-.744 1.955-2.156-1.134-1.332-1.474-3.366-.925-5.024.584.153 1.254.245 2.034.28.645.03 1.282.06 1.913.092-.52 2.55-.03 5.27 1.44 7.48 1.04 1.557 3.48-.02 2.43-1.587-1.17-1.74-1.47-3.828-.93-5.775 1.46.043 2.9.05 4.36-.017-.12 2.21.5 4.42 1.94 6.2 1.16 1.45 3.61-.12 2.43-1.58-1.11-1.37-1.67-3.12-1.49-4.84.81-.1 1.63-.23 2.46-.4.55-.11 1.12-.19 1.69-.29-.11 1.97.5 3.87 1.88 5.56 1.17 1.44 3.62-.13 2.43-1.58-1.22-1.49-1.78-3.13-1.28-4.95.05-.03.1-.05.15-.08 2.58 2.1 6-1.03 6.65-3.58.69-2.72-.73-4.79-2.7-5.19" fill="#F2BF3A" mask="url(#b)"/></g><path d="M15.432 22.002c-1.998.086-1.86 3.082.137 2.996 1.99-.085 1.86-3.082-.14-2.996m9 0c-2 .086-1.86 3.082.13 2.996 1.99-.085 1.86-3.082-.14-2.996m-7.12 6.85c.65.54 1.43.874 2.23 1.116.41.124.77-.136.99-.45.29-.433.83-.69 1.2-1.055.82-.808-.51-2-1.32-1.196-.31.302-.63.545-.93.82-.36-.133-.7-.304-.98-.54-.88-.733-2.1.57-1.21 1.306" fill="#1C1C1C"/></g><path d="M82.348 23.626V37h-2.223V23.626h2.223zm10.18 4.14V37h-1.36c-.294 0-.48-.135-.558-.405l-.153-.738c-.378.384-.795.694-1.25.93-.457.24-.994.357-1.612.357-.504 0-.95-.085-1.337-.256-.387-.172-.712-.413-.976-.725s-.463-.682-.6-1.11c-.134-.43-.2-.903-.2-1.42v-5.867h2.222v5.868c0 .564.13 1 .392 1.31.26.31.652.463 1.174.463.384 0 .744-.085 1.08-.257.336-.17.654-.406.954-.706v-6.678h2.223zm8.81 1.953c-.066.08-.13.15-.194.19-.063.05-.154.07-.274.07-.114 0-.225-.04-.333-.11-.108-.07-.237-.15-.387-.24-.15-.09-.328-.17-.535-.24-.208-.07-.464-.11-.77-.11-.39 0-.732.07-1.026.21-.3.14-.54.34-.74.6-.2.26-.34.58-.44.96-.1.37-.15.8-.15 1.27 0 .49.05.93.15 1.31s.25.7.45.96.44.45.72.59c.28.13.6.2.95.2s.64-.04.86-.13c.22-.09.4-.18.55-.29.15-.11.28-.2.39-.29.11-.09.23-.13.37-.13.18 0 .31.07.4.21l.64.81c-.25.29-.52.53-.81.72-.29.19-.59.35-.9.47-.31.11-.63.2-.96.24-.33.05-.65.07-.98.07-.57 0-1.11-.11-1.61-.32-.51-.21-.95-.52-1.33-.93-.38-.41-.68-.91-.89-1.5-.22-.59-.33-1.27-.33-2.02 0-.68.1-1.31.29-1.89.19-.58.48-1.08.86-1.51.38-.43.84-.76 1.4-1 .56-.24 1.2-.36 1.92-.36.69 0 1.29.11 1.81.33.52.22.98.54 1.4.95l-.59.81zm4.365-1.96V37h-2.232v-9.234h2.24zm.306-2.69c0 .19-.04.37-.12.54-.08.16-.18.31-.31.44s-.28.22-.46.3c-.18.07-.36.11-.56.11-.2 0-.38-.04-.55-.12-.17-.08-.32-.18-.45-.3-.13-.13-.23-.28-.3-.44-.08-.17-.12-.35-.12-.54 0-.2.03-.39.11-.56.07-.18.17-.33.3-.45.12-.13.27-.23.44-.3.17-.08.35-.12.54-.12.19 0 .38.03.55.11.18.07.33.17.46.3s.23.27.31.45c.08.17.12.36.12.56zm6.84 7.98c-.65.03-1.19.08-1.62.16-.44.08-.79.18-1.06.31s-.46.27-.57.44c-.12.17-.17.35-.17.55 0 .39.11.67.34.83.23.17.53.25.9.25.45 0 .85-.09 1.18-.25.33-.17.65-.42.97-.75v-1.55zm-5.1-4.01c1.06-.97 2.34-1.46 3.83-1.46.54 0 1.02.08 1.45.26.42.17.78.42 1.08.73.29.31.51.69.67 1.13.15.44.23.92.23 1.44V37H114c-.21 0-.372-.03-.486-.095-.114-.063-.204-.19-.27-.382l-.198-.666c-.236.21-.464.394-.686.553-.224.16-.455.293-.695.4-.24.11-.497.19-.77.248-.274.058-.575.086-.905.086-.39 0-.75-.052-1.08-.158-.33-.105-.614-.262-.854-.472-.24-.21-.425-.47-.557-.783-.14-.31-.2-.67-.2-1.08 0-.23.04-.46.12-.7.08-.23.2-.45.38-.66.18-.21.4-.41.69-.59.28-.18.62-.35 1.04-.48.41-.14.89-.25 1.43-.33.54-.09 1.17-.14 1.87-.16v-.54c0-.62-.13-1.07-.4-1.37-.27-.3-.65-.44-1.15-.44-.36 0-.66.05-.9.13-.24.09-.45.18-.63.29-.18.1-.35.2-.49.28-.15.09-.31.13-.49.13-.16 0-.29-.04-.4-.12-.11-.08-.2-.17-.26-.28l-.4-.71zM81.88 52.1c.39-.414.822-.744 1.296-.99.474-.246 1.02-.37 1.638-.37.498 0 .937.083 1.32.248.38.166.697.4.953.703.255.3.448.67.58 1.09.132.43.198.9.198 1.42V60h-1.61v-5.805c0-.69-.158-1.225-.473-1.607-.316-.38-.794-.57-1.436-.57-.474 0-.916.113-1.327.34-.42.23-.8.538-1.14.928V60h-1.61V46.743h1.61v5.355zm14.535 2.35c0-.373-.052-.713-.158-1.023-.105-.31-.257-.575-.46-.8-.2-.226-.444-.4-.732-.523s-.615-.184-.98-.184c-.77 0-1.376.223-1.823.67-.448.448-.725 1.067-.833 1.86h4.98zm1.296 4.274c-.19.24-.43.448-.71.625-.27.17-.57.32-.88.43-.31.11-.64.2-.97.25-.33.06-.67.08-1 .08-.63 0-1.21-.11-1.74-.32-.53-.22-.99-.53-1.38-.94-.38-.41-.69-.92-.9-1.53-.21-.61-.32-1.3-.32-2.09 0-.64.1-1.23.3-1.79.2-.55.48-1.03.84-1.44.37-.41.81-.73 1.34-.96.53-.23 1.12-.35 1.78-.35.55 0 1.05.09 1.52.27.47.18.87.45 1.21.79.34.35.61.77.8 1.28.2.51.29 1.09.29 1.74 0 .25-.03.42-.08.5-.05.08-.16.13-.31.13h-6.1c.02.58.1 1.08.24 1.5.14.42.34.78.59 1.06.25.29.55.5.9.64s.74.21 1.17.21c.4 0 .75-.04 1.04-.14.29-.09.54-.19.75-.3.21-.11.39-.21.53-.3.15-.09.27-.14.37-.14.14 0 .24.05.31.16l.45.58zm9.74-7.84l-5.08 11.81c-.05.12-.12.215-.2.287-.08.07-.2.11-.37.11h-1.19l1.67-3.62-3.76-8.58h1.38c.14 0 .25.04.33.11.08.07.14.15.17.23l2.44 5.74c.1.26.18.52.25.8.09-.28.18-.55.27-.8l2.37-5.73c.04-.1.1-.17.19-.24s.18-.09.29-.09h1.27zm86.53 3.043h4.45v1.36h-4.44v-1.36zM207.54 60h-1.746V47.103h1.747V60zm9.216-9.117v9.792c0 .366-.048.706-.144 1.02-.097.317-.25.59-.46.825-.21.234-.478.418-.806.553-.327.136-.718.203-1.174.203-.19 0-.364-.015-.53-.045-.16-.03-.32-.07-.482-.13l.063-.86c.01-.05.03-.09.06-.12.027-.02.065-.04.113-.05h.184c.075.01.17.01.284.01.47 0 .8-.11 1-.33.198-.22.297-.57.297-1.05v-9.8h1.61zm.333-2.862c0 .16-.04.31-.1.44-.06.14-.15.26-.25.36-.11.11-.23.19-.37.25-.14.06-.29.09-.44.09-.16 0-.31-.03-.44-.09s-.26-.14-.36-.25c-.1-.1-.19-.22-.25-.36-.06-.13-.09-.28-.09-.43 0-.15.03-.3.09-.44s.14-.26.24-.37c.1-.1.22-.18.35-.24.13-.06.28-.09.43-.09.16 0 .3.03.44.09s.26.14.36.25c.1.11.19.23.25.37.06.14.09.29.09.45zm9.79 2.87V60h-.96c-.23 0-.37-.11-.43-.333l-.13-.98c-.4.437-.84.79-1.33 1.057-.49.267-1.06.4-1.69.4-.5 0-.94-.082-1.32-.248-.38-.165-.7-.397-.96-.697-.26-.3-.45-.67-.58-1.09-.13-.43-.2-.9-.2-1.42v-5.81h1.6v5.81c0 .69.15 1.22.47 1.6.31.37.79.56 1.44.56.47 0 .92-.11 1.33-.34.41-.23.79-.54 1.14-.94v-6.71h1.6zm7.84 1.51c-.07.13-.18.2-.33.2-.09 0-.19-.03-.31-.1l-.42-.22c-.17-.08-.36-.15-.59-.22-.23-.07-.5-.1-.81-.1-.27 0-.52.03-.73.1-.22.07-.4.17-.56.29-.15.12-.27.26-.35.42-.08.16-.12.34-.12.52 0 .24.07.43.2.59.13.16.31.29.53.41.22.11.47.21.75.3s.57.18.87.28c.3.1.59.21.87.33.28.12.53.27.75.45.22.18.4.4.53.66.14.26.2.57.2.94 0 .42-.08.81-.23 1.16-.15.36-.37.67-.67.93-.3.26-.66.47-1.08.62-.43.15-.92.23-1.48.23-.64 0-1.22-.1-1.73-.31-.52-.2-.96-.47-1.32-.79l.38-.61c.04-.08.1-.14.17-.18.06-.04.15-.06.25-.06s.22.04.34.13c.12.09.26.18.43.28.17.1.38.2.62.28.25.09.55.13.92.13.31 0 .58-.04.82-.12.23-.09.43-.19.58-.33.15-.14.27-.3.34-.48.08-.18.12-.37.12-.58 0-.25-.07-.46-.21-.62-.14-.16-.31-.3-.54-.42-.23-.11-.48-.21-.77-.3-.28-.09-.57-.18-.87-.28-.3-.09-.59-.2-.88-.33-.29-.12-.54-.27-.76-.46-.22-.18-.4-.41-.54-.69-.13-.27-.2-.6-.2-.99 0-.35.07-.68.22-1 .14-.32.35-.6.63-.84.27-.24.61-.44 1.02-.58.4-.14.86-.22 1.37-.22.6 0 1.14.09 1.61.28.48.19.89.45 1.24.78l-.36.59zm5.28 7.76c-.72 0-1.28-.2-1.66-.6-.39-.4-.58-.98-.58-1.73v-5.58h-1.1c-.1 0-.18-.03-.25-.08s-.1-.14-.1-.26v-.64l1.49-.19.37-2.82c.01-.09.05-.16.12-.22.06-.05.14-.08.24-.08h.81v3.14H242v1.16h-2.636v5.47c0 .39.094.67.28.86.186.19.426.28.72.28.17 0 .313-.02.436-.07.124-.04.23-.09.32-.15.09-.05.166-.1.23-.15.062-.04.118-.07.166-.07.084 0 .16.05.225.16l.47.77c-.27.26-.61.46-1 .61-.39.15-.79.22-1.2.22zm13.2-4.25c-.74.03-1.37.08-1.89.18-.52.1-.94.22-1.27.37-.33.15-.56.33-.71.53-.15.21-.22.43-.22.69 0 .24.04.45.11.62.08.18.18.32.32.43.14.11.29.19.48.24.18.06.38.08.59.08.28 0 .54-.03.77-.08.23-.05.45-.14.66-.24.21-.11.4-.24.59-.39.19-.15.37-.32.55-.51v-1.9zm-5.18-3.72c.5-.48 1.05-.85 1.63-1.09.58-.24 1.22-.36 1.93-.36.51 0 .96.09 1.36.26.39.17.73.41 1 .71s.47.66.61 1.09c.14.42.2.89.2 1.4V60h-.71c-.16 0-.28-.025-.36-.076-.09-.052-.15-.152-.2-.302l-.18-.864c-.24.222-.48.418-.71.59-.23.17-.47.314-.72.43-.25.12-.52.208-.81.27-.29.065-.6.096-.95.096-.36 0-.69-.05-1-.15-.31-.098-.58-.246-.82-.444-.23-.198-.41-.448-.55-.752-.13-.303-.2-.66-.2-1.075 0-.36.1-.706.3-1.04.2-.333.52-.628.96-.886.44-.258 1.02-.47 1.73-.635.71-.165 1.59-.26 2.63-.283v-.72c0-.71-.15-1.25-.46-1.61-.31-.37-.75-.55-1.34-.55-.4 0-.73.05-1 .15-.27.1-.5.21-.69.33-.19.12-.36.23-.5.33s-.28.15-.42.15c-.11 0-.2-.03-.28-.09-.08-.06-.14-.13-.2-.21l-.29-.51zm15.12.89c-.3-.4-.63-.68-.97-.84-.35-.16-.74-.24-1.17-.24-.85 0-1.5.31-1.96.91-.46.61-.69 1.47-.69 2.59 0 .6.05 1.11.15 1.53.1.43.25.77.45 1.05s.44.47.73.6c.28.12.61.19.98.19.52 0 .98-.12 1.38-.36.39-.24.75-.58 1.08-1.01v-4.4zm1.6-6.31V60h-.96c-.23 0-.37-.11-.43-.333l-.14-1.107c-.39.468-.84.846-1.34 1.134-.5.288-1.08.432-1.73.432-.53 0-1-.1-1.43-.3-.43-.203-.79-.498-1.09-.888-.3-.39-.53-.876-.69-1.458-.17-.582-.25-1.25-.25-2.007 0-.672.09-1.297.27-1.876.18-.58.44-1.082.77-1.508.33-.43.75-.76 1.24-1.01s1.04-.37 1.65-.37c.56 0 1.03.09 1.43.28.4.19.75.45 1.06.78v-5.05h1.6zm8.47 6.31c-.3-.4-.63-.68-.97-.84-.35-.16-.74-.24-1.17-.24-.84 0-1.5.31-1.95.91-.46.61-.69 1.47-.69 2.59 0 .6.05 1.11.15 1.53.1.43.25.77.45 1.05s.44.47.73.6c.28.12.61.19.98.19.53 0 .99-.12 1.38-.36.39-.24.75-.58 1.08-1.01v-4.4zm1.6-6.31V60h-.96c-.23 0-.37-.11-.43-.333l-.15-1.107c-.39.468-.84.846-1.34 1.134-.5.288-1.08.432-1.73.432-.53 0-1-.1-1.43-.3-.42-.203-.79-.498-1.09-.888-.3-.39-.53-.876-.69-1.458-.16-.582-.24-1.25-.24-2.007 0-.672.09-1.297.27-1.876.18-.58.44-1.082.78-1.508.34-.43.75-.76 1.24-1.01s1.04-.37 1.65-.37c.56 0 1.04.09 1.44.28.4.19.75.45 1.06.78v-5.05h1.6zm8.64 7.71c0-.37-.05-.71-.16-1.02-.11-.31-.26-.57-.46-.8-.2-.22-.45-.4-.74-.52s-.62-.18-.98-.18c-.77 0-1.38.22-1.83.67-.45.45-.72 1.07-.83 1.86h4.99zm1.29 4.28c-.2.24-.43.45-.71.63-.28.18-.57.32-.89.43-.32.12-.65.2-.98.26-.34.06-.67.09-1 .09-.63 0-1.21-.1-1.74-.32-.53-.21-.99-.52-1.38-.93-.39-.41-.69-.92-.91-1.52-.22-.61-.32-1.3-.32-2.09 0-.64.09-1.23.29-1.78.19-.55.47-1.03.84-1.44.36-.4.81-.72 1.34-.95.53-.23 1.12-.35 1.78-.35.54 0 1.05.09 1.52.27.46.18.86.45 1.2.79.34.35.6.77.79 1.28.19.51.29 1.09.29 1.73 0 .26-.03.42-.08.51-.06.08-.16.13-.31.13h-6.09c.01.58.09 1.08.24 1.5.14.43.33.78.58 1.07.25.28.55.5.9.64s.74.21 1.17.21c.4 0 .75-.05 1.04-.14.29-.09.54-.19.75-.3.21-.11.38-.21.53-.3.14-.09.26-.14.36-.14.13 0 .23.05.3.15l.45.59zm8.05-5.67c-.3-.4-.63-.68-.97-.84-.35-.16-.74-.24-1.17-.24-.85 0-1.5.3-1.96.91-.46.61-.68 1.47-.68 2.59 0 .6.05 1.1.15 1.53.1.42.25.77.45 1.04s.44.47.73.6c.28.13.61.19.98.19.53 0 .99-.12 1.38-.36s.75-.58 1.08-1.01v-4.4zm1.6-6.31V60h-.96c-.23 0-.38-.11-.44-.333l-.14-1.107c-.39.468-.84.846-1.34 1.134-.5.288-1.07.432-1.73.432-.53 0-1-.1-1.43-.3-.42-.203-.79-.498-1.09-.888-.3-.39-.53-.876-.69-1.458-.16-.582-.24-1.25-.24-2.007 0-.672.09-1.297.27-1.876.18-.58.44-1.082.77-1.508.34-.43.75-.76 1.24-1.01s1.04-.37 1.65-.37c.56 0 1.03.09 1.43.28.4.19.75.45 1.07.78v-5.05h1.6zM83.07 86.15c-.72 0-1.273-.2-1.66-.604-.388-.4-.58-.98-.58-1.736v-5.58h-1.1c-.095 0-.176-.03-.242-.087-.066-.056-.1-.144-.1-.264v-.64l1.495-.19.37-2.82c.02-.09.06-.16.13-.22.062-.06.144-.09.246-.09h.81v3.14h2.63v1.16h-2.64v5.47c0 .38.09.67.28.85.18.18.42.28.72.28.16 0 .31-.02.43-.07s.23-.1.32-.15c.09-.06.16-.1.23-.15.06-.05.11-.07.16-.07.08 0 .16.05.22.15l.47.76c-.28.25-.61.46-1 .6-.39.15-.79.22-1.21.22zm7.452-9.406c.666 0 1.266.11 1.8.333.534.222.99.537 1.368.945.378.41.667.9.87 1.48.2.58.3 1.227.3 1.94 0 .72-.1 1.37-.3 1.945-.203.58-.492 1.07-.87 1.48-.378.407-.834.72-1.368.94-.534.22-1.134.33-1.8.33-.672 0-1.276-.11-1.813-.33-.54-.22-1-.533-1.38-.94-.38-.41-.67-.9-.87-1.477-.2-.575-.3-1.223-.3-1.943 0-.715.1-1.36.3-1.94.2-.58.49-1.073.87-1.48.38-.41.83-.724 1.37-.946.53-.22 1.14-.33 1.81-.33zm0 8.136c.9 0 1.572-.3 2.016-.905.444-.6.666-1.442.666-2.522 0-1.086-.222-1.932-.666-2.538-.444-.607-1.116-.91-2.016-.91-.456 0-.853.08-1.192.234-.34.15-.62.38-.846.67-.226.29-.393.65-.504 1.08-.112.43-.167.91-.167 1.45 0 1.08.23 1.92.68 2.52.446.6 1.125.9 2.037.9zm14.814-8.137c.666 0 1.266.11 1.8.33.534.222.99.537 1.368.945.378.408.667.9.87 1.48.2.58.3 1.226.3 1.94 0 .72-.1 1.368-.3 1.944-.203.576-.492 1.07-.87 1.476-.378.408-.834.72-1.368.94-.534.22-1.134.33-1.8.33-.672 0-1.276-.11-1.813-.33-.53-.22-.99-.532-1.37-.94-.38-.408-.662-.9-.87-1.476-.2-.575-.3-1.223-.3-1.943s.1-1.36.3-1.94c.2-.58.49-1.08.87-1.48.38-.41.84-.73 1.378-.95.54-.22 1.15-.34 1.82-.34zm0 8.133c.9 0 1.572-.3 2.016-.904.444-.604.666-1.445.666-2.525 0-1.086-.222-1.932-.666-2.538-.444-.61-1.116-.91-2.016-.91-.456 0-.853.08-1.192.23-.34.15-.62.38-.846.67-.226.29-.393.65-.504 1.08-.112.43-.167.91-.167 1.45 0 1.08.223 1.92.67 2.52.448.6 1.127.9 2.04.9zm13.86-7.992V86h-.954c-.228 0-.372-.11-.432-.333l-.126-.98c-.396.437-.84.79-1.332 1.057-.492.267-1.056.4-1.692.4-.498 0-.937-.082-1.318-.247-.382-.166-.7-.398-.96-.698-.257-.3-.45-.67-.58-1.09-.13-.43-.193-.9-.193-1.42v-5.81h1.6v5.81c0 .69.15 1.22.47 1.6.31.37.79.56 1.44.56.47 0 .91-.11 1.33-.34.41-.23.79-.54 1.14-.94v-6.71h1.6zm4.06 1.83c.287-.626.64-1.11 1.06-1.465.42-.35.934-.53 1.54-.53.192 0 .376.02.554.06.177.04.334.11.472.2l-.117 1.2c-.036.15-.126.22-.27.22-.084 0-.207-.02-.37-.06-.16-.04-.344-.06-.548-.06-.288 0-.544.04-.77.12-.225.08-.425.21-.602.37-.178.16-.336.37-.477.61-.142.24-.27.52-.383.83V86h-1.61v-9.117h.917c.174 0 .294.033.36.1.066.065.11.18.135.34l.108 1.387zm16.235-3.59c-.06.09-.12.154-.18.2-.06.045-.14.07-.23.07-.1 0-.22-.054-.36-.156-.14-.102-.31-.214-.52-.338-.2-.124-.45-.236-.74-.338-.29-.1-.64-.153-1.06-.153-.39 0-.73.05-1.03.15-.29.1-.54.25-.74.43-.2.18-.35.39-.45.63-.1.24-.15.5-.15.78 0 .36.09.66.27.89.18.23.41.44.7.6.29.16.62.31.99.43s.75.25 1.14.38c.39.13.77.28 1.14.44.37.16.7.37.99.62.29.25.53.56.71.92.18.36.27.81.27 1.35 0 .56-.09 1.09-.28 1.59-.19.49-.47.92-.84 1.29-.37.36-.82.65-1.36.86-.54.21-1.15.31-1.83.31-.84 0-1.6-.15-2.28-.46-.68-.31-1.27-.72-1.76-1.23l.51-.83c.05-.07.11-.12.18-.17.07-.05.14-.07.23-.07.08 0 .16.03.26.1s.21.14.34.24c.13.09.27.2.44.31.16.11.35.22.55.31.21.09.45.17.71.23.27.07.56.1.89.1.42 0 .79-.06 1.11-.17.33-.12.6-.28.83-.49.23-.21.4-.46.52-.75s.18-.61.18-.96c0-.39-.08-.71-.26-.96s-.41-.46-.7-.63c-.29-.17-.62-.31-.99-.43s-.75-.24-1.13-.36c-.38-.12-.76-.27-1.13-.43-.37-.16-.7-.37-.99-.63-.28-.25-.52-.58-.69-.96-.18-.39-.27-.87-.27-1.44 0-.46.09-.9.27-1.32.18-.43.43-.81.77-1.14.34-.33.76-.59 1.25-.79.5-.196 1.07-.29 1.71-.29.72 0 1.37.11 1.97.34.59.23 1.11.56 1.56.99l-.42.83zm4.29-2.38V86h-1.6V72.743h1.6zm7.53 9.154c-.74.024-1.36.082-1.88.175-.52.094-.94.215-1.27.365-.33.15-.56.327-.71.53-.15.205-.22.433-.22.685 0 .24.04.45.12.622.08.174.19.316.32.428.14.11.3.19.48.243.18.052.38.077.59.077.28 0 .54-.03.77-.087.24-.057.46-.14.66-.247.21-.11.41-.24.6-.39.19-.15.38-.33.56-.52v-1.89zm-5.17-3.726c.51-.486 1.05-.85 1.63-1.09.58-.24 1.23-.36 1.94-.36.51 0 .97.085 1.36.253.4.167.73.4 1 .7.27.3.48.664.61 1.09.14.426.21.894.21 1.404V86h-.71c-.15 0-.27-.025-.36-.077-.08-.05-.15-.15-.2-.3l-.18-.865c-.24.222-.47.418-.7.59-.23.17-.47.314-.72.43-.25.12-.52.208-.8.27-.28.065-.6.096-.95.096s-.68-.05-1-.15c-.31-.098-.58-.246-.81-.444-.23-.198-.41-.448-.55-.752-.13-.303-.2-.66-.2-1.075 0-.36.1-.706.3-1.04.2-.333.52-.628.97-.886.44-.258 1.02-.47 1.74-.635.71-.165 1.59-.26 2.63-.283v-.72c0-.71-.15-1.25-.46-1.61-.31-.37-.75-.55-1.34-.55-.4 0-.73.05-1 .15-.26.1-.49.21-.69.33-.2.12-.36.23-.5.33s-.28.15-.42.15c-.11 0-.2-.03-.28-.09-.08-.06-.14-.13-.2-.21l-.29-.51zm15.53.333c-.05.065-.09.116-.14.152-.04.036-.11.054-.19.054-.09 0-.19-.04-.29-.11-.11-.07-.24-.16-.4-.25-.16-.09-.35-.17-.58-.25-.23-.07-.51-.11-.85-.11-.45 0-.85.08-1.19.24-.34.16-.63.39-.86.69-.23.3-.4.66-.52 1.09-.12.43-.17.91-.17 1.43 0 .56.06 1.05.19 1.47.12.43.3.79.53 1.08.23.29.51.52.84.67.33.15.7.23 1.11.23.39 0 .71-.05.96-.14.25-.09.46-.2.63-.31.17-.11.31-.22.42-.31.11-.09.22-.14.33-.14.13 0 .24.05.31.15l.45.59c-.2.25-.42.46-.67.63-.25.18-.52.32-.81.44-.29.12-.6.2-.92.26-.31.06-.64.08-.97.08-.57 0-1.1-.1-1.58-.31-.49-.21-.91-.51-1.27-.91s-.64-.89-.85-1.47c-.2-.58-.3-1.24-.3-1.99 0-.67.09-1.3.28-1.88.19-.57.47-1.07.83-1.49.36-.41.81-.74 1.34-.97s1.14-.35 1.83-.35c.64 0 1.21.1 1.7.31.49.2.92.5 1.3.87l-.42.58zm3.86-5.76v7.802h.42c.12 0 .22-.016.3-.05.08-.033.17-.1.26-.202l2.88-3.087c.09-.102.17-.18.27-.24.09-.056.22-.084.37-.084h1.45l-3.35 3.57c-.16.205-.34.364-.52.478.11.07.21.153.3.246s.17.2.25.32l3.56 4.5h-1.43c-.14 0-.25-.023-.35-.07-.1-.044-.18-.126-.26-.246l-2.99-3.735c-.09-.127-.18-.21-.27-.25-.08-.04-.22-.057-.4-.057h-.46V86h-1.61V72.743h1.61zm7.27 12.265c0-.15.03-.3.09-.44s.13-.26.23-.36c.1-.1.22-.18.36-.24.14-.06.29-.09.44-.09.16 0 .3.03.44.09s.26.14.36.25c.1.1.19.22.25.36.06.14.09.29.09.44 0 .16-.03.31-.09.45s-.14.257-.24.36c-.1.1-.22.18-.36.24-.14.053-.28.08-.44.08-.15 0-.3-.03-.44-.09s-.26-.136-.35-.24c-.1-.1-.17-.22-.23-.354-.06-.136-.08-.284-.08-.446zm18.56-1.67c.1 0 .18.04.26.12l.69.75c-.53.61-1.17 1.09-1.92 1.43-.75.35-1.66.52-2.73.52-.92 0-1.76-.16-2.52-.48-.75-.32-1.4-.77-1.93-1.35-.53-.58-.95-1.27-1.24-2.08-.29-.81-.44-1.702-.44-2.674s.16-1.86.46-2.67c.31-.81.74-1.506 1.3-2.09.56-.58 1.22-1.03 2-1.353.78-.32 1.63-.48 2.57-.48.92 0 1.73.147 2.43.44.71.295 1.32.694 1.86 1.198l-.57.8c-.03.06-.08.11-.14.15-.05.04-.13.06-.23.06s-.24-.05-.39-.17c-.16-.11-.36-.24-.61-.39-.25-.14-.57-.27-.95-.39-.38-.11-.84-.17-1.39-.17-.66 0-1.27.11-1.82.35-.55.23-1.03.57-1.43 1.01-.4.44-.71.97-.93 1.6-.22.63-.33 1.34-.33 2.13 0 .81.12 1.52.35 2.15.23.63.54 1.17.94 1.6.4.44.87.77 1.42 1 .54.23 1.13.34 1.76.34.38 0 .73-.02 1.04-.06.31-.04.59-.11.86-.21.26-.09.51-.22.73-.36.23-.15.45-.32.67-.53.1-.09.21-.13.31-.13zm4.21-5.23c.39-.41.83-.74 1.3-.99s1.02-.37 1.64-.37c.5 0 .94.09 1.32.25.38.17.7.4.95.71.26.304.45.668.58 1.094.13.427.2.898.2 1.414V86h-1.61v-5.805c0-.69-.15-1.225-.47-1.606-.31-.39-.79-.58-1.43-.58-.47 0-.91.11-1.33.34-.41.22-.79.53-1.14.92V86h-1.61V72.743h1.61v5.355zm14.54 2.35c0-.37-.05-.71-.15-1.02-.1-.31-.26-.57-.46-.8-.2-.22-.44-.4-.73-.52s-.61-.18-.98-.18c-.77 0-1.37.227-1.82.67-.45.45-.72 1.07-.83 1.86h4.99zm1.3 4.28c-.2.24-.43.45-.71.628-.27.176-.57.32-.88.435-.32.115-.64.2-.98.257-.33.06-.67.086-1 .086-.63 0-1.21-.103-1.74-.32-.53-.21-.99-.52-1.38-.933-.39-.41-.69-.92-.9-1.527-.21-.607-.32-1.303-.32-2.09 0-.635.1-1.23.3-1.78.2-.553.48-1.03.84-1.437.37-.41.82-.73 1.34-.96.53-.23 1.13-.35 1.79-.35.55 0 1.05.09 1.52.27.47.19.87.45 1.21.79.34.34.61.77.8 1.28.19.51.29 1.08.29 1.73 0 .25-.03.42-.08.5-.05.08-.16.12-.31.12h-6.09c.02.57.1 1.07.24 1.5.14.42.34.78.59 1.06.26.28.56.49.9.64.35.14.74.21 1.17.21.41 0 .75-.05 1.04-.14.29-.09.54-.19.75-.3.21-.11.39-.21.53-.3.14-.1.27-.14.37-.14.14 0 .24.05.31.15l.45.58zm8.45-6.22c-.04.07-.09.12-.14.157-.05.036-.11.054-.2.054-.09 0-.19-.03-.3-.11-.1-.07-.24-.16-.4-.25-.16-.09-.35-.17-.58-.25-.23-.07-.51-.11-.85-.11-.45 0-.84.08-1.19.24-.34.16-.62.39-.86.69-.23.3-.4.66-.52 1.09-.12.43-.17.91-.17 1.43 0 .56.06 1.05.19 1.48.13.43.3.79.54 1.08.23.29.51.51.84.66.32.16.69.23 1.1.23.39 0 .71-.04.96-.14.25-.09.46-.19.62-.31.17-.11.3-.22.41-.31.11-.09.22-.14.33-.14.13 0 .24.05.31.15l.45.59c-.19.25-.42.46-.67.63-.25.18-.52.32-.81.44-.29.12-.59.2-.91.26-.32.06-.64.08-.97.08-.57 0-1.1-.1-1.59-.31s-.91-.51-1.27-.91-.64-.89-.84-1.47c-.2-.58-.3-1.25-.3-1.99 0-.68.1-1.31.29-1.88.19-.58.46-1.07.83-1.49.36-.42.81-.74 1.34-.98.53-.23 1.14-.35 1.83-.35.64 0 1.2.1 1.69.31s.92.5 1.3.88l-.42.57zm3.86-5.76v7.807h.42c.12 0 .22-.016.31-.05.08-.033.17-.1.26-.202l2.88-3.084c.08-.1.17-.18.26-.24.09-.05.22-.08.37-.08h1.45l-3.36 3.57c-.16.21-.33.37-.52.48.11.07.21.15.29.25s.17.2.25.32l3.56 4.5h-1.43c-.14 0-.25-.02-.35-.07-.1-.04-.18-.13-.25-.25l-2.99-3.73c-.09-.13-.18-.21-.27-.25-.09-.04-.22-.06-.4-.06h-.46V86h-1.61V72.743h1.61zm13.84 4.14V86h-1.6v-9.117h1.6zm.35-2.86c0 .158-.03.3-.09.438-.06.134-.15.253-.25.36-.1.104-.22.186-.37.246-.14.06-.29.09-.44.09-.15 0-.3-.03-.43-.09s-.25-.14-.35-.246c-.1-.11-.18-.228-.24-.36-.06-.14-.09-.28-.09-.44 0-.156.03-.304.09-.446.06-.14.14-.263.25-.37.1-.104.22-.186.35-.246.13-.06.28-.09.44-.09.16 0 .31.03.45.09s.26.14.37.246c.11.105.19.23.25.37.07.14.1.29.1.444zM243 86.165c-.72 0-1.274-.2-1.66-.602-.39-.4-.58-.98-.58-1.734v-5.58h-1.1c-.096 0-.18-.03-.243-.09s-.1-.15-.1-.27v-.64l1.497-.19.37-2.82c.016-.09.06-.17.12-.22.063-.06.145-.09.25-.09h.81v3.14H245v1.16h-2.636v5.47c0 .38.09.67.28.85.182.18.422.28.72.28.164 0 .31-.02.433-.07s.23-.1.32-.15c.09-.06.166-.1.23-.15.062-.05.12-.07.165-.07.083 0 .16.05.224.15l.47.76c-.278.26-.61.46-1 .61-.39.15-.79.22-1.207.22zm12.1-9.405c.662 0 1.262.11 1.8.34.53.22.99.54 1.364.95.38.41.668.9.87 1.48.2.58.3 1.23.3 1.94 0 .72-.1 1.37-.3 1.95-.202.58-.49 1.07-.87 1.48-.377.41-.833.72-1.367.94-.536.22-1.136.33-1.8.33-.67 0-1.28-.11-1.816-.33-.54-.22-.99-.53-1.37-.94-.37-.41-.66-.9-.87-1.478-.2-.58-.3-1.226-.3-1.946 0-.712.1-1.36.31-1.94.2-.58.49-1.07.87-1.48.38-.41.84-.72 1.37-.943.54-.22 1.15-.33 1.82-.33zm0 8.14c.9 0 1.57-.3 2.012-.9.444-.6.666-1.44.666-2.52s-.225-1.93-.67-2.53c-.444-.6-1.116-.91-2.016-.91-.457 0-.854.08-1.19.24-.34.154-.62.38-.848.673-.23.29-.4.655-.51 1.08-.113.43-.17.917-.17 1.457 0 1.08.225 1.92.67 2.522.45.6 1.13.902 2.04.902zm13.86-7.99V86H268c-.23 0-.37-.11-.43-.333l-.125-.98c-.4.437-.84.79-1.336 1.056-.49.268-1.06.4-1.69.4-.5 0-.94-.08-1.32-.247-.39-.165-.7-.397-.96-.697-.26-.3-.45-.67-.58-1.09-.13-.43-.2-.9-.2-1.42v-5.81h1.6v5.81c0 .69.16 1.22.47 1.6.31.37.79.56 1.44.56.47 0 .91-.11 1.32-.34.41-.23.79-.54 1.14-.93v-6.71h1.6zm5.333 9.26c-.72 0-1.273-.2-1.66-.6-.39-.4-.58-.98-.58-1.74v-5.58h-1.1c-.095 0-.176-.02-.24-.08-.07-.06-.1-.14-.1-.26v-.64l1.493-.19.37-2.81c.012-.09.053-.16.12-.22.06-.06.14-.08.243-.08h.81v3.14h2.64v1.16h-2.64v5.472c0 .388.09.67.28.86.18.184.42.28.72.28.17 0 .31-.025.43-.07.12-.046.23-.095.32-.15.09-.055.16-.104.23-.15.06-.045.12-.067.16-.067.08 0 .16.05.22.153l.47.764c-.28.252-.61.46-1 .6-.39.15-.79.22-1.21.22zm5.58-13.04v5.15c0 .27-.006.54-.02.79l-.045.78s-.04.53-.066.8c-.025.28-.06.57-.093.88h-1.08c-.04-.31-.07-.6-.1-.88-.03-.27-.05-.54-.07-.8-.02-.26-.04-.52-.05-.78-.02-.25-.02-.52-.02-.79V73.1h1.53zm-1.917 11.91c0-.15.03-.3.08-.44.055-.14.134-.26.236-.36.1-.1.22-.18.355-.24.137-.06.285-.09.447-.09.15 0 .3.03.435.09s.25.14.35.25c.1.1.18.22.24.36.06.14.09.288.09.44 0 .16-.03.31-.09.45s-.14.257-.25.36c-.1.1-.22.18-.36.24-.14.055-.28.083-.44.083-.17 0-.31-.03-.45-.085-.14-.06-.26-.14-.36-.24-.1-.1-.18-.22-.24-.357-.06-.13-.09-.28-.09-.44z" fill="#2C2D30"/><path d="M129.982 34.556V35h-4.38v-.444h1.95v-6.888c0-.136.006-.28.018-.432l-1.872 1.662c-.056.048-.112.066-.168.054-.056-.012-.1-.036-.132-.072l-.174-.24 2.454-2.166h.45v8.082h1.854zm7.5-3.804c0 .744-.08 1.388-.24 1.932-.16.544-.378.994-.654 1.35-.276.356-.6.62-.97.795-.37.17-.764.26-1.184.26-.42 0-.814-.09-1.182-.26-.368-.18-.69-.44-.966-.8-.276-.36-.493-.81-.65-1.35-.16-.55-.238-1.19-.238-1.93s.08-1.39.237-1.93c.158-.55.375-1 .65-1.35.277-.36.6-.62.967-.8.368-.18.762-.26 1.182-.26.42 0 .815.08 1.185.26.37.17.69.44.96.79.27.35.49.8.65 1.35.16.54.24 1.18.24 1.93zm-.6 0c0-.688-.066-1.276-.198-1.764s-.31-.887-.53-1.197c-.223-.31-.483-.53-.78-.68-.3-.14-.612-.21-.94-.21-.328 0-.64.07-.936.22-.296.15-.556.37-.78.68-.224.31-.402.71-.534 1.2s-.198 1.08-.198 1.77.066 1.28.198 1.77.31.89.534 1.2c.224.31.484.54.78.68.296.15.608.22.936.22.328 0 .64-.07.94-.21.297-.14.557-.37.78-.68.22-.31.398-.71.53-1.19s.198-1.08.198-1.77zm1.92 3.786c0-.076.014-.148.042-.216.028-.068.067-.127.117-.177.05-.05.11-.09.18-.12.07-.03.14-.045.22-.045.08 0 .15.015.22.045s.13.07.18.12c.05.05.09.11.12.177.03.068.05.14.05.216 0 .08-.01.153-.04.22-.03.065-.07.123-.12.173-.05.05-.11.09-.17.12-.06.03-.14.04-.21.04-.15 0-.29-.05-.39-.16-.1-.1-.16-.23-.16-.39zm0-4.782c0-.076.014-.148.042-.216.028-.068.067-.127.117-.177.05-.05.11-.09.18-.12.07-.03.14-.045.22-.045.08 0 .15.015.22.045s.13.07.18.12c.05.05.09.11.12.177.03.068.05.14.05.216 0 .08-.01.153-.04.22-.03.065-.07.123-.12.173-.05.05-.11.08-.17.11-.06.03-.14.04-.21.04-.15 0-.29-.06-.39-.16-.1-.11-.16-.24-.16-.39zm6.516 2.352v-4.446c0-.068.003-.142.01-.222.005-.08.012-.162.02-.246l-3.672 4.914h3.642zm2.058 0v.312c0 .044-.013.08-.04.105-.025.026-.066.04-.122.04h-1.392V35h-.504v-2.436h-4.014c-.06 0-.106-.013-.138-.04-.032-.025-.054-.06-.066-.104l-.054-.282 4.266-5.64h.51v5.61h1.554zm6.348 2.352c.064 0 .114.02.15.057.036.038.054.087.054.147V35h-5.478v-.204c0-.044.01-.09.033-.135.022-.04.05-.08.087-.11l2.898-2.93c.24-.24.462-.48.666-.7.204-.23.38-.46.53-.69.15-.23.268-.47.352-.71.084-.24.126-.5.126-.78 0-.31-.052-.58-.156-.81-.104-.23-.242-.42-.414-.56-.172-.15-.372-.26-.6-.33-.228-.07-.464-.11-.708-.11-.268 0-.515.04-.74.12-.227.08-.427.2-.6.34-.175.15-.32.32-.433.52-.11.21-.19.43-.23.67-.03.09-.06.15-.11.18-.04.03-.11.04-.19.03l-.29-.05c.06-.36.16-.69.3-.97.15-.28.34-.52.57-.72.23-.2.49-.34.79-.45.3-.1.63-.15.97-.15.33 0 .64.05.93.14.3.1.56.24.78.43.23.19.41.43.54.72s.2.62.2 1.01c0 .32-.05.62-.14.89-.09.28-.23.54-.4.79-.16.25-.36.5-.58.74-.22.24-.45.48-.7.73l-2.65 2.71c.13-.03.26-.05.4-.07.14-.02.28-.02.42-.02h3.67zm9.69-2.544l-1.728-4.29c-.06-.14-.118-.308-.174-.504-.024.096-.05.187-.078.273-.028.086-.058.165-.09.237l-1.728 4.284h3.798zM165.292 35h-.474c-.056 0-.102-.015-.138-.045-.036-.03-.064-.07-.084-.117l-.996-2.466h-4.17l-.996 2.466c-.016.044-.044.082-.084.114-.04.032-.088.048-.144.048h-.468l3.474-8.49h.606l3.474 8.49zm9.798-8.49V35h-.534v-7.236c0-.104.006-.214.018-.33l-3.342 5.934c-.056.104-.136.156-.24.156h-.096c-.104 0-.184-.052-.24-.156l-3.432-5.946c.012.12.018.234.018.342V35h-.54v-8.49h.426c.056 0 .1.006.132.018.032.012.064.044.096.096l3.426 5.904c.06.112.112.232.156.36.024-.064.05-.127.078-.19.028-.06.058-.12.09-.176l3.33-5.898c.032-.052.065-.084.1-.096.033-.012.078-.018.134-.018h.42z" fill="#9E9EA6"/><g transform="translate(302 42)"><rect stroke="#E1E1E8" fill="#F7F7F9" width="68" height="22" rx="3"/><path d="M6.434 16.312H5.22l6.553-10.924h1.176L6.43 16.312zm8.9-6.063c.38-.62.833-1.09 1.36-1.41.527-.32 1.012-.47 1.454-.47.62 0 1.178.26 1.674.8s.744 1.34.744 2.43c0 .86-.165 1.62-.495 2.3-.33.67-.76 1.21-1.31 1.6-.55.39-1.23.58-2.04.58-.23 0-.58-.03-1.06-.08-.07-.01-.18-.02-.32-.04H14.1V5.28h1.234v4.966zm0 1.46v3.18c.446.11.858.17 1.234.17.748 0 1.378-.3 1.89-.88.51-.59.766-1.39.766-2.41 0-.74-.14-1.3-.418-1.67-.28-.37-.596-.56-.95-.56-.385 0-.81.19-1.27.58-.464.39-.88.91-1.253 1.57zm13.12-3.14V16H27.22v-1.627c-.4.61-.842 1.07-1.33 1.375-.486.305-.973.458-1.46.458-.433 0-.83-.116-1.192-.35-.36-.23-.612-.537-.753-.915-.142-.37-.213-1.11-.213-2.21V8.58h1.235v4.297c0 .71.035 1.18.103 1.41.07.225.195.412.38.56.183.144.38.22.593.22.434 0 .9-.207 1.398-.617.5-.41.92-.926 1.24-1.55V8.58h1.24zm7.013 5.75c-.376.62-.83 1.09-1.358 1.4-.53.31-1.02.47-1.46.47-.62 0-1.18-.27-1.67-.81-.5-.54-.74-1.35-.74-2.44 0-.86.16-1.63.49-2.3.33-.68.76-1.21 1.31-1.6.55-.4 1.23-.59 2.04-.59.23 0 .59.02 1.06.07.07 0 .18.02.32.03h1.24v5.25c0 1.25-.02 2.01-.05 2.28-.04.27-.09.55-.17.84-.18.66-.58 1.18-1.21 1.56-.63.38-1.4.57-2.29.57-.9 0-1.81-.23-2.73-.69v-1.25c.35.24.78.45 1.29.63s1 .28 1.48.28c.37 0 .73-.06 1.07-.18.33-.12.61-.3.81-.52.2-.23.35-.49.42-.79.08-.3.11-.7.11-1.19V14.3zm0-1.47V9.68c-.438-.115-.845-.173-1.222-.173-.76 0-1.395.297-1.902.885-.507.59-.76 1.39-.76 2.404 0 .732.138 1.29.414 1.66.277.376.593.56.947.56.385 0 .81-.192 1.275-.582.46-.39.88-.916 1.24-1.575zm4.35-2.62c.38-.62.834-1.09 1.36-1.4.528-.32 1.013-.47 1.455-.47.62 0 1.178.26 1.674.8s.744 1.35.744 2.44c0 .86-.165 1.62-.495 2.3-.33.67-.77 1.21-1.318 1.6-.55.39-1.23.58-2.04.58-.23 0-.583-.03-1.06-.08-.072-.01-.18-.02-.32-.04h-1.235V5.28h1.235v4.967zm0 1.46v3.18c.447.12.86.17 1.235.17.748 0 1.378-.3 1.89-.88.51-.59.766-1.39.766-2.41 0-.74-.14-1.3-.418-1.67-.28-.37-.596-.56-.95-.56-.385 0-.81.19-1.27.58-.464.39-.88.91-1.253 1.57zm10.073 4.5c-1.06 0-1.91-.37-2.55-1.12-.632-.74-.95-1.68-.95-2.81 0-1.13.32-2.07.956-2.8.638-.74 1.488-1.11 2.55-1.11 1.06 0 1.906.37 2.544 1.11.636.74.955 1.67.955 2.8s-.32 2.06-.956 2.8c-.64.74-1.49 1.11-2.55 1.11zm0-1.03c.66 0 1.19-.26 1.58-.77.39-.52.584-1.22.584-2.12 0-.9-.195-1.6-.585-2.11-.39-.52-.92-.77-1.58-.77s-1.19.25-1.58.77c-.39.51-.59 1.21-.59 2.11 0 .9.19 1.6.58 2.12.39.51.92.77 1.58.77zm11.31.52c-.58.24-1 .39-1.26.43-.26.04-.51.07-.754.07-.517 0-.99-.1-1.42-.3-.43-.2-.754-.5-.973-.89-.22-.39-.33-.99-.33-1.81V10.2H54.61v-1h1.853V6.212H57.7V9.2H61v1.03h-3.3v2.968c0 .597.07 1.02.212 1.265.14.245.33.426.567.54.23.116.51.174.84.174.59 0 1.22-.19 1.88-.565v1.09z" fill="#C25"/></g><path d="M121.495 52.602c-.234-.054-.492-.08-.774-.08-.45 0-.86.093-1.23.282-.37.19-.7.437-.97.743s-.48.657-.63 1.053c-.15.396-.23.8-.23 1.215 0 .432.1.778.3 1.04.2.26.49.39.88.39.19 0 .38-.03.57-.09.19-.06.37-.164.55-.314.18-.15.34-.35.49-.61.15-.26.28-.58.38-.97l.68-2.65zm.558 2.51c-.12.457-.177.827-.17 1.112.005.286.052.51.14.67.086.163.207.272.363.33.156.057.327.085.513.085.29 0 .57-.09.83-.26s.49-.41.69-.71c.2-.31.36-.68.47-1.11.11-.43.17-.91.17-1.43 0-.83-.14-1.56-.4-2.18-.27-.63-.63-1.15-1.1-1.57-.47-.42-1.02-.73-1.65-.94-.64-.21-1.32-.31-2.05-.31-.81 0-1.56.15-2.26.45-.7.3-1.32.73-1.84 1.27s-.93 1.18-1.24 1.91c-.31.74-.46 1.54-.46 2.41 0 1.02.16 1.91.48 2.68.32.77.76 1.42 1.31 1.94.56.52 1.21.91 1.96 1.18.75.26 1.55.39 2.41.39.91 0 1.72-.1 2.42-.3.7-.2 1.3-.45 1.81-.76.12-.08.22-.1.31-.07.09.02.15.09.2.2l.23.59c-.65.43-1.38.77-2.2 1.02-.82.25-1.75.37-2.78.37-1.05 0-2.02-.17-2.91-.5-.9-.33-1.67-.81-2.33-1.43-.66-.63-1.17-1.39-1.55-2.29-.38-.9-.57-1.92-.57-3.06 0-.65.08-1.28.24-1.89.16-.6.4-1.17.7-1.69.3-.53.66-1.01 1.08-1.44.42-.44.89-.81 1.4-1.12.51-.31 1.07-.55 1.67-.72.59-.17 1.22-.26 1.86-.26.55 0 1.09.06 1.62.18s1.03.29 1.5.53c.47.23.9.52 1.3.87.39.34.73.74 1.02 1.19.29.45.51.94.67 1.49.16.55.24 1.15.24 1.79 0 .65-.09 1.25-.28 1.8-.19.55-.44 1.02-.76 1.42-.32.4-.7.72-1.14.95-.44.23-.91.34-1.41.34-.46 0-.83-.11-1.13-.34-.3-.23-.49-.57-.57-1.04-.35.48-.72.83-1.13 1.04-.41.21-.85.312-1.33.312-.36 0-.67-.06-.93-.18-.27-.12-.49-.29-.66-.51-.18-.22-.31-.48-.39-.78-.09-.3-.13-.626-.13-.97 0-.51.09-1.028.29-1.547.19-.52.48-.99.87-1.4.38-.42.86-.76 1.43-1.027.57-.26 1.23-.39 1.98-.39.4 0 .75.03 1.06.1.3.06.59.15.86.27l-.85 3.25zm12.618-2.61c-.04.067-.09.118-.14.154-.05.036-.11.054-.2.054-.09 0-.19-.037-.29-.113-.11-.075-.24-.157-.4-.247-.16-.09-.35-.172-.58-.248-.23-.075-.51-.112-.85-.112-.45 0-.84.08-1.19.238-.34.16-.63.39-.86.69-.23.3-.4.662-.52 1.088-.12.426-.17.903-.17 1.43 0 .553.07 1.043.19 1.472.13.43.31.79.54 1.08.23.292.51.513.84.666.33.154.7.23 1.11.23.39 0 .71-.046.97-.14.25-.093.46-.196.63-.31.17-.114.3-.217.42-.31.11-.094.22-.14.33-.14.13 0 .24.05.31.153l.45.585c-.2.246-.42.456-.67.63-.25.174-.52.32-.81.437-.29.11-.59.2-.91.25-.32.05-.64.08-.97.08-.57 0-1.1-.11-1.59-.32-.49-.21-.91-.52-1.27-.92s-.64-.89-.85-1.47c-.2-.59-.3-1.25-.3-1.99 0-.68.1-1.31.29-1.88.19-.58.47-1.08.83-1.49.36-.42.81-.75 1.34-.98.53-.24 1.14-.35 1.83-.35.64 0 1.2.1 1.69.31.49.2.92.5 1.3.87l-.42.57zm3.87-.404c.39-.414.82-.744 1.3-.99.48-.246 1.02-.37 1.64-.37.5 0 .94.083 1.32.25.38.164.7.397.96.7.26.304.45.668.58 1.094.13.426.2.897.2 1.413V60h-1.61v-5.805c0-.69-.15-1.225-.47-1.606-.31-.39-.79-.58-1.43-.58-.47 0-.91.11-1.33.34-.41.22-.79.53-1.13.92V60h-1.61V46.743h1.61v5.355zm13.38 3.798c-.74.024-1.36.082-1.88.175-.52.1-.94.22-1.27.37-.32.15-.56.33-.71.53-.14.21-.22.44-.22.69 0 .24.04.45.12.62.08.18.19.32.32.43.14.11.3.19.48.24.19.05.38.08.59.08.28 0 .54-.03.78-.08.24-.06.46-.14.66-.25.21-.11.41-.23.6-.38s.38-.32.56-.51v-1.9zm-5.17-3.726c.51-.486 1.05-.85 1.63-1.09.58-.24 1.23-.36 1.94-.36.51 0 .96.085 1.36.253.4.168.73.402 1 .702.27.3.48.663.61 1.09.14.425.21.893.21 1.403V60h-.71c-.15 0-.27-.025-.36-.077-.08-.05-.15-.15-.2-.3l-.18-.865c-.24.222-.47.418-.7.59-.23.17-.47.314-.72.43-.25.12-.52.208-.8.27-.28.065-.6.096-.95.096s-.68-.05-1-.15c-.31-.098-.58-.246-.81-.444-.23-.198-.41-.448-.55-.752-.13-.303-.2-.66-.2-1.075 0-.36.1-.706.3-1.04.2-.333.52-.628.97-.886.45-.258 1.03-.47 1.74-.635.72-.165 1.59-.26 2.63-.283v-.72c0-.71-.15-1.25-.46-1.61-.3-.37-.75-.55-1.34-.55-.4 0-.73.05-.99.15-.26.1-.49.21-.69.33-.19.12-.36.23-.5.33s-.28.15-.41.15c-.11 0-.2-.03-.28-.09-.08-.06-.15-.13-.2-.21l-.29-.51zm10.7.036c.2-.222.41-.423.63-.603.23-.18.46-.334.71-.463.25-.13.52-.228.8-.298.28-.07.58-.103.91-.103.5 0 .94.08 1.32.24.38.16.7.4.95.7.26.3.45.66.58 1.09.14.42.2.89.2 1.41V60h-1.61v-5.805c0-.69-.15-1.225-.47-1.606-.31-.39-.79-.58-1.43-.58-.47 0-.91.11-1.32.34-.41.22-.79.53-1.14.92V60h-1.61v-9.117h.97c.23 0 .37.11.42.333l.13.99zm10.05 0c.2-.222.41-.423.63-.603.22-.18.46-.334.71-.463.25-.13.51-.228.79-.298.28-.07.58-.103.91-.103.5 0 .94.08 1.32.24.38.16.7.4.95.7.26.3.45.66.58 1.09.13.42.2.89.2 1.41V60h-1.61v-5.805c0-.69-.15-1.225-.47-1.606-.31-.39-.79-.58-1.43-.58-.47 0-.91.11-1.33.34-.41.22-.79.53-1.13.92V60H166v-9.117h.96c.23 0 .37.11.422.333l.13.99zm14.64 2.24c0-.37-.05-.71-.15-1.02-.1-.31-.26-.576-.46-.802-.2-.225-.44-.398-.73-.522-.29-.123-.62-.184-.98-.184-.77 0-1.38.223-1.83.67-.45.448-.72 1.067-.83 1.86h4.99zm1.3 4.276c-.19.24-.43.448-.71.625-.27.178-.57.323-.88.437-.32.114-.64.2-.98.257-.33.06-.67.09-1 .09-.63 0-1.21-.1-1.74-.32-.53-.21-.99-.52-1.37-.93-.39-.41-.69-.92-.9-1.52-.22-.6-.32-1.3-.32-2.09 0-.63.1-1.23.3-1.78.19-.55.47-1.03.84-1.43.37-.4.81-.72 1.34-.95.53-.23 1.12-.34 1.78-.34.55 0 1.05.09 1.52.28.47.19.87.45 1.21.79.34.35.6.77.8 1.28.2.51.29 1.09.29 1.74 0 .25-.02.42-.08.5-.05.09-.15.13-.3.13h-6.1c.02.58.1 1.08.24 1.5.14.43.34.78.59 1.07.25.29.55.5.9.64s.74.21 1.17.21c.4 0 .75-.05 1.04-.14.3-.09.55-.19.76-.3.21-.11.38-.21.53-.3.14-.09.26-.14.36-.14.13 0 .234.05.31.15l.45.59zm3.77-11.98V60h-1.61V46.743h1.6z" fill="#2B80B9"/></g></svg>