<svg xmlns="http://www.w3.org/2000/svg" viewBox="0 0 354 354" version="1.1"><defs><rect x="0" y="0" width="17.1" height="17.4" rx="1.4"/><rect x="0" y="0" width="17.1" height="17.4" rx="1.4"/></defs><g stroke="none" stroke-width="1" fill="none" fill-rule="evenodd"><rect fill="#E7E7E7" x="0" y="0" width="354" height="354" rx="10"/><path d="M112 33L231 33 350 33 350 344C350 347.3 347.3 350 344 350L112 350 112 33Z" fill="#FFFFFF"/><circle fill="#ED5555" cx="18" cy="18" r="5"/><circle fill="#FFC600" cx="35" cy="18" r="5"/><circle fill="#38BD90" cx="52" cy="18" r="5"/><g transform="translate(5.000000, 33.000000)"><rect fill="#332732" x="0" y="0" width="36" height="317"/><rect fill="#4D394B" x="35.3" y="0" width="72" height="317"/><rect fill="#D8D8D8" x="45" y="12" width="49" height="4" rx="4"/><path d="M9 29C8.4 29 8 28.6 8 28L8 12C8 11.4 8.4 11 9 11L25 11C25.6 11 26 11.4 26 12L26 28C26 28.6 25.6 29 25 29L9 29Z" fill="#838B96"/><rect fill="#958893" x="45" y="24" width="40" height="2" rx="2"/><rect fill="#958893" x="45" y="32" width="30" height="2" rx="2"/><rect fill="#958893" x="45" y="40" width="24" height="2" rx="2"/><rect fill="#958893" x="45" y="48" width="34" height="2" rx="2"/><rect fill="#958893" x="45" y="56" width="24" height="2" rx="2"/><rect fill="#958893" x="45" y="94" width="40" height="2" rx="2"/><rect fill="#958893" x="45" y="102" width="20" height="2" rx="2"/><rect fill="#958893" x="45" y="110" width="30" height="2" rx="2"/><rect fill="#958893" x="45" y="118" width="23" height="2" rx="2"/></g><g transform="translate(122.000000, 326.000000)"><rect stroke="#DFDFDF" stroke-width="0.7" x="0" y="0" width="221" height="14" rx="2"/><path d="M13.5 0L13.5 13.8" stroke="#DFDFDF" stroke-width="0.7" stroke-linecap="square"/><g transform="translate(5.000000, 5.000000)" fill="#A6A6A6"><rect x="1.7" y="0" width="0.6" height="4" rx="2"/><rect x="0" y="1.7" width="4" height="0.6" rx="2"/></g></g><g transform="translate(121.000000, 204.000000)"><g transform="translate(21.904762, 13.750000)"><rect fill="#E3E4E6" x="0" y="0.2" width="1.9" height="95.8" rx="1.4"/><text font-family="Lato" font-size="7.1" font-weight="normal"><tspan x="7.6" y="7.9" fill="#2C2D30">Here's a list of the Github repos I can use:</tspan><tspan x="7.6" y="18.8" fill="#2B80B9">orgA/repo1</tspan><tspan x="7.6" y="29.7" fill="#2B80B9">orgA/repo2</tspan><tspan x="7.6" y="40.7" fill="#2B80B9">orgA/repo3</tspan><tspan x="7.6" y="51.6" fill="#2B80B9">orgA/repo4</tspan><tspan x="7.6" y="62.5" fill="#2B80B9">orgB/repo1</tspan><tspan x="43.8" y="62.5" fill="#2C2D30"/><tspan x="7.6" y="73.4" fill="#2C2D30"/><tspan x="7.6" y="84.3" fill="#2C2D30">To change to another repo just run this command:</tspan></text></g><text font-family="Lato" font-size="5.7" font-weight="260" fill="#9E9EA6"><tspan x="66.2" y="7.4">10:42 AM</tspan></text><g transform="translate(49.523810, 1.422414)"><rect fill="#F7F7F7" x="0" y="0" width="12.9" height="7.5"/><text font-family="Lato" font-size="4.8" font-weight="normal" fill="#A3A3A3"><tspan x="1.4" y="5.5">BOT</tspan></text></g><text font-family="Lato" font-size="7.1" font-weight="bold" fill="#2C2D30"><tspan x="21.4" y="7">Bugbot</tspan></text><mask fill="white"/><use fill="#000000"/><g mask="url(#mask-2)"><path d="M16.2 17.4L0.9 17.4C0.4 17.4 0 17 0 16.4L0 0.9C0 0.4 0.4 0 0.9 0L16.2 0C16.7 0 17.1 0.4 17.1 0.9L17.1 16.4C17.1 17 16.7 17.4 16.2 17.4L16.2 17.4Z" fill="#33FFB0"/><g transform="translate(4.472050, 1.699349)"><path d="M1.6 1.6L1.6 1 2.2 1 2.2 0 0.7 0 0.7 0.9 0.7 1.6C0.7 3.5 2.2 5 4.1 5L4.1 4.1C2.7 4.1 1.6 3 1.6 1.6L1.6 1.6Z" fill="#02CE1B"/><path d="M6 0L6 0.9 6.6 0.9 6.6 1.6C6.6 3 5.5 4.1 4.1 4.1L4.1 5C6 5 7.5 3.5 7.5 1.6L7.5 1 7.5 0 6 0 6 0Z" fill="#029925"/><path d="M4.1 4.1L3.4 4.6 3.3 6 3.5 6 3.5 7.1 5.4 7.1 5.4 6 5.9 6 5.9 4.5C5.3 4.4 4.7 4.3 4.1 4.1L4.1 4.1Z" fill="#303123"/><path d="M2.3 4.4L2.3 6 2.8 6 2.8 7.1 4.1 7.1 4.1 6 4.1 4.1 4.1 4.1C3.5 4.3 2.9 4.4 2.3 4.4L2.3 4.4Z" fill="#4D4D4D"/><path d="M1.2 9.2L1.2 9.2 1.2 10.2 0.2 10.2 0.2 10.9 1.2 10.9 1.7 10.9 1.9 10.9 1.9 9.8 3.5 9.8 3.5 9.2 1.9 9.2 1.2 9.2Z" fill="#333333"/><path d="M1.2 12L1.2 12 1.2 14 1.8 14 1.8 12.6 3.5 12.6 3.5 12 1.8 12 1.2 12Z" fill="#333333"/><path d="M1.2 8.8L1.2 8.8 1.2 9.8 0.2 9.8 0.2 10.4 1.2 10.4 1.7 10.4 1.9 10.4 1.9 9.4 3.5 9.4 3.5 8.8 1.9 8.8 1.2 8.8Z" fill="#4D4D4D"/><path d="M1.2 11.6L1.2 11.6 1.2 13.5 1.8 13.5 1.8 12.2 3.5 12.2 3.5 11.6 1.8 11.6 1.2 11.6Z" fill="#4D4D4D"/><path d="M1.2 8.1L1.2 8.1 1.2 7.1 0.1 7.1 0.1 6.4 1.2 6.4 1.7 6.4 1.9 6.4 1.9 7.5 3.5 7.5 3.5 8.1 1.9 8.1 1.2 8.1Z" fill="#333333"/><path d="M6.9 9.2L6.9 9.2 6.9 10.2 8 10.2 8 10.9 6.9 10.9 6.4 10.9 6.3 10.9 6.3 9.8 4.6 9.8 4.6 9.2 6.3 9.2 6.9 9.2Z" fill="#333333"/><path d="M6.9 12L6.9 12 6.9 14 6.3 14 6.3 12.6 4.6 12.6 4.6 12 6.3 12 6.9 12Z" fill="#333333"/><path d="M1.2 7.7L1.2 7.7 1.2 6.6 0.1 6.6 0.1 6 1.2 6 1.7 6 1.9 6 1.9 7 3.5 7 3.5 7.7 1.9 7.7 1.2 7.7Z" fill="#4D4D4D"/><path d="M7 8.1L7 8.1 7 7.1 8 7.1 8 6.4 7 6.4 6.5 6.4 6.3 6.4 6.3 7.5 4.7 7.5 4.7 8.1 6.3 8.1 7 8.1Z" fill="#333333"/><path d="M7 7.7L7 7.7 7 6.6 8 6.6 8 6 7 6 6.5 6 6.3 6 6.3 7 4.7 7 4.7 7.7 6.3 7.7 7 7.7Z" fill="#4D4D4D"/><path d="M6.9 8.8L6.9 8.8 6.9 9.8 8 9.8 8 10.4 6.9 10.4 6.4 10.4 6.3 10.4 6.3 9.4 4.6 9.4 4.6 8.8 6.3 8.8 6.9 8.8Z" fill="#4D4D4D"/><path d="M6.9 11.6L6.9 11.6 6.9 13.5 6.3 13.5 6.3 12.2 4.6 12.2 4.6 11.6 6.3 11.6 6.9 11.6Z" fill="#4D4D4D"/><path d="M4.8 7.4L4.9 7 3.4 7 3.7 7.4 1.9 7.4 1.9 11.3C1.9 12.4 2.8 13.3 3.9 13.3L4.3 13.3C5.4 13.3 6.3 12.4 6.3 11.3L6.3 7.4 4.8 7.4 4.8 7.4Z" fill="#303123"/><path d="M3.7 7L1.9 7 1.9 10.5C1.9 11.6 2.7 12.4 3.7 12.4L3.7 7 3.7 7Z" fill="#02CE1B"/><path d="M4.5 7L4.5 12.4C5.5 12.4 6.3 11.6 6.3 10.5L6.3 7 4.5 7 4.5 7Z" fill="#029925"/><ellipse fill="#FFFFFF" cx="2.8" cy="8" rx="0.5" ry="0.5"/></g></g><g transform="translate(29.523810, 100.618842)"><rect stroke="#E1E1E8" stroke-width="0.5" fill="#F7F7F9" x="0" y="0" width="89.5" height="9" rx="1.4"/><text font-family="Monaco" font-size="5.7" font-weight="normal" fill="#CC2255"><tspan x="1.9" y="6.9">/bugbot repo org/reponame</tspan></text></g></g><g transform="translate(121.000000, 44.000000)"><g transform="translate(21.857451, 10.883281)"><g transform="translate(0.000000, 54.416404)"><g transform="translate(8.077754, 25.552050)"><rect stroke="#E1E1E8" stroke-width="0.5" fill="#F7F7F9" x="0" y="0" width="89.3" height="9" rx="1.4"/><text font-family="Monaco" font-size="5.7" font-weight="normal" fill="#CC2255"><tspan x="1.9" y="6.9">/bugbot repo org/reponame</tspan></text></g><g transform="translate(8.077754, 13.722397)"><rect stroke="#E1E1E8" stroke-width="0.5" fill="#F7F7F9" x="0" y="0" width="45.1" height="9" rx="1.4"/><text font-family="Monaco" font-size="5.7" font-weight="normal" fill="#CC2255"><tspan x="1.9" y="6.9">/bugbot repo</tspan></text></g><g transform="translate(8.077754, 72.870662)"><rect stroke="#E1E1E8" stroke-width="0.5" fill="#F7F7F9" x="0" y="0" width="51.8" height="9" rx="1.4"/><text font-family="Monaco" font-size="5.7" font-weight="normal" fill="#CC2255"><tspan x="1.9" y="6.9">/bugbot logout</tspan></text></g><g transform="translate(8.077754, 61.041009)"><rect stroke="#E1E1E8" stroke-width="0.5" fill="#F7F7F9" x="0" y="0" width="45.1" height="9" rx="1.4"/><text font-family="Monaco" font-size="5.7" font-weight="normal" fill="#CC2255"><tspan x="1.9" y="6.9">/bugbot help</tspan></text></g><g transform="translate(8.077754, 49.211356)"><rect stroke="#E1E1E8" stroke-width="0.5" fill="#F7F7F9" x="0" y="0" width="51.8" height="9" rx="1.4"/><text font-family="Monaco" font-size="5.7" font-weight="normal" fill="#CC2255"><tspan x="1.9" y="6.9">/bugbot whoami</tspan></text></g><g transform="translate(8.077754, 37.381703)"><rect stroke="#E1E1E8" stroke-width="0.5" fill="#F7F7F9" x="0" y="0" width="48.5" height="9" rx="1.4"/><text font-family="Monaco" font-size="5.7" font-weight="normal" fill="#CC2255"><tspan x="1.9" y="6.9">/bugbot repos</tspan></text></g><text font-family="Lato" font-size="7.1" font-weight="normal" fill="#2C2D30"><tspan x="62.5" y="21.2"> ............................... display your current repo</tspan><tspan x="104.6" y="33.7"> .................... change your repo</tspan><tspan x="71.2" y="46.1">............................................... list your repos</tspan><tspan x="68" y="58.6"> ............................. display your Github user</tspan><tspan x="64.5" y="71.1"> .......................................... you're lookin' at it!</tspan><tspan x="68.7" y="83.5">............. revoke Bugbot's access to Github</tspan></text><text font-family="Lato" font-size="7.1" font-weight="bold" fill="#2C2D30"><tspan x="8.1" y="7.9">Configuring Bugbot</tspan></text><rect fill="#E3E4E6" x="0" y="0.2" width="1.9" height="84.2" rx="1.4"/></g><g transform="translate(0.000000, 13.249211)"><g transform="translate(8.077754, 24.605678)"><rect stroke="#E1E1E8" stroke-width="0.5" fill="#F7F7F9" x="0" y="0" width="51.8" height="9" rx="1.4"/><text font-family="Monaco" font-size="5.7" font-weight="normal" fill="#CC2255"><tspan x="1.9" y="6.9">/bugbot issues</tspan></text></g><g transform="translate(8.077754, 12.776025)"><rect stroke="#E1E1E8" stroke-width="0.5" fill="#F7F7F9" x="0" y="0" width="99.8" height="9" rx="1.4"/><text font-family="Monaco" font-size="5.7" font-weight="normal" fill="#CC2255"><tspan x="1.9" y="6.9">/bugbot add Your issue title</tspan></text></g><text font-family="Lato" font-size="7.1" font-weight="normal" fill="#2C2D30"><tspan x="115.8" y="19.8">................ submit new issue</tspan><tspan x="71.9" y="32.2" font-family="Helvetica Neue"/><tspan x="73.9" y="32.2">............................... show your open issues</tspan></text><text font-family="Lato" font-size="7.1" font-weight="bold" fill="#2C2D30"><tspan x="8.1" y="7">Adding + accessing your Github issues</tspan></text><rect fill="#2FA44F" x="0" y="0.7" width="1.9" height="35" rx="1.4"/></g><text font-family="Lato" font-size="7.1" font-weight="normal" fill="#2C2D30"><tspan x="0" y="7">I'm here to help!</tspan></text></g><text font-family="Lato" font-size="5.7" font-weight="260" fill="#9E9EA6"><tspan x="66" y="7.4">10:42 AM</tspan></text><g transform="translate(49.416847, 1.419558)"><rect fill="#F7F7F7" x="0" y="0" width="12.9" height="7.5"/><text font-family="Lato" font-size="4.8" font-weight="normal" fill="#A3A3A3"><tspan x="1.4" y="5.5">BOT</tspan></text></g><text font-family="Lato" font-size="7.1" font-weight="bold" fill="#2C2D30"><tspan x="21.4" y="7">Bugbot</tspan></text><mask fill="white"/><use fill="#000000"/><g mask="url(#mask-4)"><path d="M16.2 17.4L0.9 17.4C0.4 17.4 0 17 0 16.4L0 0.9C0 0.4 0.4 0 0.9 0L16.2 0C16.7 0 17.1 0.4 17.1 0.9L17.1 16.4C17.1 17 16.7 17.4 16.2 17.4L16.2 17.4Z" fill="#33FFB0"/><g transform="translate(4.472050, 1.699349)"><path d="M1.6 1.6L1.6 1 2.2 1 2.2 0 0.7 0 0.7 0.9 0.7 1.6C0.7 3.5 2.2 5 4.1 5L4.1 4.1C2.7 4.1 1.6 3 1.6 1.6L1.6 1.6Z" fill="#02CE1B"/><path d="M6 0L6 0.9 6.6 0.9 6.6 1.6C6.6 3 5.5 4.1 4.1 4.1L4.1 5C6 5 7.5 3.5 7.5 1.6L7.5 1 7.5 0 6 0 6 0Z" fill="#029925"/><path d="M4.1 4.1L3.4 4.6 3.3 6 3.5 6 3.5 7.1 5.4 7.1 5.4 6 5.9 6 5.9 4.5C5.3 4.4 4.7 4.3 4.1 4.1L4.1 4.1Z" fill="#303123"/><path d="M2.3 4.4L2.3 6 2.8 6 2.8 7.1 4.1 7.1 4.1 6 4.1 4.1 4.1 4.1C3.5 4.3 2.9 4.4 2.3 4.4L2.3 4.4Z" fill="#4D4D4D"/><path d="M1.2 9.2L1.2 9.2 1.2 10.2 0.2 10.2 0.2 10.9 1.2 10.9 1.7 10.9 1.9 10.9 1.9 9.8 3.5 9.8 3.5 9.2 1.9 9.2 1.2 9.2Z" fill="#333333"/><path d="M1.2 12L1.2 12 1.2 14 1.8 14 1.8 12.6 3.5 12.6 3.5 12 1.8 12 1.2 12Z" fill="#333333"/><path d="M1.2 8.8L1.2 8.8 1.2 9.8 0.2 9.8 0.2 10.4 1.2 10.4 1.7 10.4 1.9 10.4 1.9 9.4 3.5 9.4 3.5 8.8 1.9 8.8 1.2 8.8Z" fill="#4D4D4D"/><path d="M1.2 11.6L1.2 11.6 1.2 13.5 1.8 13.5 1.8 12.2 3.5 12.2 3.5 11.6 1.8 11.6 1.2 11.6Z" fill="#4D4D4D"/><path d="M1.2 8.1L1.2 8.1 1.2 7.1 0.1 7.1 0.1 6.4 1.2 6.4 1.7 6.4 1.9 6.4 1.9 7.5 3.5 7.5 3.5 8.1 1.9 8.1 1.2 8.1Z" fill="#333333"/><path d="M6.9 9.2L6.9 9.2 6.9 10.2 8 10.2 8 10.9 6.9 10.9 6.4 10.9 6.3 10.9 6.3 9.8 4.6 9.8 4.6 9.2 6.3 9.2 6.9 9.2Z" fill="#333333"/><path d="M6.9 12L6.9 12 6.9 14 6.3 14 6.3 12.6 4.6 12.6 4.6 12 6.3 12 6.9 12Z" fill="#333333"/><path d="M1.2 7.7L1.2 7.7 1.2 6.6 0.1 6.6 0.1 6 1.2 6 1.7 6 1.9 6 1.9 7 3.5 7 3.5 7.7 1.9 7.7 1.2 7.7Z" fill="#4D4D4D"/><path d="M7 8.1L7 8.1 7 7.1 8 7.1 8 6.4 7 6.4 6.5 6.4 6.3 6.4 6.3 7.5 4.7 7.5 4.7 8.1 6.3 8.1 7 8.1Z" fill="#333333"/><path d="M7 7.7L7 7.7 7 6.6 8 6.6 8 6 7 6 6.5 6 6.3 6 6.3 7 4.7 7 4.7 7.7 6.3 7.7 7 7.7Z" fill="#4D4D4D"/><path d="M6.9 8.8L6.9 8.8 6.9 9.8 8 9.8 8 10.4 6.9 10.4 6.4 10.4 6.3 10.4 6.3 9.4 4.6 9.4 4.6 8.8 6.3 8.8 6.9 8.8Z" fill="#4D4D4D"/><path d="M6.9 11.6L6.9 11.6 6.9 13.5 6.3 13.5 6.3 12.2 4.6 12.2 4.6 11.6 6.3 11.6 6.9 11.6Z" fill="#4D4D4D"/><path d="M4.8 7.4L4.9 7 3.4 7 3.7 7.4 1.9 7.4 1.9 11.3C1.9 12.4 2.8 13.3 3.9 13.3L4.3 13.3C5.4 13.3 6.3 12.4 6.3 11.3L6.3 7.4 4.8 7.4 4.8 7.4Z" fill="#303123"/><path d="M3.7 7L1.9 7 1.9 10.5C1.9 11.6 2.7 12.4 3.7 12.4L3.7 7 3.7 7Z" fill="#02CE1B"/><path d="M4.5 7L4.5 12.4C5.5 12.4 6.3 11.6 6.3 10.5L6.3 7 4.5 7 4.5 7Z" fill="#029925"/><ellipse fill="#FFFFFF" cx="2.8" cy="8" rx="0.5" ry="0.5"/></g></g></g></g></svg>